<svg width="33" height="32" viewBox="0 0 33 32" fill="none" xmlns="http://www.w3.org/2000/svg">
<g clip-path="url(#clip0_3297_6739)">
<path d="M10.5054 29.3011C10.409 29.3011 10.409 29.3011 10.3126 29.3011L2.89091 25.9276C2.69814 25.8312 2.60175 25.6384 2.60175 25.4457L2.69814 24.6746C2.79452 23.8071 2.69814 23.036 2.31259 22.2649L0.67404 18.6987C-0.19343 16.771 -0.19343 14.5541 0.67404 12.6264L4.52946 3.95168C4.81862 3.37337 5.39693 2.89144 5.97524 2.69867C6.64994 2.5059 7.32464 2.69867 7.80657 3.08421C8.57765 3.66253 8.9632 4.72277 8.57765 5.68662L6.36079 12.0481C6.9391 12.1445 7.51741 12.53 7.71018 13.1083L7.80657 13.3975L11.7584 21.9758C12.3367 23.036 12.4331 24.3854 12.0475 25.542L10.9873 28.9155C10.9873 29.0119 10.7945 29.2047 10.6981 29.2047C10.6018 29.3011 10.5054 29.3011 10.5054 29.3011ZM3.66199 25.1565L10.2162 28.1445L11.1801 25.0601C11.4692 24.0963 11.3728 23.1324 10.9873 22.2649L6.9391 13.3975C6.74633 13.0119 6.36079 12.8192 5.87886 13.0119C5.68609 13.1083 5.49332 13.0119 5.39693 12.9155C5.30055 12.8192 5.20416 12.53 5.30055 12.4336L7.80657 5.39747C7.99934 4.91554 7.80657 4.33723 7.32464 3.95168C6.9391 3.66253 6.55356 3.56614 6.16802 3.66253C5.87886 3.75891 5.5897 3.95168 5.39693 4.33723L1.54151 13.0119C0.770425 14.6505 0.866811 16.5782 1.54151 18.2167L3.18006 21.783C3.56561 22.7469 3.75838 23.7107 3.66199 24.771V25.1565Z" fill="white" stroke="white" stroke-width="0.5"/>
<path d="M11.2765 32.0004C11.1802 32.0004 11.1802 32.0004 11.0838 32.0004C10.7946 31.904 10.6982 31.6148 10.7946 31.3257L11.0838 30.4582C11.1802 30.0726 10.9874 29.5907 10.6018 29.3979L3.18016 26.0244C2.98739 25.9281 2.69823 25.9281 2.50546 26.0244C2.31269 26.1208 2.11992 26.3136 2.02353 26.5064L1.73437 27.3738C1.63799 27.663 1.34883 27.7594 1.05968 27.663C0.77052 27.5666 0.674134 27.2775 0.77052 26.9883L1.05968 26.1208C1.25245 25.6389 1.63799 25.2534 2.11992 25.0606C2.60184 24.8678 3.18016 24.8678 3.5657 25.0606L10.9874 28.4341C11.8549 28.8196 12.2404 29.7835 11.9512 30.651L11.6621 31.5184C11.7585 31.904 11.5657 32.0004 11.2765 32.0004Z" fill="white" stroke="white" stroke-width="0.5"/>
<path d="M7.13294 19.9514C6.94017 19.9514 6.74739 19.855 6.65101 19.6622L4.24137 14.5538C3.95221 13.9755 4.0486 13.2044 4.43414 12.7225L4.53053 12.6261L5.20523 12.1441C5.398 11.9514 5.78354 12.0478 5.87992 12.2405C6.0727 12.4333 5.97631 12.8188 5.78354 12.9152L5.10884 13.3972C4.91607 13.5899 4.91607 13.8791 5.01245 14.1682L7.61486 19.2767C7.71125 19.5658 7.61486 19.855 7.32571 19.9514C7.32571 19.9514 7.22932 19.9514 7.13294 19.9514Z" fill="white" stroke="white" stroke-width="0.5"/>
<path d="M21.6853 29.3019C21.5889 29.3019 21.5889 29.3019 21.4925 29.3019C21.2998 29.2055 21.2034 29.1091 21.2034 28.9164L20.0468 25.3501C19.6612 24.1935 19.7576 22.8441 20.3359 21.7838L24.3841 13.0128C24.6733 12.4344 25.1552 12.0489 25.7335 11.9525L23.5166 5.59108C23.2275 4.62722 23.5166 3.56698 24.2877 2.98867C24.866 2.60312 25.5407 2.50674 26.119 2.60312C26.7937 2.79589 27.2757 3.18144 27.5648 3.75975L31.4202 12.4344C32.2877 14.3622 32.2877 16.579 31.4202 18.5067L29.7817 22.073C29.3962 22.8441 29.2998 23.7116 29.3962 24.4826L29.4925 25.2537C29.4925 25.4465 29.3962 25.7357 29.2034 25.7357L21.7817 29.1091C21.7817 29.3019 21.6853 29.3019 21.6853 29.3019ZM26.0227 12.9164C25.7335 12.9164 25.4443 13.1091 25.2516 13.3983L25.1552 13.6875L21.2034 22.1694C20.7215 23.0369 20.7215 24.0971 21.0106 24.9646L21.9745 28.0489L28.5287 25.061L28.4323 24.579C28.3359 23.5188 28.4323 22.5549 28.9142 21.5911L30.5528 18.0248C31.3239 16.3863 31.3239 14.4585 30.5528 12.82L26.6974 4.14529C26.5046 3.85614 26.2154 3.56698 25.9263 3.47059C25.5407 3.37421 25.1552 3.47059 24.866 3.66336C24.3841 3.95252 24.2877 4.53083 24.3841 5.10915L26.8901 12.1453C26.9865 12.3381 26.8901 12.5308 26.7937 12.6272C26.6974 12.7236 26.4082 12.82 26.3118 12.7236C26.2154 12.9164 26.119 12.9164 26.0227 12.9164Z" fill="white" stroke="white" stroke-width="0.5"/>
<path d="M20.8162 32.0016C20.6234 32.0016 20.4307 31.9052 20.3343 31.6161L20.0451 30.7486C19.756 29.8811 20.1415 28.9173 21.009 28.5317L28.4307 25.1583C28.9126 24.9655 29.3945 24.9655 29.8765 25.1583C30.3584 25.351 30.7439 25.7366 30.9367 26.2185L31.2259 27.086C31.3222 27.3751 31.2258 27.6643 30.9367 27.7607C30.6475 27.857 30.3584 27.7607 30.262 27.4715L29.9728 26.604C29.8765 26.4113 29.6837 26.2185 29.4909 26.1221C29.2981 26.0257 29.009 26.0257 28.8162 26.1221L21.3945 29.4956C21.009 29.6884 20.8162 30.0739 20.9126 30.5558L21.2018 31.4233C21.2981 31.7125 21.1054 32.0016 20.9126 32.098C20.9126 32.0016 20.8162 32.0016 20.8162 32.0016Z" fill="white" stroke="white" stroke-width="0.5"/>
<path d="M24.9605 19.9514C24.8641 19.9514 24.8641 19.9514 24.7677 19.9514C24.4785 19.855 24.3821 19.5658 24.4785 19.2767L26.8882 14.1682C26.9846 13.8791 26.9846 13.6863 26.7918 13.3972L26.1171 12.9152C25.9243 12.7225 25.8279 12.4333 26.0207 12.2405C26.2135 12.0478 26.5026 11.9514 26.6954 12.1441L27.3701 12.6261L27.4665 12.7225C27.852 13.3008 27.9484 13.9755 27.6593 14.5538L25.2496 19.6622C25.346 19.855 25.1532 19.9514 24.9605 19.9514Z" fill="white" stroke="white" stroke-width="0.5"/>
<path d="M18.0223 21.6869C17.8295 21.6869 17.6367 21.5905 17.4439 21.4941L15.9982 20.4339L14.5524 21.4941C14.2632 21.6869 13.7813 21.6869 13.4921 21.4941C13.203 21.3014 13.0102 20.8194 13.203 20.4339L13.7813 18.699L12.3355 17.6387C12.0463 17.4459 11.8536 16.964 12.0463 16.5785C12.1427 16.1929 12.5283 15.9038 12.9138 15.9038H14.7451L15.3235 14.1688C15.4198 13.7833 15.8054 13.4941 16.1909 13.4941C16.5765 13.4941 16.962 13.7833 17.0584 14.1688L17.6367 15.9038H19.2753C19.6608 15.9038 20.0463 16.1929 20.1427 16.5785C20.2391 16.964 20.1427 17.3496 19.8536 17.6387L18.4078 18.699L18.9861 20.4339C19.0825 20.8194 18.9861 21.205 18.6969 21.4941C18.4078 21.5905 18.215 21.6869 18.0223 21.6869ZM16.0945 19.3737C16.2873 19.3737 16.4801 19.47 16.6729 19.5664L17.9259 20.5303L17.3476 18.9881C17.2512 18.6026 17.3475 18.217 17.6367 17.9279L18.8897 16.964H17.3476C16.962 16.964 16.5765 16.6749 16.4801 16.2893L15.9982 14.8435L15.6126 16.3857C15.5162 16.7712 15.1307 17.0604 14.7451 17.0604H13.203L14.456 18.0243C14.7451 18.217 14.9379 18.699 14.7451 19.0845L14.2632 20.5303L15.5162 19.5664C15.709 19.47 15.9018 19.3737 16.0945 19.3737Z" fill="white" stroke="white" stroke-width="0.5"/>
<path d="M12.5295 13.1084C12.2403 13.1084 12.0476 13.012 11.8548 12.9157C11.3729 12.6265 11.2765 12.0482 11.3729 11.5663L12.3367 8.48193C12.3367 8.38554 12.3367 8.28916 12.2403 8.28916L9.63792 6.36145C9.25238 5.9759 9.05961 5.49398 9.25238 4.91566C9.44515 4.43373 9.8307 4.04819 10.409 4.04819H13.6861C13.7825 4.04819 13.8789 3.95181 13.8789 3.95181L14.8427 0.86747C15.0355 0.289157 15.5174 0 16.0958 0C16.6741 0 17.0596 0.289157 17.2524 0.86747L18.2162 3.95181C18.2162 4.04819 18.3126 4.04819 18.409 4.04819H21.6861C22.2644 4.04819 22.65 4.33735 22.8427 4.91566C23.0355 5.39759 22.8427 5.9759 22.3608 6.26506L19.7584 8.19277C19.662 8.28916 19.662 8.28916 19.662 8.38554L20.6259 11.4699C20.8186 11.9518 20.6259 12.5301 20.1439 12.8193C19.662 13.1084 19.1801 13.1084 18.6982 12.8193L16.0958 10.8916C15.9994 10.7952 15.903 10.7952 15.903 10.8916L13.3006 12.8193C13.1078 13.1084 12.8186 13.1084 12.5295 13.1084ZM10.409 5.10843C10.3126 5.10843 10.2162 5.20482 10.2162 5.20482C10.2162 5.3012 10.2162 5.39759 10.3126 5.39759L12.915 7.3253C13.3006 7.61446 13.4933 8.19277 13.397 8.6747L12.4331 11.759C12.4331 11.8554 12.4331 11.9518 12.5295 11.9518C12.5295 11.9518 12.6259 12.0482 12.7223 11.9518L15.3247 10.0241C15.7102 9.73494 16.2885 9.73494 16.7705 10.0241L19.3729 11.9518C19.4692 12.0482 19.5656 11.9518 19.5656 11.9518C19.5656 11.9518 19.662 11.8554 19.662 11.759L18.6982 8.6747C18.5054 8.19277 18.6982 7.61446 19.1801 7.3253L21.7825 5.39759C21.8789 5.3012 21.8789 5.20482 21.8789 5.20482C21.8789 5.10843 21.7825 5.10843 21.6861 5.10843H18.409C17.8307 5.10843 17.4452 4.72289 17.2524 4.24096L16.2885 1.15663C16.2885 1.06024 16.1921 1.06024 16.0958 1.06024C15.9994 1.06024 15.903 1.06024 15.903 1.15663L14.9391 4.24096C14.7464 4.72289 14.2644 5.10843 13.7825 5.10843H10.409Z" fill="white" stroke="white" stroke-width="0.5"/>
<path d="M16.0962 29.4942C15.807 29.4942 15.6143 29.3014 15.6143 29.0123V24.0002C15.6143 23.8074 15.807 23.6147 15.9998 23.5183C16.1926 23.4219 16.4817 23.5183 16.5781 23.7111L17.542 25.1568C17.7347 25.3496 17.6384 25.7351 17.4456 25.8315C17.2528 26.0243 16.8673 25.9279 16.7709 25.7351L16.6745 25.6388V28.9159C16.5781 29.3014 16.289 29.4942 16.0962 29.4942Z" fill="white" stroke="white" stroke-width="0.5"/>
<path d="M16.0951 29.4935C15.8059 29.4935 15.6132 29.3007 15.6132 29.0116V25.7345L15.5168 25.8309C15.324 26.0236 15.0349 26.12 14.8421 25.9272C14.6493 25.7345 14.5529 25.4453 14.7457 25.2525L15.7096 23.8068C15.8059 23.614 16.0951 23.5176 16.2879 23.614C16.4806 23.7104 16.6734 23.9031 16.6734 24.0959V29.108C16.577 29.3007 16.2879 29.4935 16.0951 29.4935Z" fill="white" stroke="white" stroke-width="0.5"/>
</g>
<defs>
<clipPath id="clip0_3297_6739">
<rect width="32.0964" height="32" fill="white"/>
</clipPath>
</defs>
</svg>
