<svg width="32" height="32" viewBox="0 0 32 32" fill="none" xmlns="http://www.w3.org/2000/svg">
<path d="M16.8158 29.8858C13.4524 29.8858 10.185 28.6365 7.59039 26.0418C2.59329 20.9486 2.59329 12.6842 7.68649 7.68709C12.7797 2.59389 21.0441 2.59389 26.1373 7.68709C31.2305 12.7803 31.2305 21.0447 26.1373 26.1379C23.5427 28.6365 20.1793 29.8858 16.8158 29.8858ZM16.8158 4.90024C13.7407 4.90024 10.6655 6.05342 8.35918 8.35978C3.74647 12.9725 3.74647 20.5642 8.35918 25.2731C12.9719 29.8858 20.5636 29.8858 25.2725 25.2731C29.8852 20.6603 29.8852 13.0686 25.2725 8.35978C22.9661 6.05342 19.891 4.90024 16.8158 4.90024Z" fill="white"/>
<path d="M16.818 26.8118C14.3195 26.8118 11.7248 25.8509 9.80287 23.9289C7.8809 22.0069 6.91992 19.5084 6.91992 16.9137C6.91992 14.223 7.977 11.7244 9.80287 9.89857C13.6468 6.05464 19.9893 6.05464 23.8332 9.89857C27.6771 13.7425 27.6771 20.085 23.8332 23.9289C21.9112 25.8509 19.4127 26.8118 16.818 26.8118ZM16.818 7.97661C14.5117 7.97661 12.3014 8.84149 10.5717 10.5713C8.93798 12.2049 7.977 14.5113 7.977 16.8176C7.977 19.2201 8.93798 21.4303 10.5717 23.064C14.0312 26.5236 19.6049 26.5236 23.0644 23.064C26.5239 19.6045 26.5239 14.0308 23.0644 10.5713C21.4307 8.84149 19.1244 7.97661 16.818 7.97661Z" fill="white"/>
<path d="M16.8175 23.3525C15.0877 23.3525 13.454 22.6799 12.3009 21.4306C11.0516 20.1813 10.3789 18.5476 10.3789 16.914C10.3789 15.1842 11.0516 13.5505 12.3009 12.3974C14.7994 9.8988 18.9316 9.8988 21.4302 12.3974C22.6795 13.6466 23.3522 15.2803 23.3522 16.914C23.3522 18.6437 22.6795 20.2774 21.4302 21.4306C20.1809 22.6799 18.5472 23.3525 16.8175 23.3525ZM16.8175 11.5325C15.4721 11.5325 14.0306 12.013 12.9736 13.07C11.9165 14.1271 11.436 15.4725 11.436 16.914C11.436 18.3554 12.0126 19.7008 12.9736 20.7579C14.0306 21.815 15.376 22.2955 16.8175 22.2955C18.259 22.2955 19.6043 21.7189 20.6614 20.7579C21.7185 19.7008 22.199 18.3554 22.199 16.914C22.199 15.4725 21.6224 14.1271 20.6614 13.07C19.6043 12.013 18.259 11.5325 16.8175 11.5325Z" fill="white"/>
<path d="M16.8164 20.3718C15.8554 20.3718 14.9905 19.9874 14.3178 19.3147C13.6451 18.642 13.2607 17.7772 13.2607 16.8162C13.2607 15.8552 13.6451 14.9903 14.3178 14.3176C15.6632 12.9723 17.8735 12.9723 19.2188 14.3176C20.5642 15.663 20.5642 17.8733 19.2188 19.2186C18.6422 19.9874 17.7774 20.3718 16.8164 20.3718ZM16.8164 14.5098C16.2398 14.5098 15.5671 14.702 15.0866 15.1825C14.6061 15.663 14.4139 16.2396 14.4139 16.9123C14.4139 17.585 14.7022 18.1616 15.0866 18.642C15.5671 19.1225 16.1437 19.3147 16.8164 19.3147C17.4891 19.3147 18.0656 19.0264 18.5461 18.642C19.5071 17.6811 19.5071 16.1435 18.5461 15.2786C18.0656 14.702 17.4891 14.5098 16.8164 14.5098Z" fill="white"/>
<path d="M16.8169 17.3939C16.7208 17.3939 16.5286 17.2978 16.4325 17.2017L6.63048 7.30356C6.43828 7.11136 6.43828 6.72697 6.63048 6.53477C6.82267 6.34258 7.20706 6.34258 7.39926 6.53477L17.2974 16.4329C17.4896 16.6251 17.4896 17.0095 17.2974 17.2017C17.1052 17.3939 17.0091 17.3939 16.8169 17.3939Z" fill="white"/>
<path d="M17.5858 18.1634C17.4897 18.1634 17.2975 18.0673 17.2014 17.9712L15.8561 16.6259C15.6639 16.4337 15.6639 16.0493 15.8561 15.8571C16.0483 15.6649 16.4326 15.6649 16.6248 15.8571L16.5287 15.5688C16.4327 15.2805 16.6248 14.9922 16.9131 14.8961C17.2014 14.8 17.4897 14.9922 17.5858 15.2805L18.1624 17.4907C18.2585 17.6829 18.1624 17.9712 17.8741 18.0673C17.778 18.1634 17.6819 18.1634 17.5858 18.1634Z" fill="white"/>
<path d="M17.5878 18.1634H17.4917L15.2815 17.5868C14.9932 17.4907 14.801 17.2024 14.8971 16.9141C14.9932 16.6258 15.2815 16.4336 15.5698 16.5297L15.858 16.6258C15.6659 16.4336 15.6659 16.0492 15.858 15.857C16.0502 15.6648 16.4346 15.6648 16.6268 15.857L17.9722 17.2024C18.1644 17.3946 18.1644 17.6829 18.0683 17.8751C17.9722 18.0673 17.78 18.1634 17.5878 18.1634Z" fill="white"/>
<path d="M3.94002 7.59175C3.84393 7.59175 3.65173 7.49566 3.55563 7.39956L0.192196 4.03612C0 3.84393 0 3.65173 0 3.45953C0.0960981 3.26734 0.288294 3.17124 0.480491 3.07514L2.88294 2.88294L3.07514 0.480491C3.07514 0.288294 3.26734 0.0960981 3.45953 0C3.65173 0 3.84393 0 4.03612 0.192196L7.39956 3.55563C7.49566 3.65173 7.59175 3.84393 7.59175 3.94002L7.49566 7.01516C7.49566 7.30346 7.30346 7.49566 7.01516 7.49566L3.94002 7.59175ZM1.72977 4.13222L4.13222 6.53467L6.43858 6.43858L6.53467 4.13222L4.13222 1.72977L4.03612 3.45953C4.03612 3.74783 3.84393 3.94002 3.55563 3.94002L1.72977 4.13222Z" fill="white"/>
<path d="M16.8176 32.0002C12.7815 32.0002 8.9376 30.4626 6.15075 27.5797C0.384865 21.8138 0.192669 12.5884 5.67026 6.63027C5.76636 6.53417 5.95856 6.43807 6.05466 6.43807H6.43905V6.05368C6.43905 5.86148 6.53515 5.76539 6.63125 5.66929C12.5893 0.191693 21.8148 0.383889 27.5806 6.14978C30.4636 9.03272 32.0012 12.7806 32.0012 16.8167C32.0012 20.8528 30.4636 24.6967 27.5806 27.4836C24.6977 30.4626 20.9499 32.0002 16.8176 32.0002ZM6.34295 7.49515C1.34585 13.0688 1.63414 21.5255 6.91954 26.8109C9.61029 29.5016 13.0698 30.9431 16.9137 30.9431C20.7577 30.9431 24.2172 29.5016 26.908 26.8109C29.5987 24.1201 31.0402 20.6606 31.0402 16.8167C31.0402 13.0688 29.5987 9.51321 26.908 6.82246C21.5265 1.63316 13.0698 1.34487 7.49613 6.34197V7.01466C7.49613 7.30296 7.30393 7.49515 7.01564 7.49515H6.34295Z" fill="white"/>
</svg>
