<svg width="28" height="28" viewBox="0 0 28 28" fill="none" xmlns="http://www.w3.org/2000/svg">
<g clip-path="url(#clip0_3297_6717)">
<path d="M19.1793 17.938H17.7294C17.6489 17.938 17.5683 17.8575 17.4878 17.7769C17.4072 17.6964 17.4072 17.6158 17.4878 17.4547C17.5683 17.2936 17.6489 17.1325 17.6489 16.8909C17.6489 16.2465 17.085 15.6827 16.4406 15.6827C15.7963 15.6827 15.2324 16.2465 15.2324 16.8909C15.2324 17.052 15.313 17.2936 15.3935 17.4547C15.4741 17.5353 15.4741 17.6158 15.3935 17.7769C15.313 17.8575 15.2324 17.938 15.1519 17.938H13.702C13.5409 17.938 13.3799 17.7769 13.3799 17.6158V16.5687C13.2188 16.5687 13.1382 16.6492 12.9771 16.6492C12.0106 16.6492 11.2051 15.8438 11.2051 14.8772C11.2051 13.9106 12.0106 13.1052 12.9771 13.1052C13.1382 13.1052 13.2188 13.1052 13.3799 13.1857V12.1386C13.3799 11.9775 13.5409 11.8164 13.702 11.8164H19.2598C19.4209 11.8164 19.582 11.9775 19.582 12.1386V17.6964C19.5014 17.7769 19.3403 17.938 19.1793 17.938ZM18.1321 17.3742H18.9376V12.3802H13.9437V13.5884C13.9437 13.669 13.8631 13.7495 13.7826 13.8301C13.702 13.9106 13.6215 13.9106 13.4604 13.8301C13.2993 13.7495 13.1382 13.669 12.8966 13.669C12.2522 13.669 11.6884 14.2328 11.6884 14.8772C11.6884 15.5216 12.2522 16.0854 12.8966 16.0854C13.0577 16.0854 13.2993 16.0049 13.4604 15.9243C13.5409 15.8438 13.6215 15.8438 13.7826 15.9243C13.8631 16.0049 13.9437 16.0854 13.9437 16.166V17.3742H14.7492C14.7492 17.2131 14.6686 17.1325 14.6686 16.9714C14.6686 16.0049 15.4741 15.1994 16.4406 15.1994C17.4072 15.1994 18.2127 16.0049 18.2127 16.9714C18.2127 17.052 18.2127 17.2131 18.1321 17.3742Z" fill="white" stroke="white" stroke-width="0.5"/>
<path d="M13.7022 17.9375H8.14446C7.98336 17.9375 7.82227 17.7764 7.82227 17.6153V12.0575C7.82227 11.8964 7.98336 11.7353 8.14446 11.7353H9.19157C9.19157 11.5742 9.11102 11.4937 9.11102 11.3326C9.11102 10.366 9.91649 9.56055 10.8831 9.56055C11.8496 9.56055 12.6551 10.366 12.6551 11.3326C12.6551 11.4937 12.6551 11.5742 12.5746 11.7353H13.6217C13.7828 11.7353 13.9439 11.8964 13.9439 12.0575V13.5074C13.9439 13.5879 13.8633 13.6685 13.7828 13.749C13.7022 13.8295 13.6217 13.8295 13.4606 13.749C13.2995 13.6685 13.1384 13.5879 12.8967 13.5879C12.2524 13.5879 11.6885 14.1517 11.6885 14.7961C11.6885 15.4405 12.2524 16.0043 12.8967 16.0043C13.0578 16.0043 13.2995 15.9238 13.4606 15.8432C13.5411 15.7627 13.6217 15.7627 13.7828 15.8432C13.8633 15.9238 13.9439 16.0043 13.9439 16.0849V17.5347C13.9439 17.7764 13.8633 17.9375 13.7022 17.9375ZM8.3861 17.3736H13.38V16.5682C13.2189 16.5682 13.1384 16.6487 12.9773 16.6487C12.0107 16.6487 11.2053 15.8432 11.2053 14.8767C11.2053 13.9101 12.0107 13.1046 12.9773 13.1046C13.1384 13.1046 13.2189 13.1046 13.38 13.1852V12.3797H12.1718C12.0913 12.3797 12.0107 12.2992 11.9302 12.2186C11.8496 12.1381 11.8496 12.0575 11.9302 11.8964C12.0107 11.7353 12.0913 11.5742 12.0913 11.3326C12.0913 10.6882 11.5274 10.1244 10.8831 10.1244C10.2387 10.1244 9.67485 10.6882 9.67485 11.3326C9.67485 11.4937 9.7554 11.7353 9.83595 11.8964C9.91649 11.977 9.91649 12.0575 9.83595 12.2186C9.7554 12.2992 9.67485 12.3797 9.59431 12.3797H8.3861V17.3736Z" fill="white" stroke="white" stroke-width="0.5"/>
<path d="M15.6345 27.2011H11.7683C11.0433 27.2011 10.3989 26.5568 10.3989 25.8318V24.382C9.75457 24.2209 9.19074 23.9792 8.62691 23.6571L7.49925 24.6236C6.93542 25.1874 6.0494 25.1874 5.56612 24.6236L2.82751 21.885C2.26368 21.3212 2.26368 20.4352 2.82751 19.9519L3.87462 18.9048C3.55244 18.3409 3.31079 17.7771 3.1497 17.1327H1.6193C0.894378 17.1327 0.25 16.4883 0.25 15.7634V11.8972C0.25 11.1722 0.894378 10.5279 1.6193 10.5279H3.06915C3.23025 9.88348 3.47189 9.31965 3.79408 8.75582L2.82751 7.62816C2.26368 7.06432 2.26368 6.17831 2.82751 5.69502L5.56612 2.95642C6.12995 2.39259 7.01597 2.39259 7.49925 2.95642L8.54636 4.00353C9.11019 3.68134 9.67402 3.4397 10.3184 3.27861V1.74821C10.3184 1.02328 10.9628 0.378906 11.6877 0.378906H15.554C16.2789 0.378906 16.9233 1.02328 16.9233 1.74821V3.19806C17.5676 3.35915 18.1315 3.60079 18.6953 3.92298L19.7424 2.87587C20.3063 2.31204 21.1923 2.31204 21.6756 2.87587L24.4142 5.61448C24.978 6.17831 24.978 7.06432 24.4142 7.54761L23.367 8.59472C23.6892 9.15855 23.9309 9.72238 24.092 10.3668H25.5418C26.2667 10.3668 26.9111 11.0111 26.9111 11.7361V15.6023C26.9111 16.3273 26.2667 16.9716 25.5418 16.9716H24.092C23.9309 17.616 23.6892 18.1798 23.367 18.7437L24.4142 19.7908C24.978 20.3546 24.978 21.2406 24.4142 21.7239L21.6756 24.4625C21.1117 25.0264 20.2257 25.0264 19.7424 24.4625L18.7759 23.5765C18.212 23.8987 17.6482 24.1403 17.0038 24.3014V25.7513C17.0038 26.5568 16.3594 27.2011 15.6345 27.2011ZM8.46581 22.9321C8.54636 22.9321 8.54636 22.9321 8.62691 22.9321C9.27129 23.2543 9.99621 23.5765 10.7211 23.8181C10.8822 23.8181 10.9628 23.9792 10.9628 24.0598V25.7513C10.9628 26.2346 11.285 26.5568 11.7683 26.5568H15.6345C16.1178 26.5568 16.44 26.2346 16.44 25.7513V24.0598C16.44 23.8987 16.5205 23.8181 16.6816 23.8181C17.4066 23.5765 18.1315 23.3349 18.7759 22.9321C18.8564 22.8516 19.0175 22.8516 19.098 23.0127L20.3063 24.2209C20.6284 24.5431 21.1117 24.5431 21.4339 24.2209L24.1725 21.4823C24.3336 21.3212 24.4142 21.1601 24.4142 20.9184C24.4142 20.6768 24.3336 20.5157 24.1725 20.3546L22.9643 19.1464C22.8032 19.0659 22.8032 18.9048 22.8838 18.8242C23.206 18.1798 23.5281 17.4549 23.7698 16.73C23.7698 16.5689 23.9309 16.4883 24.0114 16.4883H25.7029C26.1862 16.4883 26.5084 16.1662 26.5084 15.6829V11.8166C26.5084 11.3333 26.1862 11.0111 25.7029 11.0111H24.0114C23.8503 11.0111 23.7698 10.9306 23.7698 10.7695C23.5281 10.0446 23.2865 9.31965 22.8838 8.67527C22.8032 8.67527 22.8032 8.51417 22.9643 8.43363L24.1725 7.22542C24.4947 6.90323 24.4947 6.41995 24.1725 6.09776L21.4339 3.35915C21.1117 3.03696 20.6284 3.03696 20.3063 3.35915L19.098 4.56736C19.0175 4.64791 18.8564 4.64791 18.7759 4.64791C18.1315 4.32572 17.4066 4.00353 16.6816 3.76189C16.5205 3.76189 16.44 3.60079 16.44 3.52025V1.74821C16.44 1.26493 16.1178 0.942737 15.6345 0.942737H11.7683C11.285 0.942737 10.9628 1.26493 10.9628 1.74821V3.4397C10.9628 3.60079 10.8822 3.68134 10.7211 3.68134C9.99621 3.92298 9.27129 4.16463 8.62691 4.56736C8.54636 4.64791 8.38527 4.64791 8.30472 4.48681L7.09651 3.35915C6.77432 3.03696 6.29104 3.03696 5.96885 3.35915L3.23025 6.09776C2.90806 6.41995 2.90806 6.90323 3.23025 7.22542L4.43845 8.43363C4.519 8.51417 4.519 8.67527 4.519 8.75582C4.19681 9.40019 3.87462 10.1251 3.63298 10.85C3.63298 11.0111 3.47189 11.0917 3.39134 11.0917H1.6193C1.13602 11.0917 0.81383 11.4139 0.81383 11.8972V15.7634C0.81383 16.2467 1.13602 16.5689 1.6193 16.5689H3.31079C3.47189 16.5689 3.55244 16.6494 3.55244 16.8105C3.79408 17.5355 4.03572 18.2604 4.43845 18.9048C4.519 18.9853 4.519 19.1464 4.35791 19.227L3.1497 20.4352C2.82751 20.7574 2.82751 21.2406 3.1497 21.5628L5.8883 24.3014C6.0494 24.4625 6.21049 24.5431 6.45213 24.5431C6.69378 24.5431 6.85487 24.4625 7.01596 24.3014L8.22417 23.0932C8.38527 23.0127 8.46581 22.9321 8.46581 22.9321Z" fill="white" stroke="white" stroke-width="0.5"/>
<path d="M13.6199 22.7711C13.0561 22.7711 12.5728 22.6905 12.0895 22.61C11.9284 22.61 11.8479 22.4489 11.8479 22.2878C11.8479 22.1267 12.009 22.0462 12.1701 22.0462C12.6533 22.1267 13.1366 22.2073 13.6199 22.2073C13.781 22.2073 13.9421 22.3683 13.9421 22.5294C13.9421 22.6905 13.781 22.7711 13.6199 22.7711ZM15.1503 22.6905C14.9892 22.6905 14.9087 22.61 14.8281 22.4489C14.8281 22.2878 14.9087 22.1267 15.0698 22.1267C15.553 22.0462 16.0363 21.8851 16.5196 21.724C16.6807 21.6434 16.8418 21.724 16.9224 21.8851C17.0029 22.0462 16.9224 22.2073 16.7613 22.2878C16.1974 22.4489 15.7141 22.61 15.1503 22.6905ZM10.6397 22.2878H10.5591C10.0758 22.1267 9.59256 21.8851 9.10927 21.6434C8.94818 21.5629 8.94818 21.4018 9.02873 21.2407C9.10927 21.0796 9.27037 21.0796 9.43146 21.1601C9.8342 21.4018 10.3175 21.6434 10.7202 21.8045C10.8813 21.8851 10.9619 22.0462 10.8813 22.2073C10.8813 22.2073 10.8008 22.2878 10.6397 22.2878ZM17.9695 21.6434C17.8889 21.6434 17.8084 21.5629 17.7278 21.4823C17.6473 21.3212 17.7278 21.1601 17.8084 21.0796C18.2111 20.838 18.6138 20.5158 19.0166 20.2741C19.1777 20.1936 19.3388 20.1936 19.4193 20.2741C19.4999 20.4352 19.4999 20.5963 19.4193 20.6769C19.0166 20.999 18.6138 21.3212 18.1306 21.5629C18.1306 21.6434 18.05 21.6434 17.9695 21.6434ZM8.06216 20.7574C7.98161 20.7574 7.90107 20.7574 7.90107 20.6769C7.49833 20.3547 7.0956 19.9519 6.77341 19.5492C6.69286 19.3881 6.69286 19.227 6.77341 19.1465C6.9345 19.0659 7.0956 19.0659 7.17614 19.1465C7.49833 19.5492 7.82052 19.8714 8.22326 20.1936C8.38435 20.2741 8.38435 20.5158 8.22326 20.5963C8.22326 20.6769 8.14271 20.7574 8.06216 20.7574ZM20.3053 19.7103C20.2248 19.7103 20.1442 19.7103 20.1442 19.6297C19.9831 19.5492 19.9831 19.3076 20.1442 19.227C20.4664 18.8243 20.7081 18.4215 21.0303 18.0188C21.1108 17.8577 21.2719 17.8577 21.433 17.9383C21.5941 18.0188 21.5941 18.1799 21.5135 18.341C21.2719 18.8243 20.9497 19.227 20.6275 19.6297C20.4664 19.7103 20.3859 19.7103 20.3053 19.7103ZM6.12903 18.4215C6.04848 18.4215 5.96793 18.341 5.88739 18.2604C5.64575 17.7772 5.4041 17.2939 5.24301 16.8106C5.16246 16.6495 5.24301 16.4884 5.4041 16.4079C5.5652 16.3273 5.72629 16.4079 5.80684 16.569C5.96793 17.0522 6.20958 17.455 6.45122 17.9383C6.53176 18.0993 6.45122 18.2604 6.37067 18.341C6.20958 18.4215 6.12903 18.4215 6.12903 18.4215ZM21.8357 17.1328H21.7552C21.5941 17.0522 21.5135 16.8911 21.5941 16.73C21.7552 16.2468 21.9163 15.7635 21.9968 15.2802C21.9968 15.1191 22.1579 15.0386 22.319 15.0386C22.4801 15.0386 22.5607 15.1996 22.5607 15.3607C22.4801 15.844 22.319 16.4079 22.1579 16.8911C22.0774 17.0522 21.9968 17.1328 21.8357 17.1328ZM5.08192 15.6024C4.92082 15.6024 4.84027 15.5218 4.75973 15.3607C4.67918 14.8775 4.59863 14.3136 4.59863 13.8303C4.59863 13.6693 4.75973 13.5082 4.92082 13.5082C5.08192 13.5082 5.24301 13.5887 5.24301 13.7498C5.24301 14.2331 5.32356 14.7164 5.4041 15.1996C5.4041 15.3607 5.32356 15.5218 5.08192 15.6024ZM22.3996 14.1525C22.2385 14.1525 22.0774 13.9914 22.0774 13.8303C22.0774 13.3471 21.9968 12.8638 21.9163 12.3805C21.9163 12.2194 21.9968 12.0583 22.1579 12.0583C22.319 12.0583 22.4801 12.1389 22.4801 12.2999C22.5607 12.7832 22.6412 13.3471 22.6412 13.8303C22.6412 13.9914 22.5607 14.1525 22.3996 14.1525ZM5.08192 12.5416C4.84027 12.5416 4.75973 12.3805 4.75973 12.2194C4.84027 11.7361 5.00137 11.1723 5.16246 10.689C5.24301 10.5279 5.4041 10.4474 5.5652 10.5279C5.72629 10.6085 5.80684 10.7696 5.72629 10.9306C5.5652 11.4139 5.4041 11.8972 5.32356 12.3805C5.32356 12.461 5.24301 12.5416 5.08192 12.5416ZM21.8357 11.0917C21.7552 11.0917 21.5941 11.0112 21.5941 10.9306C21.433 10.4474 21.1914 10.0446 20.9497 9.56135C20.8692 9.40025 20.9497 9.23916 21.0303 9.15861C21.1913 9.07806 21.3524 9.15861 21.433 9.23916C21.6746 9.72244 21.9163 10.2057 22.0774 10.689C22.1579 10.8501 22.0774 11.0112 21.9163 11.0917C21.9163 11.0917 21.9163 11.0917 21.8357 11.0917ZM6.12903 9.72244C6.04848 9.72244 6.04848 9.72244 5.96793 9.72244C5.80684 9.64189 5.80684 9.4808 5.88739 9.3197C6.12903 8.83642 6.45122 8.43369 6.77341 8.03095C6.85395 7.86986 7.0956 7.86986 7.17614 8.03095C7.33724 8.1115 7.33724 8.35314 7.17614 8.43369C6.85395 8.83642 6.61231 9.23916 6.37067 9.64189C6.29012 9.64189 6.20958 9.72244 6.12903 9.72244ZM20.3053 8.51423C20.2248 8.51423 20.1442 8.51423 20.0637 8.43369C19.7415 8.03095 19.4193 7.70876 19.0166 7.38657C18.8555 7.30602 18.8555 7.06438 19.0166 6.98384C19.0971 6.82274 19.3388 6.82274 19.4193 6.98384C19.822 7.30602 20.2248 7.70876 20.547 8.1115C20.6275 8.27259 20.6275 8.43369 20.547 8.51423C20.4664 8.43369 20.3859 8.51423 20.3053 8.51423ZM8.06216 7.38657C7.98161 7.38657 7.90107 7.38657 7.82052 7.30603C7.73997 7.14493 7.73997 6.98384 7.82052 6.90329C8.22326 6.5811 8.62599 6.25891 9.10927 6.01727C9.27037 5.93672 9.43146 6.01727 9.51201 6.09782C9.59256 6.25891 9.51201 6.42001 9.43146 6.50055C9.02873 6.74219 8.62599 7.06438 8.22326 7.30603C8.22326 7.38657 8.14271 7.38657 8.06216 7.38657ZM18.05 6.50055C17.9695 6.50055 17.9695 6.50055 17.8889 6.50055C17.4862 6.25891 17.0029 6.01727 16.6002 5.85618C16.4391 5.85618 16.3585 5.69508 16.3585 5.53399C16.4391 5.37289 16.6002 5.29235 16.7613 5.37289C17.2445 5.53399 17.7278 5.77563 18.2111 6.01727C18.3722 6.09782 18.3722 6.25891 18.2917 6.42001C18.2111 6.50055 18.1306 6.50055 18.05 6.50055ZM10.7202 5.85618C10.6397 5.85618 10.4786 5.77563 10.4786 5.69508C10.398 5.53399 10.4786 5.37289 10.6397 5.29235C11.123 5.13125 11.6062 4.97016 12.1701 4.88961C12.3312 4.88961 12.4923 4.97016 12.4923 5.13125C12.4923 5.29235 12.4117 5.45344 12.2506 5.45344C11.7673 5.53399 11.284 5.69508 10.8008 5.85618H10.7202ZM15.1503 5.53399C14.5865 5.45344 14.1032 5.37289 13.6199 5.37289C13.4588 5.37289 13.2977 5.2118 13.2977 5.0507C13.2977 4.88961 13.4588 4.72852 13.6199 4.72852C14.1837 4.72852 14.667 4.80906 15.1503 4.88961C15.3114 4.88961 15.392 5.0507 15.392 5.2118C15.4725 5.37289 15.3114 5.53399 15.1503 5.53399Z" fill="white" stroke="white" stroke-width="0.5"/>
<path d="M25.0569 27.201H18.4521C18.291 27.201 18.1299 27.0399 18.1299 26.8788C18.1299 26.7177 18.291 26.5566 18.4521 26.5566H25.0569C25.218 26.5566 25.3791 26.7177 25.3791 26.8788C25.2986 27.1205 25.218 27.201 25.0569 27.201Z" fill="white" stroke="white" stroke-width="0.5"/>
<path d="M8.86749 27.201H2.26262C2.10152 27.201 1.94043 27.0399 1.94043 26.8788C1.94043 26.7177 2.10152 26.5566 2.26262 26.5566H8.86749C9.02859 26.5566 9.18968 26.7177 9.18968 26.8788C9.18968 27.1205 9.02859 27.201 8.86749 27.201Z" fill="white" stroke="white" stroke-width="0.5"/>
</g>
<defs>
<clipPath id="clip0_3297_6717">
<rect width="26.8222" height="26.8222" fill="white" transform="translate(0.25 0.378906)"/>
</clipPath>
</defs>
</svg>
