<svg width="40" height="35" viewBox="0 0 40 35" fill="none" xmlns="http://www.w3.org/2000/svg">
<path opacity="0.5" d="M36.25 17.5H30V12.5C30 9.74219 32.2422 7.5 35 7.5H35.625C36.6641 7.5 37.5 6.66406 37.5 5.625V1.875C37.5 0.835938 36.6641 0 35.625 0H35C28.0937 0 22.5 5.59375 22.5 12.5V31.25C22.5 33.3203 24.1797 35 26.25 35H36.25C38.3203 35 40 33.3203 40 31.25V21.25C40 19.1797 38.3203 17.5 36.25 17.5ZM13.75 17.5H7.5V12.5C7.5 9.74219 9.74219 7.5 12.5 7.5H13.125C14.1641 7.5 15 6.66406 15 5.625V1.875C15 0.835938 14.1641 0 13.125 0H12.5C5.59375 0 0 5.59375 0 12.5V31.25C0 33.3203 1.67969 35 3.75 35H13.75C15.8203 35 17.5 33.3203 17.5 31.25V21.25C17.5 19.1797 15.8203 17.5 13.75 17.5Z" fill="#616976"/>
</svg>
