<svg width="46" height="37" viewBox="0 0 46 37" fill="none" xmlns="http://www.w3.org/2000/svg">
<path d="M46 11.7969V32.1786C46 34.4375 44.1518 36.2857 41.8929 36.2857H4.10714C1.84821 36.2857 0 34.4375 0 32.1786V11.7969C0.770089 12.644 1.64286 13.3884 2.59263 14.0301C6.8538 16.9308 11.1663 19.8315 15.3504 22.8862C17.5067 24.4777 20.1763 26.4286 22.9743 26.4286H23H23.0257C25.8237 26.4286 28.4933 24.4777 30.6496 22.8862C34.8337 19.8571 39.1462 16.9308 43.433 14.0301C44.3571 13.3884 45.2299 12.644 46 11.7969ZM46 4.25C46 7.125 43.8694 9.71763 41.6105 11.2835C37.606 14.0558 33.5759 16.8281 29.5971 19.6261C27.9286 20.7812 25.1049 23.1429 23.0257 23.1429H23H22.9743C20.8951 23.1429 18.0714 20.7812 16.4029 19.6261C12.4241 16.8281 8.39397 14.0558 4.41518 11.2835C2.59263 10.0513 0 7.15067 0 4.81473C0 2.29911 1.36049 0.142856 4.10714 0.142856H41.8929C44.1261 0.142856 46 1.99107 46 4.25Z" fill="#0E1681"/>
</svg>
