<svg width="37" height="37" viewBox="0 0 37 37" fill="none" xmlns="http://www.w3.org/2000/svg">
<path d="M36.6429 29.4018C36.6429 30.3259 36.2321 32.1228 35.8471 32.9699C35.308 34.2277 33.8705 35.0491 32.7154 35.6908C31.2009 36.5123 29.6607 37 27.9408 37C25.5536 37 23.3973 36.0246 21.2154 35.2288C19.6496 34.6641 18.135 33.971 16.7232 33.0982C12.3594 30.4029 7.0971 25.1406 4.40179 20.7768C3.52902 19.365 2.83594 17.8504 2.27121 16.2846C1.47545 14.1027 0.5 11.9464 0.5 9.55915C0.5 7.83928 0.987723 6.29911 1.80915 4.7846C2.45089 3.62946 3.27232 2.19196 4.53013 1.6529C5.37723 1.26786 7.17411 0.857141 8.09821 0.857141C8.2779 0.857141 8.45759 0.857141 8.63728 0.93415C9.17634 1.11384 9.74107 2.37165 9.99777 2.88504C10.8192 4.34821 11.615 5.83705 12.4621 7.27455C12.8728 7.94196 13.6429 8.76339 13.6429 9.55915C13.6429 11.125 8.99665 13.4096 8.99665 14.7958C8.99665 15.4888 9.63839 16.3873 9.99777 17.0033C12.5904 21.6752 15.8248 24.9096 20.4967 27.5022C21.1127 27.8616 22.0112 28.5033 22.7042 28.5033C24.0904 28.5033 26.375 23.8571 27.9408 23.8571C28.7366 23.8571 29.558 24.6272 30.2254 25.0379C31.6629 25.885 33.1518 26.6808 34.615 27.5022C35.1283 27.7589 36.3862 28.3237 36.5658 28.8627C36.6429 29.0424 36.6429 29.2221 36.6429 29.4018Z" fill="#0E1681"/>
</svg>
