<svg width="48" height="48" viewBox="0 0 48 48" fill="none" xmlns="http://www.w3.org/2000/svg">
<circle cx="24" cy="24" r="23" stroke="#08CE8A" stroke-width="2"/>
<g clip-path="url(#clip0_3297_6867)">
<path d="M33.7089 26.5502L29.6478 24.8804C28.7623 24.5123 27.7189 24.7571 27.1168 25.4734L25.982 26.8021C24.1301 25.7808 22.5788 24.2934 21.5156 22.5541L22.903 21.4642C23.6437 20.8843 23.8993 19.8895 23.5242 19.0427L21.7736 15.0965C21.3534 14.1763 20.3121 13.6742 19.2976 13.8991L15.5239 14.7344C14.5363 14.951 13.8457 15.7827 13.8457 16.7569C13.8457 26.3515 21.9804 34.1534 31.9844 34.1534C33.0001 34.1534 33.8673 33.4914 34.0563 32.5458L34.9272 28.9229C35.2018 27.9464 34.6725 26.9469 33.7089 26.5502ZM33.0307 28.4938L32.1585 32.1194C32.1391 32.1631 32.0713 32.2496 31.984 32.2496C23.0759 32.2496 15.8304 25.3005 15.8304 16.7569C15.8304 16.6738 15.884 16.6088 15.9687 16.5902L19.7461 15.7541C19.7591 15.751 19.7726 15.7497 19.7856 15.7497C19.8573 15.7497 19.9245 15.7913 19.9529 15.8532L21.6957 19.7534C21.7267 19.8234 21.706 19.9052 21.644 19.9541L19.6272 21.505C19.2706 21.7851 19.162 22.2642 19.3649 22.6608C20.73 25.3274 23.0149 27.5196 25.7957 28.8285C26.1721 29.0231 26.7093 28.919 27.0017 28.5769L28.6563 26.6385C28.7022 26.5828 28.7881 26.5617 28.8599 26.5939L32.9235 28.2634C33.0017 28.3311 33.0472 28.4144 33.0307 28.4938Z" fill="#08CE8A"/>
</g>
<defs>
<clipPath id="clip0_3297_6867">
<rect width="21.1538" height="20.3077" fill="white" transform="translate(13.8457 13.8457)"/>
</clipPath>
</defs>
</svg>
