<svg width="26" height="26" viewBox="0 0 26 26" fill="none" xmlns="http://www.w3.org/2000/svg">
<path d="M13.6114 23.4149C11.0889 23.4149 8.63844 22.4779 6.69249 20.532C2.94474 16.7122 2.94474 10.514 6.76456 6.76623C10.5844 2.94641 16.7826 2.94641 20.6024 6.76623C24.4222 10.5861 24.4222 16.7843 20.6024 20.6041C18.6565 22.4779 16.1339 23.4149 13.6114 23.4149ZM13.6114 4.67614C11.3051 4.67614 8.9988 5.54101 7.26907 7.27074C3.80961 10.7302 3.80961 16.4239 7.26907 19.9554C10.7285 23.4149 16.4222 23.4149 19.9538 19.9554C23.4132 16.496 23.4132 10.8023 19.9538 7.27074C18.224 5.54101 15.9177 4.67614 13.6114 4.67614Z" fill="white" stroke="#2BB19A" stroke-width="0.5"/>
<path d="M13.6139 21.1086C11.74 21.1086 9.79403 20.3878 8.35259 18.9464C6.91115 17.505 6.19043 15.6311 6.19043 13.6851C6.19043 11.6671 6.98322 9.79325 8.35259 8.42388C11.2355 5.541 15.9922 5.541 18.8751 8.42388C21.758 11.3068 21.758 16.0635 18.8751 18.9464C17.4337 20.3878 15.5598 21.1086 13.6139 21.1086ZM13.6139 6.98244C11.8841 6.98244 10.2265 7.63109 8.92917 8.92839C7.70394 10.1536 6.98322 11.8833 6.98322 13.6131C6.98322 15.4149 7.70394 17.0725 8.92917 18.2978C11.5238 20.8924 15.7039 20.8924 18.2985 18.2978C20.8931 15.7032 20.8931 11.523 18.2985 8.92839C17.0733 7.63109 15.3436 6.98244 13.6139 6.98244Z" fill="white" stroke="#2BB19A" stroke-width="0.5"/>
<path d="M13.613 18.5132C12.3157 18.5132 11.0905 18.0087 10.2256 17.0718C9.28868 16.1348 8.78418 14.9096 8.78418 13.6844C8.78418 12.3871 9.28868 11.1619 10.2256 10.297C12.0995 8.42313 15.1986 8.42313 17.0725 10.297C18.0094 11.2339 18.5139 12.4592 18.5139 13.6844C18.5139 14.9817 18.0094 16.2069 17.0725 17.0718C16.1355 18.0087 14.9103 18.5132 13.613 18.5132ZM13.613 9.64836C12.604 9.64836 11.5229 10.0087 10.7301 10.8015C9.93733 11.5943 9.57697 12.6033 9.57697 13.6844C9.57697 14.7655 10.0094 15.7745 10.7301 16.5673C11.5229 17.3601 12.5319 17.7204 13.613 17.7204C14.6941 17.7204 15.7031 17.288 16.4959 16.5673C17.2887 15.7745 17.649 14.7655 17.649 13.6844C17.649 12.6033 17.2166 11.5943 16.4959 10.8015C15.7031 10.0087 14.6941 9.64836 13.613 9.64836Z" fill="white" stroke="#2BB19A" stroke-width="0.5"/>
<path d="M13.612 16.2787C12.8913 16.2787 12.2426 15.9905 11.7381 15.486C11.2336 14.9814 10.9453 14.3328 10.9453 13.6121C10.9453 12.8914 11.2336 12.2427 11.7381 11.7382C12.7471 10.7292 14.4048 10.7292 15.4138 11.7382C16.4228 12.7472 16.4228 14.4049 15.4138 15.4139C14.9813 15.9905 14.3327 16.2787 13.612 16.2787ZM13.612 11.8823C13.1795 11.8823 12.675 12.0265 12.3147 12.3869C11.9543 12.7472 11.8102 13.1796 11.8102 13.6841C11.8102 14.1887 12.0264 14.6211 12.3147 14.9814C12.675 15.3418 13.1075 15.486 13.612 15.486C14.1165 15.486 14.5489 15.2697 14.9093 14.9814C15.63 14.2607 15.63 13.1076 14.9093 12.4589C14.5489 12.0265 14.1165 11.8823 13.612 11.8823Z" fill="white" stroke="#2BB19A" stroke-width="0.5"/>
<path d="M13.613 14.0452C13.5409 14.0452 13.3968 13.9731 13.3247 13.9011L5.97334 6.47765C5.8292 6.33351 5.8292 6.04522 5.97334 5.90108C6.11749 5.75693 6.40577 5.75693 6.54992 5.90108L13.9733 13.3245C14.1175 13.4686 14.1175 13.7569 13.9733 13.9011C13.8292 14.0452 13.7571 14.0452 13.613 14.0452Z" fill="white" stroke="#2BB19A" stroke-width="0.5"/>
<path d="M14.1896 14.6215C14.1175 14.6215 13.9734 14.5495 13.9013 14.4774L12.8923 13.4684C12.7481 13.3242 12.7481 13.036 12.8923 12.8918C13.0364 12.7477 13.3247 12.7477 13.4689 12.8918L13.3968 12.6756C13.3247 12.4594 13.4689 12.2432 13.6851 12.1711C13.9013 12.099 14.1175 12.2432 14.1896 12.4594L14.622 14.117C14.6941 14.2612 14.622 14.4774 14.4058 14.5495C14.3337 14.6215 14.2617 14.6215 14.1896 14.6215Z" fill="white" stroke="#2BB19A" stroke-width="0.5"/>
<path d="M14.1901 14.622H14.118L12.4604 14.1896C12.2441 14.1175 12.1 13.9013 12.1721 13.6851C12.2441 13.4689 12.4604 13.3247 12.6766 13.3968L12.8928 13.4689C12.7486 13.3247 12.7486 13.0364 12.8928 12.8923C13.0369 12.7481 13.3252 12.7481 13.4694 12.8923L14.4784 13.9013C14.6225 14.0454 14.6225 14.2617 14.5504 14.4058C14.4784 14.5499 14.3342 14.622 14.1901 14.622Z" fill="white" stroke="#2BB19A" stroke-width="0.5"/>
<path d="M3.95495 6.69369C3.88288 6.69369 3.73874 6.62162 3.66667 6.54955L1.14414 4.02703C1 3.88288 1 3.73874 1 3.59459C1.07207 3.45045 1.21622 3.37838 1.36036 3.30631L3.16216 3.16216L3.30631 1.36036C3.30631 1.21622 3.45045 1.07207 3.59459 1C3.73874 1 3.88288 1 4.02703 1.14414L6.54955 3.66667C6.62162 3.73874 6.69369 3.88288 6.69369 3.95495L6.62162 6.26126C6.62162 6.47748 6.47748 6.62162 6.26126 6.62162L3.95495 6.69369ZM2.2973 4.0991L4.0991 5.9009L5.82883 5.82883L5.9009 4.0991L4.0991 2.2973L4.02703 3.59459C4.02703 3.81081 3.88288 3.95495 3.66667 3.95495L2.2973 4.0991Z" fill="white" stroke="#2BB19A" stroke-width="0.5"/>
<path d="M13.6137 24.9992C10.5867 24.9992 7.70382 23.846 5.61373 21.6838C1.2894 17.3595 1.14526 10.4406 5.25337 5.97213C5.32544 5.90006 5.46958 5.82799 5.54165 5.82799H5.82994V5.5397C5.82994 5.39556 5.90201 5.32349 5.97409 5.25141C10.4426 1.14331 17.3615 1.28745 21.6858 5.61177C23.848 7.77394 25.0011 10.5847 25.0011 13.6118C25.0011 16.6388 23.848 19.5217 21.6858 21.6118C19.5236 23.846 16.7128 24.9992 13.6137 24.9992ZM5.75787 6.62078C2.01012 10.801 2.22634 17.1433 6.1903 21.1073C8.20832 23.1253 10.8029 24.2064 13.6858 24.2064C16.5687 24.2064 19.1633 23.1253 21.1813 21.1073C23.1993 19.0893 24.2804 16.4947 24.2804 13.6118C24.2804 10.801 23.1993 8.1343 21.1813 6.11628C17.1453 2.22439 10.8029 2.00817 6.62274 5.75592V6.26042C6.62274 6.47664 6.47859 6.62078 6.26238 6.62078H5.75787Z" fill="white" stroke="#2BB19A" stroke-width="0.5"/>
</svg>
