<svg width="25" height="25" viewBox="0 0 25 25" fill="none" xmlns="http://www.w3.org/2000/svg">
<g clip-path="url(#clip0_2678_656)">
<path d="M17.6611 16.444H16.3563C16.2838 16.444 16.2113 16.3715 16.1388 16.299C16.0663 16.2265 16.0663 16.154 16.1388 16.009C16.2113 15.8641 16.2838 15.7191 16.2838 15.5016C16.2838 14.9217 15.7763 14.4142 15.1964 14.4142C14.6164 14.4142 14.109 14.9217 14.109 15.5016C14.109 15.6466 14.1815 15.8641 14.254 16.009C14.3265 16.0815 14.3265 16.154 14.254 16.299C14.1815 16.3715 14.109 16.444 14.0365 16.444H12.7316C12.5867 16.444 12.4417 16.299 12.4417 16.154V15.2116C12.2967 15.2116 12.2242 15.2841 12.0792 15.2841C11.2093 15.2841 10.4844 14.5592 10.4844 13.6893C10.4844 12.8194 11.2093 12.0945 12.0792 12.0945C12.2242 12.0945 12.2967 12.0945 12.4417 12.1669V11.2245C12.4417 11.0796 12.5867 10.9346 12.7316 10.9346H17.7336C17.8786 10.9346 18.0236 11.0796 18.0236 11.2245V16.2265C17.9511 16.299 17.8061 16.444 17.6611 16.444ZM16.7187 15.9366H17.4437V11.442H12.9491V12.5294C12.9491 12.6019 12.8766 12.6744 12.8041 12.7469C12.7316 12.8194 12.6591 12.8194 12.5142 12.7469C12.3692 12.6744 12.2242 12.6019 12.0067 12.6019C11.4268 12.6019 10.9193 13.1093 10.9193 13.6893C10.9193 14.2692 11.4268 14.7767 12.0067 14.7767C12.1517 14.7767 12.3692 14.7042 12.5142 14.6317C12.5867 14.5592 12.6591 14.5592 12.8041 14.6317C12.8766 14.7042 12.9491 14.7767 12.9491 14.8492V15.9366H13.674C13.674 15.7916 13.6016 15.7191 13.6016 15.5741C13.6016 14.7042 14.3265 13.9793 15.1964 13.9793C16.0663 13.9793 16.7912 14.7042 16.7912 15.5741C16.7912 15.6466 16.7912 15.7916 16.7187 15.9366Z" fill="#2BB19A" stroke="#2BB19A" stroke-width="0.5"/>
<path d="M12.7314 16.4435H7.72942C7.58444 16.4435 7.43945 16.2985 7.43945 16.1535V11.1516C7.43945 11.0066 7.58444 10.8616 7.72942 10.8616H8.67183C8.67183 10.7166 8.59933 10.6441 8.59933 10.4991C8.59933 9.62922 9.32426 8.9043 10.1942 8.9043C11.0641 8.9043 11.789 9.62922 11.789 10.4991C11.789 10.6441 11.789 10.7166 11.7165 10.8616H12.6589C12.8039 10.8616 12.9489 11.0066 12.9489 11.1516V12.4564C12.9489 12.5289 12.8764 12.6014 12.8039 12.6739C12.7314 12.7464 12.6589 12.7464 12.5139 12.6739C12.3689 12.6014 12.224 12.5289 12.0065 12.5289C11.4265 12.5289 10.9191 13.0364 10.9191 13.6163C10.9191 14.1962 11.4265 14.7037 12.0065 14.7037C12.1515 14.7037 12.3689 14.6312 12.5139 14.5587C12.5864 14.4862 12.6589 14.4862 12.8039 14.5587C12.8764 14.6312 12.9489 14.7037 12.9489 14.7762V16.0811C12.9489 16.2985 12.8764 16.4435 12.7314 16.4435ZM7.9469 15.9361H12.4414V15.2111C12.2965 15.2111 12.224 15.2836 12.079 15.2836C11.2091 15.2836 10.4841 14.5587 10.4841 13.6888C10.4841 12.8189 11.2091 12.094 12.079 12.094C12.224 12.094 12.2965 12.094 12.4414 12.1665V11.4415H11.354C11.2816 11.4415 11.2091 11.369 11.1366 11.2965C11.0641 11.2241 11.0641 11.1516 11.1366 11.0066C11.2091 10.8616 11.2816 10.7166 11.2816 10.4991C11.2816 9.91919 10.7741 9.41174 10.1942 9.41174C9.61423 9.41174 9.10678 9.91919 9.10678 10.4991C9.10678 10.6441 9.17927 10.8616 9.25177 11.0066C9.32426 11.0791 9.32426 11.1516 9.25177 11.2965C9.17927 11.369 9.10678 11.4415 9.03429 11.4415H7.9469V15.9361Z" fill="#2BB19A" stroke="#2BB19A" stroke-width="0.5"/>
<path d="M14.4711 24.7806H10.9914C10.339 24.7806 9.75905 24.2007 9.75905 23.5483V22.2434C9.17911 22.0984 8.67167 21.8809 8.16422 21.591L7.14932 22.4609C6.64188 22.9683 5.84446 22.9683 5.4095 22.4609L2.94476 19.9961C2.43731 19.4887 2.43731 18.6913 2.94476 18.2563L3.88716 17.3139C3.59719 16.8064 3.37971 16.299 3.23473 15.7191H1.85737C1.20494 15.7191 0.625 15.1391 0.625 14.4867V11.0071C0.625 10.3546 1.20494 9.77468 1.85737 9.77468H3.16224C3.30722 9.19474 3.5247 8.68729 3.81467 8.17984L2.94476 7.16495C2.43731 6.6575 2.43731 5.86008 2.94476 5.42513L5.4095 2.96038C5.91695 2.45294 6.71437 2.45294 7.14932 2.96038L8.09173 3.90279C8.59917 3.61282 9.10662 3.39534 9.68656 3.25035V1.873C9.68656 1.22056 10.2665 0.640625 10.9189 0.640625H14.3986C15.051 0.640625 15.6309 1.22056 15.6309 1.873V3.17786C16.2109 3.32285 16.7183 3.54032 17.2258 3.83029L18.1682 2.88789C18.6756 2.38044 19.473 2.38044 19.908 2.88789L22.3727 5.35264C22.8802 5.86008 22.8802 6.6575 22.3727 7.09246L21.4303 8.03486C21.7203 8.54231 21.9378 9.04975 22.0828 9.62969H23.3876C24.0401 9.62969 24.62 10.2096 24.62 10.8621V14.3417C24.62 14.9941 24.0401 15.5741 23.3876 15.5741H22.0828C21.9378 16.154 21.7203 16.6615 21.4303 17.1689L22.3727 18.1113C22.8802 18.6188 22.8802 19.4162 22.3727 19.8511L19.908 22.3159C19.4006 22.8233 18.6031 22.8233 18.1682 22.3159L17.2983 21.5185C16.7908 21.8084 16.2834 22.0259 15.7034 22.1709V23.4758C15.7034 24.2007 15.1235 24.7806 14.4711 24.7806ZM8.01923 20.9385C8.09173 20.9385 8.09173 20.9385 8.16422 20.9385C8.74416 21.2285 9.39659 21.5185 10.049 21.7359C10.194 21.7359 10.2665 21.8809 10.2665 21.9534V23.4758C10.2665 23.9107 10.5565 24.2007 10.9914 24.2007H14.4711C14.906 24.2007 15.196 23.9107 15.196 23.4758V21.9534C15.196 21.8084 15.2685 21.7359 15.4135 21.7359C16.0659 21.5185 16.7183 21.301 17.2983 20.9385C17.3708 20.866 17.5157 20.866 17.5882 21.011L18.6756 22.0984C18.9656 22.3884 19.4006 22.3884 19.6905 22.0984L22.1553 19.6337C22.3003 19.4887 22.3727 19.3437 22.3727 19.1262C22.3727 18.9087 22.3003 18.7637 22.1553 18.6188L21.0679 17.5314C20.9229 17.4589 20.9229 17.3139 20.9954 17.2414C21.2854 16.6615 21.5753 16.009 21.7928 15.3566C21.7928 15.2116 21.9378 15.1391 22.0103 15.1391H23.5326C23.9676 15.1391 24.2575 14.8492 24.2575 14.4142V10.9346C24.2575 10.4996 23.9676 10.2096 23.5326 10.2096H22.0103C21.8653 10.2096 21.7928 10.1371 21.7928 9.99216C21.5753 9.33972 21.3579 8.68729 20.9954 8.10735C20.9229 8.10735 20.9229 7.96237 21.0679 7.88987L22.1553 6.80249C22.4452 6.51252 22.4452 6.07756 22.1553 5.78759L19.6905 3.32285C19.4006 3.03288 18.9656 3.03288 18.6756 3.32285L17.5882 4.41023C17.5157 4.48273 17.3708 4.48273 17.2983 4.48273C16.7183 4.19276 16.0659 3.90279 15.4135 3.68531C15.2685 3.68531 15.196 3.54032 15.196 3.46783V1.873C15.196 1.43804 14.906 1.14807 14.4711 1.14807H10.9914C10.5565 1.14807 10.2665 1.43804 10.2665 1.873V3.39534C10.2665 3.54032 10.194 3.61282 10.049 3.61282C9.39659 3.83029 8.74416 4.04777 8.16422 4.41023C8.09173 4.48273 7.94674 4.48273 7.87425 4.33774L6.78686 3.32285C6.49689 3.03288 6.06194 3.03288 5.77197 3.32285L3.30722 5.78759C3.01725 6.07756 3.01725 6.51252 3.30722 6.80249L4.39461 7.88987C4.4671 7.96237 4.4671 8.10735 4.4671 8.17984C4.17713 8.75978 3.88716 9.41222 3.66968 10.0646C3.66968 10.2096 3.5247 10.2821 3.45221 10.2821H1.85737C1.42242 10.2821 1.13245 10.5721 1.13245 11.0071V14.4867C1.13245 14.9216 1.42242 15.2116 1.85737 15.2116H3.37971C3.5247 15.2116 3.59719 15.2841 3.59719 15.4291C3.81467 16.0815 4.03215 16.734 4.39461 17.3139C4.4671 17.3864 4.4671 17.5314 4.32212 17.6039L3.23473 18.6913C2.94476 18.9812 2.94476 19.4162 3.23473 19.7062L5.69947 22.1709C5.84446 22.3159 5.98944 22.3884 6.20692 22.3884C6.4244 22.3884 6.56938 22.3159 6.71437 22.1709L7.80176 21.0835C7.94674 21.011 8.01923 20.9385 8.01923 20.9385Z" fill="#2BB19A" stroke="#2BB19A" stroke-width="0.5"/>
<path d="M12.6582 20.794C12.1508 20.794 11.7158 20.7215 11.2809 20.649C11.1359 20.649 11.0634 20.504 11.0634 20.359C11.0634 20.214 11.2084 20.1415 11.3534 20.1415C11.7883 20.214 12.2233 20.2865 12.6582 20.2865C12.8032 20.2865 12.9482 20.4315 12.9482 20.5765C12.9482 20.7215 12.8032 20.794 12.6582 20.794ZM14.0356 20.7215C13.8906 20.7215 13.8181 20.649 13.7456 20.504C13.7456 20.359 13.8181 20.214 13.9631 20.214C14.398 20.1415 14.833 19.9966 15.2679 19.8516C15.4129 19.7791 15.5579 19.8516 15.6304 19.9966C15.7029 20.1415 15.6304 20.2865 15.4854 20.359C14.978 20.504 14.543 20.649 14.0356 20.7215ZM9.976 20.359H9.9035C9.46855 20.214 9.03359 19.9966 8.59864 19.7791C8.45366 19.7066 8.45365 19.5616 8.52615 19.4166C8.59864 19.2716 8.74362 19.2716 8.88861 19.3441C9.25107 19.5616 9.68603 19.7791 10.0485 19.9241C10.1935 19.9966 10.266 20.1415 10.1935 20.2865C10.1935 20.2865 10.121 20.359 9.976 20.359ZM16.5728 19.7791C16.5003 19.7791 16.4278 19.7066 16.3553 19.6341C16.2828 19.4891 16.3553 19.3441 16.4278 19.2716C16.7903 19.0542 17.1528 18.7642 17.5152 18.5467C17.6602 18.4742 17.8052 18.4742 17.8777 18.5467C17.9502 18.6917 17.9502 18.8367 17.8777 18.9092C17.5152 19.1991 17.1528 19.4891 16.7178 19.7066C16.7178 19.7791 16.6453 19.7791 16.5728 19.7791ZM7.65624 18.9817C7.58375 18.9817 7.51125 18.9817 7.51125 18.9092C7.14879 18.6192 6.78633 18.2567 6.49636 17.8943C6.42387 17.7493 6.42387 17.6043 6.49636 17.5318C6.64134 17.4593 6.78633 17.4593 6.85882 17.5318C7.14879 17.8943 7.43876 18.1842 7.80122 18.4742C7.94621 18.5467 7.94621 18.7642 7.80122 18.8367C7.80122 18.9092 7.72873 18.9817 7.65624 18.9817ZM18.6751 18.0393C18.6026 18.0393 18.5301 18.0393 18.5301 17.9668C18.3851 17.8943 18.3851 17.6768 18.5301 17.6043C18.8201 17.2418 19.0376 16.8794 19.3275 16.5169C19.4 16.3719 19.545 16.3719 19.69 16.4444C19.835 16.5169 19.835 16.6619 19.7625 16.8069C19.545 17.2418 19.255 17.6043 18.9651 17.9668C18.8201 18.0393 18.7476 18.0393 18.6751 18.0393ZM5.91642 16.8794C5.84393 16.8794 5.77143 16.8069 5.69894 16.7344C5.48146 16.2994 5.26399 15.8645 5.119 15.4295C5.04651 15.2845 5.119 15.1396 5.26399 15.0671C5.40897 14.9946 5.55396 15.0671 5.62645 15.2121C5.77143 15.647 5.98891 16.0095 6.20639 16.4444C6.27888 16.5894 6.20639 16.7344 6.1339 16.8069C5.98891 16.8794 5.91642 16.8794 5.91642 16.8794ZM20.0524 15.7195H19.98C19.835 15.647 19.7625 15.502 19.835 15.357C19.98 14.9221 20.1249 14.4871 20.1974 14.0522C20.1974 13.9072 20.3424 13.8347 20.4874 13.8347C20.6324 13.8347 20.7049 13.9797 20.7049 14.1247C20.6324 14.5596 20.4874 15.0671 20.3424 15.502C20.2699 15.647 20.1974 15.7195 20.0524 15.7195ZM4.97402 14.3421C4.82903 14.3421 4.75654 14.2697 4.68405 14.1247C4.61155 13.6897 4.53906 13.1823 4.53906 12.7473C4.53906 12.6023 4.68405 12.4573 4.82903 12.4573C4.97402 12.4573 5.119 12.5298 5.119 12.6748C5.119 13.1098 5.19149 13.5447 5.26399 13.9797C5.26399 14.1247 5.19149 14.2697 4.97402 14.3421ZM20.5599 13.0373C20.4149 13.0373 20.2699 12.8923 20.2699 12.7473C20.2699 12.3124 20.1974 11.8774 20.1249 11.4424C20.1249 11.2975 20.1974 11.1525 20.3424 11.1525C20.4874 11.1525 20.6324 11.225 20.6324 11.37C20.7049 11.8049 20.7774 12.3124 20.7774 12.7473C20.7774 12.8923 20.7049 13.0373 20.5599 13.0373ZM4.97402 11.5874C4.75654 11.5874 4.68405 11.4424 4.68405 11.2975C4.75654 10.8625 4.90152 10.3551 5.04651 9.92011C5.119 9.77512 5.26399 9.70263 5.40897 9.77512C5.55396 9.84761 5.62645 9.9926 5.55396 10.1376C5.40897 10.5725 5.26399 11.0075 5.19149 11.4424C5.19149 11.5149 5.119 11.5874 4.97402 11.5874ZM20.0524 10.2826C19.98 10.2826 19.835 10.2101 19.835 10.1376C19.69 9.70263 19.4725 9.34017 19.255 8.90521C19.1825 8.76023 19.255 8.61524 19.3275 8.54275C19.4725 8.47026 19.6175 8.54275 19.69 8.61524C19.9075 9.0502 20.1249 9.48515 20.2699 9.92011C20.3424 10.0651 20.2699 10.2101 20.1249 10.2826C20.1249 10.2826 20.1249 10.2826 20.0524 10.2826ZM5.91642 9.0502C5.84393 9.0502 5.84393 9.0502 5.77143 9.0502C5.62645 8.9777 5.62645 8.83272 5.69894 8.68773C5.91642 8.25278 6.20639 7.89032 6.49636 7.52785C6.56885 7.38287 6.78633 7.38287 6.85882 7.52785C7.00381 7.60035 7.00381 7.81782 6.85882 7.89032C6.56885 8.25278 6.35137 8.61524 6.1339 8.9777C6.0614 8.9777 5.98891 9.0502 5.91642 9.0502ZM18.6751 7.96281C18.6026 7.96281 18.5301 7.96281 18.4576 7.89032C18.1676 7.52785 17.8777 7.23788 17.5152 6.94791C17.3702 6.87542 17.3702 6.65795 17.5152 6.58545C17.5877 6.44047 17.8052 6.44047 17.8777 6.58545C18.2401 6.87542 18.6026 7.23789 18.8926 7.60035C18.9651 7.74533 18.9651 7.89032 18.8926 7.96281C18.8201 7.89032 18.7476 7.96281 18.6751 7.96281ZM7.65624 6.94791C7.58375 6.94791 7.51125 6.94792 7.43876 6.87542C7.36627 6.73044 7.36627 6.58545 7.43876 6.51296C7.80122 6.22299 8.16369 5.93302 8.59864 5.71554C8.74362 5.64305 8.88861 5.71554 8.9611 5.78804C9.03359 5.93302 8.9611 6.07801 8.88861 6.1505C8.52615 6.36798 8.16369 6.65795 7.80122 6.87542C7.80122 6.94792 7.72873 6.94791 7.65624 6.94791ZM16.6453 6.1505C16.5728 6.1505 16.5728 6.1505 16.5003 6.1505C16.1379 5.93302 15.7029 5.71554 15.3404 5.57056C15.1955 5.57056 15.123 5.42557 15.123 5.28059C15.1955 5.1356 15.3404 5.06311 15.4854 5.1356C15.9204 5.28059 16.3553 5.49807 16.7903 5.71554C16.9353 5.78804 16.9353 5.93302 16.8628 6.07801C16.7903 6.1505 16.7178 6.1505 16.6453 6.1505ZM10.0485 5.57056C9.976 5.57056 9.83101 5.49807 9.83101 5.42557C9.75852 5.28059 9.83101 5.1356 9.976 5.06311C10.411 4.91813 10.8459 4.77314 11.3534 4.70065C11.4983 4.70065 11.6433 4.77314 11.6433 4.91813C11.6433 5.06311 11.5708 5.2081 11.4258 5.2081C10.9909 5.28059 10.5559 5.42557 10.121 5.57056H10.0485ZM14.0356 5.28059C13.5281 5.2081 13.0932 5.1356 12.6582 5.1356C12.5132 5.1356 12.3682 4.99062 12.3682 4.84563C12.3682 4.70065 12.5132 4.55566 12.6582 4.55566C13.1657 4.55566 13.6006 4.62816 14.0356 4.70065C14.1806 4.70065 14.2531 4.84563 14.2531 4.99062C14.3255 5.1356 14.1806 5.28059 14.0356 5.28059Z" fill="#2BB19A" stroke="#2BB19A" stroke-width="0.5"/>
<path d="M22.9512 24.7811H17.0068C16.8618 24.7811 16.7168 24.6361 16.7168 24.4911C16.7168 24.3462 16.8618 24.2012 17.0068 24.2012H22.9512C23.0961 24.2012 23.2411 24.3462 23.2411 24.4911C23.1686 24.7086 23.0961 24.7811 22.9512 24.7811Z" fill="#2BB19A" stroke="#2BB19A" stroke-width="0.5"/>
<path d="M8.38084 24.7811H2.43645C2.29147 24.7811 2.14648 24.6361 2.14648 24.4911C2.14648 24.3462 2.29147 24.2012 2.43645 24.2012H8.38084C8.52583 24.2012 8.67081 24.3462 8.67081 24.4911C8.67081 24.7086 8.52583 24.7811 8.38084 24.7811Z" fill="#2BB19A" stroke="#2BB19A" stroke-width="0.5"/>
</g>
<defs>
<clipPath id="clip0_2678_656">
<rect width="24.14" height="24.14" fill="white" transform="translate(0.625 0.640625)"/>
</clipPath>
</defs>
</svg>
