<svg width="34" height="34" viewBox="0 0 34 34" fill="none" xmlns="http://www.w3.org/2000/svg">
<path d="M16.9917 32.7998C8.17993 32.7998 1 25.6257 1 16.7998C1 7.97388 8.17033 0.799805 16.9917 0.799805C25.813 0.799805 32.9833 7.97388 32.9833 16.7998C32.9833 25.6257 25.813 32.7998 16.9917 32.7998ZM16.9917 1.56812C8.59268 1.56812 1.75831 8.40605 1.75831 16.8094C1.75831 25.2128 8.59268 32.0507 16.9917 32.0507C25.3906 32.0507 32.225 25.2128 32.225 16.8094C32.225 8.40605 25.3906 1.56812 16.9917 1.56812Z" fill="#2BB19A" stroke="#2BB19A" stroke-width="0.5"/>
<path d="M30.5262 15.6665C30.3342 15.6665 30.171 15.5225 30.1518 15.3304C30.123 15.0807 30.0942 14.8406 30.0463 14.6005C30.0079 14.3988 30.1518 14.1971 30.3534 14.1683C30.5646 14.1299 30.7566 14.274 30.7854 14.4756C30.8238 14.7349 30.8622 14.9847 30.891 15.244C30.9102 15.4552 30.7662 15.6377 30.555 15.6665C30.5454 15.6665 30.5262 15.6665 30.5166 15.6665H30.5262Z" fill="#2BB19A" stroke="#2BB19A" stroke-width="0.5"/>
<path d="M30.0848 13.419C29.9216 13.419 29.768 13.3134 29.72 13.1405C29.5857 12.6603 29.4129 12.1897 29.2305 11.7287C29.1537 11.5367 29.2401 11.3158 29.4321 11.2294C29.624 11.1525 29.8448 11.2389 29.9312 11.431C30.1328 11.9112 30.3056 12.4202 30.4495 12.9196C30.5071 13.1213 30.392 13.3326 30.1904 13.3902C30.152 13.3998 30.1232 13.4094 30.0848 13.4094V13.419ZM28.9137 10.5859C28.7794 10.5859 28.6546 10.5187 28.5778 10.3938C28.3378 9.96164 28.069 9.53908 27.7811 9.12611C27.6563 8.95324 27.6947 8.72275 27.8675 8.5979C28.0402 8.47305 28.2706 8.51146 28.3954 8.68433C28.7026 9.1165 28.9809 9.55828 29.2401 10.0193C29.3457 10.2017 29.2785 10.4322 29.0961 10.5379C29.0385 10.5667 28.9713 10.5859 28.9137 10.5859ZM27.1379 8.08889C27.0324 8.08889 26.9268 8.05047 26.8596 7.96404C26.5332 7.59909 26.1685 7.24376 25.8037 6.90762C25.6501 6.77317 25.6309 6.53308 25.7749 6.36981C25.9093 6.21615 26.1493 6.19694 26.3124 6.341C26.706 6.68674 27.0804 7.06128 27.4259 7.45504C27.5699 7.6087 27.5507 7.84879 27.3971 7.99285C27.3203 8.06008 27.2339 8.08889 27.1475 8.08889H27.1379ZM24.8438 6.05288C24.767 6.05288 24.6902 6.03367 24.6231 5.98565C24.2199 5.69753 23.7976 5.43824 23.356 5.19814C23.1736 5.1021 23.1064 4.862 23.2024 4.67953C23.308 4.49705 23.5288 4.42982 23.7208 4.52586C24.1815 4.77556 24.6327 5.06369 25.055 5.3614C25.2278 5.48625 25.2662 5.71675 25.1414 5.88962C25.0646 5.99526 24.9494 6.05288 24.8342 6.05288H24.8438ZM22.1562 4.57388C22.1562 4.57388 22.0602 4.57388 22.0122 4.54507C21.5514 4.353 21.0811 4.18974 20.6011 4.05528C20.3996 3.99766 20.2844 3.78637 20.342 3.58469C20.3996 3.38301 20.6107 3.26776 20.8123 3.32538C21.3211 3.46944 21.8202 3.64231 22.3001 3.844C22.4921 3.92083 22.5881 4.14172 22.5113 4.3434C22.4537 4.48746 22.3097 4.5835 22.1562 4.5835V4.57388Z" fill="#2BB19A" stroke="#2BB19A" stroke-width="0.5"/>
<path d="M19.2 3.73846C19.2 3.73846 19.1616 3.73846 19.1424 3.73846C18.9024 3.70004 18.6528 3.66162 18.4129 3.64242C18.2017 3.62321 18.0577 3.43114 18.0769 3.22946C18.0961 3.01817 18.2881 2.87411 18.4897 2.89332C18.7488 2.92213 19.008 2.95094 19.2576 2.99896C19.4687 3.03737 19.6031 3.22945 19.5743 3.43113C19.5455 3.6136 19.3824 3.74806 19.2 3.74806V3.73846Z" fill="#2BB19A" stroke="#2BB19A" stroke-width="0.5"/>
<path d="M16.992 30.8123C9.27454 30.8123 2.9873 24.5314 2.9873 16.8003C2.9873 9.06916 9.26494 2.79785 16.992 2.79785C17.4911 2.79785 17.9903 2.82666 18.4894 2.87468C18.7006 2.89389 18.8446 3.08596 18.8254 3.28764C18.8062 3.49893 18.6142 3.64299 18.4126 3.62378C17.9423 3.57576 17.4719 3.54695 17.0016 3.54695C9.69689 3.54695 3.75521 9.49173 3.75521 16.8003C3.75521 24.1088 9.69689 30.0536 17.0016 30.0536C24.3063 30.0536 30.248 24.1088 30.248 16.8003C30.248 16.3105 30.2192 15.8111 30.1712 15.3213C30.152 15.11 30.296 14.9275 30.5072 14.8987C30.7183 14.8795 30.9007 15.0235 30.9295 15.2348C30.9871 15.7534 31.0159 16.272 31.0159 16.7906C31.0159 24.5121 24.7383 30.8027 17.0112 30.8027L16.992 30.8123Z" fill="#2BB19A" stroke="#2BB19A" stroke-width="0.5"/>
<path d="M16.9913 28.3246C10.6368 28.3246 5.47266 23.1577 5.47266 16.8C5.47266 10.4423 10.6368 5.27539 16.9913 5.27539C23.3457 5.27539 28.5099 10.4423 28.5099 16.8C28.5099 23.1577 23.3457 28.3246 16.9913 28.3246ZM16.9913 6.04369C11.0592 6.04369 6.23096 10.8744 6.23096 16.8096C6.23096 22.7448 11.0592 27.5755 16.9913 27.5755C22.9233 27.5755 27.7516 22.7448 27.7516 16.8096C27.7516 10.8744 22.9233 6.04369 16.9913 6.04369Z" fill="#2BB19A" stroke="#2BB19A" stroke-width="0.5"/>
<path d="M16.9915 9.12686C16.7804 9.12686 16.6172 8.95399 16.6172 8.75231V5.66947C16.6172 5.45819 16.79 5.29492 16.9915 5.29492C17.1931 5.29492 17.3659 5.46779 17.3659 5.66947V8.75231C17.3659 8.9636 17.1931 9.12686 16.9915 9.12686Z" fill="#2BB19A" stroke="#2BB19A" stroke-width="0.5"/>
<path d="M21.0137 10.2117C20.9466 10.2117 20.889 10.1925 20.8218 10.1637C20.6394 10.058 20.5818 9.82753 20.6874 9.64506L22.2328 6.97519C22.3384 6.79272 22.5688 6.73509 22.7511 6.84074C22.9335 6.94638 22.9911 7.17688 22.8855 7.35935L21.3401 10.0292C21.2729 10.1541 21.1385 10.2213 21.0137 10.2213V10.2117Z" fill="#2BB19A" stroke="#2BB19A" stroke-width="0.5"/>
<path d="M23.9599 13.16C23.8255 13.16 23.7007 13.0927 23.6335 12.9679C23.5279 12.7854 23.5951 12.5549 23.7679 12.4493L26.4364 10.9031C26.6188 10.7974 26.8491 10.8647 26.9547 11.0375C27.0603 11.22 26.9931 11.4505 26.8203 11.5561L24.1518 13.1023C24.0943 13.1408 24.0271 13.1504 23.9599 13.1504V13.16Z" fill="#2BB19A" stroke="#2BB19A" stroke-width="0.5"/>
<path d="M28.1265 17.1837H25.0453C24.8341 17.1837 24.6709 17.0108 24.6709 16.8091C24.6709 16.6074 24.8437 16.4346 25.0453 16.4346H28.1265C28.3377 16.4346 28.5008 16.6074 28.5008 16.8091C28.5008 17.0108 28.3281 17.1837 28.1265 17.1837Z" fill="#2BB19A" stroke="#2BB19A" stroke-width="0.5"/>
<path d="M26.6295 22.754C26.5623 22.754 26.5047 22.7348 26.4375 22.706L23.769 21.1598C23.5867 21.0542 23.5291 20.8237 23.6347 20.6412C23.7402 20.4587 23.9706 20.4011 24.153 20.5068L26.8215 22.053C27.0038 22.1586 27.0614 22.3891 26.9558 22.5716C26.8887 22.6964 26.7543 22.7637 26.6295 22.7637V22.754Z" fill="#2BB19A" stroke="#2BB19A" stroke-width="0.5"/>
<path d="M22.559 26.8364C22.4246 26.8364 22.2998 26.7691 22.2326 26.6443L20.6872 23.9744C20.5816 23.7919 20.6488 23.5615 20.8216 23.4558C21.004 23.3502 21.2344 23.4174 21.3399 23.5902L22.8854 26.2601C22.9909 26.4426 22.9238 26.6731 22.751 26.7787C22.6934 26.8171 22.6262 26.8267 22.559 26.8267V26.8364Z" fill="#2BB19A" stroke="#2BB19A" stroke-width="0.5"/>
<path d="M16.9915 28.3241C16.7804 28.3241 16.6172 28.1513 16.6172 27.9496V24.8667C16.6172 24.6554 16.79 24.4922 16.9915 24.4922C17.1931 24.4922 17.3659 24.665 17.3659 24.8667V27.9496C17.3659 28.1609 17.1931 28.3241 16.9915 28.3241Z" fill="#2BB19A" stroke="#2BB19A" stroke-width="0.5"/>
<path d="M11.4239 26.8357C11.3567 26.8357 11.2991 26.8165 11.2319 26.7877C11.0495 26.682 10.992 26.4516 11.0975 26.2691L12.643 23.5992C12.7485 23.4167 12.9789 23.3591 13.1613 23.4648C13.3437 23.5704 13.4013 23.8009 13.2957 23.9834L11.7503 26.6532C11.6831 26.7781 11.5487 26.8453 11.4239 26.8453V26.8357Z" fill="#2BB19A" stroke="#2BB19A" stroke-width="0.5"/>
<path d="M7.34464 22.7537C7.21026 22.7537 7.08547 22.6865 7.01828 22.5616C6.91269 22.3792 6.97988 22.1487 7.15266 22.0431L9.82114 20.4968C10.0035 20.3912 10.2339 20.4584 10.3395 20.6313C10.4451 20.8137 10.3779 21.0442 10.2051 21.1499L7.53662 22.6961C7.47902 22.7345 7.41183 22.7441 7.34464 22.7441V22.7537Z" fill="#2BB19A" stroke="#2BB19A" stroke-width="0.5"/>
<path d="M8.93898 17.1837H5.85775C5.64658 17.1837 5.4834 17.0108 5.4834 16.8091C5.4834 16.6074 5.65618 16.4346 5.85775 16.4346H8.93898C9.15015 16.4346 9.31333 16.6074 9.31333 16.8091C9.31333 17.0108 9.14055 17.1837 8.93898 17.1837Z" fill="#2BB19A" stroke="#2BB19A" stroke-width="0.5"/>
<path d="M10.0133 13.1603C9.94609 13.1603 9.88849 13.1411 9.8213 13.1123L7.15283 11.5661C6.97045 11.4604 6.91285 11.2299 7.01844 11.0475C7.12403 10.865 7.3544 10.8074 7.53678 10.913L10.2053 12.4592C10.3876 12.5649 10.4452 12.7953 10.3396 12.9778C10.2724 13.1027 10.1381 13.1699 10.0133 13.1699V13.1603Z" fill="#2BB19A" stroke="#2BB19A" stroke-width="0.5"/>
<path d="M12.9604 10.2114C12.826 10.2114 12.7012 10.1441 12.634 10.0193L11.0886 7.34941C10.983 7.16693 11.0502 6.93645 11.223 6.83081C11.4054 6.72516 11.6357 6.79239 11.7413 6.96526L13.2867 9.63513C13.3923 9.8176 13.3251 10.0481 13.1523 10.1537C13.0947 10.1921 13.0276 10.2017 12.9604 10.2017V10.2114Z" fill="#2BB19A" stroke="#2BB19A" stroke-width="0.5"/>
<path d="M14.6885 15.071H13.3734V19.2103H12.4519V15.071H11.1465V14.418H14.6885V15.071Z" fill="#2BB19A" stroke="#2BB19A" stroke-width="0.5"/>
<path d="M17.4623 18.2403H15.8017L15.5138 19.2103H14.5635L16.1473 14.418H17.1264L18.7102 19.2103H17.7695L17.4719 18.2403H17.4623ZM17.2703 17.5968L16.8768 16.3099C16.7904 15.993 16.6848 15.532 16.6464 15.2823H16.6176C16.5696 15.532 16.4832 15.993 16.3873 16.3099L16.0033 17.5968H17.2799H17.2703Z" fill="#2BB19A" stroke="#2BB19A" stroke-width="0.5"/>
<path d="M21.8288 19.2005L20.8401 17.4238L19.8419 19.2005H18.834L20.3314 16.7131L18.9204 14.4082H19.9187L20.8305 16.0313L21.7424 14.4082H22.7407L21.3297 16.7131L22.8271 19.2005H21.8192H21.8288Z" fill="#2BB19A" stroke="#2BB19A" stroke-width="0.5"/>
<path d="M32.5986 17.1837H30.6117C30.4005 17.1837 30.2373 17.0108 30.2373 16.8091C30.2373 16.6074 30.4101 16.4346 30.6117 16.4346H32.5986C32.8098 16.4346 32.973 16.6074 32.973 16.8091C32.973 17.0108 32.8002 17.1837 32.5986 17.1837Z" fill="#2BB19A" stroke="#2BB19A" stroke-width="0.5"/>
<path d="M16.9915 3.55627C16.7804 3.55627 16.6172 3.38341 16.6172 3.17212V1.18412C16.6172 0.972835 16.79 0.80957 16.9915 0.80957C17.1931 0.80957 17.3659 0.982439 17.3659 1.18412V3.17212C17.3659 3.38341 17.1931 3.55627 16.9915 3.55627Z" fill="#2BB19A" stroke="#2BB19A" stroke-width="0.5"/>
<path d="M3.37108 17.1837H1.38412C1.17295 17.1837 1.00977 17.0108 1.00977 16.8091C1.00977 16.6074 1.18254 16.4346 1.38412 16.4346H3.37108C3.58225 16.4346 3.74543 16.6074 3.74543 16.8091C3.74543 17.0108 3.57266 17.1837 3.37108 17.1837Z" fill="#2BB19A" stroke="#2BB19A" stroke-width="0.5"/>
<path d="M16.9915 32.7994C16.7804 32.7994 16.6172 32.6266 16.6172 32.4249V30.4369C16.6172 30.2256 16.79 30.0527 16.9915 30.0527C17.1931 30.0527 17.3659 30.2256 17.3659 30.4369V32.4249C17.3659 32.6362 17.1931 32.7994 16.9915 32.7994Z" fill="#2BB19A" stroke="#2BB19A" stroke-width="0.5"/>
</svg>
