<svg width="33" height="30" viewBox="0 0 33 30" fill="none" xmlns="http://www.w3.org/2000/svg">
<path d="M18.4958 23.0779H14.3464C14.0698 23.0779 13.8393 22.8473 13.8393 22.5705V14.3689C13.7102 14.4058 13.5719 14.4334 13.4243 14.4334H13.3413C12.5576 14.4334 11.9121 13.7969 11.9121 13.0035V8.44597C11.9121 7.1636 12.9541 6.12109 14.2358 6.12109H18.6065C19.8882 6.12109 20.9301 7.1636 20.9301 8.44597V13.0035C20.9301 13.7877 20.2939 14.4334 19.5009 14.4334H19.4179C19.2704 14.4334 19.1321 14.415 19.003 14.3689V22.5705C19.003 22.8473 18.7724 23.0779 18.4958 23.0779ZM14.8536 22.0631H17.9887V13.0035C17.9887 12.7267 18.2192 12.4961 18.4958 12.4961C18.7724 12.4961 19.003 12.7267 19.003 13.0035C19.003 13.2341 19.1874 13.4186 19.4179 13.4186H19.5009C19.7314 13.4186 19.9158 13.2341 19.9158 13.0035V8.44597C19.9158 7.72637 19.3257 7.13592 18.6065 7.13592H14.2358C13.5165 7.13592 12.9264 7.72637 12.9264 8.44597V13.0035C12.9264 13.2341 13.1108 13.4186 13.3413 13.4186H13.4243C13.6548 13.4186 13.8393 13.2341 13.8393 13.0035C13.8393 12.7267 14.0698 12.4961 14.3464 12.4961C14.623 12.4961 14.8536 12.7267 14.8536 13.0035V22.0631Z" fill="#08CE8A" stroke="#08CE8A" stroke-width="0.5"/>
<path d="M14.346 13.5092C14.0694 13.5092 13.8389 13.2786 13.8389 13.0018V9.90195C13.8389 9.62518 14.0694 9.39453 14.346 9.39453C14.6226 9.39453 14.8532 9.62518 14.8532 9.90195V13.0018C14.8532 13.2786 14.6226 13.5092 14.346 13.5092Z" fill="#08CE8A" stroke="#08CE8A" stroke-width="0.5"/>
<path d="M18.4954 13.5092C18.2188 13.5092 17.9883 13.2786 17.9883 13.0018V9.90195C17.9883 9.62518 18.2188 9.39453 18.4954 9.39453C18.772 9.39453 19.0026 9.62518 19.0026 9.90195V13.0018C19.0026 13.2786 18.772 13.5092 18.4954 13.5092Z" fill="#08CE8A" stroke="#08CE8A" stroke-width="0.5"/>
<path d="M16.4208 6.05568C15.0929 6.05568 14.0049 4.92092 14.0049 3.52784C14.0049 2.13476 15.0837 1 16.4208 1C17.7578 1 18.8366 2.13476 18.8366 3.52784C18.8366 4.92092 17.7578 6.05568 16.4208 6.05568ZM16.4208 2.02405C15.6462 2.02405 15.0192 2.69753 15.0192 3.53707C15.0192 4.37661 15.6462 5.05008 16.4208 5.05008C17.1953 5.05008 17.8223 4.37661 17.8223 3.53707C17.8223 2.69753 17.1953 2.02405 16.4208 2.02405Z" fill="#08CE8A" stroke="#08CE8A" stroke-width="0.5"/>
<path d="M16.4192 23.0775C16.1426 23.0775 15.9121 22.8468 15.9121 22.5701V15.5309C15.9121 15.2541 16.1426 15.0234 16.4192 15.0234C16.6959 15.0234 16.9264 15.2541 16.9264 15.5309V22.5701C16.9264 22.8468 16.6959 23.0775 16.4192 23.0775Z" fill="#08CE8A" stroke="#08CE8A" stroke-width="0.5"/>
<path d="M25.9089 28.9899C22.6723 28.9899 20.0352 26.3513 20.0352 23.1131C20.0352 19.8749 22.6723 17.2363 25.9089 17.2363C29.1454 17.2363 31.7826 19.8749 31.7826 23.1131C31.7826 26.3513 29.1454 28.9899 25.9089 28.9899ZM25.9089 18.2512C23.2256 18.2512 21.0494 20.4284 21.0494 23.1131C21.0494 25.7978 23.2256 27.975 25.9089 27.975C28.5921 27.975 30.7683 25.7978 30.7683 23.1131C30.7683 20.4284 28.5921 18.2512 25.9089 18.2512Z" fill="#08CE8A" stroke="#08CE8A" stroke-width="0.5"/>
<path d="M25.9093 18.2517C25.6327 18.2517 25.4021 18.0211 25.4021 17.7443V10.4191H22.3685C22.0919 10.4191 21.8613 10.1885 21.8613 9.91171C21.8613 9.63494 22.0919 9.4043 22.3685 9.4043H25.9093C26.1859 9.4043 26.4165 9.63494 26.4165 9.91171V17.7443C26.4165 18.0211 26.1859 18.2517 25.9093 18.2517Z" fill="#08CE8A" stroke="#08CE8A" stroke-width="0.5"/>
<path d="M24.3239 10.419H22.3691C22.1662 10.419 21.991 10.2991 21.908 10.1238C21.825 9.93926 21.8527 9.72707 21.991 9.57946L22.535 8.95211C22.7194 8.73992 23.0422 8.72147 23.245 8.90598C23.3926 9.03514 23.4479 9.22888 23.4018 9.4134H24.3146C24.5913 9.4134 24.8218 9.64404 24.8218 9.92081C24.8218 10.1976 24.5913 10.4282 24.3146 10.4282L24.3239 10.419Z" fill="#08CE8A" stroke="#08CE8A" stroke-width="0.5"/>
<path d="M22.9127 11.0465C22.7744 11.0465 22.6268 10.9911 22.5346 10.8712L21.9906 10.2438C21.8615 10.0962 21.8246 9.88403 21.9076 9.69952C21.9906 9.515 22.1658 9.4043 22.3686 9.4043H24.3235C24.6001 9.4043 24.8306 9.63494 24.8306 9.91171C24.8306 10.1885 24.6001 10.4191 24.3235 10.4191H23.4106C23.4567 10.5944 23.4014 10.7974 23.2538 10.9265C23.1616 11.0096 23.0418 11.0557 22.9219 11.0557L22.9127 11.0465Z" fill="#08CE8A" stroke="#08CE8A" stroke-width="0.5"/>
<path d="M24.4798 28.1064C24.2032 28.1064 23.9727 27.8757 23.9727 27.599V25.4586C23.9727 25.1818 24.2032 24.9512 24.4798 24.9512C24.7564 24.9512 24.987 25.1818 24.987 25.4586V27.599C24.987 27.8757 24.7564 28.1064 24.4798 28.1064Z" fill="#08CE8A" stroke="#08CE8A" stroke-width="0.5"/>
<path d="M27.348 28.1064C27.0713 28.1064 26.8408 27.8757 26.8408 27.599V25.4586C26.8408 25.1818 27.0713 24.9512 27.348 24.9512C27.6246 24.9512 27.8551 25.1818 27.8551 25.4586V27.599C27.8551 27.8757 27.6246 28.1064 27.348 28.1064Z" fill="#08CE8A" stroke="#08CE8A" stroke-width="0.5"/>
<path d="M25.9088 22.5139C24.9037 22.5139 24.083 21.6651 24.083 20.6134C24.083 19.5617 24.9037 18.7129 25.9088 18.7129C26.9138 18.7129 27.7345 19.5617 27.7345 20.6134C27.7345 21.6651 26.9138 22.5139 25.9088 22.5139ZM25.9088 19.7277C25.4662 19.7277 25.0973 20.1244 25.0973 20.6134C25.0973 21.1024 25.4569 21.4991 25.9088 21.4991C26.3606 21.4991 26.7202 21.1024 26.7202 20.6134C26.7202 20.1244 26.3606 19.7277 25.9088 19.7277Z" fill="#08CE8A" stroke="#08CE8A" stroke-width="0.5"/>
<path d="M25.9087 28.9906C25.3924 28.9906 24.8668 28.9168 24.3412 28.7692C24.2674 28.7507 24.2121 28.7138 24.1568 28.6769C24.083 28.6769 24.0185 28.6769 23.9539 28.6493C23.5851 28.5201 23.2347 28.354 22.9027 28.1511C22.7736 28.0773 22.6906 27.9481 22.663 27.8097C22.6537 27.7451 22.6445 27.6713 22.6445 27.5975V24.4516C22.6445 23.4829 23.4375 22.6895 24.4057 22.6895H27.4209C28.3891 22.6895 29.1821 23.4829 29.1821 24.4516V27.5975C29.1821 27.6713 29.1822 27.7359 29.1637 27.8097C29.136 27.9481 29.053 28.0773 28.924 28.1511C28.592 28.3448 28.2416 28.5109 27.8728 28.6493C27.8082 28.6769 27.7345 28.6862 27.6699 28.6769C27.6146 28.7231 27.55 28.7507 27.4855 28.7784C26.9599 28.926 26.4343 28.9998 25.918 28.9998L25.9087 28.9906ZM24.9774 27.8835C25.5952 28.0035 26.213 28.0035 26.8308 27.8835V27.5975C26.8308 27.3208 27.0613 27.0901 27.338 27.0901C27.6146 27.0901 27.8267 27.3023 27.8451 27.5606C27.9558 27.5145 28.0572 27.4684 28.1586 27.413V24.4516C28.1586 24.0364 27.8267 23.7043 27.4117 23.7043H24.3965C23.9816 23.7043 23.6496 24.0364 23.6496 24.4516V27.413C23.751 27.4684 23.8617 27.5145 23.9631 27.5606C23.9816 27.2931 24.2029 27.0901 24.4703 27.0901C24.7377 27.0901 24.9774 27.3208 24.9774 27.5975V27.8835Z" fill="#08CE8A" stroke="#08CE8A" stroke-width="0.5"/>
<path d="M6.9323 28.9899C3.69576 28.9899 1.05859 26.3513 1.05859 23.1131C1.05859 19.8749 3.69576 17.2363 6.9323 17.2363C10.1688 17.2363 12.806 19.8749 12.806 23.1131C12.806 26.3513 10.1688 28.9899 6.9323 28.9899ZM6.9323 18.2512C4.24902 18.2512 2.0729 20.4284 2.0729 23.1131C2.0729 25.7978 4.24902 27.975 6.9323 27.975C9.61557 27.975 11.7917 25.7978 11.7917 23.1131C11.7917 20.4284 9.61557 18.2512 6.9323 18.2512Z" fill="#08CE8A" stroke="#08CE8A" stroke-width="0.5"/>
<path d="M6.93097 18.2517C6.65434 18.2517 6.42383 18.0211 6.42383 17.7443V9.91171C6.42383 9.63494 6.65434 9.4043 6.93097 9.4043H10.4718C10.7484 9.4043 10.979 9.63494 10.979 9.91171C10.979 10.1885 10.7484 10.4191 10.4718 10.4191H7.43813V17.7443C7.43813 18.0211 7.20759 18.2517 6.93097 18.2517Z" fill="#08CE8A" stroke="#08CE8A" stroke-width="0.5"/>
<path d="M10.4825 10.4204H8.52765C8.25102 10.4204 8.02051 10.1898 8.02051 9.913C8.02051 9.63622 8.25102 9.40558 8.52765 9.40558H9.4405C9.3944 9.23029 9.44974 9.02733 9.59727 8.89817C9.80935 8.71366 10.1321 8.73211 10.3073 8.9443L10.8513 9.57165C10.9804 9.71926 11.0173 9.93145 10.9343 10.116C10.8513 10.3005 10.6761 10.4112 10.4733 10.4112L10.4825 10.4204Z" fill="#08CE8A" stroke="#08CE8A" stroke-width="0.5"/>
<path d="M9.92921 11.0459C9.80934 11.0459 9.68948 11.009 9.59727 10.9168C9.44974 10.7876 9.3944 10.5939 9.4405 10.4094H8.52765C8.25102 10.4094 8.02051 10.1787 8.02051 9.90195C8.02051 9.62518 8.25102 9.39453 8.52765 9.39453H10.4825C10.6853 9.39453 10.8605 9.51447 10.9435 9.68975C11.0265 9.87427 10.9988 10.0865 10.8605 10.2341L10.3165 10.8614C10.2151 10.9721 10.0768 11.0367 9.93844 11.0367L9.92921 11.0459Z" fill="#08CE8A" stroke="#08CE8A" stroke-width="0.5"/>
<path d="M8.3714 28.1064C8.09477 28.1064 7.86426 27.8757 7.86426 27.599V25.4586C7.86426 25.1818 8.09477 24.9512 8.3714 24.9512C8.64802 24.9512 8.87856 25.1818 8.87856 25.4586V27.599C8.87856 27.8757 8.64802 28.1064 8.3714 28.1064Z" fill="#08CE8A" stroke="#08CE8A" stroke-width="0.5"/>
<path d="M5.50225 28.1064C5.22563 28.1064 4.99512 27.8757 4.99512 27.599V25.4586C4.99512 25.1818 5.22563 24.9512 5.50225 24.9512C5.77888 24.9512 6.00939 25.1818 6.00939 25.4586V27.599C6.00939 27.8757 5.77888 28.1064 5.50225 28.1064Z" fill="#08CE8A" stroke="#08CE8A" stroke-width="0.5"/>
<path d="M6.93216 22.5139C5.92709 22.5139 5.10645 21.6651 5.10645 20.6134C5.10645 19.5617 5.92709 18.7129 6.93216 18.7129C7.93724 18.7129 8.75791 19.5617 8.75791 20.6134C8.75791 21.6651 7.93724 22.5139 6.93216 22.5139ZM6.93216 19.7277C6.48956 19.7277 6.12075 20.1244 6.12075 20.6134C6.12075 21.1024 6.48034 21.4991 6.93216 21.4991C7.38399 21.4991 7.74361 21.1024 7.74361 20.6134C7.74361 20.1244 7.38399 19.7277 6.93216 19.7277Z" fill="#08CE8A" stroke="#08CE8A" stroke-width="0.5"/>
<path d="M6.93214 28.992C6.41577 28.992 5.8902 28.9182 5.36461 28.7706C5.29084 28.7521 5.23551 28.7152 5.18018 28.6691C5.10641 28.6691 5.04187 28.6691 4.97732 28.6414C4.60848 28.5123 4.2581 28.3462 3.92615 28.1433C3.80628 28.0694 3.71406 27.9495 3.6864 27.8019C3.67718 27.7373 3.66797 27.6635 3.66797 27.5897V24.4438C3.66797 23.4751 4.46097 22.6816 5.42916 22.6816H8.44438C9.41258 22.6816 10.2056 23.4751 10.2056 24.4438V27.5897C10.2056 27.6635 10.2056 27.7373 10.1871 27.8019C10.1595 27.9403 10.0765 28.0694 9.94739 28.1433C9.61544 28.337 9.26503 28.5031 8.8962 28.6414C8.83165 28.6691 8.75788 28.6783 8.69334 28.6691C8.63801 28.7152 8.57348 28.7429 8.50894 28.7706C7.98335 28.9182 7.45774 28.992 6.94137 28.992H6.93214ZM6.00085 27.8849C6.61865 28.0049 7.23643 28.0049 7.85423 27.8849V27.5989C7.85423 27.3222 8.08477 27.0915 8.3614 27.0915C8.63803 27.0915 8.8501 27.3037 8.86854 27.562C8.97919 27.5159 9.08061 27.4606 9.18204 27.4144V24.453C9.18204 24.0378 8.85009 23.7057 8.43515 23.7057H5.41993C5.00499 23.7057 4.67304 24.0378 4.67304 24.453V27.4144C4.77447 27.4698 4.88512 27.5159 4.98655 27.5713C5.00499 27.3037 5.22628 27.1008 5.49369 27.1008C5.76109 27.1008 6.00085 27.3314 6.00085 27.6082V27.8942V27.8849Z" fill="#08CE8A" stroke="#08CE8A" stroke-width="0.5"/>
<path d="M20.5429 23.0773H12.2718C11.9952 23.0773 11.7646 22.8467 11.7646 22.5699C11.7646 22.2931 11.9952 22.0625 12.2718 22.0625H20.5429C20.8196 22.0625 21.0501 22.2931 21.0501 22.5699C21.0501 22.8467 20.8196 23.0773 20.5429 23.0773Z" fill="#08CE8A" stroke="#08CE8A" stroke-width="0.5"/>
</svg>
