<svg width="27" height="24" viewBox="0 0 27 24" fill="none" xmlns="http://www.w3.org/2000/svg">
<g clip-path="url(#clip0_3165_714)">
<path d="M23.9422 24H2.26064C1.02756 24 0 22.9916 0 21.7815V7.15965C0 5.94956 1.02756 4.94116 2.26064 4.94116H23.9936C25.2267 4.94116 26.2543 5.94956 26.2543 7.15965V21.7815C26.2543 22.9916 25.2267 24 23.9936 24H23.9422ZM2.26064 6.10083C1.6441 6.10083 1.13032 6.60503 1.13032 7.21007V21.8319C1.13032 22.437 1.6441 22.9412 2.26064 22.9412H23.9936C24.6102 22.9412 25.1239 22.437 25.1239 21.8319V7.15965C25.1239 6.55461 24.6102 6.05041 23.9936 6.05041H2.26064V6.10083Z" fill="#FF7D00"/>
<path d="M18.2389 6.10068H7.96323C7.65496 6.10068 7.39807 5.84858 7.39807 5.54606V3.83177C7.39807 2.62168 8.42564 1.61328 9.65871 1.61328H16.5948C17.8279 1.61328 18.8554 2.62168 18.8554 3.83177V5.54606C18.8554 5.84858 18.5985 6.10068 18.2903 6.10068H18.2389ZM8.47701 4.99143H17.6737V3.78135C17.6737 3.17631 17.1599 2.6721 16.5434 2.6721H9.60734C8.9908 2.6721 8.47701 3.17631 8.47701 3.78135V4.99143Z" fill="#FF7D00"/>
<path d="M19.9353 6.10071H6.26865C5.96038 6.10071 5.70349 5.84861 5.70349 5.54609V3.3276C5.70349 1.51248 7.19346 0.050293 9.04307 0.050293H17.1608C19.0104 0.050293 20.5004 1.51248 20.5004 3.3276V5.54609C20.5004 5.84861 20.2435 6.10071 19.9353 6.10071ZM6.83381 4.99147H19.4215V3.27718C19.4215 2.0671 18.3939 1.0587 17.1608 1.0587H9.04307C7.81 1.0587 6.78243 2.0671 6.78243 3.27718V4.99147H6.83381Z" fill="#FF7D00"/>
<path d="M9.35085 15.0253H4.82956C4.5213 15.0253 4.2644 14.7732 4.2644 14.4707V11.3447C4.2644 11.0421 4.5213 10.79 4.82956 10.79H9.35085C9.65912 10.79 9.91601 11.0421 9.91601 11.3447V14.4707C9.91601 14.7732 9.65912 15.0253 9.35085 15.0253ZM5.39472 13.9161H8.78569V11.8993H5.39472V13.9161Z" fill="#FF7D00"/>
<path d="M21.3216 15.0251H16.8003C16.4921 15.0251 16.2352 14.773 16.2352 14.4705V11.3444C16.2352 11.0419 16.4921 10.7898 16.8003 10.7898H21.3216C21.6299 10.7898 21.8868 11.0419 21.8868 11.3444V14.4705C21.8868 14.773 21.6299 15.0251 21.3216 15.0251ZM17.3655 13.9158H20.7564V11.899H17.3655V13.9158Z" fill="#FF7D00"/>
<path d="M23.2229 13.0589H21.3733C21.0651 13.0589 20.8082 12.8068 20.8082 12.5043V11.9497H17.4172V12.5043C17.4172 12.8068 17.1603 13.0589 16.852 13.0589H9.35083C9.04256 13.0589 8.78567 12.8068 8.78567 12.5043V11.9497H5.39471V12.5043C5.39471 12.8068 5.13782 13.0589 4.82955 13.0589H2.97994C1.33583 13.0589 0 11.748 0 10.1346V7.21019C0 6.0001 1.02756 4.9917 2.26064 4.9917H23.9936C25.2267 4.9917 26.2543 6.0001 26.2543 7.21019V10.1346C26.2543 11.748 24.9184 13.0589 23.2743 13.0589H23.2229ZM21.9385 11.9497H23.2229C24.2505 11.9497 25.0726 11.143 25.0726 10.1346V7.21019C25.0726 6.60514 24.5588 6.10094 23.9422 6.10094H2.26064C1.6441 6.10094 1.13032 6.60514 1.13032 7.21019V10.1346C1.13032 11.143 1.95237 11.9497 2.97994 11.9497H4.26439V11.3951C4.26439 11.0925 4.52128 10.8404 4.82955 10.8404H9.35083C9.6591 10.8404 9.91599 11.0925 9.91599 11.3951V11.9497H16.2869V11.3951C16.2869 11.0925 16.5438 10.8404 16.852 10.8404H21.3733C21.6816 10.8404 21.9385 11.0925 21.9385 11.3951V11.9497Z" fill="#FF7D00"/>
<path d="M4.88094 21.6808H3.18546C2.87719 21.6808 2.6203 21.4287 2.6203 21.1262C2.6203 20.8236 2.87719 20.5715 3.18546 20.5715H4.88094C5.18921 20.5715 5.4461 20.8236 5.4461 21.1262C5.4461 21.4287 5.18921 21.6808 4.88094 21.6808Z" fill="#FF7D00"/>
<path d="M9.81293 21.6805H7.34678C7.03851 21.6805 6.78162 21.4284 6.78162 21.1259C6.78162 20.8234 7.03851 20.5713 7.34678 20.5713H9.81293C10.1212 20.5713 10.3781 20.8234 10.3781 21.1259C10.3781 21.4284 10.1212 21.6805 9.81293 21.6805Z" fill="#FF7D00"/>
<path d="M13.9747 21.6805H12.2792C11.9709 21.6805 11.7141 21.4284 11.7141 21.1259C11.7141 20.8234 11.9709 20.5713 12.2792 20.5713H13.9747C14.283 20.5713 14.5399 20.8234 14.5399 21.1259C14.5399 21.4284 14.283 21.6805 13.9747 21.6805Z" fill="#FF7D00"/>
</g>
<defs>
<clipPath id="clip0_3165_714">
<rect width="26.2029" height="24" fill="white"/>
</clipPath>
</defs>
</svg>
