<svg width="24" height="24" viewBox="0 0 24 24" fill="none" xmlns="http://www.w3.org/2000/svg">
<g clip-path="url(#clip0_3165_822)">
<path d="M19.8654 24.0001H15.9553C15.9553 24.0001 15.5508 23.8203 15.5508 23.5956V23.0113C15.5508 22.1124 16.3148 21.3484 17.2137 21.3484H17.3935V10.6517C17.3935 10.6517 17.5733 10.2472 17.798 10.2472C18.0227 10.2472 18.2025 10.427 18.2025 10.6517V21.7529C18.2025 21.7529 18.0227 22.1574 17.798 22.1574H17.2137C16.7193 22.1574 16.3598 22.5619 16.3598 23.0113V23.1911H19.4609V15.236C19.4609 15.236 19.6407 14.8315 19.8654 14.8315C20.0901 14.8315 20.4497 14.5619 20.4497 14.1574V7.68545C20.4497 7.14612 20.0002 6.69668 19.4609 6.69668H18.3373C18.3373 6.69668 18.2025 6.74163 18.2025 6.83152V8.045C18.2025 8.045 18.0227 8.44949 17.798 8.44949C17.5733 8.44949 17.3935 8.26972 17.3935 8.045V6.83152C17.3935 6.29219 17.798 5.8877 18.3373 5.8877H19.4609C20.4497 5.8877 21.2586 6.69668 21.2586 7.68545V14.1574C21.2586 14.7866 20.8542 15.3708 20.2699 15.5506V23.5506C20.2699 23.5506 20.0901 23.9551 19.8654 23.9551V24.0001Z" fill="#FF7D00"/>
<path d="M19.1011 5.03371C17.7079 5.03371 16.5843 3.91011 16.5843 2.51685C16.5843 1.1236 17.7079 0 19.1011 0C20.4944 0 21.618 1.1236 21.618 2.51685C21.618 3.91011 20.4944 5.03371 19.1011 5.03371ZM19.1011 0.808989C18.1573 0.808989 17.3933 1.57303 17.3933 2.51685C17.3933 3.46067 18.1573 4.22472 19.1011 4.22472C20.045 4.22472 20.809 3.46067 20.809 2.51685C20.809 1.57303 20.045 0.808989 19.1011 0.808989Z" fill="#FF7D00"/>
<path d="M4.67414 5.03371C3.28088 5.03371 2.15729 3.91011 2.15729 2.51685C2.15729 1.1236 3.28088 0 4.67414 0C6.0674 0 7.191 1.1236 7.191 2.51685C7.191 3.91011 6.0674 5.03371 4.67414 5.03371ZM4.67414 0.808989C3.73032 0.808989 2.96628 1.57303 2.96628 2.51685C2.96628 3.46067 3.73032 4.22472 4.67414 4.22472C5.61796 4.22472 6.38201 3.46067 6.38201 2.51685C6.38201 1.57303 5.61796 0.808989 4.67414 0.808989Z" fill="#FF7D00"/>
<path d="M15.9553 12.3594H13.5283C13.5283 12.3594 13.1238 12.1797 13.1238 11.9549C13.1238 11.7302 13.3036 11.5504 13.5283 11.5504H15.9553C15.9553 11.5504 16.225 11.5055 16.3149 11.4156L18.5171 9.48302C18.5171 9.48302 18.9216 9.34819 19.1014 9.48302C19.2362 9.6628 19.2362 9.88752 19.1014 10.0673L16.8991 11.9999C16.6295 12.2246 16.3149 12.3594 16.0002 12.3594H15.9553Z" fill="#FF7D00"/>
<path d="M15.5961 10.3822H14.5174C14.5174 10.3822 14.1129 10.2024 14.1129 9.97768C14.1129 9.75296 14.2927 9.57318 14.5174 9.57318H15.4612L17.7983 7.50577C17.7983 7.50577 18.2477 7.19116 18.5174 7.19116C18.7421 7.19116 18.9219 7.32599 18.9668 7.55071C18.9668 7.77543 18.832 7.95521 18.6073 8.00015C18.4725 8.00015 18.3826 8.04509 18.2927 8.13498L15.8208 10.2923C15.8208 10.2923 15.641 10.3822 15.5511 10.3822H15.5961Z" fill="#FF7D00"/>
<path d="M7.82058 24H3.91047C3.91047 24 3.50598 23.8203 3.50598 23.5955V15.5955C2.96665 15.4158 2.51721 14.8315 2.51721 14.2023V7.73037C2.51721 6.74161 3.3262 5.93262 4.31496 5.93262H5.43856C5.97789 5.93262 6.38238 6.33711 6.38238 6.87644V8.08992C6.38238 8.08992 6.20261 8.49441 5.97789 8.49441C5.75317 8.49441 5.57339 8.31464 5.57339 8.08992V6.87644C5.57339 6.87644 5.52845 6.74161 5.43856 6.74161H4.31496C3.77564 6.74161 3.3262 7.19104 3.3262 7.73037V14.2023C3.3262 14.6068 3.68575 14.8764 3.91047 14.8764C4.13519 14.8764 4.31496 15.0562 4.31496 15.2809V23.236H7.41609V23.0562C7.41609 22.5618 7.01159 22.2023 6.56216 22.2023H5.97789C5.97789 22.2023 5.57339 22.0225 5.57339 21.7978V10.6967C5.57339 10.6967 5.75317 10.2922 5.97789 10.2922C6.20261 10.2922 6.38238 10.4719 6.38238 10.6967V21.3933H6.56216C7.46103 21.3933 8.22508 22.1573 8.22508 23.0562V23.6405C8.22508 23.6405 8.0453 24.045 7.82058 24.045V24Z" fill="#FF7D00"/>
<path d="M11.5051 12.3597H7.77477C7.46017 12.3597 7.10062 12.2249 6.8759 12.0002L4.67365 10.0676C4.67365 10.0676 4.49387 9.66307 4.67365 9.4833C4.80848 9.30352 5.07814 9.30352 5.25792 9.4833L7.46017 11.4159C7.46017 11.4159 7.68489 11.5507 7.81972 11.5507H11.5501C11.8647 11.5507 12.1343 11.281 12.1343 10.9664C12.1343 10.6518 11.8647 10.3822 11.5501 10.3822H8.17927C8.17927 10.3822 7.99949 10.3822 7.90961 10.2923L5.4377 8.13498C5.4377 8.13498 5.25792 8.00015 5.12309 8.00015C4.89837 8.00015 4.76354 7.77543 4.76354 7.55071C4.76354 7.32599 4.98826 7.19116 5.21298 7.19116C5.48264 7.19116 5.7523 7.32599 5.93208 7.50577L8.26916 9.57318H11.4602C12.2242 9.57318 12.8534 10.2024 12.8534 10.9664C12.8534 11.7305 12.2242 12.3597 11.4602 12.3597H11.5051Z" fill="#FF7D00"/>
<path d="M21.4831 23.9999H2.20222C2.20222 23.9999 1.79773 23.8201 1.79773 23.5954C1.79773 23.3707 1.9775 23.1909 2.20222 23.1909H21.4831C21.4831 23.1909 21.8876 23.3707 21.8876 23.5954C21.8876 23.8201 21.7078 23.9999 21.4831 23.9999Z" fill="#FF7D00"/>
<path d="M1.39326 10.382H0.404494C0.404494 10.382 0 10.2022 0 9.97749C0 9.75277 0.179775 9.573 0.404494 9.573H1.39326C1.39326 9.573 1.79775 9.75277 1.79775 9.97749C1.79775 10.2022 1.61798 10.382 1.39326 10.382Z" fill="#FF7D00"/>
<path d="M1.39326 13.2585H0.404494C0.404494 13.2585 0 13.0787 0 12.854C0 12.6292 0.179775 12.4495 0.404494 12.4495H1.39326C1.39326 12.4495 1.79775 12.6292 1.79775 12.854C1.79775 13.0787 1.61798 13.2585 1.39326 13.2585Z" fill="#FF7D00"/>
<path d="M1.39326 16.1349H0.404494C0.404494 16.1349 0 15.9551 0 15.7304C0 15.5057 0.179775 15.3259 0.404494 15.3259H1.39326C1.39326 15.3259 1.79775 15.5057 1.79775 15.7304C1.79775 15.9551 1.61798 16.1349 1.39326 16.1349Z" fill="#FF7D00"/>
<path d="M23.3706 10.382H22.3819C22.3819 10.382 21.9774 10.2022 21.9774 9.97749C21.9774 9.75277 22.1571 9.573 22.3819 9.573H23.3706C23.3706 9.573 23.7751 9.75277 23.7751 9.97749C23.7751 10.2022 23.5953 10.382 23.3706 10.382Z" fill="#FF7D00"/>
<path d="M23.3706 13.2585H22.3819C22.3819 13.2585 21.9774 13.0787 21.9774 12.854C21.9774 12.6292 22.1571 12.4495 22.3819 12.4495H23.3706C23.3706 12.4495 23.7751 12.6292 23.7751 12.854C23.7751 13.0787 23.5953 13.2585 23.3706 13.2585Z" fill="#FF7D00"/>
<path d="M23.3706 16.1347H22.3819C22.3819 16.1347 21.9774 15.9549 21.9774 15.7302C21.9774 15.5055 22.1571 15.3257 22.3819 15.3257H23.3706C23.3706 15.3257 23.7751 15.5055 23.7751 15.7302C23.7751 15.9549 23.5953 16.1347 23.3706 16.1347Z" fill="#FF7D00"/>
<path d="M11.8653 10.3819C11.8653 10.3819 11.7755 10.3819 11.6856 10.3819L9.84287 9.57293C8.49456 8.98866 7.64062 7.68529 7.64062 6.24708V1.97742C7.64062 1.97742 7.8204 1.57293 8.04512 1.57293C9.07883 1.57293 10.1125 1.34821 11.0564 0.898769L11.6406 0.629106C11.6406 0.629106 11.8653 0.584162 11.9552 0.629106L12.5395 0.898769C13.4833 1.34821 14.517 1.57293 15.5507 1.57293C15.7755 1.57293 15.9552 1.7527 15.9552 1.97742V6.20214C15.9552 7.64034 15.1013 8.94371 13.753 9.52798L11.9103 10.337C11.9103 10.337 11.8204 10.337 11.7305 10.337L11.8653 10.3819ZM8.49456 2.33697V6.1572C8.49456 7.28079 9.16871 8.3145 10.2024 8.76394L11.8653 9.48304L13.5283 8.76394C14.562 8.3145 15.2361 7.28079 15.2361 6.1572V2.33697C14.2024 2.29203 13.2137 2.02236 12.2698 1.61787L11.8204 1.43809L11.371 1.61787C10.4271 2.02236 9.43838 2.29203 8.40467 2.33697H8.49456Z" fill="#FF7D00"/>
<path d="M13.8881 7.95503H9.79823C9.79823 7.95503 9.39374 7.77525 9.39374 7.55053V2.96626C9.39374 2.96626 9.57351 2.56177 9.79823 2.56177H12.7645C12.7645 2.56177 13.169 2.74154 13.169 2.96626C13.169 3.19098 12.9892 3.37076 12.7645 3.37076H10.2027V7.19098H13.4836V4.08986C13.4836 4.08986 13.6634 3.68536 13.8881 3.68536C14.1128 3.68536 14.2926 3.86514 14.2926 4.08986V7.59548C14.2926 7.59548 14.1128 7.99997 13.8881 7.99997V7.95503Z" fill="#FF7D00"/>
<path d="M12.7642 4.44943C12.7642 4.44943 12.3597 4.26965 12.3597 4.04494V2.92134C12.3597 2.92134 12.5395 2.51685 12.7642 2.51685C12.989 2.51685 13.1687 2.69662 13.1687 2.92134V4.04494C13.1687 4.04494 12.989 4.44943 12.7642 4.44943Z" fill="#FF7D00"/>
<path d="M13.8878 4.44937H12.7642C12.7642 4.44937 12.3597 4.26959 12.3597 4.04488C12.3597 3.82016 12.5395 3.64038 12.7642 3.64038H13.8878C13.8878 3.64038 14.2923 3.82016 14.2923 4.04488C14.2923 4.26959 14.1125 4.44937 13.8878 4.44937Z" fill="#FF7D00"/>
<path d="M12.2699 6.69668H11.2362C11.2362 6.69668 10.8317 6.51691 10.8317 6.29219C10.8317 6.06747 11.0114 5.8877 11.2362 5.8877H12.2699C12.2699 5.8877 12.6744 6.06747 12.6744 6.29219C12.6744 6.51691 12.4946 6.69668 12.2699 6.69668Z" fill="#FF7D00"/>
<path d="M12.2699 5.52823H11.2362C11.2362 5.52823 10.8317 5.34845 10.8317 5.12373C10.8317 4.89901 11.0114 4.71924 11.2362 4.71924H12.2699C12.2699 4.71924 12.6744 4.89901 12.6744 5.12373C12.6744 5.34845 12.4946 5.52823 12.2699 5.52823Z" fill="#FF7D00"/>
<path d="M14.6968 14.6967H8.80916C8.80916 14.6967 8.40466 14.5169 8.40466 14.2922C8.40466 14.0675 8.58444 13.8877 8.80916 13.8877H14.6968C14.6968 13.8877 15.1013 14.0675 15.1013 14.2922C15.1013 14.5169 14.9215 14.6967 14.6968 14.6967Z" fill="#FF7D00"/>
<path d="M14.6968 16.9887H8.80916C8.80916 16.9887 8.40466 16.8089 8.40466 16.5842C8.40466 16.3595 8.58444 16.1797 8.80916 16.1797H14.6968C14.6968 16.1797 15.1013 16.3595 15.1013 16.5842C15.1013 16.8089 14.9215 16.9887 14.6968 16.9887Z" fill="#FF7D00"/>
<path d="M14.6968 19.236H8.80916C8.80916 19.236 8.40466 19.0562 8.40466 18.8315C8.40466 18.6068 8.58444 18.427 8.80916 18.427H14.6968C14.6968 18.427 15.1013 18.6068 15.1013 18.8315C15.1013 19.0562 14.9215 19.236 14.6968 19.236Z" fill="#FF7D00"/>
</g>
<defs>
<clipPath id="clip0_3165_822">
<rect width="23.7753" height="24" fill="white"/>
</clipPath>
</defs>
</svg>
