<svg width="21" height="24" viewBox="0 0 21 24" fill="none" xmlns="http://www.w3.org/2000/svg">
<g clip-path="url(#clip0_3165_859)">
<path d="M10.1221 24C10.1221 24 9.98473 24 9.89313 23.9542L3.80153 20.1985C1.41985 18.7328 0 16.1679 0 13.3282V1.05344C0 0.458015 0.458015 0 1.05344 0H19.145C19.7405 0 20.1985 0.458015 20.1985 1.05344V13.2824C20.1985 16.0763 18.7786 18.687 16.3969 20.1527L10.3053 23.9084C10.3053 23.9084 10.1679 23.9542 10.0763 23.9542L10.1221 24ZM1.05344 0.824428C1.05344 0.824428 0.824428 0.916031 0.824428 1.05344V13.2824C0.824428 15.8015 2.10687 18.1374 4.25954 19.4657L10.1221 23.084L15.9847 19.4657C18.1374 18.1374 19.4198 15.8015 19.4198 13.2824V1.05344C19.4198 1.05344 19.3282 0.824428 19.1908 0.824428H1.05344Z" fill="#FF7D00"/>
<path d="M10.0762 12.687C10.0762 12.687 9.75557 12.5954 9.70976 12.458C9.61816 12.2748 9.70977 12 9.89297 11.9084L18.0914 8.06104C18.0914 8.06104 18.5495 8.06103 18.6411 8.24424C18.7327 8.42745 18.6411 8.70226 18.4579 8.79386L10.2594 12.6412C10.2594 12.6412 10.1678 12.6412 10.0762 12.6412V12.687Z" fill="#FF7D00"/>
<path d="M10.0763 12.687C10.0763 12.687 9.93893 12.687 9.89313 12.687L1.64885 8.79387C1.64885 8.79387 1.41985 8.56486 1.41985 8.42745C1.41985 8.24425 1.51145 8.10684 1.69465 8.06104L9.93893 4.71753C9.93893 4.71753 10.1679 4.71753 10.2595 4.71753L18.5038 8.06104C18.5038 8.06104 18.8244 8.38165 18.7328 8.61066C18.6412 8.83967 18.4122 8.93127 18.1832 8.83967L10.0763 5.54196L2.83969 8.47325L10.2595 11.9084C10.2595 11.9084 10.5344 12.229 10.4427 12.458C10.3511 12.5954 10.2137 12.687 10.0763 12.687Z" fill="#FF7D00"/>
<path d="M10.0762 17.084H9.98455C9.70975 17.084 8.19829 17.084 7.00745 16.3054C6.45784 15.9848 5.90822 15.7558 5.3128 15.6642C5.12959 15.6642 4.99219 15.481 4.99219 15.2519V10.1222C4.99219 10.1222 5.17539 9.70996 5.4044 9.70996C5.63341 9.70996 5.81661 9.89317 5.81661 10.1222V14.9313C6.36623 15.0687 6.91585 15.2977 7.46547 15.6184C8.56471 16.3054 10.0304 16.2596 10.0304 16.2596C10.0304 16.2596 11.5418 16.2596 12.641 15.6184C13.1449 15.2977 13.6945 15.0687 14.3357 14.9313V10.1222C14.3357 10.1222 14.4731 9.70996 14.7021 9.70996C14.9311 9.70996 15.1143 9.89317 15.1143 10.1222V15.2519C15.1143 15.2519 14.9769 15.6184 14.7937 15.6642C14.1525 15.7558 13.6029 15.9848 13.0533 16.3054C11.8624 17.0382 10.351 17.084 10.0762 17.084Z" fill="#FF7D00"/>
<path d="M8.29026 10.1679C8.29026 10.1679 8.19866 10.1679 8.15285 10.1679L4.99255 8.83969C4.99255 8.83969 4.71774 8.61068 4.76354 8.47328C4.76354 8.29007 4.85514 8.15267 5.03835 8.10687L9.98492 6.229C9.98492 6.229 10.4429 6.229 10.4887 6.45801C10.5803 6.68702 10.4887 6.91603 10.2597 6.96183L6.22919 8.47328L8.47347 9.38931C8.47347 9.38931 8.79408 9.70992 8.70247 9.93893C8.65667 10.0763 8.47347 10.1679 8.33606 10.1679H8.29026Z" fill="#FF7D00"/>
<path d="M19.8319 3.38937H15.7556C15.7556 3.38937 15.3434 3.20616 15.3434 2.97716C15.3434 2.74815 15.5266 2.56494 15.7556 2.56494H19.8319C19.8319 2.56494 20.2441 2.74815 20.2441 2.97716C20.2441 3.20616 20.0609 3.38937 19.8319 3.38937Z" fill="#FF7D00"/>
<path d="M13.1908 3.38937H0.412214C0.412214 3.38937 0 3.20616 0 2.97716C0 2.74815 0.183206 2.56494 0.412214 2.56494H13.1908C13.1908 2.56494 13.6031 2.74815 13.6031 2.97716C13.6031 3.20616 13.4198 3.38937 13.1908 3.38937Z" fill="#FF7D00"/>
<path d="M10.0766 21.0228C10.0766 21.0228 9.93919 21.0228 9.84759 20.977L4.90102 17.7709C4.90102 17.7709 4.67201 17.4045 4.76362 17.2213C4.90102 17.0381 5.13003 16.9923 5.31324 17.0839L10.0766 20.1526L14.84 17.0839C14.84 17.0839 15.298 17.0381 15.3896 17.2213C15.527 17.4045 15.4354 17.6793 15.2522 17.7709L10.3056 20.977C10.3056 20.977 10.1682 21.0228 10.0766 21.0228Z" fill="#FF7D00"/>
<path d="M15.7099 24H3.89313C3.89313 24 3.48091 23.8168 3.48091 23.5878C3.48091 23.3587 3.66412 23.1755 3.89313 23.1755H15.7099C15.7099 23.1755 16.1221 23.3587 16.1221 23.5878C16.1221 23.8168 15.9389 24 15.7099 24Z" fill="#FF7D00"/>
</g>
<defs>
<clipPath id="clip0_3165_859">
<rect width="20.1985" height="24" fill="white"/>
</clipPath>
</defs>
</svg>
