<svg width="32" height="34" viewBox="0 0 32 34" fill="none" xmlns="http://www.w3.org/2000/svg">
<path d="M22.9529 32.7902C22.8761 32.7902 22.7897 32.771 22.7225 32.7326C22.5497 32.6462 22.4346 32.4637 22.4346 32.2716V28.2188C22.4346 27.9307 22.6649 27.7002 22.9529 27.7002H28.4626C28.6834 27.7002 28.885 27.8443 28.9522 28.0555C29.0194 28.2668 28.9522 28.5069 28.7698 28.6318L23.2601 32.6846C23.1737 32.7518 23.0585 32.7902 22.9529 32.7902ZM23.4712 28.7374V31.244L26.8884 28.7374H23.4712Z" fill="#2BB19A" stroke="#2BB19A" stroke-width="0.5"/>
<path d="M22.9529 32.7902H6.59647C6.30851 32.7902 6.07812 32.5597 6.07812 32.2716V31.1959C6.07812 30.9078 6.30851 30.6773 6.59647 30.6773C6.88444 30.6773 7.11479 30.9078 7.11479 31.1959V31.7529H22.7897L27.9539 27.9498V3.86338H7.11479V17.8082C7.11479 18.0963 6.88444 18.3268 6.59647 18.3268C6.30851 18.3268 6.07812 18.0963 6.07812 17.8082V3.34478C6.07812 3.05666 6.30851 2.82617 6.59647 2.82617H28.4722C28.7602 2.82617 28.9905 3.05666 28.9905 3.34478V28.2187C28.9905 28.382 28.9137 28.5357 28.7794 28.6413L23.2696 32.6941C23.1833 32.7614 23.0777 32.7998 22.9625 32.7998L22.9529 32.7902Z" fill="#2BB19A" stroke="#2BB19A" stroke-width="0.5"/>
<path d="M21.628 6.68663H13.4402C13.1522 6.68663 12.9219 6.45614 12.9219 6.16802C12.9219 5.87991 13.1522 5.64941 13.4402 5.64941H21.628C21.916 5.64941 22.1463 5.87991 22.1463 6.16802C22.1463 6.45614 21.916 6.68663 21.628 6.68663Z" fill="#2BB19A" stroke="#2BB19A" stroke-width="0.5"/>
<path d="M25.4484 9.04991H9.61991C9.33194 9.04991 9.10156 8.81942 9.10156 8.5313C9.10156 8.24319 9.33194 8.0127 9.61991 8.0127H25.4484C25.7363 8.0127 25.9667 8.24319 25.9667 8.5313C25.9667 8.81942 25.7363 9.04991 25.4484 9.04991Z" fill="#2BB19A" stroke="#2BB19A" stroke-width="0.5"/>
<path d="M25.4484 11.4122H9.61991C9.33194 11.4122 9.10156 11.1817 9.10156 10.8936C9.10156 10.6055 9.33194 10.375 9.61991 10.375H25.4484C25.7363 10.375 25.9667 10.6055 25.9667 10.8936C25.9667 11.1817 25.7363 11.4122 25.4484 11.4122Z" fill="#2BB19A" stroke="#2BB19A" stroke-width="0.5"/>
<path d="M16.2621 13.7745H9.61014C9.32218 13.7745 9.0918 13.544 9.0918 13.2559C9.0918 12.9678 9.32218 12.7373 9.61014 12.7373H16.2621C16.5501 12.7373 16.7805 12.9678 16.7805 13.2559C16.7805 13.544 16.5501 13.7745 16.2621 13.7745Z" fill="#2BB19A" stroke="#2BB19A" stroke-width="0.5"/>
<path d="M15.2927 16.1368H9.61014C9.32218 16.1368 9.0918 15.9063 9.0918 15.6182C9.0918 15.3301 9.32218 15.0996 9.61014 15.0996H15.2927C15.5806 15.0996 15.811 15.3301 15.811 15.6182C15.811 15.9063 15.5806 16.1368 15.2927 16.1368Z" fill="#2BB19A" stroke="#2BB19A" stroke-width="0.5"/>
<path d="M15.2927 18.4903H9.61014C9.32218 18.4903 9.0918 18.2598 9.0918 17.9717C9.0918 17.6836 9.32218 17.4531 9.61014 17.4531H15.2927C15.5806 17.4531 15.811 17.6836 15.811 17.9717C15.811 18.2598 15.5806 18.4903 15.2927 18.4903Z" fill="#2BB19A" stroke="#2BB19A" stroke-width="0.5"/>
<path d="M30.5447 16.6171C30.2567 16.6171 30.0264 16.3866 30.0264 16.0984V15.2725C30.0264 14.9844 30.2567 14.7539 30.5447 14.7539C30.8326 14.7539 31.063 14.9844 31.063 15.2725V16.0984C31.063 16.3866 30.8326 16.6171 30.5447 16.6171Z" fill="#2BB19A" stroke="#2BB19A" stroke-width="0.5"/>
<path d="M30.5447 11.6813C30.2567 11.6813 30.0264 11.4508 30.0264 11.1627V9.10747C30.0264 8.81936 30.2567 8.58887 30.5447 8.58887C30.8326 8.58887 31.063 8.81936 31.063 9.10747V11.1627C31.063 11.4508 30.8326 11.6813 30.5447 11.6813Z" fill="#2BB19A" stroke="#2BB19A" stroke-width="0.5"/>
<path d="M30.5447 5.53502C30.2567 5.53502 30.0264 5.30453 30.0264 5.01641V4.19048C30.0264 3.90237 30.2567 3.67188 30.5447 3.67188C30.8326 3.67188 31.063 3.90237 31.063 4.19048V5.01641C31.063 5.30453 30.8326 5.53502 30.5447 5.53502Z" fill="#2BB19A" stroke="#2BB19A" stroke-width="0.5"/>
<path d="M30.5445 26.7014H28.4711C28.1831 26.7014 27.9528 26.4709 27.9528 26.1828V3.86343H8.66874C8.38077 3.86343 8.15039 3.63294 8.15039 3.34482V1.31841C8.15039 1.0303 8.38077 0.799805 8.66874 0.799805H30.5445C30.8324 0.799805 31.0628 1.0303 31.0628 1.31841V4.18036C31.0628 4.46847 30.8324 4.69897 30.5445 4.69897C30.2565 4.69897 30.0261 4.46847 30.0261 4.18036V1.83702H9.18705V2.82622H28.4615C28.7495 2.82622 28.9798 3.05671 28.9798 3.34482V25.6642H30.0165V16.0891C30.0165 15.801 30.2469 15.5705 30.5349 15.5705C30.8228 15.5705 31.0532 15.801 31.0532 16.0891V26.1828C31.0532 26.4709 30.8228 26.7014 30.5349 26.7014H30.5445Z" fill="#2BB19A" stroke="#2BB19A" stroke-width="0.5"/>
<path d="M6.59614 29.9665C3.50531 29.9665 1 27.4503 1 24.3578C1 21.2654 3.51491 18.7588 6.59614 18.7588C7.28725 18.7588 7.95917 18.8836 8.60229 19.1333C8.87106 19.239 9.00544 19.5367 8.89985 19.8056C8.79426 20.0745 8.49669 20.209 8.22792 20.1033C7.70958 19.9016 7.16247 19.8056 6.59614 19.8056C4.08124 19.8056 2.03668 21.8512 2.03668 24.3674C2.03668 26.8836 4.08124 28.9293 6.59614 28.9293C9.11103 28.9293 11.1556 26.8836 11.1556 24.3674C11.1556 23.2342 10.7332 22.1489 9.97492 21.3038C9.78294 21.0925 9.80215 20.766 10.0133 20.5739C10.2245 20.3818 10.5508 20.401 10.7428 20.6123C11.6739 21.6399 12.1826 22.9749 12.1826 24.3674C12.1826 27.4599 9.66776 29.9761 6.58653 29.9761L6.59614 29.9665Z" fill="#2BB19A" stroke="#2BB19A" stroke-width="0.5"/>
<path d="M17.5574 26.1732C17.2694 26.1732 17.0391 25.9427 17.0391 25.6546V23.1768C17.0391 22.8887 17.2694 22.6582 17.5574 22.6582C17.8454 22.6582 18.0758 22.8887 18.0758 23.1768V25.6546C18.0758 25.9427 17.8454 26.1732 17.5574 26.1732Z" fill="#2BB19A" stroke="#2BB19A" stroke-width="0.5"/>
<path d="M23.5574 26.1732C23.2694 26.1732 23.0391 25.9427 23.0391 25.6546V23.1768C23.0391 22.8887 23.2694 22.6582 23.5574 22.6582C23.8454 22.6582 24.0758 22.8887 24.0758 23.1768V25.6546C24.0758 25.9427 23.8454 26.1732 23.5574 26.1732Z" fill="#2BB19A" stroke="#2BB19A" stroke-width="0.5"/>
<path d="M20.4861 19.2586C19.8526 19.2586 18.9407 18.9609 18.2304 17.626C17.856 16.9249 17.6641 16.099 17.6641 15.225V15.1482C17.6641 14.4375 18.048 13.7748 18.6623 13.4387C19.0847 13.2082 19.7566 12.9297 20.5533 12.9297C21.35 12.9297 22.1179 13.285 22.5787 13.5924C23.1354 13.9477 23.4617 14.5623 23.4617 15.2346C23.4617 16.1086 23.2602 16.9441 22.8858 17.6452C22.1563 19.0185 21.2156 19.2778 20.5437 19.2586C20.5245 19.2586 20.5053 19.2586 20.4861 19.2586ZM20.5533 13.9669C19.9774 13.9669 19.4782 14.1782 19.1615 14.3511C18.8735 14.5143 18.6911 14.8216 18.6911 15.1578V15.2346C18.6911 15.9357 18.8447 16.5984 19.1327 17.1458C19.5166 17.8757 20.0062 18.2502 20.5341 18.231C21.11 18.2502 21.5708 17.8853 21.9547 17.165C22.2523 16.608 22.4059 15.9453 22.4059 15.2442C22.4059 14.9273 22.2523 14.6392 21.9931 14.4759C21.6476 14.255 21.11 13.9861 20.5341 13.9861L20.5533 13.9669Z" fill="#2BB19A" stroke="#2BB19A" stroke-width="0.5"/>
<path d="M26.072 26.1726H15.0525C14.7646 26.1726 14.5342 25.9421 14.5342 25.6539V22.5135C14.5342 20.8424 15.8876 19.4883 17.5578 19.4883H23.5571C25.2273 19.4883 26.5807 20.8424 26.5807 22.5135V25.6539C26.5807 25.9421 26.3504 26.1726 26.0624 26.1726H26.072ZM15.5708 25.1353H25.5537V22.5135C25.5537 21.4186 24.661 20.5255 23.5667 20.5255H17.5674C16.4731 20.5255 15.5804 21.4186 15.5804 22.5135V25.1353H15.5708Z" fill="#2BB19A" stroke="#2BB19A" stroke-width="0.5"/>
<path d="M6.59647 22.0433C6.30851 22.0433 6.07812 21.8128 6.07812 21.5247V20.9581C6.07812 20.6699 6.30851 20.4395 6.59647 20.4395C6.88444 20.4395 7.11479 20.6699 7.11479 20.9581V21.5247C7.11479 21.8128 6.88444 22.0433 6.59647 22.0433Z" fill="#2BB19A" stroke="#2BB19A" stroke-width="0.5"/>
<path d="M6.59584 27.6517C5.48237 27.6517 4.58008 26.7874 4.58008 25.731C4.58008 25.4428 4.81046 25.2123 5.09842 25.2123C5.38639 25.2123 5.61674 25.4428 5.61674 25.731C5.61674 26.2208 6.0583 26.6145 6.59584 26.6145C7.13337 26.6145 7.57491 26.2208 7.57491 25.731C7.57491 25.2412 7.13337 24.8474 6.59584 24.8474C5.48237 24.8474 4.58008 23.9831 4.58008 22.9266C4.58008 21.8702 5.48237 21.0059 6.59584 21.0059C7.7093 21.0059 8.61157 21.8702 8.61157 22.9266C8.61157 23.2147 8.38122 23.4452 8.09326 23.4452C7.80529 23.4452 7.57491 23.2147 7.57491 22.9266C7.57491 22.4368 7.13337 22.0431 6.59584 22.0431C6.0583 22.0431 5.61674 22.4368 5.61674 22.9266C5.61674 23.4164 6.0583 23.8102 6.59584 23.8102C7.7093 23.8102 8.61157 24.6745 8.61157 25.731C8.61157 26.7874 7.7093 27.6517 6.59584 27.6517Z" fill="#2BB19A" stroke="#2BB19A" stroke-width="0.5"/>
<path d="M6.59647 28.2959C6.30851 28.2959 6.07812 28.0654 6.07812 27.7773V27.1338C6.07812 26.8457 6.30851 26.6152 6.59647 26.6152C6.88444 26.6152 7.11479 26.8457 7.11479 27.1338V27.7773C7.11479 28.0654 6.88444 28.2959 6.59647 28.2959Z" fill="#2BB19A" stroke="#2BB19A" stroke-width="0.5"/>
</svg>
