<svg width="35" height="32" viewBox="0 0 35 32" fill="none" xmlns="http://www.w3.org/2000/svg">
<path d="M34.8555 16.1508L32.0335 19.2213C31.9346 19.3287 31.7972 19.3924 31.6514 19.3985C31.6437 19.3992 31.6361 19.3994 31.6284 19.3993C31.4902 19.3991 31.3572 19.3471 31.2556 19.2535L27.9211 16.183C27.8398 16.108 27.7829 16.0102 27.7581 15.9024C27.7332 15.7946 27.7414 15.6818 27.7817 15.5787C27.822 15.4756 27.8924 15.3871 27.9838 15.3247C28.0752 15.2623 28.1833 15.229 28.294 15.229H29.4017C29.2754 12.5143 28.2233 9.92472 26.4202 7.89102C24.6171 5.85732 22.1719 4.50215 19.4913 4.05096C16.8107 3.59978 14.0564 4.07979 11.6867 5.41114C9.3169 6.74249 7.47456 8.84489 6.46615 11.3686C6.41194 11.5039 6.30622 11.6121 6.17223 11.6695C6.03823 11.7269 5.88692 11.7288 5.75153 11.6748C5.61615 11.6207 5.50776 11.5151 5.45019 11.3812C5.39262 11.2473 5.39058 11.0961 5.4445 10.9606C6.56521 8.15576 8.62823 5.82875 11.279 4.37959C13.9297 2.93043 17.0026 2.44964 19.9694 3.01985C22.9363 3.59007 25.6118 5.17567 27.5361 7.50413C29.4605 9.83259 30.5134 12.7585 30.5139 15.7789C30.5139 15.9247 30.4559 16.0645 30.3528 16.1676C30.2497 16.2707 30.1098 16.3287 29.9639 16.3287H29.7023L31.5962 18.0725L33.1986 16.3287H32.7507C32.6784 16.3287 32.6069 16.3145 32.5402 16.2868C32.4734 16.2592 32.4128 16.2187 32.3617 16.1677C32.3107 16.1166 32.2701 16.056 32.2425 15.9893C32.2149 15.9226 32.2006 15.8511 32.2006 15.7789C32.2001 12.3805 31.0205 9.08763 28.8628 6.46172C26.7051 3.83581 23.703 2.03954 20.3686 1.37926C17.0341 0.718977 13.5739 1.23558 10.5778 2.84097C7.58184 4.44635 5.23568 7.04109 3.9395 10.1826C3.89784 10.2833 3.82727 10.3693 3.7367 10.4298C3.64614 10.4904 3.53966 10.5227 3.43072 10.5228C3.3589 10.5228 3.2878 10.5086 3.22151 10.4809C3.08664 10.4254 2.97936 10.3186 2.92324 10.184C2.86712 10.0494 2.86677 9.898 2.92226 9.76314C4.29758 6.42992 6.77316 3.66804 9.93703 1.93712C13.1009 0.206194 16.7623 -0.389391 20.3118 0.249475C23.8614 0.888341 27.0851 2.72313 29.4465 5.44851C31.8078 8.1739 33.1645 11.6255 33.2907 15.229H34.4505C34.5572 15.2291 34.6616 15.2603 34.7509 15.3187C34.8402 15.3771 34.9106 15.4602 34.9535 15.5579C34.9965 15.6556 35.01 15.7636 34.9926 15.8689C34.9752 15.9742 34.9276 16.0721 34.8555 16.1508ZM31.7787 21.5188C31.7126 21.4913 31.6416 21.4771 31.5699 21.4771C31.4608 21.4771 31.3542 21.5095 31.2636 21.5702C31.1729 21.6309 31.1024 21.7172 31.0608 21.818C29.7644 24.9593 27.4181 27.5537 24.4221 29.1589C21.4262 30.764 17.966 31.2804 14.6317 30.6201C11.2974 29.9598 8.29551 28.1637 6.13783 25.538C3.98014 22.9122 2.80034 19.6195 2.79959 16.2214C2.79959 16.0755 2.74165 15.9357 2.63851 15.8326C2.53538 15.7294 2.3955 15.6715 2.24963 15.6715H1.80164L3.40404 13.9276L5.29792 15.6715H5.03714C4.89126 15.6715 4.75137 15.7294 4.64822 15.8325C4.54508 15.9357 4.48712 16.0755 4.48711 16.2214C4.4877 19.2416 5.5406 22.1674 7.46486 24.4958C9.38912 26.8241 12.0645 28.4097 15.0313 28.9799C17.998 29.5501 21.0708 29.0693 23.7215 27.6202C26.3721 26.1712 28.4351 23.8443 29.5559 21.0395C29.6094 20.9042 29.6071 20.7531 29.5495 20.6194C29.4919 20.4858 29.3836 20.3804 29.2483 20.3264C29.1131 20.2724 28.962 20.2742 28.8281 20.3314C28.6942 20.3886 28.5885 20.4966 28.534 20.6316C27.5256 23.1552 25.6834 25.2574 23.3137 26.5887C20.944 27.92 18.1898 28.3999 15.5094 27.9487C12.8289 27.4976 10.3838 26.1424 8.58078 24.1088C6.7778 22.0752 5.72566 19.4857 5.59943 16.7711H6.70632C6.81698 16.7712 6.92508 16.7378 7.01647 16.6754C7.10786 16.613 7.17829 16.5245 7.21856 16.4214C7.25882 16.3184 7.26705 16.2056 7.24215 16.0978C7.21726 15.99 7.16041 15.8922 7.07903 15.8172L3.74464 12.7463C3.64447 12.6532 3.51296 12.6012 3.3762 12.6005C3.36708 12.6005 3.35796 12.6008 3.34883 12.6013C3.27664 12.6043 3.20574 12.6215 3.1402 12.6518C3.07466 12.6822 3.01575 12.7253 2.96683 12.7784L0.144738 15.8495C0.0725692 15.9281 0.0248496 16.026 0.00739914 16.1313C-0.0100514 16.2366 0.00352138 16.3447 0.0464622 16.4424C0.089403 16.5401 0.159856 16.6232 0.24923 16.6816C0.338603 16.74 0.443036 16.7711 0.54979 16.7711H1.70957C1.83589 20.3745 3.19264 23.826 5.55404 26.5513C7.91544 29.2765 11.1391 31.1112 14.6886 31.7501C18.2381 32.3889 21.8994 31.7933 25.0632 30.0625C28.227 28.3316 30.7026 25.5698 32.078 22.2367C32.1055 22.1699 32.1195 22.0984 32.1194 22.0262C32.1192 21.954 32.1049 21.8825 32.0771 21.8158C32.0493 21.7492 32.0086 21.6886 31.9574 21.6377C31.9063 21.5867 31.8455 21.5463 31.7787 21.5188ZM24.7133 12.0245C24.7181 12.0365 24.7222 12.0487 24.7267 12.0611C24.7459 12.1134 24.757 12.1683 24.7596 12.2239C24.7599 12.2315 24.764 12.2378 24.764 12.2455V21.9031C24.7634 22.3394 24.5897 22.7576 24.2812 23.0661C23.9726 23.3746 23.5542 23.5482 23.1178 23.5488H11.9178C11.4813 23.5482 11.063 23.3746 10.7544 23.0661C10.4458 22.7576 10.2722 22.3393 10.2717 21.9031V12.2455C10.2717 12.2378 10.2757 12.2315 10.2761 12.2239C10.2786 12.1682 10.2897 12.1133 10.3089 12.061C10.3145 12.0455 10.3188 12.0303 10.3257 12.0155C10.3293 12.0076 10.3305 11.9991 10.3346 11.9912L12.5084 7.82795C12.63 7.59355 12.8137 7.39712 13.0395 7.26017C13.2654 7.12323 13.5245 7.05106 13.7886 7.05157H21.2469C21.511 7.05104 21.7702 7.1232 21.996 7.26014C22.2218 7.39709 22.4056 7.59354 22.5271 7.82797L24.701 11.9913C24.7051 11.999 24.7063 12.0076 24.7099 12.0154C24.7113 12.0183 24.7121 12.0215 24.7133 12.0245ZM11.7291 11.6956H16.9674V11.0607C16.9674 10.9885 16.9816 10.917 17.0093 10.8503C17.0369 10.7836 17.0774 10.723 17.1285 10.6719C17.1796 10.6209 17.2402 10.5804 17.3069 10.5527C17.3736 10.5251 17.4452 10.5109 17.5174 10.5109C17.5896 10.5109 17.6611 10.5251 17.7279 10.5527C17.7946 10.5804 17.8552 10.6209 17.9063 10.6719C17.9574 10.723 17.9979 10.7836 18.0255 10.8503C18.0532 10.917 18.0674 10.9885 18.0674 11.0607V11.6956H23.3065L21.5529 8.33645C21.5238 8.28052 21.4798 8.23367 21.4258 8.20101C21.3719 8.16835 21.31 8.15114 21.2469 8.15125H18.0674V9.2551C18.0674 9.40093 18.0094 9.54079 17.9063 9.6439C17.8031 9.74702 17.6632 9.80495 17.5174 9.80495C17.3715 9.80495 17.2316 9.74702 17.1285 9.6439C17.0253 9.54079 16.9674 9.40093 16.9674 9.2551V8.15125H13.7886C13.7256 8.15107 13.6638 8.16826 13.6099 8.20094C13.556 8.23361 13.5122 8.2805 13.4833 8.33645L11.7291 11.6956ZM23.664 12.7953H18.0674V15.2849C18.0674 15.4307 18.0094 15.5706 17.9063 15.6737C17.8031 15.7768 17.6632 15.8348 17.5174 15.8348C17.3715 15.8348 17.2316 15.7768 17.1285 15.6737C17.0253 15.5706 16.9674 15.4307 16.9674 15.2849V12.7953H11.3717V21.9031C11.3717 22.0479 11.4293 22.1867 11.5317 22.2891C11.6341 22.3915 11.7729 22.449 11.9178 22.4491H23.1178C23.2626 22.449 23.4015 22.3915 23.5039 22.2891C23.6063 22.1867 23.6639 22.0479 23.664 21.9031V12.7953ZM15.7262 17.5327H13.3936C13.2478 17.5327 13.1079 17.5906 13.0047 17.6938C12.9016 17.7969 12.8436 17.9367 12.8436 18.0826C12.8436 18.2284 12.9016 18.3682 13.0047 18.4714C13.1079 18.5745 13.2478 18.6324 13.3936 18.6324H15.7262C15.8721 18.6324 16.012 18.5745 16.1151 18.4714C16.2183 18.3682 16.2762 18.2284 16.2762 18.0826C16.2762 17.9367 16.2183 17.7969 16.1151 17.6938C16.012 17.5906 15.8721 17.5327 15.7262 17.5327ZM15.7262 19.8586H13.3936C13.2478 19.8586 13.1079 19.9165 13.0047 20.0196C12.9016 20.1227 12.8436 20.2626 12.8436 20.4084C12.8436 20.5542 12.9016 20.6941 13.0047 20.7972C13.1079 20.9003 13.2478 20.9583 13.3936 20.9583H15.7262C15.8721 20.9583 16.012 20.9003 16.1151 20.7972C16.2183 20.6941 16.2762 20.5542 16.2762 20.4084C16.2762 20.2626 16.2183 20.1227 16.1151 20.0196C16.012 19.9165 15.8721 19.8586 15.7262 19.8586Z" fill="#624CAB"/>
</svg>
