<svg width="24" height="25" viewBox="0 0 24 25" fill="none" xmlns="http://www.w3.org/2000/svg">
<path d="M16.8145 24.6623C16.7569 24.6623 16.6921 24.6478 16.6417 24.619C16.5122 24.5542 16.4258 24.4174 16.4258 24.2733V21.2337C16.4258 21.0176 16.5985 20.8447 16.8145 20.8447H20.9468C21.1124 20.8447 21.2636 20.9528 21.314 21.1112C21.3644 21.2697 21.314 21.4498 21.1772 21.5434L17.0449 24.583C16.9801 24.6334 16.8937 24.6623 16.8145 24.6623ZM17.2033 21.6226V23.5026L19.7662 21.6226H17.2033Z" fill="white" stroke="white" stroke-width="0.5"/>
<path d="M16.8152 24.6615H4.54794C4.33196 24.6615 4.15918 24.4886 4.15918 24.2725V23.4658C4.15918 23.2497 4.33196 23.0768 4.54794 23.0768C4.76391 23.0768 4.93668 23.2497 4.93668 23.4658V23.8836H16.6929L20.566 21.0312V2.96639H4.93668V13.425C4.93668 13.6411 4.76391 13.8139 4.54794 13.8139C4.33196 13.8139 4.15918 13.6411 4.15918 13.425V2.57743C4.15918 2.36134 4.33196 2.18848 4.54794 2.18848H20.9547C21.1707 2.18848 21.3435 2.36134 21.3435 2.57743V21.2329C21.3435 21.3553 21.2859 21.4706 21.1851 21.5498L17.0528 24.5894C16.988 24.6399 16.9088 24.6687 16.8224 24.6687L16.8152 24.6615Z" fill="white" stroke="white" stroke-width="0.5"/>
<path d="M15.8216 5.08455H9.68073C9.46476 5.08455 9.29199 4.91168 9.29199 4.6956C9.29199 4.47951 9.46476 4.30664 9.68073 4.30664H15.8216C16.0376 4.30664 16.2103 4.47951 16.2103 4.6956C16.2103 4.91168 16.0376 5.08455 15.8216 5.08455Z" fill="white" stroke="white" stroke-width="0.5"/>
<path d="M18.6869 6.85604H6.81552C6.59954 6.85604 6.42676 6.68317 6.42676 6.46708C6.42676 6.25099 6.59954 6.07812 6.81552 6.07812H18.6869C18.9028 6.07812 19.0756 6.25099 19.0756 6.46708C19.0756 6.68317 18.9028 6.85604 18.6869 6.85604Z" fill="white" stroke="white" stroke-width="0.5"/>
<path d="M18.6869 8.6285H6.81552C6.59954 8.6285 6.42676 8.45563 6.42676 8.23954C6.42676 8.02345 6.59954 7.85059 6.81552 7.85059H18.6869C18.9028 7.85059 19.0756 8.02345 19.0756 8.23954C19.0756 8.45563 18.9028 8.6285 18.6869 8.6285Z" fill="white" stroke="white" stroke-width="0.5"/>
<path d="M11.7967 10.4H6.8077C6.59173 10.4 6.41895 10.2271 6.41895 10.011C6.41895 9.79494 6.59173 9.62207 6.8077 9.62207H11.7967C12.0127 9.62207 12.1855 9.79494 12.1855 10.011C12.1855 10.2271 12.0127 10.4 11.7967 10.4Z" fill="white" stroke="white" stroke-width="0.5"/>
<path d="M11.0696 12.1715H6.8077C6.59173 12.1715 6.41895 11.9986 6.41895 11.7825C6.41895 11.5664 6.59173 11.3936 6.8077 11.3936H11.0696C11.2856 11.3936 11.4583 11.5664 11.4583 11.7825C11.4583 11.9986 11.2856 12.1715 11.0696 12.1715Z" fill="white" stroke="white" stroke-width="0.5"/>
<path d="M11.0696 13.9361H6.8077C6.59173 13.9361 6.41895 13.7632 6.41895 13.5472C6.41895 13.3311 6.59173 13.1582 6.8077 13.1582H11.0696C11.2856 13.1582 11.4583 13.3311 11.4583 13.5472C11.4583 13.7632 11.2856 13.9361 11.0696 13.9361Z" fill="white" stroke="white" stroke-width="0.5"/>
<path d="M22.5098 12.5321C22.2939 12.5321 22.1211 12.3593 22.1211 12.1432V11.5237C22.1211 11.3076 22.2939 11.1348 22.5098 11.1348C22.7258 11.1348 22.8986 11.3076 22.8986 11.5237V12.1432C22.8986 12.3593 22.7258 12.5321 22.5098 12.5321Z" fill="white" stroke="white" stroke-width="0.5"/>
<path d="M22.5098 8.83007C22.2939 8.83007 22.1211 8.6572 22.1211 8.44111V6.8997C22.1211 6.68361 22.2939 6.51074 22.5098 6.51074C22.7258 6.51074 22.8986 6.68361 22.8986 6.8997V8.44111C22.8986 8.6572 22.7258 8.83007 22.5098 8.83007Z" fill="white" stroke="white" stroke-width="0.5"/>
<path d="M22.5098 4.21963C22.2939 4.21963 22.1211 4.04676 22.1211 3.83067V3.21122C22.1211 2.99514 22.2939 2.82227 22.5098 2.82227C22.7258 2.82227 22.8986 2.99514 22.8986 3.21122V3.83067C22.8986 4.04676 22.7258 4.21963 22.5098 4.21963Z" fill="white" stroke="white" stroke-width="0.5"/>
<path d="M22.5094 20.0951H20.9544C20.7384 20.0951 20.5657 19.9222 20.5657 19.7062V2.96666H6.10263C5.88665 2.96666 5.71387 2.79379 5.71387 2.57771V1.0579C5.71387 0.841815 5.88665 0.668945 6.10263 0.668945H22.5094C22.7254 0.668945 22.8982 0.841815 22.8982 1.0579V3.20436C22.8982 3.42045 22.7254 3.59332 22.5094 3.59332C22.2934 3.59332 22.1207 3.42045 22.1207 3.20436V1.44686H6.49136V2.18875H20.9472C21.1632 2.18875 21.336 2.36162 21.336 2.57771V19.3172H22.1135V12.1359C22.1135 11.9198 22.2863 11.747 22.5022 11.747C22.7182 11.747 22.891 11.9198 22.891 12.1359V19.7062C22.891 19.9222 22.7182 20.0951 22.5022 20.0951H22.5094Z" fill="white" stroke="white" stroke-width="0.5"/>
<path d="M4.54769 22.5444C2.22957 22.5444 0.350586 20.6573 0.350586 18.338C0.350586 16.0186 2.23677 14.1387 4.54769 14.1387C5.06603 14.1387 5.56996 14.2323 6.0523 14.4196C6.25388 14.4988 6.35467 14.7221 6.27548 14.9238C6.19628 15.1255 5.9731 15.2263 5.77153 15.1471C5.38277 14.9958 4.97244 14.9238 4.54769 14.9238C2.66152 14.9238 1.12809 16.458 1.12809 18.3452C1.12809 20.2323 2.66152 21.7665 4.54769 21.7665C6.43386 21.7665 7.96727 20.2323 7.96727 18.3452C7.96727 17.4952 7.6505 16.6813 7.08177 16.0474C6.93779 15.889 6.9522 15.6441 7.11058 15.5C7.26896 15.356 7.51371 15.3704 7.65769 15.5288C8.35601 16.2995 8.73756 17.3007 8.73756 18.3452C8.73756 20.6645 6.8514 22.5516 4.54048 22.5516L4.54769 22.5444Z" fill="white" stroke="white" stroke-width="0.5"/>
<path d="M12.7686 19.6988C12.5527 19.6988 12.3799 19.5259 12.3799 19.3098V17.4515C12.3799 17.2354 12.5527 17.0625 12.7686 17.0625C12.9846 17.0625 13.1574 17.2354 13.1574 17.4515V19.3098C13.1574 19.5259 12.9846 19.6988 12.7686 19.6988Z" fill="white" stroke="white" stroke-width="0.5"/>
<path d="M17.2686 19.6988C17.0527 19.6988 16.8799 19.5259 16.8799 19.3098V17.4515C16.8799 17.2354 17.0527 17.0625 17.2686 17.0625C17.4846 17.0625 17.6574 17.2354 17.6574 17.4515V19.3098C17.6574 19.5259 17.4846 19.6988 17.2686 19.6988Z" fill="white" stroke="white" stroke-width="0.5"/>
<path d="M14.9652 14.5133C14.49 14.5133 13.8061 14.29 13.2734 13.2888C12.9926 12.763 12.8486 12.1436 12.8486 11.4881V11.4305C12.8486 10.8975 13.1366 10.4005 13.5973 10.1484C13.9141 9.97548 14.418 9.7666 15.0156 9.7666C15.6131 9.7666 16.189 10.0331 16.5346 10.2636C16.9521 10.5301 17.1969 10.9911 17.1969 11.4953C17.1969 12.1508 17.0457 12.7774 16.765 13.3032C16.2178 14.3332 15.5123 14.5277 15.0084 14.5133C14.994 14.5133 14.9796 14.5133 14.9652 14.5133ZM15.0156 10.5445C14.5836 10.5445 14.2093 10.703 13.9717 10.8326C13.7557 10.9551 13.6189 11.1856 13.6189 11.4377V11.4953C13.6189 12.0211 13.7341 12.5181 13.9501 12.9287C14.2381 13.4761 14.6052 13.757 15.0012 13.7426C15.4331 13.757 15.7787 13.4833 16.0666 12.9431C16.2898 12.5253 16.405 12.0283 16.405 11.5025C16.405 11.2648 16.2898 11.0487 16.0954 10.9263C15.8363 10.7606 15.4331 10.5589 15.0012 10.5589L15.0156 10.5445Z" fill="white" stroke="white" stroke-width="0.5"/>
<path d="M19.1543 19.6988H10.8897C10.6738 19.6988 10.501 19.5259 10.501 19.3098V16.9545C10.501 15.7011 11.516 14.6855 12.7687 14.6855H17.2682C18.5208 14.6855 19.5359 15.7011 19.5359 16.9545V19.3098C19.5359 19.5259 19.3631 19.6988 19.1471 19.6988H19.1543ZM11.2785 18.9208H18.7656V16.9545C18.7656 16.1333 18.0961 15.4635 17.2754 15.4635H12.7759C11.9552 15.4635 11.2857 16.1333 11.2857 16.9545V18.9208H11.2785Z" fill="white" stroke="white" stroke-width="0.5"/>
<path d="M4.54794 16.6013C4.33196 16.6013 4.15918 16.4284 4.15918 16.2124V15.7874C4.15918 15.5713 4.33196 15.3984 4.54794 15.3984C4.76391 15.3984 4.93668 15.5713 4.93668 15.7874V16.2124C4.93668 16.4284 4.76391 16.6013 4.54794 16.6013Z" fill="white" stroke="white" stroke-width="0.5"/>
<path d="M4.54795 20.8086C3.71286 20.8086 3.03613 20.1604 3.03613 19.368C3.03613 19.152 3.20892 18.9791 3.42489 18.9791C3.64087 18.9791 3.81363 19.152 3.81363 19.368C3.81363 19.7354 4.1448 20.0307 4.54795 20.0307C4.9511 20.0307 5.28226 19.7354 5.28226 19.368C5.28226 19.0007 4.9511 18.7054 4.54795 18.7054C3.71286 18.7054 3.03613 18.0571 3.03613 17.2648C3.03613 16.4725 3.71286 15.8242 4.54795 15.8242C5.38305 15.8242 6.05975 16.4725 6.05975 17.2648C6.05975 17.4809 5.88699 17.6538 5.67102 17.6538C5.45504 17.6538 5.28226 17.4809 5.28226 17.2648C5.28226 16.8974 4.9511 16.6021 4.54795 16.6021C4.1448 16.6021 3.81363 16.8974 3.81363 17.2648C3.81363 17.6321 4.1448 17.9275 4.54795 17.9275C5.38305 17.9275 6.05975 18.5757 6.05975 19.368C6.05975 20.1604 5.38305 20.8086 4.54795 20.8086Z" fill="white" stroke="white" stroke-width="0.5"/>
<path d="M4.54794 21.2908C4.33196 21.2908 4.15918 21.1179 4.15918 20.9018V20.4192C4.15918 20.2031 4.33196 20.0303 4.54794 20.0303C4.76391 20.0303 4.93668 20.2031 4.93668 20.4192V20.9018C4.93668 21.1179 4.76391 21.2908 4.54794 21.2908Z" fill="white" stroke="white" stroke-width="0.5"/>
</svg>
