<svg width="41" height="33" viewBox="0 0 41 33" fill="none" xmlns="http://www.w3.org/2000/svg">
<g clip-path="url(#clip0_2678_743)">
<path d="M36.5934 11.6269C36.471 11.6269 36.3486 11.6269 36.2262 11.5045L31.4531 6.73139C31.2083 6.48661 31.2083 6.24183 31.4531 5.99706C31.6979 5.75228 31.9427 5.75228 32.1874 5.99706L36.9606 10.7702C37.2054 11.015 37.2054 11.2597 36.9606 11.5045C36.8382 11.6269 36.7158 11.6269 36.5934 11.6269Z" fill="#2BB19A" stroke="#2BB19A" stroke-width="0.5"/>
<path d="M1.10153 11.6266C0.979139 11.6266 0.856751 11.6266 0.734363 11.5042C0.489587 11.3818 0.489587 11.0147 0.734363 10.7699L5.38511 6.11913C5.62989 5.87435 5.99705 5.87435 6.11944 6.11913C6.36421 6.36391 6.36421 6.60868 6.11944 6.85346L1.3463 11.5042C1.3463 11.6266 1.22392 11.6266 1.10153 11.6266Z" fill="#2BB19A" stroke="#2BB19A" stroke-width="0.5"/>
<path d="M31.8203 32.7998C31.6979 32.7998 31.5755 32.7998 31.4531 32.6774C31.2083 32.4326 31.2083 32.1878 31.4531 31.943L36.2262 27.1699C36.471 26.9251 36.7158 26.9251 36.9606 27.1699C37.2054 27.4147 37.2054 27.6595 36.9606 27.9042L32.1874 32.6774C32.0651 32.6774 31.9427 32.7998 31.8203 32.7998Z" fill="#2BB19A" stroke="#2BB19A" stroke-width="0.5"/>
<path d="M5.75162 32.7998C5.62923 32.7998 5.50684 32.7998 5.38445 32.6774L0.611317 27.9042C0.36654 27.6595 0.36654 27.4147 0.611317 27.1699C0.856093 26.9251 1.22326 26.9251 1.34565 27.1699L6.11878 31.943C6.36356 32.1878 6.36356 32.4326 6.11878 32.6774C5.99639 32.6774 5.874 32.7998 5.75162 32.7998Z" fill="#2BB19A" stroke="#2BB19A" stroke-width="0.5"/>
<path d="M34.0246 32.8004H3.67231C1.95888 32.8004 0.612608 31.4541 0.612608 29.7407V9.05709C0.49022 7.34366 1.95888 5.875 3.67231 5.875H34.0246C35.738 5.875 37.0843 7.22127 37.0843 8.9347V29.6183C37.0843 31.3317 35.738 32.8004 34.0246 32.8004ZM3.67231 6.97649C2.44843 6.97649 1.59171 7.83321 1.59171 9.05709V29.7407C1.59171 30.8422 2.44843 31.8213 3.67231 31.8213H34.0246C35.126 31.8213 36.1052 30.8422 36.1052 29.7407V9.05709C36.1052 7.9556 35.126 6.97649 34.0246 6.97649H3.67231Z" fill="#2BB19A" stroke="#2BB19A" stroke-width="0.5"/>
<path d="M18.8476 30.2294C12.8506 30.2294 7.95508 25.3339 7.95508 19.3369C7.95508 13.3399 12.8506 8.44434 18.8476 8.44434C24.8446 8.44434 29.7402 13.3399 29.7402 19.3369C29.7402 25.3339 24.8446 30.2294 18.8476 30.2294ZM18.8476 9.42344C13.3402 9.42344 8.93418 13.8294 8.93418 19.3369C8.93418 24.8443 13.3402 29.2503 18.8476 29.2503C24.3551 29.2503 28.761 24.8443 28.761 19.3369C28.6387 13.9518 24.2327 9.42344 18.8476 9.42344Z" fill="#2BB19A" stroke="#2BB19A" stroke-width="0.5"/>
<path d="M18.8478 28.0266C14.0746 28.0266 10.1582 24.1101 10.1582 19.337C10.1582 14.5639 14.0746 10.6475 18.8478 10.6475C23.6209 10.6475 27.5373 14.5639 27.5373 19.337C27.5373 24.1101 23.6209 28.0266 18.8478 28.0266ZM18.8478 11.6266C14.5642 11.6266 11.1373 15.0534 11.1373 19.337C11.1373 23.6206 14.5642 27.0475 18.8478 27.0475C23.1313 27.0475 26.5582 23.6206 26.5582 19.337C26.4358 15.1758 23.009 11.6266 18.8478 11.6266Z" fill="#2BB19A" stroke="#2BB19A" stroke-width="0.5"/>
<path d="M18.8481 24.2325C17.2571 24.2325 16.0332 23.0086 16.0332 21.5399C16.0332 21.2951 16.278 21.0504 16.5228 21.0504C16.7675 21.0504 17.0123 21.2951 17.0123 21.5399C17.0123 22.3966 17.869 23.2533 18.8481 23.2533C19.8272 23.2533 20.6839 22.519 20.6839 21.5399C20.6839 20.6832 19.8272 19.8265 18.8481 19.8265C17.2571 19.8265 16.0332 18.6026 16.0332 17.1339C16.0332 15.6653 17.2571 14.4414 18.8481 14.4414C20.4392 14.4414 21.6631 15.6653 21.6631 17.1339C21.6631 17.3787 21.4183 17.6235 21.1735 17.6235C20.9287 17.6235 20.6839 17.3787 20.6839 17.1339C20.6839 16.2772 19.8272 15.4205 18.8481 15.4205C17.869 15.4205 17.0123 16.1548 17.0123 17.1339C17.0123 17.9907 17.869 18.8474 18.8481 18.8474C20.4392 18.8474 21.6631 20.0713 21.6631 21.5399C21.6631 23.0086 20.3168 24.2325 18.8481 24.2325Z" fill="#2BB19A" stroke="#2BB19A" stroke-width="0.5"/>
<path d="M18.847 25.0891C18.6022 25.0891 18.3574 24.8443 18.3574 24.5996V14.1966C18.3574 13.9518 18.6022 13.707 18.847 13.707C19.0917 13.707 19.3365 13.9518 19.3365 14.1966V24.5996C19.3365 24.8443 19.0917 25.0891 18.847 25.0891Z" fill="#2BB19A" stroke="#2BB19A" stroke-width="0.5"/>
<path d="M31.9431 11.2594H27.6595C27.4147 11.2594 27.1699 11.0146 27.1699 10.7698C27.1699 10.5251 27.4147 10.2803 27.6595 10.2803H31.9431C32.1878 10.2803 32.4326 10.5251 32.4326 10.7698C32.4326 11.0146 32.1878 11.2594 31.9431 11.2594Z" fill="#2BB19A" stroke="#2BB19A" stroke-width="0.5"/>
<path d="M34.268 15.5436H30.4739C30.2292 15.5436 29.9844 15.2988 29.9844 15.054C29.9844 14.8092 30.2292 14.5645 30.4739 14.5645H34.268C34.5127 14.5645 34.7575 14.8092 34.7575 15.054C34.7575 15.2988 34.5127 15.5436 34.268 15.5436Z" fill="#2BB19A" stroke="#2BB19A" stroke-width="0.5"/>
<path d="M34.268 19.8268H31.2083C30.9635 19.8268 30.7188 19.582 30.7188 19.3372C30.7188 19.0924 30.9635 18.8477 31.2083 18.8477H34.268C34.5128 18.8477 34.7576 19.0924 34.7576 19.3372C34.7576 19.582 34.5128 19.8268 34.268 19.8268Z" fill="#2BB19A" stroke="#2BB19A" stroke-width="0.5"/>
<path d="M34.268 24.233H30.4739C30.2292 24.233 29.9844 23.9882 29.9844 23.7435C29.9844 23.4987 30.2292 23.2539 30.4739 23.2539H34.268C34.5127 23.2539 34.7575 23.4987 34.7575 23.7435C34.7575 23.9882 34.5127 24.233 34.268 24.233Z" fill="#2BB19A" stroke="#2BB19A" stroke-width="0.5"/>
<path d="M31.9431 28.5162H27.6595C27.4147 28.5162 27.1699 28.2714 27.1699 28.0267C27.1699 27.7819 27.4147 27.5371 27.6595 27.5371H31.9431C32.1878 27.5371 32.4326 27.7819 32.4326 28.0267C32.4326 28.2714 32.1878 28.5162 31.9431 28.5162Z" fill="#2BB19A" stroke="#2BB19A" stroke-width="0.5"/>
<path d="M9.91376 11.2597H5.75257C5.3854 11.2597 5.14062 11.0149 5.14062 10.6478C5.14062 10.403 5.3854 10.1582 5.63018 10.1582H9.91376C10.1585 10.1582 10.4033 10.403 10.4033 10.6478C10.4033 11.0149 10.2809 11.2597 9.91376 11.2597Z" fill="#2BB19A" stroke="#2BB19A" stroke-width="0.5"/>
<path d="M7.22108 15.5436H3.42705C3.18228 15.5436 2.9375 15.2988 2.9375 15.054C2.9375 14.8092 3.18228 14.5645 3.42705 14.5645H7.22108C7.46586 14.5645 7.71064 14.8092 7.71064 15.054C7.71064 15.2988 7.46586 15.5436 7.22108 15.5436Z" fill="#2BB19A" stroke="#2BB19A" stroke-width="0.5"/>
<path d="M6.48675 19.8268H3.42705C3.18228 19.8268 2.9375 19.582 2.9375 19.3372C2.9375 19.0924 3.18228 18.8477 3.42705 18.8477H6.48675C6.73153 18.8477 6.97631 19.0924 6.97631 19.3372C6.97631 19.582 6.73153 19.8268 6.48675 19.8268Z" fill="#2BB19A" stroke="#2BB19A" stroke-width="0.5"/>
<path d="M7.22108 24.233H3.42705C3.18228 24.233 2.9375 23.9882 2.9375 23.7435C2.9375 23.4987 3.18228 23.2539 3.42705 23.2539H7.22108C7.46586 23.2539 7.71064 23.4987 7.71064 23.7435C7.71064 23.9882 7.46586 24.233 7.22108 24.233Z" fill="#2BB19A" stroke="#2BB19A" stroke-width="0.5"/>
<path d="M9.91247 28.5162H5.75127C5.50649 28.5162 5.26172 28.2714 5.26172 28.0267C5.26172 27.7819 5.50649 27.5371 5.75127 27.5371H10.0349C10.2796 27.5371 10.5244 27.7819 10.5244 28.0267C10.402 28.2714 10.2796 28.5162 9.91247 28.5162Z" fill="#2BB19A" stroke="#2BB19A" stroke-width="0.5"/>
<path d="M26.3128 6.97612H11.2591C11.0143 6.97612 10.7695 6.73134 10.7695 6.48657V2.93731C10.7695 1.34627 12.1158 0 13.7068 0H23.8651C25.4561 0 26.8024 1.34627 26.8024 2.93731V6.36418C26.8024 6.73134 26.68 6.97612 26.3128 6.97612ZM11.7486 5.87463H25.8233V2.93731C25.8233 1.83582 24.9665 0.979104 23.8651 0.979104H13.7068C12.6054 0.979104 11.7486 1.83582 11.7486 2.93731V5.87463Z" fill="#2BB19A" stroke="#2BB19A" stroke-width="0.5"/>
<path d="M24.11 6.97592H13.4622C13.2174 6.97592 12.9727 6.73114 12.9727 6.48637V3.79383C12.9727 2.81472 13.8294 1.95801 14.8085 1.95801H22.8861C23.8652 1.95801 24.7219 2.81472 24.7219 3.79383V6.36398C24.7219 6.73114 24.4771 6.97592 24.11 6.97592ZM13.9518 5.87443H23.6204V3.79383C23.6204 3.30428 23.2533 2.93711 22.7637 2.93711H14.6861C14.1965 2.93711 13.8294 3.30428 13.8294 3.79383V5.87443H13.9518Z" fill="#2BB19A" stroke="#2BB19A" stroke-width="0.5"/>
<path d="M34.7575 7.09862C34.3903 7.09862 34.2679 6.85385 34.2679 6.48668C34.3903 5.62997 35.0023 3.91653 35.4918 2.93743H31.9426C31.0859 4.65086 30.7187 6.48668 30.7187 6.48668C30.7187 6.73146 30.3515 6.97623 30.1068 6.85385C29.862 6.85385 29.6172 6.48668 29.7396 6.24191C29.7396 6.11952 30.2291 4.03892 31.2082 2.08071C31.3306 1.95833 31.453 1.83594 31.6978 1.83594H36.3485C36.4709 1.83594 36.7157 1.95833 36.8381 2.08071C36.9605 2.2031 36.9605 2.44788 36.8381 2.57027C36.4709 3.42698 35.4918 5.62997 35.3694 6.48668C35.247 6.85385 35.0023 7.09862 34.7575 7.09862Z" fill="#2BB19A" stroke="#2BB19A" stroke-width="0.5"/>
<path d="M36.5937 10.1577C36.3489 10.1577 36.2265 10.0354 36.1041 9.91297C35.9817 9.66819 36.1041 9.30103 36.3489 9.17864C37.8175 8.44431 39.0414 6.36372 39.531 5.507C37.6952 4.16073 35.737 3.91595 35.6146 3.91595C35.3698 3.91595 35.125 3.67118 35.2474 3.30401C35.2474 3.05924 35.4922 2.81446 35.8593 2.93685C35.9817 2.93685 38.3071 3.30401 40.5101 5.01745C40.7549 5.13984 40.7549 5.38461 40.6325 5.62939C40.5101 5.75178 38.919 9.05625 36.7161 10.1577C36.7161 10.1577 36.7161 10.1577 36.5937 10.1577Z" fill="#2BB19A" stroke="#2BB19A" stroke-width="0.5"/>
<path d="M1.83582 7.71081C1.71343 7.71081 1.59105 7.71081 1.46866 7.58842C0.611941 6.73171 0.122388 3.18245 0 2.57051C0 2.32574 0.122388 2.08096 0.367164 1.95857L6.24179 0.612305C6.48657 0.612305 6.73134 0.734693 6.85373 0.979469C7.58806 2.81529 8.2 6.24215 8.32239 6.36454C8.32239 6.60932 8.2 6.85409 7.95523 6.97648C7.71045 6.97648 7.34329 6.85409 7.34329 6.48693C7.34329 6.48693 6.73134 3.54962 6.1194 1.7138L1.10149 2.81529C1.34627 4.52872 1.83582 6.36454 2.20299 6.73171C2.44776 6.97648 2.44776 7.34365 2.20299 7.46603C2.0806 7.58842 1.95821 7.71081 1.83582 7.71081Z" fill="#2BB19A" stroke="#2BB19A" stroke-width="0.5"/>
<path d="M39.5306 16.1555C39.2858 16.1555 39.041 15.9107 39.041 15.6659V14.3196C39.041 14.0749 39.2858 13.8301 39.5306 13.8301C39.7753 13.8301 40.0201 14.0749 40.0201 14.3196V15.6659C40.0201 15.9107 39.7753 16.1555 39.5306 16.1555Z" fill="#2BB19A" stroke="#2BB19A" stroke-width="0.5"/>
<path d="M39.5306 23.0085C39.2858 23.0085 39.041 22.7637 39.041 22.519V19.0921C39.041 18.8473 39.2858 18.6025 39.5306 18.6025C39.7753 18.6025 40.0201 18.8473 40.0201 19.0921V22.519C40.0201 22.7637 39.7753 23.0085 39.5306 23.0085Z" fill="#2BB19A" stroke="#2BB19A" stroke-width="0.5"/>
<path d="M39.5306 27.7824C39.2858 27.7824 39.041 27.5376 39.041 27.2929V25.9466C39.041 25.7018 39.2858 25.457 39.5306 25.457C39.7753 25.457 40.0201 25.7018 40.0201 25.9466V27.2929C40.0201 27.5376 39.7753 27.7824 39.5306 27.7824Z" fill="#2BB19A" stroke="#2BB19A" stroke-width="0.5"/>
</g>
<defs>
<clipPath id="clip0_2678_743">
<rect width="40.7552" height="32.8" fill="white"/>
</clipPath>
</defs>
</svg>
