<svg width="25" height="26" viewBox="0 0 25 26" fill="none" xmlns="http://www.w3.org/2000/svg">
<path d="M14.8278 15.3545C14.6047 15.3545 14.4248 15.1744 14.4248 14.9512V11.3293C14.4248 11.106 14.6047 10.926 14.8278 10.926C15.0509 10.926 15.2309 11.106 15.2309 11.3293V14.9512C15.2309 15.1744 15.0509 15.3545 14.8278 15.3545Z" fill="white" stroke="white" stroke-width="0.5"/>
<path d="M12.5465 7.30398C11.3878 7.30398 10.4521 6.36068 10.4521 5.20857C10.4521 4.05646 11.395 3.11316 12.5465 3.11316C13.698 3.11316 14.6408 4.05646 14.6408 5.20857C14.6408 6.36068 13.698 7.30398 12.5465 7.30398ZM12.5465 3.91245C11.834 3.91245 11.251 4.4957 11.251 5.20857C11.251 5.92144 11.834 6.50469 12.5465 6.50469C13.259 6.50469 13.8419 5.92144 13.8419 5.20857C13.8419 4.4957 13.259 3.91245 12.5465 3.91245Z" fill="white" stroke="white" stroke-width="0.5"/>
<path d="M10.2644 15.3545C10.0413 15.3545 9.86133 15.1744 9.86133 14.9512V11.3293C9.86133 11.106 10.0413 10.926 10.2644 10.926C10.4875 10.926 10.6674 11.106 10.6674 11.3293V14.9512C10.6674 15.1744 10.4875 15.3545 10.2644 15.3545Z" fill="white" stroke="white" stroke-width="0.5"/>
<path d="M14.828 24.9674H13.108C12.8848 24.9674 12.7049 24.7874 12.7049 24.5642V17.5219C12.7049 17.4571 12.6689 17.421 12.6473 17.3994C12.6258 17.3778 12.5826 17.349 12.5178 17.3562C12.453 17.3562 12.3739 17.4642 12.3739 17.5507V24.557C12.3739 24.7802 12.1939 24.9602 11.9708 24.9602H10.2508C10.0276 24.9602 9.84773 24.7802 9.84773 24.557V16.0817C9.64621 16.1537 9.4303 16.1681 9.21439 16.1249C8.65303 16.0169 8.25 15.5129 8.25 14.9152V10.2707C8.25 8.881 9.37992 7.75049 10.7761 7.75049C10.9992 7.75049 11.1792 7.9305 11.1792 8.15373C11.1792 8.37695 10.9992 8.55697 10.7761 8.55697C9.82613 8.55697 9.05606 9.32745 9.05606 10.2779V14.9224C9.05606 15.124 9.1928 15.304 9.37273 15.34C9.53826 15.3689 9.65341 15.304 9.71098 15.2608C9.80454 15.1816 9.85492 15.0736 9.85492 14.9512C9.85492 14.728 10.0348 14.548 10.258 14.548C10.4811 14.548 10.661 14.728 10.661 14.9512V24.1609H11.575V17.5507C11.575 17.0538 11.9636 16.6074 12.4458 16.557C12.7193 16.5282 12.9928 16.6218 13.1943 16.8018C13.3958 16.9818 13.511 17.2482 13.511 17.5219V24.1609H14.425V14.9512C14.425 14.728 14.6049 14.548 14.828 14.548C15.0511 14.548 15.2311 14.728 15.2311 14.9512C15.2311 15.0736 15.2814 15.1816 15.375 15.2608C15.4326 15.304 15.5405 15.3761 15.7132 15.34C15.8932 15.304 16.0299 15.124 16.0299 14.9224V10.2779C16.0299 9.32745 15.2598 8.55697 14.3098 8.55697C14.0867 8.55697 13.9068 8.37695 13.9068 8.15373C13.9068 7.9305 14.0867 7.75049 14.3098 7.75049C15.6989 7.75049 16.8288 8.881 16.8288 10.2707V14.9152C16.8288 15.5057 16.4257 16.0169 15.8644 16.1249C15.6485 16.1681 15.4326 16.1465 15.2311 16.0817V24.557C15.2311 24.7802 15.0511 24.9602 14.828 24.9602V24.9674Z" fill="white" stroke="white" stroke-width="0.5"/>
<path d="M14.828 24.9673H13.108C12.8848 24.9673 12.7049 24.7873 12.7049 24.5641V17.5577C12.7049 17.4641 12.6186 17.3705 12.561 17.3633C12.4962 17.3633 12.4602 17.3849 12.4314 17.4065C12.4098 17.4281 12.3739 17.4641 12.3739 17.5289V24.5712C12.3739 24.7945 12.1939 24.9745 11.9708 24.9745H10.2508C10.0276 24.9745 9.84773 24.7945 9.84773 24.5712V16.096C9.64621 16.168 9.4303 16.1824 9.21439 16.1392C8.65303 16.0312 8.25 15.5272 8.25 14.9295V11.5524V10.285C8.25 8.89528 9.37992 7.76477 10.7761 7.76477C10.9992 7.76477 11.1792 7.94479 11.1792 8.16801C11.1792 8.39123 10.9992 8.57127 10.7761 8.57127C9.82613 8.57127 9.05606 9.34173 9.05606 10.2922V14.9367C9.05606 15.1383 9.1928 15.3183 9.37273 15.3543C9.53826 15.3831 9.65341 15.3183 9.71098 15.2751C9.80454 15.1959 9.85492 15.0879 9.85492 14.9655C9.85492 14.7423 10.0348 14.5622 10.258 14.5622C10.4811 14.5622 10.661 14.7423 10.661 14.9655V24.1752H11.575V17.5361C11.575 17.2625 11.6901 17.0033 11.8917 16.8161C12.0932 16.6361 12.3667 16.5425 12.6401 16.5713C13.1151 16.6217 13.511 17.0681 13.511 17.565V24.1752H14.425V14.9655C14.425 14.7423 14.6049 14.5622 14.828 14.5622C15.0511 14.5622 15.2311 14.7423 15.2311 14.9655C15.2311 15.0879 15.2814 15.1959 15.375 15.2751C15.4326 15.3183 15.5405 15.3903 15.7132 15.3543C15.8932 15.3183 16.0299 15.1383 16.0299 14.9367V10.2922C16.0299 9.34173 15.2598 8.57127 14.3098 8.57127C14.0867 8.57127 13.9068 8.39123 13.9068 8.16801C13.9068 7.94479 14.0867 7.76477 14.3098 7.76477C15.6989 7.76477 16.8288 8.89528 16.8288 10.285V14.9295C16.8288 15.52 16.4257 16.0312 15.8644 16.1392C15.6485 16.1824 15.4326 16.1608 15.2311 16.096V24.5712C15.2311 24.7945 15.0511 24.9745 14.828 24.9745V24.9673Z" fill="white" stroke="white" stroke-width="0.5"/>
<path d="M12.5466 10.6236C12.453 10.6236 12.3595 10.5876 12.2803 10.5228L11.0928 9.47864C10.9273 9.33463 10.9129 9.0754 11.0568 8.90978C11.2008 8.74416 11.4599 8.72977 11.6254 8.87378L12.5538 9.68747L13.4822 8.87378C13.6477 8.72977 13.8996 8.74416 14.0508 8.90978C14.1947 9.0754 14.1803 9.32743 14.0148 9.47864L12.8273 10.5228C12.7481 10.5876 12.6546 10.6236 12.561 10.6236H12.5466Z" fill="white" stroke="white" stroke-width="0.5"/>
<path d="M2.29066 10.8108C1.45581 10.8108 0.779297 10.1339 0.779297 9.29865C0.779297 8.46337 1.45581 7.7865 2.29066 7.7865C3.12551 7.7865 3.80202 8.46337 3.80202 9.29865C3.80202 10.1339 3.12551 10.8108 2.29066 10.8108ZM2.29066 8.593C1.90202 8.593 1.57816 8.90982 1.57816 9.30586C1.57816 9.7019 1.89483 10.0187 2.29066 10.0187C2.68649 10.0187 3.00316 9.7019 3.00316 9.30586C3.00316 8.90982 2.68649 8.593 2.29066 8.593Z" fill="white" stroke="white" stroke-width="0.5"/>
<path d="M2.29066 4.09267C1.45581 4.09267 0.779297 3.4158 0.779297 2.58051C0.779297 1.74523 1.45581 1.06836 2.29066 1.06836C3.12551 1.06836 3.80202 1.74523 3.80202 2.58051C3.80202 3.4158 3.12551 4.09267 2.29066 4.09267ZM2.29066 1.87484C1.90202 1.87484 1.57816 2.19166 1.57816 2.5877C1.57816 2.98374 1.89483 3.30059 2.29066 3.30059C2.68649 3.30059 3.00316 2.98374 3.00316 2.5877C3.00316 2.19166 2.68649 1.87484 2.29066 1.87484Z" fill="white" stroke="white" stroke-width="0.5"/>
<path d="M2.29066 17.5436C1.45581 17.5436 0.779297 16.8667 0.779297 16.0314C0.779297 15.1962 1.45581 14.5193 2.29066 14.5193C3.12551 14.5193 3.80202 15.1962 3.80202 16.0314C3.80202 16.8667 3.12551 17.5436 2.29066 17.5436ZM2.29066 15.3258C1.90202 15.3258 1.57816 15.6426 1.57816 16.0386C1.57816 16.4347 1.89483 16.7515 2.29066 16.7515C2.68649 16.7515 3.00316 16.4347 3.00316 16.0386C3.00316 15.6426 2.68649 15.3258 2.29066 15.3258Z" fill="white" stroke="white" stroke-width="0.5"/>
<path d="M22.8024 10.71C21.9675 10.71 21.291 10.0331 21.291 9.19782C21.291 8.36254 21.9675 7.68567 22.8024 7.68567C23.6372 7.68567 24.3137 8.36254 24.3137 9.19782C24.3137 10.0331 23.6372 10.71 22.8024 10.71ZM22.8024 8.49215C22.4137 8.49215 22.0899 8.80897 22.0899 9.20501C22.0899 9.60105 22.4065 9.9179 22.8024 9.9179C23.1982 9.9179 23.5149 9.60105 23.5149 9.20501C23.5149 8.80897 23.1982 8.49215 22.8024 8.49215Z" fill="white" stroke="white" stroke-width="0.5"/>
<path d="M22.8024 3.99892C21.9675 3.99892 21.291 3.32205 21.291 2.48676C21.291 1.65148 21.9675 0.974609 22.8024 0.974609C23.6372 0.974609 24.3137 1.65148 24.3137 2.48676C24.3137 3.32205 23.6372 3.99892 22.8024 3.99892ZM22.8024 1.78109C22.4137 1.78109 22.0899 2.09793 22.0899 2.49397C22.0899 2.89001 22.4065 3.20684 22.8024 3.20684C23.1982 3.20684 23.5149 2.89001 23.5149 2.49397C23.5149 2.09793 23.1982 1.78109 22.8024 1.78109Z" fill="white" stroke="white" stroke-width="0.5"/>
<path d="M22.8024 17.4498C21.9675 17.4498 21.291 16.773 21.291 15.9377C21.291 15.1024 21.9675 14.4255 22.8024 14.4255C23.6372 14.4255 24.3137 15.1024 24.3137 15.9377C24.3137 16.773 23.6372 17.4498 22.8024 17.4498ZM22.8024 15.232C22.4137 15.232 22.0899 15.5489 22.0899 15.9449C22.0899 16.3409 22.4065 16.6578 22.8024 16.6578C23.1982 16.6578 23.5149 16.3409 23.5149 15.9449C23.5149 15.5489 23.1982 15.232 22.8024 15.232Z" fill="white" stroke="white" stroke-width="0.5"/>
<path d="M6.58018 9.6948H3.39912C3.17602 9.6948 2.99609 9.51479 2.99609 9.29157C2.99609 9.06834 3.17602 8.88831 3.39912 8.88831H6.58018C6.80329 8.88831 6.98321 9.06834 6.98321 9.29157C6.98321 9.51479 6.80329 9.6948 6.58018 9.6948Z" fill="white" stroke="white" stroke-width="0.5"/>
<path d="M9.49432 4.97098C9.45114 4.97098 9.40795 4.97096 9.37197 4.94936L3.27614 2.96198C3.06743 2.88997 2.95228 2.66674 3.01705 2.45792C3.08902 2.2491 3.31213 2.1339 3.52084 2.1987L9.61667 4.18609C9.82538 4.25809 9.94053 4.48132 9.87576 4.69014C9.81818 4.86296 9.66704 4.96378 9.49432 4.96378V4.97098Z" fill="white" stroke="white" stroke-width="0.5"/>
<path d="M3.39901 16.4345C3.23348 16.4345 3.07515 16.3265 3.01757 16.1609C2.9456 15.9521 3.06075 15.7216 3.26947 15.6496L7.25658 14.2959C7.4653 14.2239 7.6956 14.3391 7.76757 14.5479C7.83954 14.7568 7.72439 14.9872 7.51567 15.0592L3.52856 16.4129C3.48537 16.4273 3.44219 16.4345 3.39901 16.4345Z" fill="white" stroke="white" stroke-width="0.5"/>
<path d="M21.6866 9.68746H18.5056C18.2825 9.68746 18.1025 9.50744 18.1025 9.28422C18.1025 9.061 18.2825 8.88098 18.5056 8.88098H21.6866C21.9097 8.88098 22.0897 9.061 22.0897 9.28422C22.0897 9.50744 21.9097 9.68746 21.6866 9.68746Z" fill="white" stroke="white" stroke-width="0.5"/>
<path d="M15.5835 4.95667C15.418 4.95667 15.2597 4.84865 15.2021 4.68304C15.1301 4.47422 15.2453 4.24381 15.4612 4.179L21.557 2.1916C21.7657 2.11959 21.996 2.23481 22.0608 2.45083C22.1328 2.65965 22.0176 2.89006 21.8017 2.95487L15.7059 4.94227C15.6627 4.95668 15.6195 4.96388 15.5835 4.96388V4.95667Z" fill="white" stroke="white" stroke-width="0.5"/>
<path d="M21.6859 16.4201C21.6428 16.4201 21.5996 16.4201 21.5564 16.3985L17.5693 15.0448C17.3606 14.9728 17.2454 14.7423 17.3174 14.5335C17.3893 14.3247 17.6197 14.2095 17.8284 14.2815L21.8155 15.6352C22.0242 15.7072 22.1393 15.9377 22.0674 16.1465C22.0098 16.3121 21.8515 16.4201 21.6859 16.4201Z" fill="white" stroke="white" stroke-width="0.5"/>
</svg>
