<svg width="32" height="32" viewBox="0 0 32 32" fill="none" xmlns="http://www.w3.org/2000/svg">
<g clip-path="url(#clip0_3257_548)">
<path d="M26.3748 15.9374L26.3748 18.5226L24.5004 16.6482C24.1494 16.9966 23.0977 18.0656 16.9375 24.1438L16.9375 31.9995L26.3748 31.9995L26.3748 29.2176L31.9996 24.1121L31.9996 11.25L31.0622 11.25C28.4775 11.25 26.3748 13.3528 26.3748 15.9374ZM30.1247 23.2818L24.4998 28.3873L24.4998 30.1246L18.8125 30.1246L18.8125 24.9277C19.7274 24.0246 22.6784 21.1104 24.4992 19.2987L25.8208 20.6202L20.9657 25.422L22.2841 26.7551L28.2497 20.855L28.2497 15.9374C28.2497 14.7152 29.0334 13.6725 30.1247 13.2856L30.1247 23.2818Z" fill="#624CAB"/>
<path d="M5.62487 31.9995L15.0621 31.9995L15.0621 24.1438C8.76117 17.9267 7.95656 17.102 7.49926 16.6482L5.62487 18.5226L5.62487 15.9374C5.62487 13.3528 3.5221 11.25 0.937478 11.25L0 11.25L1.43697e-07 24.1121L5.62487 29.2176L5.62487 31.9995ZM1.87496 23.2818L1.87496 13.2856C2.96624 13.6726 3.74991 14.7152 3.74991 15.9375L3.74991 20.852L9.6494 26.7514L10.9752 25.4257L6.17436 20.6248L7.50051 19.2987C9.32128 21.1105 12.2724 24.0247 13.1873 24.9278L13.1873 30.1246L7.49989 30.1246L7.49989 28.3874L1.87496 23.2818Z" fill="#624CAB"/>
<path d="M24.4538 5.75062C25.626 5.75062 26.5969 5.56043 27.525 4.6322L28.1878 3.96935L24.2185 -7.96928e-09L23.5556 0.662797C22.6273 1.5909 22.4372 2.56169 22.4372 3.73385L22.4372 4.34284L22.1574 4.55146C20.6168 2.90593 18.4265 1.87577 15.9998 1.87577C11.3475 1.87577 7.5625 5.66074 7.5625 10.3131C7.5625 14.9654 11.3475 18.7504 15.9998 18.7504C20.6521 18.7504 24.4371 14.9654 24.4371 10.3131C24.4371 8.76017 24.0149 7.30427 23.2801 6.05317L23.6857 5.75068L24.4538 5.75068L24.4538 5.75062ZM24.3121 3.73385C24.3121 3.35442 24.3342 3.06518 24.3917 2.82487L25.3629 3.79604C25.1225 3.8536 24.8332 3.87566 24.4537 3.87566L24.312 3.87566L24.312 3.73385L24.3121 3.73385ZM22.5622 10.313C22.5622 13.9315 19.6183 16.8754 15.9998 16.8754C12.3813 16.8754 9.43746 13.9315 9.43746 10.313C9.43746 6.69453 12.3813 3.75066 15.9998 3.75066C17.8119 3.75066 19.4547 4.48896 20.6434 5.68049L19.1185 6.81765C18.2893 6.07698 17.1965 5.62562 15.9998 5.62562C13.4152 5.62562 11.3124 7.72838 11.3124 10.313C11.3124 12.8976 13.4152 15.0004 15.9998 15.0004C18.5844 15.0004 20.6872 12.8976 20.6872 10.313C20.6872 9.60046 20.5266 8.92492 20.241 8.31956L21.766 7.18227C22.2735 8.11331 22.5622 9.1801 22.5622 10.313ZM18.8122 10.313C18.8122 11.8638 17.5506 13.1254 15.9998 13.1254C14.449 13.1254 13.1874 11.8638 13.1874 10.313C13.1874 8.76223 14.449 7.50058 15.9998 7.50058C16.5784 7.50058 17.1165 7.67632 17.564 7.977L15.4393 9.56153L16.5603 11.0646L18.6861 9.47922C18.7681 9.74277 18.8122 10.0228 18.8122 10.313Z" fill="#624CAB"/>
</g>
<defs>
<clipPath id="clip0_3257_548">
<rect width="32" height="32" fill="white"/>
</clipPath>
</defs>
</svg>
