<svg width="37" height="33" viewBox="0 0 37 33" fill="none" xmlns="http://www.w3.org/2000/svg">
<path d="M28.3947 30.4059H21.5825C21.4583 30.4059 21.3623 30.3101 21.3623 30.1855C21.3623 30.0609 21.4583 29.9651 21.5825 29.9651H28.3947C29.4404 29.9651 30.2958 29.1091 30.2958 28.0631V19.6501C30.2958 19.5255 30.3917 19.4297 30.516 19.4297C30.6402 19.4297 30.7361 19.5255 30.7361 19.6501V28.0631C30.7361 29.3583 29.6889 30.4059 28.3947 30.4059Z" fill="#2BB19A" stroke="#2BB19A" stroke-width="0.5"/>
<path d="M12.182 4.50553L12.1406 4.79135H12.4294H23.9871H24.2759L24.2346 4.50553C23.9874 2.79788 22.5166 1.49066 20.7505 1.49066H15.666C13.9 1.49066 12.4292 2.79788 12.182 4.50553ZM24.4901 5.24314H11.9155C11.7913 5.24314 11.6953 5.14733 11.6953 5.02271C11.6953 2.8304 13.4752 1.0498 15.666 1.0498H20.7505C22.9414 1.0498 24.7212 2.8304 24.7212 5.02271C24.7212 5.14733 24.6253 5.24314 24.5011 5.24314H24.4901Z" fill="#2BB19A" stroke="#2BB19A" stroke-width="0.5"/>
<path d="M35.5061 12.9933C35.4913 13.0029 35.4693 13.0115 35.4425 13.0164L35.4297 13.01H35.3706H35.3706H35.3705H35.3705H35.3705H35.3705H35.3705H35.3705H35.3705H35.3704H35.3704H35.3704H35.3704H35.3704H35.3703H35.3703H35.3703H35.3702H35.3702H35.3702H35.3702H35.3701H35.3701H35.37H35.37H35.37H35.3699H35.3699H35.3698H35.3698H35.3697H35.3697H35.3696H35.3696H35.3695H35.3695H35.3694H35.3694H35.3693H35.3692H35.3692H35.3691H35.3691H35.369H35.3689H35.3689H35.3688H35.3687H35.3687H35.3686H35.3685H35.3684H35.3684H35.3683H35.3682H35.3681H35.368H35.368H35.3679H35.3678H35.3677H35.3676H35.3675H35.3674H35.3674H35.3673H35.3672H35.3671H35.367H35.3669H35.3668H35.3667H35.3666H35.3665H35.3664H35.3663H35.3662H35.3661H35.366H35.3659H35.3658H35.3656H35.3655H35.3654H35.3653H35.3652H35.3651H35.365H35.3649H35.3647H35.3646H35.3645H35.3644H35.3643H35.3641H35.364H35.3639H35.3638H35.3636H35.3635H35.3634H35.3632H35.3631H35.363H35.3628H35.3627H35.3626H35.3624H35.3623H35.3622H35.362H35.3619H35.3617H35.3616H35.3615H35.3613H35.3612H35.361H35.3609H35.3607H35.3606H35.3604H35.3603H35.3601H35.36H35.3598H35.3597H35.3595H35.3594H35.3592H35.3591H35.3589H35.3587H35.3586H35.3584H35.3583H35.3581H35.3579H35.3578H35.3576H35.3574H35.3573H35.3571H35.3569H35.3568H35.3566H35.3564H35.3563H35.3561H35.3559H35.3557H35.3556H35.3554H35.3552H35.355H35.3549H35.3547H35.3545H35.3543H35.3542H35.354H35.3538H35.3536H35.3534H35.3532H35.3531H35.3529H35.3527H35.3525H35.3523H35.3521H35.3519H35.3518H35.3516H35.3514H35.3512H35.351H35.3508H35.3506H35.3504H35.3502H35.35H35.3498H35.3496H35.3494H35.3493H35.3491H35.3489H35.3487H35.3485H35.3483H35.3481H35.3479H35.3477H35.3475H35.3473H35.3471H35.3469H35.3467H35.3464H35.3462H35.346H35.3458H35.3456H35.3454H35.3452H35.345H35.3448H35.3446H35.3444H35.3442H35.344H35.3438H35.3435H35.3433H35.3431H35.3429H35.3427H35.3425H35.3423H35.3421H35.3418H35.3416H35.3414H35.3412H35.341H35.3408H35.3405H35.3403H35.3401H35.3399H35.3397H35.3395H35.3392H35.339H35.3388H35.3386H35.3384H35.3381H35.3379H35.3377H35.3375H35.3373H35.337H35.3368H35.3366H35.3364H35.3362H35.3359H35.3357H35.3355H35.3353H35.335H35.3348H35.3346H35.3344H35.3341H35.3339H35.3337H35.3335H35.3332H35.333H35.3328H35.3326H35.3323H35.3321H35.3319H35.3316H35.3314H35.3312H35.331H35.3307H35.3305H35.3303H35.33H35.3298H35.3296H35.3294H35.3291H35.3289H35.3287H35.3284H35.3282H35.328H35.3278H35.3275H35.3273H35.3271H35.3268H35.3266H35.3264H35.3261H35.3259H35.3257H35.3255H35.3252H35.325H35.3248H35.3245H35.3243H35.3241H35.3238H35.3236H35.3234H35.3231H35.3229H35.3227H35.3225H35.3222H35.322H35.3218H35.3215H35.3213H35.3211H35.3208H35.3206H35.3204H35.3202H35.3199H35.3197H35.3195H35.3192H35.319H35.3188H35.3185H35.3183H35.3181H35.3179H35.3176H35.3174H35.3172H35.3169H35.3167H35.3165H35.3163H35.316H35.3158H35.3156H35.3153H35.3151H35.3149H35.3147H35.3144H35.3142H35.314H35.3138H35.3135H35.3133H35.3131H35.3128H35.3126H35.3124H35.3122H35.3119H35.3117H35.3115H35.3113H35.3111H35.3108H35.3106H35.3104H35.3102H35.3099H35.3097H35.3095H35.3093H35.3091H35.3088H35.3086H35.3084H35.3082H35.308H35.3077H35.3075H35.3075L26.8361 11.341C26.836 11.341 26.8359 11.341 26.8358 11.341C26.7328 11.3202 26.6621 11.2343 26.6544 11.1417C26.657 11.025 26.7259 10.9358 26.8168 10.9062L32.9593 9.09088L32.9593 9.09102L32.9675 9.08829C32.9817 9.08357 33.0037 9.07961 33.0598 9.08753C33.0601 9.08758 33.0605 9.08763 33.0608 9.08768L35.9979 9.53558C36.0661 9.54727 36.1143 9.57814 36.1498 9.62898C36.1843 9.67824 36.1963 9.74014 36.1854 9.80108C36.1854 9.80139 36.1853 9.80169 36.1852 9.80199L35.6061 12.8413L35.6061 12.8413L35.6057 12.8434C35.5973 12.8896 35.564 12.9466 35.5061 12.9933ZM28.7828 10.7775L28.8052 11.2625L34.9503 12.4769L35.1978 12.5258L35.2445 12.2779L35.6381 10.1884L35.686 9.93422L35.4304 9.89497L33.0795 9.53394L33.0243 9.52547L32.9707 9.54127L28.7828 10.7775Z" fill="#2BB19A" stroke="#2BB19A" stroke-width="0.5"/>
<path d="M32.8586 15.4541L28.4951 17.0149H28.4159C28.3373 17.0149 28.2573 16.9711 28.2115 16.8874L25.5563 11.5414L25.5565 11.5413L25.5519 11.5329C25.5286 11.4902 25.5239 11.4238 25.556 11.3596L25.5599 11.3519L25.5632 11.3439C25.5901 11.2793 25.6401 11.2398 25.6883 11.2278L25.6884 11.228L25.6989 11.2249L26.8017 10.8971C26.833 10.8884 26.8616 10.8885 26.8929 10.8974L26.9029 10.9003L26.9132 10.9023L30.5653 11.6243L30.5653 11.6244L30.569 11.6251C30.6147 11.6334 30.6711 11.6662 30.7176 11.7232L32.9735 15.1143C33.0098 15.1726 33.0211 15.249 32.9991 15.3206C32.9797 15.3838 32.9322 15.4312 32.8692 15.4506L32.8692 15.4503L32.8586 15.4541ZM26.3681 11.4888L26.0794 11.5713L26.2128 11.8403L28.4325 16.3148L28.5313 16.5139L28.7406 16.4391L32.1412 15.2248L32.443 15.117L32.265 14.8505L30.439 12.1155L30.3813 12.0291L30.2793 12.009L26.9443 11.3526L26.8852 11.341L26.8273 11.3575L26.3681 11.4888Z" fill="#2BB19A" stroke="#2BB19A" stroke-width="0.5"/>
<path d="M23.1688 16.874L23.1688 16.874L23.1681 16.8724L21.3751 12.5954C21.3751 12.5953 21.3751 12.5952 21.375 12.5952C21.3515 12.5386 21.3529 12.4724 21.3793 12.4093C21.4189 12.3411 21.4746 12.3004 21.5221 12.2886L21.5221 12.2886L21.5236 12.2882L25.6991 11.2164C25.6993 11.2164 25.6995 11.2163 25.6997 11.2163C25.8023 11.1909 25.9053 11.2326 25.9627 11.3397L27.9841 15.4065L27.984 15.4066L27.9885 15.4149C28.0118 15.4577 28.0165 15.5241 27.9844 15.5883L27.9805 15.596L27.9772 15.6039C27.9515 15.6656 27.9042 15.7055 27.8456 15.719L27.8455 15.7186L27.8321 15.7225L23.431 17.0009L23.4247 17.0024C23.4175 17.0041 23.4077 17.0063 23.397 17.0084C23.3808 17.0117 23.3705 17.0132 23.3656 17.0139C23.3647 17.014 23.364 17.0141 23.3635 17.0142C23.2808 17.01 23.2042 16.96 23.1688 16.874ZM22.1647 12.6025L22.2119 12.7865L21.9769 12.8337V12.8447V13.167L22.0839 13.1395L23.4178 16.3218L23.504 16.5276L23.7183 16.4652L27.1735 15.4587L27.4604 15.3751L27.3276 15.1075L25.7311 11.8911L25.6411 11.7098L25.445 11.7601L22.1647 12.6025Z" fill="#2BB19A" stroke="#2BB19A" stroke-width="0.5"/>
<path d="M0.834164 12.8369L0.83423 12.8368L0.833143 12.8311L0.254229 9.79299C0.241414 9.71276 0.259139 9.65834 0.281962 9.62898L0.282213 9.62917L0.289429 9.61886C0.325001 9.56802 0.373196 9.53715 0.44133 9.52546L3.36187 9.0801C3.41651 9.08023 3.46102 9.08111 3.49663 9.0857L9.6225 10.8961C9.72466 10.9292 9.7903 11.0253 9.78527 11.126L9.78496 11.126V11.1385C9.78496 11.2296 9.71535 11.3138 9.61514 11.3288L9.6151 11.3286L9.60392 11.3308L1.13183 12.9999H1.13177H1.13162H1.13142H1.13121H1.13101H1.1308H1.13059H1.13038H1.13018H1.12997H1.12976H1.12955H1.12934H1.12913H1.12892H1.12871H1.12849H1.12828H1.12807H1.12786H1.12764H1.12743H1.12721H1.127H1.12678H1.12657H1.12635H1.12614H1.12592H1.1257H1.12548H1.12527H1.12505H1.12483H1.12461H1.12439H1.12417H1.12395H1.12373H1.12351H1.12329H1.12307H1.12285H1.12263H1.12241H1.12218H1.12196H1.12174H1.12152H1.12129H1.12107H1.12084H1.12062H1.1204H1.12017H1.11995H1.11972H1.1195H1.11927H1.11905H1.11882H1.11859H1.11837H1.11814H1.11791H1.11769H1.11746H1.11723H1.117H1.11678H1.11655H1.11632H1.11609H1.11586H1.11564H1.11541H1.11518H1.11495H1.11472H1.11449H1.11426H1.11403H1.1138H1.11357H1.11334H1.11311H1.11288H1.11265H1.11242H1.11219H1.11196H1.11173H1.1115H1.11127H1.11104H1.11081H1.11058H1.11035H1.11012H1.10989H1.10966H1.10943H1.1092H1.10897H1.10874H1.10851H1.10827H1.10804H1.10781H1.10758H1.10735H1.10712H1.10689H1.10666H1.10643H1.1062H1.10597H1.10574H1.10551H1.10528H1.10505H1.10482H1.10459H1.10436H1.10413H1.1039H1.10367H1.10344H1.10321H1.10298H1.10275H1.10253H1.1023H1.10207H1.10184H1.10161H1.10138H1.10116H1.10093H1.1007H1.10047H1.10025H1.10002H1.09979H1.09957H1.09934H1.09911H1.09889H1.09866H1.09843H1.09821H1.09798H1.09776H1.09753H1.09731H1.09709H1.09686H1.09664H1.09641H1.09619H1.09597H1.09575H1.09552H1.0953H1.09508H1.09486H1.09464H1.09442H1.0942H1.09398H1.09376H1.09354H1.09332H1.0931H1.09288H1.09266H1.09244H1.09223H1.09201H1.09179H1.09158H1.09136H1.09114H1.09093H1.09071H1.0905H1.09028H1.09007H1.08986H1.08965H1.08943H1.08922H1.08901H1.0888H1.08859H1.08838H1.08817H1.08796H1.08775H1.08754H1.08733H1.08712H1.08692H1.08671H1.08651H1.0863H1.08609H1.08589H1.08569H1.08548H1.08528H1.08508H1.08487H1.08467H1.08447H1.08427H1.08407H1.08387H1.08367H1.08348H1.08328H1.08308H1.08288H1.08269H1.08249H1.0823H1.0821H1.08191H1.08172H1.08153H1.08133H1.08114H1.08095H1.08076H1.08057H1.08039H1.0802H1.08001H1.07982H1.07964H1.07945H1.07927H1.07908H1.0789H1.07872H1.07854H1.07836H1.07818H1.078H1.07782H1.07764H1.07746H1.07728H1.07711H1.07693H1.07676H1.07658H1.07641H1.07624H1.07607H1.07589H1.07572H1.07556H1.07539H1.07522H1.07505H1.07489H1.07472H1.07456H1.07439H1.07423H1.07407H1.0739H1.07374H1.07358H1.07343H1.07327H1.07311H1.07295H1.0728H1.07264H1.07249H1.07234H1.07218H1.07203H1.07188H1.07173H1.07159H1.07144H1.07129H1.07114H1.071H1.07086H1.07071H1.07057H1.07043H1.07029H1.07015H1.07001H1.06987H1.06974H1.0696H1.06947H1.06933H1.0692H1.06907H1.06894H1.06881H1.06868H1.00964L0.999273 13.0051C0.972207 12.9987 0.943216 12.9868 0.911126 12.9687C0.87586 12.9468 0.845942 12.9076 0.834164 12.8369ZM0.987003 9.89579L0.731398 9.93505L0.779272 10.1892L1.17291 12.2788L1.21961 12.5266L1.46706 12.4777L7.61222 11.2634L7.63454 10.7783L3.44663 9.5421L3.39309 9.52629L3.33791 9.53476L0.987003 9.89579Z" fill="#2BB19A" stroke="#2BB19A" stroke-width="0.5"/>
<path d="M7.97897 16.993H7.91076L3.54723 15.4322L3.54732 15.432L3.53659 15.4287C3.49189 15.4149 3.44092 15.3706 3.40367 15.2879C3.38593 15.2195 3.39783 15.1478 3.43231 15.0925L5.69407 11.6926L5.69429 11.6928L5.70032 11.6827C5.722 11.6465 5.76134 11.6158 5.8332 11.6038L5.83322 11.6039L5.84071 11.6024L9.4747 10.8818C9.52019 10.8758 9.56543 10.8754 9.61089 10.8805L10.6916 11.2017C10.7651 11.227 10.81 11.2699 10.8317 11.322C10.8598 11.3896 10.8607 11.4603 10.8343 11.528L8.18151 16.8692L8.18145 16.8692L8.17885 16.8748C8.14772 16.9415 8.06748 16.993 7.97897 16.993ZM4.15175 14.8505L3.97382 15.117L4.27559 15.2248L7.67621 16.4391L7.88549 16.5139L7.98425 16.3148L10.2039 11.8403L10.3374 11.5713L10.0487 11.4888L9.58945 11.3575L9.53155 11.341L9.47246 11.3526L6.13744 12.009L6.0355 12.0291L5.9778 12.1155L4.15175 14.8505Z" fill="#2BB19A" stroke="#2BB19A" stroke-width="0.5"/>
<path d="M13.239 16.8705C13.2003 16.9574 13.1157 17.0114 13.0382 17.0145L13.0375 17.0145C13.0323 17.0143 13.0253 17.0139 13.0179 17.0131C13.0142 17.0127 13.0111 17.0124 13.0085 17.012L13.0025 17.009L12.9807 17.0026L8.57947 15.7242C8.51091 15.7004 8.45908 15.658 8.42581 15.596C8.40085 15.5309 8.40103 15.4632 8.42637 15.3981L10.4447 11.3374C10.4448 11.3373 10.4448 11.3372 10.4449 11.3372C10.4916 11.2438 10.6035 11.1909 10.7066 11.2164C10.7068 11.2164 10.707 11.2165 10.7072 11.2165L14.8826 12.2883L14.8826 12.2883L14.8841 12.2887C14.9416 12.303 14.993 12.3408 15.0273 12.4095L15.0272 12.4096L15.0315 12.4174C15.0553 12.4613 15.0613 12.5228 15.0312 12.5953C15.0312 12.5954 15.0311 12.5954 15.0311 12.5955L13.239 16.8705ZM9.06355 15.2188V15.4064L9.24363 15.4588L12.6989 16.4653L12.9132 16.5277L12.9994 16.3219L14.4209 12.9305L14.5327 12.6637L14.2525 12.5917L10.9722 11.7493L10.7761 11.6989L10.686 11.8803L9.08962 15.0967L9.06355 15.1492V15.2079V15.2188Z" fill="#2BB19A" stroke="#2BB19A" stroke-width="0.5"/>
<path d="M16.2653 12.8438C16.2184 12.8854 16.1555 12.9066 16.0931 12.9019C14.808 12.7721 13.5342 12.5236 12.3041 12.1565L12.3033 12.1563L3.35887 9.51968L3.35888 9.51965L3.35513 9.5186C3.27024 9.49501 3.19922 9.41043 3.19922 9.29999C3.19922 6.8123 5.21964 4.79102 7.70572 4.79102H28.7436C31.2297 4.79102 33.2501 6.8123 33.2501 9.29999C33.2501 9.39266 33.1847 9.48644 33.0855 9.52114L24.1461 12.1563L24.1453 12.1565C22.9183 12.5226 21.6479 12.7708 20.3661 12.9009H20.3661H20.366H20.3659H20.3658H20.3657H20.3656H20.3655H20.3654H20.3653H20.3652H20.3651H20.3651H20.365H20.3649H20.3648H20.3647H20.3646H20.3645H20.3644H20.3643H20.3642H20.3641H20.364H20.3639H20.3638H20.3638H20.3637H20.3636H20.3635H20.3634H20.3633H20.3632H20.3631H20.363H20.3629H20.3628H20.3627H20.3626H20.3625H20.3624H20.3623H20.3622H20.3622H20.3621H20.362H20.3619H20.3618H20.3617H20.3616H20.3615H20.3614H20.3613H20.3612H20.3611H20.361H20.3609H20.3608H20.3607H20.3606H20.3605H20.3604H20.3603H20.3603H20.3602H20.3601H20.36H20.3599H20.3598H20.3597H20.3596H20.3595H20.3594H20.3593H20.3592H20.3591H20.359H20.3589H20.3588H20.3587H20.3586H20.3585H20.3584H20.3583H20.3582H20.3581H20.358H20.358H20.3579H20.3578H20.3577H20.3576H20.3575H20.3574H20.3573H20.3572H20.3571H20.357H20.3569H20.3568H20.3567H20.3566H20.3565H20.3564H20.3563H20.3562H20.3561H20.356H20.3559H20.3558H20.3557H20.3556H20.3556H20.3555H20.3554H20.3553H20.3552H20.3551H20.355H20.3549H20.3548H20.3547H20.3546H20.3545H20.3544H20.3543H20.3542H20.3541H20.354H20.3539H20.3538H20.3537H20.3536H20.3535H20.3534H20.3533H20.3533H20.3532H20.3531H20.353H20.3529H20.3528H20.3527H20.3526H20.3525H20.3524H20.3523H20.3522H20.3521H20.352H20.3519H20.3518H20.3517H20.3516H20.3515H20.3514H20.3514H20.3513H20.3512H20.3511H20.351H20.3509H20.3508H20.3507H20.3506H20.3505H20.3504H20.3503H20.3502H20.3501H20.35H20.3499H20.3499H20.3498H20.3497H20.3496H20.3495H20.3494H20.3493H20.3492H20.3491H20.349H20.3489H20.3488H20.3487H20.3486H20.3486H20.3485H20.3484H20.3483H20.3482H20.3481H20.348H20.3479H20.3478H20.3477H20.3476H20.3475H20.3475H20.3474H20.3473H20.3472H20.3471H20.347H20.3469H20.3468H20.3467H20.3466H20.3465H20.3465H20.3464H20.3463H20.3462H20.3461H20.346H20.3459H20.3458H20.3457H20.3456H20.3456H20.3455H20.3454H20.3453H20.3452H20.3451H20.345H20.3449H20.3449H20.3448H20.3447H20.3446H20.3445H20.3444H20.3443H20.3442H20.3442H20.3441H20.344H20.3439H20.3438H20.3437H20.3436H20.3435H20.3435H20.3434H20.3433H20.3432H20.3431H20.343H20.3429H20.3429H20.3428H20.3427H20.3426H20.3425H20.3424H20.3424H20.3423H20.3422H20.3421H20.342H20.3419H20.3419H20.3418H20.3417H20.3416H20.3415H20.3414H20.3414H20.3413H20.3412H20.3411H20.341H20.341H20.3409H20.3408H20.3407H20.3406H20.3405H20.3405H20.3404H20.3403H20.3402H20.3402H20.3401H20.34H20.3399H20.3398H20.3398H20.3397H20.3396H20.3395H20.3394H20.3394H20.3393H20.3392H20.3391H20.3391H20.339H20.3389H20.3388H20.3388H20.3387H20.3386H20.3385H20.3384H20.3384H20.3383H20.3382H20.3382H20.3381H20.338H20.3379H20.3379H20.3378H20.3377H20.3376H20.3376H20.3375H20.3374H20.3373H20.3373H20.3372H20.3371H20.3371H20.337H20.3369H20.3368H20.3368H20.3367H20.3366H20.3366H20.3365H20.3364H20.3364H20.3363H20.3362H20.3362H20.3361H20.336H20.336H20.3359H20.3358H20.3357H20.3357H20.3356H20.3356H20.3355H20.3354H20.3354H20.3353H20.3352H20.3352H20.3351H20.335H20.3241C20.2675 12.9009 20.2163 12.8812 20.1724 12.8432C20.1316 12.8065 20.1039 12.7454 20.1039 12.6805V11.302V11.052H19.8539H16.5845H16.3345V11.302V12.6805C16.3345 12.7458 16.3064 12.8072 16.2653 12.8438ZM20.5443 12.1444V12.4302L20.8275 12.3922C21.8996 12.2484 22.9725 12.0272 24.0022 11.7281L24.0034 11.7278L32.5869 9.18964L32.7835 9.13153L32.765 8.92741C32.5785 6.86317 30.8422 5.24281 28.7218 5.24281H7.68384C5.57363 5.24281 3.83871 6.86364 3.64073 8.92601L3.62103 9.13119L3.81869 9.18964L12.401 11.7274C12.4013 11.7275 12.4015 11.7275 12.4017 11.7276C13.4327 12.0381 14.507 12.2596 15.5806 12.3925L15.8613 12.4273V12.1444V10.8316C15.8613 10.707 15.9573 10.6112 16.0815 10.6112H16.1034H20.3241C20.4483 10.6112 20.5443 10.707 20.5443 10.8316V12.1444Z" fill="#2BB19A" stroke="#2BB19A" stroke-width="0.5"/>
<path d="M16.5742 21.7407H16.3242V21.9907V22.9315C16.3242 23.9775 17.1686 24.8225 18.2143 24.8225C19.2601 24.8225 20.1045 23.9775 20.1045 22.9315V21.9907V21.7407H19.8545H16.5851H16.5742ZM18.2143 25.2634C16.931 25.2634 15.8838 24.2158 15.8838 22.9315V21.5202C15.8838 21.3956 15.9797 21.2998 16.104 21.2998H20.3247C20.4489 21.2998 20.5449 21.3956 20.5449 21.5202V22.9315C20.5449 24.2158 19.4976 25.2634 18.2143 25.2634Z" fill="#2BB19A" stroke="#2BB19A" stroke-width="0.5"/>
<path d="M14.8896 18.7211H14.6396V18.9711V20.2621C14.6396 20.8267 15.1013 21.2888 15.6659 21.2888H20.7395C21.3042 21.2888 21.7659 20.8267 21.7659 20.2621V18.9711V18.7211H21.5159H14.8896ZM20.7395 21.7406H15.6659C14.8539 21.7406 14.1992 21.077 14.1992 20.273V18.5007C14.1992 18.3761 14.2952 18.2803 14.4194 18.2803H21.9861C22.1103 18.2803 22.2062 18.3761 22.2062 18.5007V20.273C22.2062 21.0858 21.5427 21.7406 20.7395 21.7406Z" fill="#2BB19A" stroke="#2BB19A" stroke-width="0.5"/>
<path d="M3.35831 12.1081L3.35828 12.1079C3.26905 12.1213 3.18848 12.2068 3.18848 12.3201V30.2073C3.18848 31.5025 4.23572 32.5501 5.52994 32.5501H30.887H30.9088C32.2031 32.5501 33.2503 31.5025 33.2503 30.2073V12.3201C33.2503 12.224 33.1739 12.1271 33.069 12.1059C33.0689 12.1058 33.0687 12.1058 33.0685 12.1058L31.2764 11.7559L31.2659 11.7539L31.2556 11.7509C31.2244 11.742 31.1957 11.7419 31.1645 11.7506C31.1642 11.7507 31.1638 11.7508 31.1634 11.7509L30.6544 11.9026C30.6541 11.9027 30.6538 11.9028 30.6535 11.9029C30.5945 11.9214 30.5416 11.9678 30.5112 12.0409C30.4877 12.125 30.5025 12.1989 30.5315 12.2388L30.5374 12.2468L30.5372 12.2469L32.2758 14.8507L32.4538 15.1172L32.152 15.225L28.7514 16.4393L28.5417 16.5142L28.4431 16.3146L27.9953 15.4076C27.9953 15.4075 27.9952 15.4074 27.9951 15.4072C27.9499 15.3172 27.833 15.2646 27.7332 15.2946L27.7309 15.2953L23.7289 16.4549L23.5144 16.5171L23.4285 16.311L22.6306 14.3973C22.6306 14.3971 22.6305 14.3969 22.6304 14.3967C22.5892 14.2994 22.4774 14.2408 22.3752 14.2608C22.3749 14.2609 22.3746 14.2609 22.3743 14.261L22.3253 14.0159C21.6473 14.1581 20.9694 14.2675 20.2805 14.3331L3.35831 12.1081ZM3.35831 12.1081L3.36907 12.106L5.15555 11.7572M3.35831 12.1081L5.15555 11.7572M5.15555 11.7572C5.20112 11.7512 5.24644 11.7507 5.29198 11.7559L5.78531 11.9029C5.85753 11.9255 5.90868 11.9789 5.92519 12.0326L5.92771 12.0408L5.93079 12.0488C5.95359 12.1081 5.94836 12.1766 5.9015 12.247C5.90147 12.2471 5.90145 12.2471 5.90142 12.2471L4.16298 14.8507L3.98503 15.1172L4.28681 15.225L7.68743 16.4393L7.89711 16.5142L7.99568 16.3146L8.44399 15.4065L8.44402 15.4065L8.44578 15.4028C8.48819 15.3132 8.59818 15.2624 8.7056 15.2946L8.7079 15.2953L12.7099 16.4549L12.9243 16.5171L13.0102 16.311L13.8081 14.3973C13.8082 14.3972 13.8082 14.397 13.8083 14.3969C13.8499 14.2985 13.9519 14.2406 14.0645 14.261L5.15555 11.7572ZM32.4543 15.5854L28.4878 16.9958C28.3696 17.0342 28.2582 16.9799 28.2173 16.889L28.2175 16.889L28.2135 16.8809L27.7543 15.951L27.6615 15.7631L27.4603 15.8216L23.4375 16.9919C23.4374 16.9919 23.4372 16.992 23.4371 16.992C23.3353 17.0209 23.2179 16.9697 23.1666 16.8585L22.3479 14.9144L22.2687 14.7262L22.0685 14.7663C21.6394 14.8521 21.1979 14.9169 20.7532 14.9711L20.5335 14.9979V15.2193V18.4794C20.5335 18.6041 20.4376 18.6999 20.3133 18.6999H16.0926C15.9684 18.6999 15.8724 18.6041 15.8724 18.4794V15.2083V14.987L15.6527 14.9602C15.209 14.906 14.7776 14.8412 14.3364 14.7551L14.1369 14.7162L14.0581 14.9034L13.2393 16.8476C13.188 16.9587 13.0707 17.01 12.9689 16.9811C12.9688 16.981 12.9686 16.981 12.9685 16.9809L8.94572 15.8107L8.74451 15.7521L8.65173 15.94L8.19301 16.8689C8.19293 16.869 8.19285 16.8692 8.19277 16.8693C8.13923 16.9759 8.01897 17.0198 7.92024 16.9855C7.92007 16.9855 7.91991 16.9854 7.91974 16.9854L3.95165 15.5745L3.79592 15.821H3.62884V30.2073C3.62884 31.2533 4.48418 32.1093 5.52994 32.1093H30.887C31.9327 32.1093 32.7881 31.2533 32.7881 30.2073V15.821V15.4668L32.4543 15.5854ZM31.5916 12.2718L31.0028 12.1553L31.3348 12.6553L32.3298 14.1541L32.7881 14.8444V14.0159V12.714V12.5086L32.5866 12.4687L31.5916 12.2718ZM3.83031 12.4687L3.62884 12.5086V12.714V14.0159V14.8444L4.08712 14.1541L5.08216 12.6553L5.41413 12.1553L4.82535 12.2718L3.83031 12.4687Z" fill="#2BB19A" stroke="#2BB19A" stroke-width="0.5"/>
<path d="M16.3242 18.0194V18.2694H16.5742H19.8435H20.0935V18.0194V11.2912V11.0412H19.8435H16.5742H16.3242V11.2912V18.0194ZM20.3247 18.7212H16.104C15.9797 18.7212 15.8838 18.6254 15.8838 18.5008V10.8318C15.8838 10.7071 15.9797 10.6113 16.104 10.6113H20.3247C20.4489 10.6113 20.5449 10.7071 20.5449 10.8318V18.5008C20.5449 18.6254 20.4489 18.7212 20.3247 18.7212Z" fill="#2BB19A" stroke="#2BB19A" stroke-width="0.5"/>
<path d="M5.90181 26.8278C5.77759 26.8278 5.68164 26.732 5.68164 26.6074V20.0105C5.68164 19.8858 5.77759 19.79 5.90181 19.79C6.02605 19.79 6.12201 19.8859 6.12201 20.0105V26.6074C6.12201 26.732 6.02605 26.8278 5.90181 26.8278Z" fill="#2BB19A" stroke="#2BB19A" stroke-width="0.5"/>
</svg>
