<svg width="32" height="32" viewBox="0 0 32 32" fill="none" xmlns="http://www.w3.org/2000/svg">
<path d="M31.2809 30.5616H1.4382V0.718857C1.4382 0.321913 1.11604 -0.000244141 0.719101 -0.000244141C0.322157 -0.000244141 0 0.321913 0 0.718857V31.2807C0 31.6776 0.322157 31.9998 0.719101 31.9998H31.2809C31.6778 31.9998 32 31.6776 32 31.2807C32 30.8837 31.6778 30.5616 31.2809 30.5616Z" fill="#624CAB"/>
<path d="M4.44933 29.1234H11.4156C11.8126 29.1234 12.1347 28.8012 12.1347 28.4043V18.202C12.1347 17.8051 11.8126 17.4829 11.4156 17.4829H4.44933C4.05238 17.4829 3.73022 17.8051 3.73022 18.202V28.4043C3.73022 28.8012 4.05238 29.1234 4.44933 29.1234ZM5.16843 18.9211H10.6965V27.6852H5.16843V18.9211Z" fill="#624CAB"/>
<path d="M13.6628 11.9099V28.4043C13.6628 28.8012 13.985 29.1234 14.3819 29.1234H21.3482C21.7452 29.1234 22.0673 28.8012 22.0673 28.4043V11.9099C22.0673 11.513 21.7452 11.1908 21.3482 11.1908H14.3819C13.985 11.1908 13.6628 11.513 13.6628 11.9099ZM15.101 12.629H20.6291V27.6852H15.101V12.629Z" fill="#624CAB"/>
<path d="M31.2809 4.13464H24.3146C23.9176 4.13464 23.5955 4.4568 23.5955 4.85374V28.4043C23.5955 28.8013 23.9176 29.1234 24.3146 29.1234H31.2809C31.6778 29.1234 32 28.8013 32 28.4043V4.85374C32 4.4568 31.6778 4.13464 31.2809 4.13464ZM30.5618 27.6852H25.0337V5.57285H30.5618V27.6852Z" fill="#624CAB"/>
<path d="M5.23732 15.0081C5.42141 15.0081 5.6055 14.938 5.74573 14.7974L18.0884 2.45477V5.62349C18.0884 6.02043 18.4105 6.34259 18.8075 6.34259C19.2044 6.34259 19.5266 6.02043 19.5266 5.62349V0.718857C19.5266 0.671756 19.5215 0.624655 19.5122 0.577913C19.5079 0.5567 19.5 0.536924 19.4939 0.51643C19.4867 0.49234 19.4809 0.467531 19.4712 0.443801C19.4611 0.419711 19.4475 0.397778 19.4349 0.374767C19.4248 0.35643 19.4169 0.337374 19.4051 0.320115C19.3526 0.241014 19.2846 0.173419 19.2055 0.120565C19.189 0.109419 19.1706 0.101868 19.153 0.0921603C19.1296 0.0792165 19.1066 0.0648345 19.0815 0.0547671C19.0588 0.0454187 19.0347 0.0400255 19.0113 0.0328345C18.9898 0.0263626 18.9696 0.018093 18.9473 0.0137783C18.9017 0.00478958 18.8557 -0.000244141 18.8093 -0.000244141C18.8086 -0.000244141 18.8078 -0.000244141 18.8068 -0.000244141H13.9029C13.5059 -0.000244141 13.1837 0.321913 13.1837 0.718857C13.1837 1.1158 13.5059 1.43796 13.9029 1.43796H17.0716L4.72892 13.7806C4.44811 14.0614 4.44811 14.5166 4.72892 14.7974C4.86914 14.9376 5.05323 15.0081 5.23732 15.0081Z" fill="#624CAB"/>
</svg>
