<svg width="37" height="30" viewBox="0 0 37 30" fill="none" xmlns="http://www.w3.org/2000/svg">
<path d="M13.9998 18.6654C11.0943 18.6654 8.72949 16.2994 8.72949 13.3922C8.72949 10.4851 11.0943 8.11914 13.9998 8.11914C14.2544 8.11914 14.4558 8.32072 14.4558 8.57536V12.448C14.4558 12.7026 14.2544 12.9042 13.9998 12.9042C13.7453 12.9042 13.5438 12.7026 13.5438 12.448V9.06342C11.3487 9.29684 9.64145 11.1536 9.64145 13.4029C9.64145 15.8113 11.5927 17.7635 13.9998 17.7635C16.248 17.7635 18.1037 16.0447 18.337 13.8591H14.9542C14.6997 13.8591 14.4983 13.6575 14.4983 13.4029C14.4983 13.1482 14.6997 12.9466 14.9542 12.9466H18.8248C19.0793 12.9466 19.2808 13.1482 19.2808 13.4029C19.2808 16.31 16.916 18.676 14.0104 18.676L13.9998 18.6654Z" fill="#08CE8A" stroke="#08CE8A" stroke-width="0.5"/>
<path d="M20.3748 12.2879H15.5605C15.306 12.2879 15.1045 12.0863 15.1045 11.8317V7.01481C15.1045 6.76017 15.306 6.55859 15.5605 6.55859C18.4661 6.55859 20.8309 8.9246 20.8309 11.8317C20.8309 12.0863 20.6294 12.2879 20.3748 12.2879ZM16.0165 11.3755H19.8977C19.6856 9.33837 18.0631 7.70446 16.0165 7.49227V11.3755Z" fill="#08CE8A" stroke="#08CE8A" stroke-width="0.5"/>
<path d="M33.1947 29.0001H4.12829C2.39979 29.0001 1 27.5996 1 25.8702V24.6819C1 24.2575 1.33934 23.918 1.76351 23.918H35.5701C35.9943 23.918 36.3337 24.2575 36.3337 24.6819V25.8702C36.3337 27.5996 34.9339 29.0001 33.2054 29.0001H33.1947ZM1.91196 24.841V25.8808C1.91196 27.1009 2.90879 28.0983 4.12829 28.0983H33.1947C34.4142 28.0983 35.4111 27.1009 35.4111 25.8808V24.841H1.91196Z" fill="#08CE8A" stroke="#08CE8A" stroke-width="0.5"/>
<path d="M34.265 24.8404H3.04582C2.79132 24.8404 2.58984 24.6388 2.58984 24.3842V2.9204C2.58984 1.85941 3.44879 1 4.50923 1H32.791C33.8514 1 34.7104 1.85941 34.7104 2.9204V24.3842C34.7104 24.6388 34.5089 24.8404 34.2544 24.8404H34.265ZM3.51242 23.9279H33.809V2.9204C33.809 2.36869 33.353 1.91245 32.8016 1.91245H4.51984C3.96842 1.91245 3.51242 2.36869 3.51242 2.9204V23.9279Z" fill="#08CE8A" stroke="#08CE8A" stroke-width="0.5"/>
<path d="M30.8832 22.1773H6.44023C5.68733 22.1773 5.07227 21.562 5.07227 20.8087V5.19095C5.07227 4.43765 5.68733 3.82227 6.44023 3.82227H30.8832C31.6361 3.82227 32.2512 4.43765 32.2512 5.19095V20.8087C32.2512 21.562 31.6361 22.1773 30.8832 22.1773ZM6.44023 4.73471C6.18573 4.73471 5.98426 4.93631 5.98426 5.19095V20.8087C5.98426 21.0633 6.18573 21.2649 6.44023 21.2649H30.8832C31.1377 21.2649 31.3392 21.0633 31.3392 20.8087V5.19095C31.3392 4.93631 31.1377 4.73471 30.8832 4.73471H6.44023Z" fill="#08CE8A" stroke="#08CE8A" stroke-width="0.5"/>
<path d="M29.2293 8.58628H22.9834C22.7289 8.58628 22.5273 8.38468 22.5273 8.13004C22.5273 7.87541 22.7289 7.67383 22.9834 7.67383H29.2293C29.4838 7.67383 29.6853 7.87541 29.6853 8.13004C29.6853 8.38468 29.4838 8.58628 29.2293 8.58628Z" fill="#08CE8A" stroke="#08CE8A" stroke-width="0.5"/>
<path d="M29.2293 11.9281H22.9834C22.7289 11.9281 22.5273 11.7265 22.5273 11.4719C22.5273 11.2172 22.7289 11.0156 22.9834 11.0156H29.2293C29.4838 11.0156 29.6853 11.2172 29.6853 11.4719C29.6853 11.7265 29.4838 11.9281 29.2293 11.9281Z" fill="#08CE8A" stroke="#08CE8A" stroke-width="0.5"/>
<path d="M29.2293 15.2699H22.9834C22.7289 15.2699 22.5273 15.0683 22.5273 14.8136C22.5273 14.559 22.7289 14.3574 22.9834 14.3574H29.2293C29.4838 14.3574 29.6853 14.559 29.6853 14.8136C29.6853 15.0683 29.4838 15.2699 29.2293 15.2699Z" fill="#08CE8A" stroke="#08CE8A" stroke-width="0.5"/>
<path d="M21.5934 18.6019H20.3739C20.1194 18.6019 19.918 18.4003 19.918 18.1457C19.918 17.891 20.1194 17.6895 20.3739 17.6895H21.5934C21.8479 17.6895 22.0495 17.891 22.0495 18.1457C22.0495 18.4003 21.8479 18.6019 21.5934 18.6019Z" fill="#08CE8A" stroke="#08CE8A" stroke-width="0.5"/>
<path d="M25.8676 18.6019H23.7255C23.471 18.6019 23.2695 18.4003 23.2695 18.1457C23.2695 17.891 23.471 17.6895 23.7255 17.6895H25.8676C26.1221 17.6895 26.3236 17.891 26.3236 18.1457C26.3236 18.4003 26.1221 18.6019 25.8676 18.6019Z" fill="#08CE8A" stroke="#08CE8A" stroke-width="0.5"/>
<path d="M29.2282 18.6019H28.0087C27.7542 18.6019 27.5527 18.4003 27.5527 18.1457C27.5527 17.891 27.7542 17.6895 28.0087 17.6895H29.2282C29.4827 17.6895 29.6842 17.891 29.6842 18.1457C29.6842 18.4003 29.4827 18.6019 29.2282 18.6019Z" fill="#08CE8A" stroke="#08CE8A" stroke-width="0.5"/>
</svg>
