<svg width="32" height="26" viewBox="0 0 32 26" fill="none" xmlns="http://www.w3.org/2000/svg">
<path d="M12.1435 16.1423C9.65296 16.1423 7.62598 14.1143 7.62598 11.6224C7.62598 9.13058 9.65296 7.10254 12.1435 7.10254C12.3617 7.10254 12.5344 7.27533 12.5344 7.49359V10.813C12.5344 11.0313 12.3617 11.2041 12.1435 11.2041C11.9254 11.2041 11.7526 11.0313 11.7526 10.813V7.91194C9.87109 8.11201 8.40767 9.70352 8.40767 11.6315C8.40767 13.6959 10.0802 15.3693 12.1435 15.3693C14.0705 15.3693 15.6612 13.896 15.8612 12.0226H12.9616C12.7434 12.0226 12.5707 11.8498 12.5707 11.6315C12.5707 11.4133 12.7434 11.2405 12.9616 11.2405H16.2793C16.4974 11.2405 16.6701 11.4133 16.6701 11.6315C16.6701 14.1234 14.6431 16.1514 12.1526 16.1514L12.1435 16.1423Z" fill="white" stroke="white" stroke-width="0.5"/>
<path d="M17.6064 10.6766H13.4797C13.2616 10.6766 13.0889 10.5038 13.0889 10.2855V6.15668C13.0889 5.93841 13.2616 5.76562 13.4797 5.76562C15.9703 5.76562 17.9973 7.79367 17.9973 10.2855C17.9973 10.5038 17.8246 10.6766 17.6064 10.6766ZM13.8706 9.89446H17.1974C17.0156 8.14834 15.6249 6.74782 13.8706 6.56593V9.89446Z" fill="white" stroke="white" stroke-width="0.5"/>
<path d="M28.5961 24.9997H3.68145C2.19984 24.9997 1 23.7993 1 22.3169V21.2983C1 20.9346 1.29087 20.6436 1.65445 20.6436H30.6321C30.9957 20.6436 31.2866 20.9346 31.2866 21.2983V22.3169C31.2866 23.7993 30.0868 24.9997 28.6052 24.9997H28.5961ZM1.78169 21.4348V22.326C1.78169 23.3719 2.63614 24.2267 3.68145 24.2267H28.5961C29.6414 24.2267 30.4958 23.3719 30.4958 22.326V21.4348H1.78169Z" fill="white" stroke="white" stroke-width="0.5"/>
<path d="M29.5139 21.435H2.75413C2.53598 21.435 2.36328 21.2622 2.36328 21.044V2.64609C2.36328 1.73665 3.09954 1 4.0085 1H28.2505C29.1595 1 29.8957 1.73665 29.8957 2.64609V21.044C29.8957 21.2622 29.723 21.435 29.5049 21.435H29.5139ZM3.15407 20.6529H29.1231V2.64609C29.1231 2.17318 28.7322 1.78211 28.2596 1.78211H4.0176C3.54494 1.78211 3.15407 2.17318 3.15407 2.64609V20.6529Z" fill="white" stroke="white" stroke-width="0.5"/>
<path d="M26.6143 19.1522H5.6628C5.01744 19.1522 4.49023 18.6247 4.49023 17.979V4.59212C4.49023 3.94643 5.01744 3.41895 5.6628 3.41895H26.6143C27.2597 3.41895 27.7869 3.94643 27.7869 4.59212V17.979C27.7869 18.6247 27.2597 19.1522 26.6143 19.1522ZM5.6628 4.20106C5.44465 4.20106 5.27196 4.37386 5.27196 4.59212V17.979C5.27196 18.1973 5.44465 18.3701 5.6628 18.3701H26.6143C26.8325 18.3701 27.0052 18.1973 27.0052 17.979V4.59212C27.0052 4.37386 26.8325 4.20106 26.6143 4.20106H5.6628Z" fill="white" stroke="white" stroke-width="0.5"/>
<path d="M25.1968 7.50282H19.843C19.6249 7.50282 19.4521 7.33002 19.4521 7.11175C19.4521 6.89349 19.6249 6.7207 19.843 6.7207H25.1968C25.4149 6.7207 25.5876 6.89349 25.5876 7.11175C25.5876 7.33002 25.4149 7.50282 25.1968 7.50282Z" fill="white" stroke="white" stroke-width="0.5"/>
<path d="M25.1968 10.3671H19.843C19.6249 10.3671 19.4521 10.1943 19.4521 9.97603C19.4521 9.75776 19.6249 9.58496 19.843 9.58496H25.1968C25.4149 9.58496 25.5876 9.75776 25.5876 9.97603C25.5876 10.1943 25.4149 10.3671 25.1968 10.3671Z" fill="white" stroke="white" stroke-width="0.5"/>
<path d="M25.1968 13.2323H19.843C19.6249 13.2323 19.4521 13.0595 19.4521 12.8412C19.4521 12.623 19.6249 12.4502 19.843 12.4502H25.1968C25.4149 12.4502 25.5876 12.623 25.5876 12.8412C25.5876 13.0595 25.4149 13.2323 25.1968 13.2323Z" fill="white" stroke="white" stroke-width="0.5"/>
<path d="M18.652 16.0878H17.6067C17.3885 16.0878 17.2158 15.915 17.2158 15.6967C17.2158 15.4785 17.3885 15.3057 17.6067 15.3057H18.652C18.8701 15.3057 19.0428 15.4785 19.0428 15.6967C19.0428 15.915 18.8701 16.0878 18.652 16.0878Z" fill="white" stroke="white" stroke-width="0.5"/>
<path d="M22.3149 16.0878H20.4787C20.2606 16.0878 20.0879 15.915 20.0879 15.6967C20.0879 15.4785 20.2606 15.3057 20.4787 15.3057H22.3149C22.533 15.3057 22.7057 15.4785 22.7057 15.6967C22.7057 15.915 22.533 16.0878 22.3149 16.0878Z" fill="white" stroke="white" stroke-width="0.5"/>
<path d="M25.1969 16.0878H24.1516C23.9334 16.0878 23.7607 15.915 23.7607 15.6967C23.7607 15.4785 23.9334 15.3057 24.1516 15.3057H25.1969C25.415 15.3057 25.5877 15.4785 25.5877 15.6967C25.5877 15.915 25.415 16.0878 25.1969 16.0878Z" fill="white" stroke="white" stroke-width="0.5"/>
</svg>
