<svg width="34" height="34" viewBox="0 0 34 34" fill="none" xmlns="http://www.w3.org/2000/svg">
<path d="M32.3 3.4H29.4667V0.566667C29.4667 0.416377 29.407 0.272243 29.3007 0.165973C29.1944 0.0597022 29.0503 0 28.9 0H5.1C4.94971 0 4.80558 0.0597022 4.69931 0.165973C4.59304 0.272243 4.53333 0.416377 4.53333 0.566667V3.4H1.7C1.24955 3.40135 0.817925 3.58088 0.499405 3.8994C0.180884 4.21793 0.00134532 4.64955 0 5.1V26.6333C0.00134532 27.0838 0.180884 27.5154 0.499405 27.8339C0.817925 28.1524 1.24955 28.332 1.7 28.3333H13.0333V30.6H10.2C9.74955 30.6013 9.31793 30.7809 8.9994 31.0994C8.68088 31.4179 8.50135 31.8495 8.5 32.3V33.4333C8.5 33.5836 8.5597 33.7278 8.66597 33.834C8.77224 33.9403 8.91638 34 9.06667 34H24.9333C25.0836 34 25.2278 33.9403 25.334 33.834C25.4403 33.7278 25.5 33.5836 25.5 33.4333V32.3C25.4987 31.8495 25.3191 31.4179 25.0006 31.0994C24.6821 30.7809 24.2505 30.6013 23.8 30.6H20.9667V28.3333H32.3C32.7505 28.332 33.1821 28.1524 33.5006 27.8339C33.8191 27.5154 33.9987 27.0838 34 26.6333V5.1C33.9987 4.64955 33.8191 4.21793 33.5006 3.8994C33.1821 3.58088 32.7505 3.40135 32.3 3.4ZM29.4667 6.8H30.6V21.5333H29.4667V6.8ZM5.66667 1.13333H28.3333V14.7333H5.66667V1.13333ZM5.66667 15.8667H28.3333V17H5.66667V15.8667ZM5.66667 18.1333H28.3333V19.2667H5.66667V18.1333ZM5.66667 20.4H28.3333V21.5333H5.66667V20.4ZM23.8 31.7333C23.9503 31.7333 24.0944 31.793 24.2007 31.8993C24.307 32.0056 24.3667 32.1497 24.3667 32.3V32.8667H9.63333V32.3C9.63333 32.1497 9.69304 32.0056 9.79931 31.8993C9.90558 31.793 10.0497 31.7333 10.2 31.7333H23.8ZM14.1667 30.6V28.3333H19.8333V30.6H14.1667ZM32.8667 26.6333C32.8667 26.7836 32.807 26.9278 32.7007 27.034C32.5944 27.1403 32.4503 27.2 32.3 27.2H1.7C1.54971 27.2 1.40558 27.1403 1.29931 27.034C1.19304 26.9278 1.13333 26.7836 1.13333 26.6333V24.9333H32.8667V26.6333ZM32.8667 23.8H1.13333V5.1C1.13333 4.94971 1.19304 4.80558 1.29931 4.69931C1.40558 4.59304 1.54971 4.53333 1.7 4.53333H4.53333V5.66667H2.83333C2.68304 5.66667 2.53891 5.72637 2.43264 5.83264C2.32637 5.93891 2.26667 6.08304 2.26667 6.23333V22.1C2.26667 22.2503 2.32637 22.3944 2.43264 22.5007C2.53891 22.607 2.68304 22.6667 2.83333 22.6667H31.1667C31.317 22.6667 31.4611 22.607 31.5674 22.5007C31.6736 22.3944 31.7333 22.2503 31.7333 22.1V6.23333C31.7333 6.08304 31.6736 5.93891 31.5674 5.83264C31.4611 5.72637 31.317 5.66667 31.1667 5.66667H29.4667V4.53333H32.3C32.4503 4.53333 32.5944 4.59304 32.7007 4.69931C32.807 4.80558 32.8667 4.94971 32.8667 5.1V23.8ZM4.53333 6.8V21.5333H3.4V6.8H4.53333Z" fill="white"/>
<path d="M17.5662 25.5H16.4329C16.2826 25.5 16.1385 25.5597 16.0322 25.666C15.9259 25.7722 15.8662 25.9164 15.8662 26.0667C15.8662 26.217 15.9259 26.3611 16.0322 26.4674C16.1385 26.5736 16.2826 26.6333 16.4329 26.6333H17.5662C17.7165 26.6333 17.8606 26.5736 17.9669 26.4674C18.0732 26.3611 18.1329 26.217 18.1329 26.0667C18.1329 25.9164 18.0732 25.7722 17.9669 25.666C17.8606 25.5597 17.7165 25.5 17.5662 25.5Z" fill="white"/>
<path d="M17.0001 6.23334C17.692 6.23334 18.1334 6.56881 18.1334 6.80001C18.1334 6.9503 18.1931 7.09443 18.2994 7.2007C18.4056 7.30697 18.5498 7.36667 18.7001 7.36667C18.8504 7.36667 18.9945 7.30697 19.1008 7.2007C19.207 7.09443 19.2667 6.9503 19.2667 6.80001C19.2667 5.99477 18.5533 5.34311 17.5667 5.15667V4.53334C17.5667 4.38305 17.507 4.23892 17.4008 4.13265C17.2945 4.02638 17.1504 3.96667 17.0001 3.96667C16.8498 3.96667 16.7056 4.02638 16.5994 4.13265C16.4931 4.23892 16.4334 4.38305 16.4334 4.53334V5.15667C15.4468 5.34197 14.7334 5.99364 14.7334 6.80001C14.7334 7.75314 15.729 8.50001 17.0001 8.50001C17.692 8.50001 18.1334 8.83547 18.1334 9.06667C18.1334 9.29787 17.692 9.63334 17.0001 9.63334C16.3082 9.63334 15.8667 9.29787 15.8667 9.06667C15.8667 8.91639 15.807 8.77225 15.7008 8.66598C15.5945 8.55971 15.4504 8.50001 15.3001 8.50001C15.1498 8.50001 15.0056 8.55971 14.8994 8.66598C14.7931 8.77225 14.7334 8.91639 14.7334 9.06667C14.7334 9.87191 15.4468 10.5236 16.4334 10.71V11.3333C16.4334 11.4836 16.4931 11.6278 16.5994 11.734C16.7056 11.8403 16.8498 11.9 17.0001 11.9C17.1504 11.9 17.2945 11.8403 17.4008 11.734C17.507 11.6278 17.5667 11.4836 17.5667 11.3333V10.71C18.5533 10.5247 19.2667 9.87304 19.2667 9.06667C19.2667 8.11354 18.2711 7.36667 17.0001 7.36667C16.3082 7.36667 15.8667 7.03121 15.8667 6.80001C15.8667 6.56881 16.3082 6.23334 17.0001 6.23334Z" fill="white"/>
<path d="M26.6331 4.53339C26.1823 4.53339 25.7499 4.35428 25.4311 4.03547C25.1122 3.71666 24.9331 3.28426 24.9331 2.83339C24.9331 2.6831 24.8734 2.53897 24.7672 2.4327C24.6609 2.32643 24.5168 2.26672 24.3665 2.26672H9.63314C9.48285 2.26672 9.33871 2.32643 9.23244 2.4327C9.12617 2.53897 9.06647 2.6831 9.06647 2.83339C9.06647 3.28426 8.88736 3.71666 8.56855 4.03547C8.24974 4.35428 7.81734 4.53339 7.36647 4.53339C7.21618 4.53339 7.07205 4.59309 6.96578 4.69936C6.85951 4.80563 6.7998 4.94977 6.7998 5.10006V10.7667C6.7998 10.917 6.85951 11.0611 6.96578 11.1674C7.07205 11.2737 7.21618 11.3334 7.36647 11.3334C7.81734 11.3334 8.24974 11.5125 8.56855 11.8313C8.88736 12.1501 9.06647 12.5825 9.06647 13.0334C9.06647 13.1837 9.12617 13.3278 9.23244 13.4341C9.33871 13.5404 9.48285 13.6001 9.63314 13.6001H24.3665C24.5168 13.6001 24.6609 13.5404 24.7672 13.4341C24.8734 13.3278 24.9331 13.1837 24.9331 13.0334C24.9331 12.7501 24.9331 11.9001 26.6331 11.9001C26.7834 11.9001 26.9276 11.8404 27.0338 11.7341C27.1401 11.6278 27.1998 11.4837 27.1998 11.3334V5.10006C27.1998 4.94977 27.1401 4.80563 27.0338 4.69936C26.9276 4.59309 26.7834 4.53339 26.6331 4.53339ZM26.0665 10.7979C24.8634 10.9367 24.0831 11.5312 23.8621 12.4667H10.1431C10.0312 11.9226 9.76219 11.4233 9.36939 11.0305C8.97659 10.6377 8.47724 10.3687 7.93314 10.2567V5.61006C8.47724 5.49812 8.97659 5.22911 9.36939 4.83631C9.76219 4.44351 10.0312 3.94416 10.1431 3.40006H23.8565C23.9684 3.94416 24.2374 4.44351 24.6302 4.83631C25.023 5.22911 25.5224 5.49812 26.0665 5.61006V10.7979Z" fill="white"/>
<path d="M23.2335 7.36621H21.5335C21.3832 7.36621 21.239 7.42591 21.1328 7.53218C21.0265 7.63845 20.9668 7.78259 20.9668 7.93288C20.9668 8.08317 21.0265 8.2273 21.1328 8.33357C21.239 8.43984 21.3832 8.49954 21.5335 8.49954H23.2335C23.3838 8.49954 23.5279 8.43984 23.6342 8.33357C23.7404 8.2273 23.8001 8.08317 23.8001 7.93288C23.8001 7.78259 23.7404 7.63845 23.6342 7.53218C23.5279 7.42591 23.3838 7.36621 23.2335 7.36621Z" fill="white"/>
<path d="M12.4669 7.36621H10.7669C10.6166 7.36621 10.4724 7.42591 10.3662 7.53218C10.2599 7.63845 10.2002 7.78259 10.2002 7.93288C10.2002 8.08317 10.2599 8.2273 10.3662 8.33357C10.4724 8.43984 10.6166 8.49954 10.7669 8.49954H12.4669C12.6172 8.49954 12.7613 8.43984 12.8676 8.33357C12.9738 8.2273 13.0335 8.08317 13.0335 7.93288C13.0335 7.78259 12.9738 7.63845 12.8676 7.53218C12.7613 7.42591 12.6172 7.36621 12.4669 7.36621Z" fill="white"/>
</svg>
