<svg width="35" height="24" viewBox="0 0 35 24" fill="none" xmlns="http://www.w3.org/2000/svg">
<g clip-path="url(#clip0_3165_771)">
<path d="M18.9032 24.0001H0.709677C0.322581 24.0001 0 23.6775 0 23.2904V20.8388C0 19.742 0.83871 18.9033 1.93548 18.9033H2.19355V17.484C2.19355 16.9033 2.64516 16.3872 3.29032 16.3872H16.3226C16.9032 16.3872 17.4194 16.9033 17.4194 17.484V18.9033H17.6774C18.7097 18.9033 19.6129 19.742 19.6129 20.8388V23.2904C19.6129 23.6775 19.2903 24.0001 18.9032 24.0001ZM1.41935 22.5808H18.1935V20.8388C18.1935 20.8388 17.9355 20.3227 17.6774 20.3227H16.7097C16.3226 20.3227 16 20.0001 16 19.613V17.8711H3.6129V19.613C3.6129 20.0001 3.29032 20.3227 2.90323 20.3227H1.93548C1.93548 20.3227 1.41935 20.5808 1.41935 20.8388V22.5808Z" fill="#FF7D00"/>
<path d="M8.45182 20.3227H2.90343C2.51634 20.3227 2.19376 20.0001 2.19376 19.613C2.19376 19.2259 2.51634 18.9033 2.90343 18.9033H8.45182C8.83892 18.9033 9.1615 19.2259 9.1615 19.613C9.1615 20.0001 8.83892 20.3227 8.45182 20.3227Z" fill="#FF7D00"/>
<path d="M12.6452 14.3225C12.6452 14.3225 12.1936 14.3225 12 14.1935L7.41936 12.5161C6.96774 12.3225 6.58065 11.9999 6.3871 11.5483C6.19355 11.0967 6.12903 10.5806 6.3871 10.129C6.64516 9.48381 7.22581 9.03219 7.87097 8.96768L10 3.03219C9.54839 2.51607 9.35484 1.80639 9.61291 1.16123C9.93549 0.193485 11.0323 -0.258128 11.9355 0.0644523L16.5161 1.74187C17.4839 2.06445 17.9355 3.16123 17.6129 4.06445C17.3548 4.70961 16.7742 5.16123 16.129 5.22574L14 11.1612C14.4516 11.6774 14.6452 12.387 14.3871 13.0322C14.1936 13.4838 13.871 13.8709 13.4194 14.0645C13.1613 14.1935 12.9032 14.258 12.6452 14.258V14.3225ZM8.06452 10.387C8.06452 10.387 7.74194 10.5161 7.67742 10.6451C7.67742 10.7741 7.67742 10.8386 7.67742 10.9677C7.67742 11.0967 7.80645 11.1612 7.93549 11.1612L12.5161 12.8386C12.5161 12.8386 12.7097 12.8386 12.8387 12.8386C12.9677 12.8386 13.0323 12.7096 13.0323 12.5806C13.0968 12.387 13.0323 12.129 12.8387 12.0645C12.5161 11.9354 12.3871 11.5483 12.5161 11.2257L15.0323 4.32252C15.1613 3.99994 15.4839 3.80639 15.871 3.8709C16.0645 3.8709 16.3226 3.80639 16.3871 3.61284C16.4516 3.41929 16.3871 3.16123 16.129 3.09671L11.5484 1.41929C11.5484 1.41929 11.0968 1.41929 11.0323 1.67736C10.9677 1.8709 11.0323 2.12897 11.2258 2.19348C11.5484 2.32252 11.6774 2.70961 11.5484 3.03219L9.03226 9.93542C8.90323 10.258 8.58065 10.4515 8.19355 10.387H8.12903H8.06452Z" fill="#FF7D00"/>
<path d="M16.7097 20.3227H12.6452C12.2581 20.3227 11.9355 20.0001 11.9355 19.613C11.9355 19.2259 12.2581 18.9033 12.6452 18.9033H16.7097C17.0968 18.9033 17.4194 19.2259 17.4194 19.613C17.4194 20.0001 17.0968 20.3227 16.7097 20.3227Z" fill="#FF7D00"/>
<path d="M15.6129 5.29039C15.6129 5.29039 15.4839 5.29039 15.3548 5.29039L10.5161 3.54846C10.129 3.41942 9.93548 3.03233 10.0645 2.64523C10.1935 2.25813 10.5806 2.06459 10.9677 2.19362L15.8064 3.93555C16.1935 4.06459 16.3871 4.45168 16.2581 4.83878C16.129 5.09684 15.871 5.29039 15.6129 5.29039Z" fill="#FF7D00"/>
<path d="M13.1614 12.1935C13.1614 12.1935 13.0324 12.1935 12.9034 12.1935L8.06466 10.4515C7.67757 10.3225 7.48402 9.9354 7.61305 9.54831C7.74208 9.16121 8.12918 8.96766 8.51628 9.09669L13.355 10.8386C13.7421 10.9677 13.9356 11.3548 13.8066 11.7419C13.6776 11.9999 13.4195 12.1935 13.1614 12.1935Z" fill="#FF7D00"/>
<path d="M30.9676 15.6775C30.9676 15.6775 30.774 15.6775 30.7095 15.6775L13.8063 9.54842C13.4192 9.41939 13.2256 9.03229 13.3547 8.64519L13.9998 6.90326C13.9998 6.90326 14.1934 6.58068 14.3869 6.51616C14.5805 6.45164 14.774 6.45164 14.903 6.51616L31.8063 12.6452C32.1934 12.7742 32.3869 13.1613 32.2579 13.5484L31.6127 15.2904C31.6127 15.2904 31.4192 15.6129 31.2256 15.6775C31.1611 15.6775 31.0321 15.742 30.903 15.742L30.9676 15.6775ZM14.9676 8.45164L30.516 14.0645L30.645 13.6775L15.0966 8.06455L14.9676 8.45164Z" fill="#FF7D00"/>
<path d="M32.1289 17.0321C32.1289 17.0321 31.6773 17.0321 31.4837 16.9031C31.0321 16.7095 30.645 16.387 30.4515 15.9353C30.2579 15.4837 30.1934 14.9676 30.4515 14.516L30.9031 13.2257C31.0966 12.774 31.4192 12.387 31.8708 12.1934C32.3224 11.9999 32.8386 11.9353 33.2902 12.1934C33.7418 12.387 34.1289 12.7095 34.3224 13.1611C34.516 13.6128 34.5805 14.1289 34.3224 14.5805L33.8708 15.8708C33.6773 16.3224 33.3547 16.7095 32.9031 16.9031C32.645 17.0321 32.3869 17.0966 32.1289 17.0966V17.0321ZM32.5805 13.4837C32.5805 13.4837 32.4515 13.4837 32.3869 13.4837C32.2579 13.4837 32.1934 13.6128 32.1934 13.7418L31.7418 15.0321C31.7418 15.0321 31.7418 15.4837 31.9998 15.6128C32.1289 15.6128 32.1934 15.6128 32.3224 15.6128C32.4515 15.6128 32.516 15.4837 32.516 15.3547L32.9676 14.0644C32.9676 14.0644 32.9676 13.6128 32.7095 13.4837H32.5805Z" fill="#FF7D00"/>
</g>
<defs>
<clipPath id="clip0_3165_771">
<rect width="34.3871" height="24" fill="white"/>
</clipPath>
</defs>
</svg>
