<svg width="28" height="26" viewBox="0 0 28 26" fill="none" xmlns="http://www.w3.org/2000/svg">
<path d="M16.0045 20.1448H12.4479C12.2108 20.1448 12.0132 19.9471 12.0132 19.7099V12.6799C11.9025 12.7115 11.784 12.7352 11.6575 12.7352H11.5864C10.9146 12.7352 10.3613 12.1896 10.3613 11.5095V7.6031C10.3613 6.50393 11.2544 5.61035 12.353 5.61035H16.0993C17.1979 5.61035 18.0911 6.50393 18.0911 7.6031V11.5095C18.0911 12.1817 17.5457 12.7352 16.866 12.7352H16.7949C16.6684 12.7352 16.5499 12.7194 16.4392 12.6799V19.7099C16.4392 19.9471 16.2416 20.1448 16.0045 20.1448ZM12.8826 19.2749H15.5698V11.5095C15.5698 11.2723 15.7674 11.0746 16.0045 11.0746C16.2416 11.0746 16.4392 11.2723 16.4392 11.5095C16.4392 11.7072 16.5973 11.8654 16.7949 11.8654H16.866C17.0636 11.8654 17.2217 11.7072 17.2217 11.5095V7.6031C17.2217 6.9863 16.7158 6.48021 16.0993 6.48021H12.353C11.7365 6.48021 11.2307 6.9863 11.2307 7.6031V11.5095C11.2307 11.7072 11.3888 11.8654 11.5864 11.8654H11.6575C11.8551 11.8654 12.0132 11.7072 12.0132 11.5095C12.0132 11.2723 12.2108 11.0746 12.4479 11.0746C12.685 11.0746 12.8826 11.2723 12.8826 11.5095V19.2749Z" fill="white" stroke="white" stroke-width="0.5"/>
<path d="M12.4474 11.9448C12.2103 11.9448 12.0127 11.7471 12.0127 11.5099V8.8529C12.0127 8.61566 12.2103 8.41797 12.4474 8.41797C12.6845 8.41797 12.8821 8.61566 12.8821 8.8529V11.5099C12.8821 11.7471 12.6845 11.9448 12.4474 11.9448Z" fill="white" stroke="white" stroke-width="0.5"/>
<path d="M16.004 11.9448C15.7669 11.9448 15.5693 11.7471 15.5693 11.5099V8.8529C15.5693 8.61566 15.7669 8.41797 16.004 8.41797C16.2411 8.41797 16.4387 8.61566 16.4387 8.8529V11.5099C16.4387 11.7471 16.2411 11.9448 16.004 11.9448Z" fill="white" stroke="white" stroke-width="0.5"/>
<path d="M14.226 5.55512C13.0879 5.55512 12.1553 4.58247 12.1553 3.3884C12.1553 2.19433 13.08 1.22168 14.226 1.22168C15.372 1.22168 16.2968 2.19433 16.2968 3.3884C16.2968 4.58247 15.372 5.55512 14.226 5.55512ZM14.226 2.09944C13.5621 2.09944 13.0247 2.6767 13.0247 3.39631C13.0247 4.11591 13.5621 4.69318 14.226 4.69318C14.8899 4.69318 15.4274 4.11591 15.4274 3.39631C15.4274 2.6767 14.8899 2.09944 14.226 2.09944Z" fill="white" stroke="white" stroke-width="0.5"/>
<path d="M14.2257 20.1447C13.9886 20.1447 13.791 19.947 13.791 19.7097V13.6761C13.791 13.4389 13.9886 13.2412 14.2257 13.2412C14.4628 13.2412 14.6604 13.4389 14.6604 13.6761V19.7097C14.6604 19.947 14.4628 20.1447 14.2257 20.1447Z" fill="white" stroke="white" stroke-width="0.5"/>
<path d="M22.3588 25.2141C19.5847 25.2141 17.3242 22.9525 17.3242 20.1769C17.3242 17.4013 19.5847 15.1396 22.3588 15.1396C25.133 15.1396 27.3934 17.4013 27.3934 20.1769C27.3934 22.9525 25.133 25.2141 22.3588 25.2141ZM22.3588 16.0095C20.0589 16.0095 18.1936 17.8757 18.1936 20.1769C18.1936 22.478 20.0589 24.3443 22.3588 24.3443C24.6588 24.3443 26.524 22.478 26.524 20.1769C26.524 17.8757 24.6588 16.0095 22.3588 16.0095Z" fill="white" stroke="white" stroke-width="0.5"/>
<path d="M22.3584 16.0093C22.1213 16.0093 21.9237 15.8116 21.9237 15.5744V9.29563H19.3234C19.0863 9.29563 18.8887 9.09794 18.8887 8.86071C18.8887 8.62347 19.0863 8.42578 19.3234 8.42578H22.3584C22.5955 8.42578 22.7931 8.62347 22.7931 8.86071V15.5744C22.7931 15.8116 22.5955 16.0093 22.3584 16.0093Z" fill="white" stroke="white" stroke-width="0.5"/>
<path d="M20.9994 9.29511H19.3239C19.15 9.29511 18.9998 9.1923 18.9287 9.04206C18.8576 8.8839 18.8813 8.70202 18.9998 8.5755L19.4661 8.03777C19.6242 7.8559 19.9008 7.84008 20.0747 7.99824C20.2012 8.10894 20.2486 8.27501 20.2091 8.43316H20.9915C21.2286 8.43316 21.4262 8.63085 21.4262 8.86809C21.4262 9.10532 21.2286 9.30301 20.9915 9.30301L20.9994 9.29511Z" fill="white" stroke="white" stroke-width="0.5"/>
<path d="M19.7901 9.83336C19.6715 9.83336 19.5451 9.78591 19.466 9.68311L18.9997 9.14539C18.8891 9.01886 18.8575 8.83698 18.9286 8.67883C18.9997 8.52067 19.1499 8.42578 19.3238 8.42578H20.9994C21.2365 8.42578 21.434 8.62347 21.434 8.86071C21.434 9.09794 21.2365 9.29563 20.9994 9.29563H20.2169C20.2564 9.44588 20.209 9.61985 20.0825 9.73056C20.0035 9.80173 19.9008 9.84127 19.798 9.84127L19.7901 9.83336Z" fill="white" stroke="white" stroke-width="0.5"/>
<path d="M21.1339 24.4544C20.8968 24.4544 20.6992 24.2568 20.6992 24.0195V22.1849C20.6992 21.9477 20.8968 21.75 21.1339 21.75C21.371 21.75 21.5686 21.9477 21.5686 22.1849V24.0195C21.5686 24.2568 21.371 24.4544 21.1339 24.4544Z" fill="white" stroke="white" stroke-width="0.5"/>
<path d="M23.5919 24.4544C23.3548 24.4544 23.1572 24.2568 23.1572 24.0195V22.1849C23.1572 21.9477 23.3548 21.75 23.5919 21.75C23.829 21.75 24.0266 21.9477 24.0266 22.1849V24.0195C24.0266 24.2568 23.829 24.4544 23.5919 24.4544Z" fill="white" stroke="white" stroke-width="0.5"/>
<path d="M22.3589 19.6623C21.4974 19.6623 20.7939 18.9348 20.7939 18.0333C20.7939 17.1318 21.4974 16.4043 22.3589 16.4043C23.2204 16.4043 23.9238 17.1318 23.9238 18.0333C23.9238 18.9348 23.2204 19.6623 22.3589 19.6623ZM22.3589 17.2742C21.9795 17.2742 21.6633 17.6142 21.6633 18.0333C21.6633 18.4524 21.9716 18.7924 22.3589 18.7924C22.7461 18.7924 23.0544 18.4524 23.0544 18.0333C23.0544 17.6142 22.7461 17.2742 22.3589 17.2742Z" fill="white" stroke="white" stroke-width="0.5"/>
<path d="M22.3594 25.2135C21.9168 25.2135 21.4663 25.1502 21.0158 25.0237C20.9526 25.0079 20.9052 24.9763 20.8577 24.9446C20.7945 24.9446 20.7392 24.9446 20.6838 24.9209C20.3677 24.8102 20.0674 24.6679 19.7828 24.4939C19.6722 24.4306 19.601 24.3199 19.5773 24.2013C19.5694 24.1459 19.5615 24.0827 19.5615 24.0194V21.3229C19.5615 20.4926 20.2412 19.8125 21.0711 19.8125H23.6556C24.4855 19.8125 25.1652 20.4926 25.1652 21.3229V24.0194C25.1652 24.0827 25.1652 24.138 25.1494 24.2013C25.1257 24.3199 25.0545 24.4306 24.9439 24.4939C24.6594 24.6599 24.359 24.8023 24.0429 24.9209C23.9876 24.9446 23.9243 24.9525 23.869 24.9446C23.8216 24.9842 23.7662 25.0079 23.7109 25.0316C23.2604 25.1581 22.8099 25.2214 22.3673 25.2214L22.3594 25.2135ZM21.5611 24.2646C22.0907 24.3674 22.6202 24.3674 23.1498 24.2646V24.0194C23.1498 23.7822 23.3474 23.5845 23.5845 23.5845C23.8216 23.5845 24.0034 23.7664 24.0192 23.9878C24.114 23.9482 24.201 23.9087 24.2879 23.8613V21.3229C24.2879 20.967 24.0034 20.6824 23.6477 20.6824H21.0632C20.7075 20.6824 20.423 20.967 20.423 21.3229V23.8613C20.51 23.9087 20.6048 23.9482 20.6917 23.9878C20.7075 23.7585 20.8972 23.5845 21.1264 23.5845C21.3557 23.5845 21.5611 23.7822 21.5611 24.0194V24.2646Z" fill="white" stroke="white" stroke-width="0.5"/>
<path d="M6.0932 25.2141C3.31903 25.2141 1.05859 22.9525 1.05859 20.1769C1.05859 17.4013 3.31903 15.1396 6.0932 15.1396C8.86737 15.1396 11.1278 17.4013 11.1278 20.1769C11.1278 22.9525 8.86737 25.2141 6.0932 25.2141ZM6.0932 16.0095C3.79324 16.0095 1.928 17.8757 1.928 20.1769C1.928 22.478 3.79324 24.3443 6.0932 24.3443C8.39315 24.3443 10.2584 22.478 10.2584 20.1769C10.2584 17.8757 8.39315 16.0095 6.0932 16.0095Z" fill="white" stroke="white" stroke-width="0.5"/>
<path d="M6.09289 16.0093C5.85578 16.0093 5.6582 15.8116 5.6582 15.5744V8.86071C5.6582 8.62347 5.85578 8.42578 6.09289 8.42578H9.1279C9.36501 8.42578 9.56259 8.62347 9.56259 8.86071C9.56259 9.09794 9.36501 9.29563 9.1279 9.29563H6.52761V15.5744C6.52761 15.8116 6.33 16.0093 6.09289 16.0093Z" fill="white" stroke="white" stroke-width="0.5"/>
<path d="M9.13662 9.2952H7.46106C7.22395 9.2952 7.02637 9.09751 7.02637 8.86027C7.02637 8.62304 7.22395 8.42535 7.46106 8.42535H8.24351C8.20399 8.2751 8.25142 8.10113 8.37788 7.99042C8.55966 7.83227 8.83628 7.84808 8.98645 8.02996L9.45276 8.56769C9.56341 8.69421 9.59505 8.87609 9.52391 9.03425C9.45278 9.1924 9.30261 9.28729 9.12873 9.28729L9.13662 9.2952Z" fill="white" stroke="white" stroke-width="0.5"/>
<path d="M8.6624 9.83346C8.55965 9.83346 8.45692 9.80182 8.37788 9.72275C8.25142 9.61204 8.20399 9.44598 8.24351 9.28782H7.46106C7.22395 9.28782 7.02637 9.09013 7.02637 8.8529C7.02637 8.61566 7.22395 8.41797 7.46106 8.41797H9.13662C9.3105 8.41797 9.46067 8.52077 9.5318 8.67102C9.60293 8.82917 9.57923 9.01105 9.46067 9.13757L8.99436 9.6753C8.90742 9.77019 8.78886 9.82555 8.67031 9.82555L8.6624 9.83346Z" fill="white" stroke="white" stroke-width="0.5"/>
<path d="M7.32629 24.4544C7.08918 24.4544 6.8916 24.2568 6.8916 24.0195V22.1849C6.8916 21.9477 7.08918 21.75 7.32629 21.75C7.5634 21.75 7.761 21.9477 7.761 22.1849V24.0195C7.761 24.2568 7.5634 24.4544 7.32629 24.4544Z" fill="white" stroke="white" stroke-width="0.5"/>
<path d="M4.86828 24.4544C4.63117 24.4544 4.43359 24.2568 4.43359 24.0195V22.1849C4.43359 21.9477 4.63117 21.75 4.86828 21.75C5.10539 21.75 5.30297 21.9477 5.30297 22.1849V24.0195C5.30297 24.2568 5.10539 24.4544 4.86828 24.4544Z" fill="white" stroke="white" stroke-width="0.5"/>
<path d="M6.09322 19.6623C5.23173 19.6623 4.52832 18.9348 4.52832 18.0333C4.52832 17.1318 5.23173 16.4043 6.09322 16.4043C6.95472 16.4043 7.65815 17.1318 7.65815 18.0333C7.65815 18.9348 6.95472 19.6623 6.09322 19.6623ZM6.09322 17.2742C5.71385 17.2742 5.39772 17.6142 5.39772 18.0333C5.39772 18.4524 5.70594 18.7924 6.09322 18.7924C6.4805 18.7924 6.78874 18.4524 6.78874 18.0333C6.78874 17.6142 6.4805 17.2742 6.09322 17.2742Z" fill="white" stroke="white" stroke-width="0.5"/>
<path d="M6.09376 25.2136C5.65116 25.2136 5.20067 25.1503 4.75016 25.0238C4.68693 25.008 4.6395 24.9763 4.59208 24.9368C4.52885 24.9368 4.47352 24.9368 4.4182 24.9131C4.10205 24.8024 3.80173 24.66 3.5172 24.4861C3.41445 24.4228 3.33541 24.32 3.3117 24.1935C3.30379 24.1381 3.2959 24.0749 3.2959 24.0116V21.3151C3.2959 20.4848 3.97561 19.8047 4.80549 19.8047H7.38997C8.21985 19.8047 8.89956 20.4848 8.89956 21.3151V24.0116C8.89956 24.0749 8.89955 24.1381 8.88374 24.1935C8.86003 24.3121 8.78891 24.4228 8.67826 24.4861C8.39373 24.6521 8.09338 24.7945 7.77724 24.9131C7.72191 24.9368 7.65868 24.9447 7.60336 24.9368C7.55594 24.9763 7.50062 25.0001 7.4453 25.0238C6.99479 25.1503 6.54428 25.2136 6.10167 25.2136H6.09376ZM5.29551 24.2647C5.82506 24.3675 6.35458 24.3675 6.88412 24.2647V24.0195C6.88412 23.7823 7.08173 23.5846 7.31884 23.5846C7.55595 23.5846 7.73772 23.7665 7.75353 23.9879C7.84837 23.9483 7.93531 23.9009 8.02225 23.8614V21.323C8.02225 20.9671 7.73772 20.6824 7.38206 20.6824H4.79758C4.44192 20.6824 4.15739 20.9671 4.15739 21.323V23.8614C4.24433 23.9088 4.33917 23.9483 4.42611 23.9958C4.44192 23.7665 4.63159 23.5925 4.8608 23.5925C5.09 23.5925 5.29551 23.7902 5.29551 24.0274V24.2726V24.2647Z" fill="white" stroke="white" stroke-width="0.5"/>
<path d="M17.7586 20.1452H10.6691C10.432 20.1452 10.2344 19.9475 10.2344 19.7103C10.2344 19.4731 10.432 19.2754 10.6691 19.2754H17.7586C17.9957 19.2754 18.1933 19.4731 18.1933 19.7103C18.1933 19.9475 17.9957 20.1452 17.7586 20.1452Z" fill="white" stroke="white" stroke-width="0.5"/>
</svg>
