<svg width="34" height="36" viewBox="0 0 34 36" fill="none" xmlns="http://www.w3.org/2000/svg">
<path d="M24.3251 34.9902C24.2435 34.9902 24.1518 34.9698 24.0804 34.929C23.8968 34.8372 23.7744 34.6433 23.7744 34.4392V30.1331C23.7744 29.8269 24.0192 29.582 24.3251 29.582H30.1793C30.4139 29.582 30.628 29.7351 30.6994 29.9596C30.7708 30.1841 30.6994 30.4392 30.5056 30.5718L24.6515 34.878C24.5597 34.9494 24.4373 34.9902 24.3251 34.9902ZM24.8759 30.6841V33.3474L28.5067 30.6841H24.8759Z" fill="#08CE8A" stroke="#08CE8A" stroke-width="0.5"/>
<path d="M24.3241 34.9894H6.94528C6.63931 34.9894 6.39453 34.7445 6.39453 34.4383V33.2955C6.39453 32.9893 6.63931 32.7444 6.94528 32.7444C7.25124 32.7444 7.49599 32.9893 7.49599 33.2955V33.8873H24.1507L29.6377 29.8465V4.25439H7.49599V19.0709C7.49599 19.377 7.25124 19.6219 6.94528 19.6219C6.63931 19.6219 6.39453 19.377 6.39453 19.0709V3.70337C6.39453 3.39724 6.63931 3.15234 6.94528 3.15234H30.1884C30.4944 3.15234 30.7392 3.39724 30.7392 3.70337V30.1322C30.7392 30.3056 30.6576 30.4689 30.5148 30.5812L24.6607 34.8873C24.5689 34.9587 24.4567 34.9996 24.3343 34.9996L24.3241 34.9894Z" fill="#08CE8A" stroke="#08CE8A" stroke-width="0.5"/>
<path d="M22.9174 7.2544H14.2177C13.9117 7.2544 13.667 7.00949 13.667 6.70337C13.667 6.39724 13.9117 6.15234 14.2177 6.15234H22.9174C23.2233 6.15234 23.4681 6.39724 23.4681 6.70337C23.4681 7.00949 23.2233 7.2544 22.9174 7.2544Z" fill="#08CE8A" stroke="#08CE8A" stroke-width="0.5"/>
<path d="M26.9761 9.76611H10.1582C9.8522 9.76611 9.60742 9.52121 9.60742 9.21509C9.60742 8.90896 9.8522 8.66406 10.1582 8.66406H26.9761C27.282 8.66406 27.5268 8.90896 27.5268 9.21509C27.5268 9.52121 27.282 9.76611 26.9761 9.76611Z" fill="#08CE8A" stroke="#08CE8A" stroke-width="0.5"/>
<path d="M26.9761 12.2759H10.1582C9.8522 12.2759 9.60742 12.031 9.60742 11.7249C9.60742 11.4187 9.8522 11.1738 10.1582 11.1738H26.9761C27.282 11.1738 27.5268 11.4187 27.5268 11.7249C27.5268 12.031 27.282 12.2759 26.9761 12.2759Z" fill="#08CE8A" stroke="#08CE8A" stroke-width="0.5"/>
<path d="M17.2162 14.7856H10.1484C9.84244 14.7856 9.59766 14.5407 9.59766 14.2346C9.59766 13.9285 9.84244 13.6836 10.1484 13.6836H17.2162C17.5222 13.6836 17.7669 13.9285 17.7669 14.2346C17.7669 14.5407 17.5222 14.7856 17.2162 14.7856Z" fill="#08CE8A" stroke="#08CE8A" stroke-width="0.5"/>
<path d="M16.1861 17.2954H10.1484C9.84244 17.2954 9.59766 17.0505 9.59766 16.7444C9.59766 16.4383 9.84244 16.1934 10.1484 16.1934H16.1861C16.4921 16.1934 16.7368 16.4383 16.7368 16.7444C16.7368 17.0505 16.4921 17.2954 16.1861 17.2954Z" fill="#08CE8A" stroke="#08CE8A" stroke-width="0.5"/>
<path d="M16.1861 19.7954H10.1484C9.84244 19.7954 9.59766 19.5505 9.59766 19.2444C9.59766 18.9383 9.84244 18.6934 10.1484 18.6934H16.1861C16.4921 18.6934 16.7368 18.9383 16.7368 19.2444C16.7368 19.5505 16.4921 19.7954 16.1861 19.7954Z" fill="#08CE8A" stroke="#08CE8A" stroke-width="0.5"/>
<path d="M32.3925 17.8058C32.0865 17.8058 31.8418 17.5609 31.8418 17.2548V16.3772C31.8418 16.0711 32.0865 15.8262 32.3925 15.8262C32.6985 15.8262 32.9433 16.0711 32.9433 16.3772V17.2548C32.9433 17.5609 32.6985 17.8058 32.3925 17.8058Z" fill="#08CE8A" stroke="#08CE8A" stroke-width="0.5"/>
<path d="M32.3925 12.5611C32.0865 12.5611 31.8418 12.3162 31.8418 12.0101V9.82641C31.8418 9.52029 32.0865 9.27539 32.3925 9.27539C32.6985 9.27539 32.9433 9.52029 32.9433 9.82641V12.0101C32.9433 12.3162 32.6985 12.5611 32.3925 12.5611Z" fill="#08CE8A" stroke="#08CE8A" stroke-width="0.5"/>
<path d="M32.3925 6.03039C32.0865 6.03039 31.8418 5.78549 31.8418 5.47937V4.60181C31.8418 4.29568 32.0865 4.05078 32.3925 4.05078C32.6985 4.05078 32.9433 4.29568 32.9433 4.60181V5.47937C32.9433 5.78549 32.6985 6.03039 32.3925 6.03039Z" fill="#08CE8A" stroke="#08CE8A" stroke-width="0.5"/>
<path d="M32.3925 28.5206H30.1896C29.8836 28.5206 29.6389 28.2757 29.6389 27.9696V4.25513H9.14938C8.84341 4.25513 8.59863 4.01023 8.59863 3.7041V1.55103C8.59863 1.2449 8.84341 1 9.14938 1H32.3925C32.6985 1 32.9433 1.2449 32.9433 1.55103V4.59187C32.9433 4.89799 32.6985 5.14289 32.3925 5.14289C32.0866 5.14289 31.8418 4.89799 31.8418 4.59187V2.10205H9.70009V3.15308H30.1794C30.4854 3.15308 30.7301 3.39798 30.7301 3.7041V27.4186H31.8316V17.245C31.8316 16.9389 32.0764 16.694 32.3824 16.694C32.6883 16.694 32.9331 16.9389 32.9331 17.245V27.9696C32.9331 28.2757 32.6883 28.5206 32.3824 28.5206H32.3925Z" fill="#08CE8A" stroke="#08CE8A" stroke-width="0.5"/>
<path d="M6.94595 31.9903C3.66192 31.9903 1 29.3168 1 26.0311C1 22.7453 3.67212 20.082 6.94595 20.082C7.68026 20.082 8.39418 20.2147 9.0775 20.48C9.36307 20.5922 9.50585 20.9086 9.39366 21.1943C9.28148 21.48 8.9653 21.6229 8.67973 21.5106C8.12899 21.2963 7.54768 21.1943 6.94595 21.1943C4.27385 21.1943 2.10148 23.3678 2.10148 26.0413C2.10148 28.7148 4.27385 30.8882 6.94595 30.8882C9.61804 30.8882 11.7904 28.7148 11.7904 26.0413C11.7904 24.8372 11.3416 23.6841 10.5359 22.7861C10.332 22.5616 10.3524 22.2147 10.5767 22.0106C10.8011 21.8065 11.1478 21.8269 11.3518 22.0514C12.3411 23.1433 12.8817 24.5617 12.8817 26.0413C12.8817 29.327 10.2096 32.0005 6.93574 32.0005L6.94595 31.9903Z" fill="#08CE8A" stroke="#08CE8A" stroke-width="0.5"/>
<path d="M18.5937 27.9593C18.2877 27.9593 18.043 27.7144 18.043 27.4083V24.7756C18.043 24.4695 18.2877 24.2246 18.5937 24.2246C18.8997 24.2246 19.1445 24.4695 19.1445 24.7756V27.4083C19.1445 27.7144 18.8997 27.9593 18.5937 27.9593Z" fill="#08CE8A" stroke="#08CE8A" stroke-width="0.5"/>
<path d="M24.9668 27.9593C24.6608 27.9593 24.416 27.7144 24.416 27.4083V24.7756C24.416 24.4695 24.6608 24.2246 24.9668 24.2246C25.2727 24.2246 25.5175 24.4695 25.5175 24.7756V27.4083C25.5175 27.7144 25.2727 27.9593 24.9668 27.9593Z" fill="#08CE8A" stroke="#08CE8A" stroke-width="0.5"/>
<path d="M21.7026 20.6132C21.0294 20.6132 20.0605 20.2969 19.3058 18.8785C18.9081 18.1336 18.7041 17.256 18.7041 16.3275V16.2458C18.7041 15.4907 19.112 14.7866 19.7648 14.4295C20.2135 14.1846 20.9274 13.8887 21.7739 13.8887C22.6204 13.8887 23.4364 14.2662 23.9259 14.5928C24.5174 14.9703 24.8642 15.6234 24.8642 16.3377C24.8642 17.2663 24.65 18.154 24.2523 18.8989C23.4772 20.3581 22.4777 20.6336 21.7638 20.6132C21.7434 20.6132 21.723 20.6132 21.7026 20.6132ZM21.7739 14.9907C21.162 14.9907 20.6317 15.2152 20.2951 15.3989C19.9892 15.5724 19.7954 15.8989 19.7954 16.256V16.3377C19.7954 17.0826 19.9586 17.7867 20.2645 18.3683C20.6725 19.1438 21.1926 19.5418 21.7535 19.5214C22.3655 19.5418 22.855 19.154 23.263 18.3887C23.5792 17.7969 23.7423 17.0928 23.7423 16.3479C23.7423 16.0111 23.5791 15.705 23.3038 15.5315C22.9366 15.2968 22.3655 15.0111 21.7535 15.0111L21.7739 14.9907Z" fill="#08CE8A" stroke="#08CE8A" stroke-width="0.5"/>
<path d="M27.6389 27.9595H15.9306C15.6247 27.9595 15.3799 27.7146 15.3799 27.4085V24.0717C15.3799 22.2962 16.8179 20.8574 18.5925 20.8574H24.9668C26.7414 20.8574 28.1794 22.2962 28.1794 24.0717V27.4085C28.1794 27.7146 27.9347 27.9595 27.6287 27.9595H27.6389ZM16.4813 26.8575H27.0882V24.0717C27.0882 22.9085 26.1397 21.9595 24.977 21.9595H18.6027C17.4401 21.9595 16.4916 22.9085 16.4916 24.0717V26.8575H16.4813Z" fill="#08CE8A" stroke="#08CE8A" stroke-width="0.5"/>
<path d="M6.94528 23.5713C6.63931 23.5713 6.39453 23.3264 6.39453 23.0203V22.4182C6.39453 22.1121 6.63931 21.8672 6.94528 21.8672C7.25124 21.8672 7.49599 22.1121 7.49599 22.4182V23.0203C7.49599 23.3264 7.25124 23.5713 6.94528 23.5713Z" fill="#08CE8A" stroke="#08CE8A" stroke-width="0.5"/>
<path d="M6.94548 29.53C5.76241 29.53 4.80371 28.6117 4.80371 27.4892C4.80371 27.1831 5.04849 26.9382 5.35446 26.9382C5.66042 26.9382 5.90517 27.1831 5.90517 27.4892C5.90517 28.0096 6.37434 28.428 6.94548 28.428C7.51661 28.428 7.98575 28.0096 7.98575 27.4892C7.98575 26.9688 7.51661 26.5504 6.94548 26.5504C5.76241 26.5504 4.80371 25.632 4.80371 24.5096C4.80371 23.3871 5.76241 22.4688 6.94548 22.4688C8.12854 22.4688 9.08721 23.3871 9.08721 24.5096C9.08721 24.8157 8.84246 25.0606 8.53649 25.0606C8.23053 25.0606 7.98575 24.8157 7.98575 24.5096C7.98575 23.9892 7.51661 23.5708 6.94548 23.5708C6.37434 23.5708 5.90517 23.9892 5.90517 24.5096C5.90517 25.03 6.37434 25.4484 6.94548 25.4484C8.12854 25.4484 9.08721 26.3667 9.08721 27.4892C9.08721 28.6117 8.12854 29.53 6.94548 29.53Z" fill="#08CE8A" stroke="#08CE8A" stroke-width="0.5"/>
<path d="M6.94528 30.2135C6.63931 30.2135 6.39453 29.9686 6.39453 29.6624V28.9788C6.39453 28.6726 6.63931 28.4277 6.94528 28.4277C7.25124 28.4277 7.49599 28.6726 7.49599 28.9788V29.6624C7.49599 29.9686 7.25124 30.2135 6.94528 30.2135Z" fill="#08CE8A" stroke="#08CE8A" stroke-width="0.5"/>
</svg>
