<svg width="32" height="24" viewBox="0 0 32 24" fill="none" xmlns="http://www.w3.org/2000/svg">
<g clip-path="url(#clip0_3165_737)">
<path d="M8.24983 18.8984H6.03102C5.74656 18.8984 5.4621 18.6666 5.4621 18.3187C5.4621 17.9709 5.68967 17.739 6.03102 17.739H8.24983C8.53429 17.739 8.81875 17.9709 8.81875 18.3187C8.81875 18.6666 8.59118 18.8984 8.24983 18.8984Z" fill="#FF7D00"/>
<path d="M12.4026 21.7972C12.4026 21.7972 12.1181 21.7972 12.0043 21.6233C11.4354 21.0435 10.6389 20.7537 9.84242 20.8696L8.02186 21.0435C6.82712 21.1595 5.63238 20.9856 4.49453 20.4638L2.73086 19.5943C1.93436 19.1885 1.25166 18.5508 0.853408 17.7392L0.113806 16.2899C-0.113764 15.8262 -0.113764 15.2464 0.170698 14.7827C0.45516 14.3189 0.967193 14.0291 1.47922 14.0291C1.99126 14.0291 2.4464 14.2609 2.73086 14.6667L3.47046 16.0001C3.69803 16.4638 4.09628 16.8117 4.60831 17.0435L5.4617 17.3914C5.51859 17.1015 5.68927 16.8117 5.85994 16.5218C6.25819 16.058 6.77022 15.7102 7.39604 15.6522L10.9234 15.2464C11.5492 15.1885 12.175 15.2464 12.8008 15.4204C13.4266 15.5943 14.0525 15.9421 14.5645 16.4059L16.2713 17.9131C16.2713 17.9131 16.4419 18.203 16.4419 18.3769C16.4419 18.5508 16.3282 18.7247 16.2144 18.7827L12.687 21.3914C12.687 21.3914 12.687 21.3914 12.6301 21.4493C12.5164 21.5653 12.4026 21.6233 12.2319 21.6233L12.4026 21.7972ZM10.1269 19.7102C10.9803 19.7102 11.7768 20.0001 12.4026 20.5218L15.1334 18.4928L13.9387 17.4493C13.5404 17.1015 13.0853 16.8696 12.6301 16.6957C12.175 16.5798 11.7199 16.5218 11.2078 16.5798L7.6805 16.9856C7.33915 16.9856 7.05469 17.1595 6.88401 17.4493C6.65644 17.6812 6.59955 18.0291 6.65644 18.3189C6.65644 18.4928 6.59955 18.7247 6.42887 18.8406C6.25819 18.9566 6.08751 19.0146 5.85994 18.8986L4.26696 18.203C3.52735 17.9131 2.95843 17.3334 2.56018 16.6377L1.87747 15.3044C1.87747 15.3044 1.6499 15.1305 1.53612 15.1305C1.30855 15.1305 1.19476 15.2464 1.19476 15.3624C1.19476 15.4783 1.08098 15.5943 1.19476 15.7682L1.93436 17.2175C2.21883 17.7972 2.67397 18.2609 3.29978 18.5508L5.06345 19.4204C5.97373 19.8262 6.99779 20.0001 7.96497 19.8841L9.78553 19.7102C9.78553 19.7102 10.07 19.7102 10.1838 19.7102H10.1269Z" fill="#FF7D00"/>
<path d="M12.5161 23.9999C12.5161 23.9999 12.1747 23.942 12.1179 23.826L11.8334 23.4782C11.2076 22.6086 11.3783 21.3912 12.2316 20.7535L16.1003 17.855C16.4986 17.5651 17.0106 17.4492 17.5226 17.5072C18.0347 17.5651 18.4898 17.855 18.7743 18.2608L18.9449 18.4927C18.9449 18.4927 19.0587 19.0724 18.8312 19.2463L12.9143 23.884C12.9143 23.884 12.6868 23.9999 12.573 23.9999H12.5161ZM17.1813 18.5506C17.1813 18.5506 16.8399 18.5506 16.7261 18.7246L12.8575 21.6231C12.8575 21.6231 12.573 21.913 12.5161 22.1448C12.5161 22.3188 12.5161 22.4927 12.573 22.6666L17.5795 18.7246C17.5795 18.7246 17.352 18.6086 17.2382 18.6086C17.2382 18.6086 17.1813 18.6086 17.1244 18.6086L17.1813 18.5506Z" fill="#FF7D00"/>
<path d="M25.658 18.8984H23.4392C23.1548 18.8984 22.8703 18.6666 22.8703 18.3187C22.8703 17.9709 23.0979 17.739 23.4392 17.739H25.658C25.9425 17.739 26.227 17.9709 26.227 18.3187C26.227 18.6666 25.9994 18.8984 25.658 18.8984Z" fill="#FF7D00"/>
<path d="M19.3434 21.7972C19.3434 21.7972 19.059 21.7972 18.9452 21.6233C18.7176 21.3914 18.7176 21.0436 18.9452 20.8117C19.7417 20.0001 20.8795 19.5943 22.0174 19.7682L23.8379 19.9421C24.862 20.0581 25.8292 19.9421 26.7394 19.4784L28.5031 18.6088C29.072 18.319 29.5841 17.8552 29.8685 17.2755L30.6081 15.8262C30.6081 15.8262 30.6081 15.4784 30.6081 15.4204C30.6081 15.3624 30.4375 15.1885 30.2668 15.1885C30.153 15.1885 30.0392 15.2465 29.9254 15.3624L29.2427 16.6958C28.8445 17.3914 28.2755 17.9132 27.5359 18.261L25.943 18.9566C25.943 18.9566 25.5447 18.9566 25.374 18.8987C25.2034 18.7827 25.1465 18.6088 25.1465 18.3769C25.2034 17.6813 24.7482 17.1016 24.0655 17.0436L20.5382 16.6378C20.083 16.6378 19.571 16.6378 19.1159 16.7537C18.9452 16.7537 18.7745 16.8697 18.6038 16.9277C18.3194 17.0436 17.978 16.9277 17.8642 16.6378C17.7504 16.3479 17.8642 16.0001 18.1487 15.8842C18.3763 15.7682 18.5469 15.7103 18.7745 15.6523C19.4003 15.4784 20.0261 15.4204 20.652 15.4784L24.1793 15.8842C25.1465 16.0001 25.8861 16.6958 26.1705 17.6233L27.0239 17.2755C27.479 17.0436 27.9342 16.6958 28.1618 16.232L28.9014 14.8987C29.1858 14.4929 29.641 14.261 30.153 14.261C30.665 14.261 31.1771 14.5508 31.4615 15.0146C31.746 15.4784 31.746 16.0581 31.5184 16.5219L30.7788 17.9711C30.3806 18.7827 29.6979 19.4204 28.9014 19.8262L27.1377 20.6958C26.0567 21.2175 24.8051 21.4494 23.6104 21.2755L21.7898 21.1016C20.9933 20.9856 20.1968 21.2755 19.6279 21.8552C19.5141 21.9711 19.4003 22.0291 19.2296 22.0291L19.3434 21.7972Z" fill="#FF7D00"/>
<path d="M19.23 24.0001C19.23 24.0001 19.0025 24.0001 18.8887 23.8842L16.8406 22.261C16.8406 22.261 16.5561 21.7392 16.7268 21.4494C16.8975 21.2175 17.2388 21.1595 17.5233 21.3334L19.1163 22.6088C19.1163 22.6088 19.23 22.261 19.1732 22.0871C19.1732 21.8552 19.0025 21.6813 18.8318 21.5653L18.4336 21.2755C18.4336 21.2755 18.1491 20.7537 18.3198 20.4639C18.4904 20.174 18.8318 20.174 19.1163 20.3479L19.5145 20.6378C19.9128 20.9276 20.1972 21.3914 20.2541 21.9132C20.311 22.4349 20.2541 22.9566 19.9128 23.3624L19.5714 23.7682C19.5714 23.7682 19.2869 23.9421 19.1732 23.9421L19.23 24.0001Z" fill="#FF7D00"/>
<path d="M7.56728 6.72459C5.97429 6.72459 4.72266 5.44923 4.72266 3.82604C4.72266 2.20285 5.97429 0.92749 7.56728 0.92749C9.16027 0.92749 10.4119 2.20285 10.4119 3.82604C10.4119 5.44923 9.16027 6.72459 7.56728 6.72459ZM7.56728 2.08691C6.60011 2.08691 5.86051 2.8985 5.86051 3.82604C5.86051 4.75358 6.657 5.56517 7.56728 5.56517C8.47756 5.56517 9.27405 4.75358 9.27405 3.82604C9.27405 2.8985 8.47756 2.08691 7.56728 2.08691Z" fill="#FF7D00"/>
<path d="M5.06307 12.3479C4.7786 12.3479 4.49414 12.116 4.49414 11.7682V9.56531C4.49414 9.27545 4.72171 8.9856 5.06307 8.9856C5.40442 8.9856 5.63199 9.21748 5.63199 9.56531V11.7682C5.63199 12.0581 5.40442 12.3479 5.06307 12.3479Z" fill="#FF7D00"/>
<path d="M10.1268 12.3479C9.84238 12.3479 9.55792 12.116 9.55792 11.7682V9.56531C9.55792 9.27545 9.78549 8.9856 10.1268 8.9856C10.4682 8.9856 10.6958 9.21748 10.6958 9.56531V11.7682C10.6958 12.0581 10.4682 12.3479 10.1268 12.3479Z" fill="#FF7D00"/>
<path d="M11.8333 12.3478H3.29942C2.61671 12.3478 2.10468 11.826 2.10468 11.1304C2.10468 9.15938 3.07185 7.42025 4.72173 6.37677C4.9493 6.26083 5.17687 6.26083 5.34755 6.37677C5.97336 6.89851 6.76986 7.18837 7.56635 7.18837C8.36285 7.18837 9.15934 6.89851 9.78516 6.37677C9.95584 6.20286 10.2403 6.20286 10.411 6.37677C12.0609 7.36228 13.028 9.15938 13.028 11.1304C13.028 11.826 12.516 12.3478 11.8333 12.3478ZM4.9493 7.59416C3.81145 8.40576 3.18563 9.73909 3.18563 11.1304C3.18563 11.1304 3.18563 11.1884 3.24252 11.1884H11.7764C11.7764 11.1884 11.8333 11.1884 11.8333 11.1304C11.8333 9.68112 11.1506 8.40576 10.0696 7.59416C9.33002 8.1159 8.41974 8.40576 7.45257 8.40576C6.48539 8.40576 5.63201 8.1159 4.83551 7.59416H4.9493Z" fill="#FF7D00"/>
<path d="M9.84195 4.57959C8.7041 4.57959 7.90761 4.11582 7.56625 3.82596C6.14394 4.23176 5.23366 3.82596 5.11987 3.82596C4.83541 3.71002 4.72163 3.36219 4.83541 3.07234C4.9492 2.78248 5.29055 2.66654 5.57501 2.78248C5.57501 2.78248 6.31462 3.07234 7.50936 2.66654C7.68004 2.60857 7.90761 2.66654 8.07828 2.78248C8.07828 2.78248 8.76099 3.42016 9.89884 3.42016C10.1833 3.42016 10.4678 3.71002 10.4678 3.99987C10.4678 4.28973 10.2402 4.57959 9.89884 4.57959H9.84195Z" fill="#FF7D00"/>
<path d="M23.4966 6.72459C21.9036 6.72459 20.652 5.44923 20.652 3.82604C20.652 2.20285 21.9036 0.92749 23.4966 0.92749C25.0896 0.92749 26.3412 2.20285 26.3412 3.82604C26.3412 5.44923 25.0896 6.72459 23.4966 6.72459ZM23.4966 2.08691C22.5294 2.08691 21.7898 2.8985 21.7898 3.82604C21.7898 4.75358 22.5863 5.56517 23.4966 5.56517C24.4069 5.56517 25.2034 4.75358 25.2034 3.82604C25.2034 2.8985 24.4069 2.08691 23.4966 2.08691Z" fill="#FF7D00"/>
<path d="M20.9361 12.3479C20.6517 12.3479 20.3672 12.116 20.3672 11.7682V9.56531C20.3672 9.27545 20.5948 8.9856 20.9361 8.9856C21.2775 8.9856 21.505 9.21748 21.505 9.56531V11.7682C21.505 12.0581 21.2775 12.3479 20.9361 12.3479Z" fill="#FF7D00"/>
<path d="M25.9998 12.3479C25.7154 12.3479 25.4309 12.116 25.4309 11.7682V9.56531C25.4309 9.27545 25.6585 8.9856 25.9998 8.9856C26.3412 8.9856 26.5688 9.21748 26.5688 9.56531V11.7682C26.5688 12.0581 26.3412 12.3479 25.9998 12.3479Z" fill="#FF7D00"/>
<path d="M27.7638 12.3478H19.2299C18.5472 12.3478 18.0352 11.826 18.0352 11.1304C18.0352 9.15938 19.0023 7.42025 20.6522 6.37677C20.8798 6.26083 21.1073 6.26083 21.278 6.37677C21.9038 6.89851 22.7003 7.18837 23.4968 7.18837C24.2933 7.18837 25.0898 6.89851 25.7156 6.37677C25.8863 6.20286 26.1708 6.20286 26.3415 6.37677C27.9913 7.36228 28.9585 9.15938 28.9585 11.1304C28.9585 11.826 28.4465 12.3478 27.7638 12.3478ZM20.8798 7.59416C19.7419 8.40576 19.1161 9.73909 19.1161 11.1304C19.1161 11.1304 19.1161 11.1884 19.173 11.1884H27.7069C27.7069 11.1884 27.7638 11.1884 27.7638 11.1304C27.7638 9.68112 27.0811 8.40576 26.0001 7.59416C25.2605 8.1159 24.3502 8.40576 23.383 8.40576C22.4159 8.40576 21.5625 8.1159 20.766 7.59416H20.8798Z" fill="#FF7D00"/>
<path d="M25.7723 4.57983C24.6345 4.57983 23.838 4.11606 23.4966 3.82621C22.0743 4.232 21.164 3.82621 21.0502 3.82621C20.7658 3.71026 20.652 3.36244 20.7658 3.07258C20.8796 2.78273 21.2209 2.66679 21.5054 2.78273C21.5054 2.78273 22.245 3.07258 23.4397 2.66679C23.6104 2.60881 23.838 2.66679 24.0086 2.78273C24.0086 2.78273 24.6914 3.42041 25.8292 3.42041C26.1137 3.42041 26.3981 3.71026 26.3981 4.00012C26.3981 4.28997 26.1706 4.57983 25.8292 4.57983H25.7723Z" fill="#FF7D00"/>
<path d="M18.5471 5.97094H12.801C12.5165 5.97094 12.2321 5.73906 12.2321 5.39123C12.2321 5.04341 12.4596 4.81152 12.801 4.81152H18.5471C18.8316 4.81152 19.116 5.04341 19.116 5.39123C19.116 5.73906 18.8885 5.97094 18.5471 5.97094Z" fill="#FF7D00"/>
<path d="M14.0522 7.24644C14.0522 7.24644 13.7677 7.24644 13.6539 7.07253L12.4023 5.7392C12.4023 5.7392 12.1747 5.15949 12.4023 4.9276L13.6539 3.59427C13.6539 3.59427 14.2228 3.36239 14.4504 3.59427C14.678 3.82615 14.678 4.17398 14.4504 4.40586L13.5401 5.39137L14.3935 6.31891C14.3935 6.31891 14.6211 6.89862 14.3935 7.1305C14.2797 7.24644 14.166 7.30441 13.9953 7.30441L14.0522 7.24644Z" fill="#FF7D00"/>
<path d="M18.5471 2.43481H12.801C12.5165 2.43481 12.2321 2.20293 12.2321 1.8551C12.2321 1.50727 12.4596 1.27539 12.801 1.27539H18.5471C18.8316 1.27539 19.116 1.50727 19.116 1.8551C19.116 2.20293 18.8885 2.43481 18.5471 2.43481Z" fill="#FF7D00"/>
<path d="M17.2951 3.76809C17.2951 3.76809 17.0107 3.76809 16.8969 3.59418C16.6693 3.36229 16.6693 3.01447 16.8969 2.78258L17.8072 1.79708L16.9538 0.869541C16.9538 0.869541 16.7262 0.28983 16.9538 0.0579463C17.1813 -0.173938 17.5227 -0.173938 17.7503 0.0579463L19.0019 1.39128C19.0019 1.39128 19.2295 1.97099 19.0019 2.20287L17.7503 3.53621C17.7503 3.53621 17.4658 3.71012 17.352 3.71012L17.2951 3.76809Z" fill="#FF7D00"/>
</g>
<defs>
<clipPath id="clip0_3165_737">
<rect width="31.746" height="24" fill="white"/>
</clipPath>
</defs>
</svg>
