<svg width="41" height="33" viewBox="0 0 41 33" fill="none" xmlns="http://www.w3.org/2000/svg">
<g clip-path="url(#clip0_2678_782)">
<path d="M25.5025 23.7276C24.8895 23.7276 24.2765 23.605 23.6634 23.3598L8.70558 17.3522C8.70558 17.3522 8.58297 17.3522 8.58297 17.2296L0.123204 10.1184C0.000598671 9.99584 0.000598671 9.75063 0.123204 9.50542C0.245809 9.38282 0.49102 9.26021 0.736231 9.38282L20.8435 17.4748C20.8435 17.3522 20.9661 17.2296 20.9661 17.107C21.4565 15.8809 22.4374 14.9001 23.5408 14.4096C24.7669 13.9192 26.1155 13.9192 27.3416 14.4096C29.7937 15.3905 31.0197 18.2104 30.0389 20.7851C29.3033 22.5016 27.4642 23.7276 25.5025 23.7276ZM9.196 16.4939L24.0312 22.5016C25.9929 23.3598 28.3224 22.379 29.0581 20.2947C29.9163 18.333 28.9355 16.0035 26.8512 15.2679C24.8895 14.4096 22.56 15.3905 21.8243 17.4748C21.7017 17.72 21.7017 17.9652 21.5791 18.333C21.5791 18.4556 21.4565 18.5782 21.3339 18.7008C21.2113 18.8234 21.0887 18.8234 20.9661 18.7008L3.18834 11.3445L9.196 16.4939ZM25.5025 21.2755C25.2573 21.2755 24.8895 21.2755 24.6443 21.1529C24.0312 20.9077 23.5408 20.4173 23.2956 19.8043C23.0504 19.1912 23.0504 18.5782 23.2956 17.9652C23.5408 17.3522 24.0312 16.8617 24.6443 16.6165C25.2573 16.3713 25.8703 16.3713 26.4833 16.6165C27.7094 17.107 28.3224 18.5782 27.832 19.8043C27.5868 20.4173 27.0964 20.9077 26.4833 21.1529C26.1155 21.1529 25.8703 21.2755 25.5025 21.2755ZM25.5025 17.3522C25.2573 17.3522 25.1347 17.3522 24.8895 17.4748C24.5217 17.5974 24.2765 17.8426 24.1538 18.2104C24.0312 18.5782 24.0312 18.946 24.1538 19.3138C24.2765 19.6817 24.5217 19.9269 24.8895 20.0495C25.2573 20.1721 25.6251 20.1721 25.9929 20.0495C26.3607 19.9269 26.606 19.6817 26.7286 19.3138C26.9738 18.5782 26.606 17.72 25.9929 17.4748C25.8703 17.4748 25.7477 17.3522 25.5025 17.3522Z" fill="#2BB19A" stroke="#2BB19A" stroke-width="0.5"/>
<path d="M16.6733 16.7385C16.5507 16.7385 16.5507 16.7385 16.4281 16.7385L12.8725 15.2672C12.7499 15.1446 12.6273 15.022 12.5047 14.8994L11.6465 1.29023C11.6465 1.04502 11.7691 0.799805 12.0143 0.799805C12.2595 0.799805 12.5047 0.92241 12.6273 1.04502L16.7959 11.2213V11.3439L17.1637 16.1255C17.1637 16.2481 17.0411 16.4933 16.9185 16.6159C16.9185 16.7385 16.7959 16.7385 16.6733 16.7385ZM13.6082 14.5316L16.1829 15.5124L15.9377 11.5891L12.9951 4.23275L13.6082 14.5316Z" fill="#2BB19A" stroke="#2BB19A" stroke-width="0.5"/>
<path d="M13.1191 32.8002C10.5444 32.8002 8.46014 30.8385 8.21493 28.2638C7.96972 25.5664 10.054 23.2369 12.7513 22.9917C12.8739 22.9917 12.9965 22.9917 13.2417 22.9917L12.9965 18.7005C12.9965 18.5779 13.1191 18.3327 13.2417 18.2101C13.3644 18.0875 13.6096 18.0875 13.7322 18.2101L17.2877 19.6814C17.4103 19.804 17.5329 19.9266 17.6555 20.0492L18.146 27.5281C18.3912 30.2254 16.3069 32.5549 13.6096 32.8002C13.3644 32.8002 13.2417 32.8002 13.1191 32.8002ZM13.1191 23.9726C12.9965 23.9726 12.9965 23.9726 12.8739 23.9726C10.667 24.0952 9.07317 25.9343 9.19577 28.1412C9.31838 29.122 9.68619 30.1028 10.5444 30.8385C11.2801 31.5741 12.3835 31.8193 13.3644 31.8193C15.5712 31.6967 17.1651 29.8576 17.0425 27.6507L16.4295 20.417L13.8548 19.4362L14.1 23.4821C14.1 23.6048 14.1 23.7274 13.9774 23.85C13.8548 23.9726 13.7322 23.9726 13.6096 23.9726C13.487 23.9726 13.2417 23.9726 13.1191 23.9726ZM13.1191 30.3481C11.8931 30.3481 10.7896 29.3672 10.667 28.1412C10.667 27.5281 10.7896 26.9151 11.2801 26.4247C11.6479 25.9343 12.2609 25.689 12.9965 25.5664C14.3452 25.4438 15.4486 26.4247 15.5712 27.7733C15.5712 28.3864 15.4486 28.9994 14.9582 29.4898C14.5904 29.9802 13.9774 30.2254 13.2417 30.3481H13.1191ZM13.1191 26.4247C12.9965 26.4247 12.9965 26.4247 13.1191 26.4247C12.2609 26.4247 11.6479 27.1603 11.6479 27.8959C11.6479 28.6316 12.3835 29.2446 13.1191 29.2446C13.8548 29.2446 14.4678 28.509 14.4678 27.7733C14.4678 27.0377 13.8548 26.4247 13.1191 26.4247Z" fill="#2BB19A"/>
<path d="M13.1191 26.4247C12.9965 26.4247 12.9965 26.4247 13.1191 26.4247ZM13.1191 26.4247C12.2609 26.4247 11.6479 27.1603 11.6479 27.8959C11.6479 28.6316 12.3835 29.2446 13.1191 29.2446C13.8548 29.2446 14.4678 28.509 14.4678 27.7733C14.4678 27.0377 13.8548 26.4247 13.1191 26.4247ZM13.1191 32.8002C10.5444 32.8002 8.46014 30.8385 8.21493 28.2638C7.96972 25.5664 10.054 23.2369 12.7513 22.9917C12.8739 22.9917 12.9965 22.9917 13.2417 22.9917L12.9965 18.7005C12.9965 18.5779 13.1191 18.3327 13.2417 18.2101C13.3644 18.0875 13.6096 18.0875 13.7322 18.2101L17.2877 19.6814C17.4103 19.804 17.5329 19.9266 17.6555 20.0492L18.146 27.5281C18.3912 30.2254 16.3069 32.5549 13.6096 32.8002C13.3644 32.8002 13.2417 32.8002 13.1191 32.8002ZM13.1191 23.9726C12.9965 23.9726 12.9965 23.9726 12.8739 23.9726C10.667 24.0952 9.07317 25.9343 9.19577 28.1412C9.31838 29.122 9.68619 30.1028 10.5444 30.8385C11.2801 31.5741 12.3835 31.8193 13.3644 31.8193C15.5712 31.6967 17.1651 29.8576 17.0425 27.6507L16.4295 20.417L13.8548 19.4362L14.1 23.4821C14.1 23.6048 14.1 23.7274 13.9774 23.85C13.8548 23.9726 13.7322 23.9726 13.6096 23.9726C13.487 23.9726 13.2417 23.9726 13.1191 23.9726ZM13.1191 30.3481C11.8931 30.3481 10.7896 29.3672 10.667 28.1412C10.667 27.5281 10.7896 26.9151 11.2801 26.4247C11.6479 25.9343 12.2609 25.689 12.9965 25.5664C14.3452 25.4438 15.4486 26.4247 15.5712 27.7733C15.5712 28.3864 15.4486 28.9994 14.9582 29.4898C14.5904 29.9802 13.9774 30.2254 13.2417 30.3481C13.2417 30.3481 13.1191 30.3481 13.1191 30.3481Z" stroke="#2BB19A" stroke-width="0.5"/>
<path d="M8.94912 17.3524H8.82651C8.5813 17.2298 8.4587 16.9846 8.5813 16.7394L9.68475 13.4291C9.80736 13.1838 10.0526 13.0612 10.2978 13.1838C10.543 13.3064 10.6656 13.5517 10.543 13.7969L9.43954 17.1072C9.31693 17.2298 9.19433 17.3524 8.94912 17.3524Z" fill="#2BB19A" stroke="#2BB19A" stroke-width="0.5"/>
<path d="M12.8732 12.079C12.628 12.079 12.3828 11.8338 12.3828 11.5886C12.3828 11.3434 12.628 11.0982 12.8732 11.0982L16.3062 10.9756C16.5514 10.9756 16.7966 11.2208 16.7966 11.466C16.7966 11.7112 16.5514 11.9564 16.3062 11.9564L12.8732 12.079Z" fill="#2BB19A" stroke="#2BB19A" stroke-width="0.5"/>
<path d="M24.5217 3.61961H21.947V11.7116H20.1079V3.61961H17.5332V2.39355H24.5217V3.61961Z" fill="#2BB19A" stroke="#2BB19A" stroke-width="0.5"/>
<path d="M29.9152 9.74943H26.7275L26.1145 11.5885H24.2754L27.3405 2.27051H29.3022L32.3673 11.5885H30.5283L29.9152 9.74943ZM29.5474 8.52338L28.8118 6.07127C28.6892 5.45825 28.444 4.60001 28.3214 4.10959C28.1988 4.4774 27.9536 5.33564 27.8309 5.94867L27.0953 8.40077H29.5474V8.52338Z" fill="#2BB19A" stroke="#2BB19A" stroke-width="0.5"/>
<path d="M38.3753 11.5885L36.4136 8.15556L34.4519 11.5885H32.4902L35.4328 6.80691L32.7354 2.27051H34.6971L36.5362 5.45825L38.2527 2.27051H40.2144L37.5171 6.80691L40.4596 11.5885H38.3753Z" fill="#2BB19A" stroke="#2BB19A" stroke-width="0.5"/>
<path d="M40.3374 14.8998H25.5021C25.2569 14.8998 25.0117 14.6546 25.0117 14.4094C25.0117 14.1642 25.2569 13.9189 25.5021 13.9189H40.3374C40.5826 13.9189 40.8278 14.1642 40.8278 14.4094C40.8278 14.6546 40.5826 14.8998 40.3374 14.8998Z" fill="#2BB19A" stroke="#2BB19A" stroke-width="0.5"/>
<path d="M22.0689 25.934H21.0881C20.8429 25.934 20.5977 25.6888 20.5977 25.4435C20.5977 25.1983 20.8429 24.9531 21.0881 24.9531H22.0689C22.3141 24.9531 22.5593 25.1983 22.5593 25.4435C22.5593 25.8114 22.3141 25.934 22.0689 25.934Z" fill="#2BB19A" stroke="#2BB19A" stroke-width="0.5"/>
<path d="M37.3969 25.934H35.5579C35.3126 25.934 35.0674 25.6888 35.0674 25.4435C35.0674 25.1983 35.3126 24.9531 35.5579 24.9531H37.5195C37.7647 24.9531 38.01 25.1983 38.01 25.4435C37.8874 25.8114 37.7647 25.934 37.3969 25.934ZM33.5962 25.934H31.6345C31.3893 25.934 31.1441 25.6888 31.1441 25.4435C31.1441 25.1983 31.3893 24.9531 31.6345 24.9531H33.5962C33.8414 24.9531 34.0866 25.1983 34.0866 25.4435C34.0866 25.8114 33.8414 25.934 33.5962 25.934ZM29.6728 25.934H27.7111C27.4659 25.934 27.2207 25.6888 27.2207 25.4435C27.2207 25.1983 27.4659 24.9531 27.7111 24.9531H29.6728C29.918 24.9531 30.1632 25.1983 30.1632 25.4435C30.1632 25.8114 30.0406 25.934 29.6728 25.934ZM25.872 25.934H23.9103C23.6651 25.934 23.4199 25.6888 23.4199 25.4435C23.4199 25.1983 23.6651 24.9531 23.9103 24.9531H25.872C26.1172 24.9531 26.3625 25.1983 26.3625 25.4435C26.3625 25.8114 26.1172 25.934 25.872 25.934Z" fill="#2BB19A" stroke="#2BB19A" stroke-width="0.5"/>
<path d="M40.3385 25.934H39.3576C39.1124 25.934 38.8672 25.6888 38.8672 25.4435C38.8672 25.1983 39.1124 24.9531 39.3576 24.9531H40.3385C40.5837 24.9531 40.8289 25.1983 40.8289 25.4435C40.8289 25.8114 40.5837 25.934 40.3385 25.934Z" fill="#2BB19A" stroke="#2BB19A" stroke-width="0.5"/>
<path d="M40.3385 30.9613H39.3576C39.1124 30.9613 38.8672 30.7161 38.8672 30.4709C38.8672 30.2257 39.1124 29.9805 39.3576 29.9805H40.3385C40.5837 29.9805 40.8289 30.2257 40.8289 30.4709C40.8289 30.7161 40.5837 30.9613 40.3385 30.9613Z" fill="#2BB19A" stroke="#2BB19A" stroke-width="0.5"/>
<path d="M37.3956 30.9613H35.4339C35.1887 30.9613 34.9435 30.7161 34.9435 30.4709C34.9435 30.2257 35.1887 29.9805 35.4339 29.9805H37.3956C37.6408 29.9805 37.886 30.2257 37.886 30.4709C37.886 30.7161 37.6408 30.9613 37.3956 30.9613ZM33.3496 30.9613H31.388C31.1427 30.9613 30.8975 30.7161 30.8975 30.4709C30.8975 30.2257 31.1427 29.9805 31.388 29.9805H33.3496C33.5949 29.9805 33.8401 30.2257 33.8401 30.4709C33.8401 30.7161 33.5949 30.9613 33.3496 30.9613ZM29.3037 30.9613H27.342C27.0968 30.9613 26.8516 30.7161 26.8516 30.4709C26.8516 30.2257 27.0968 29.9805 27.342 29.9805H29.3037C29.5489 29.9805 29.7941 30.2257 29.7941 30.4709C29.7941 30.7161 29.5489 30.9613 29.3037 30.9613Z" fill="#2BB19A" stroke="#2BB19A" stroke-width="0.5"/>
<path d="M25.2564 30.9613H24.2756C24.0304 30.9613 23.7852 30.7161 23.7852 30.4709C23.7852 30.2257 24.0304 29.9805 24.2756 29.9805H25.2564C25.5016 29.9805 25.7468 30.2257 25.7468 30.4709C25.7468 30.7161 25.5016 30.9613 25.2564 30.9613Z" fill="#2BB19A" stroke="#2BB19A" stroke-width="0.5"/>
<path d="M37.5181 19.1908H35.5564C35.3112 19.1908 35.0659 18.9456 35.0659 18.7004C35.0659 18.4552 35.3112 18.21 35.5564 18.21H37.5181C37.7633 18.21 38.0085 18.4552 38.0085 18.7004C38.0085 18.9456 37.8859 19.1908 37.5181 19.1908ZM33.5947 19.1908H31.633C31.3878 19.1908 31.1426 18.9456 31.1426 18.7004C31.1426 18.4552 31.3878 18.21 31.633 18.21H33.5947C33.8399 18.21 34.0851 18.4552 34.0851 18.7004C34.0851 18.9456 33.8399 19.1908 33.5947 19.1908Z" fill="#2BB19A" stroke="#2BB19A" stroke-width="0.5"/>
</g>
<defs>
<clipPath id="clip0_2678_782">
<rect width="40.8276" height="32" fill="white" transform="translate(0 0.799805)"/>
</clipPath>
</defs>
</svg>
