<svg width="30" height="26" viewBox="0 0 30 26" fill="none" xmlns="http://www.w3.org/2000/svg">
<path d="M20.124 20.9332H17.6954C17.0406 20.9332 16.5018 20.3942 16.5018 19.739V18.8765C16.0128 18.7272 15.532 18.5282 15.0844 18.2877L14.4711 18.9014C14.0069 19.3658 13.2527 19.3658 12.7885 18.9014L11.0727 17.1847C10.6086 16.7203 10.6086 15.9657 11.0727 15.5013L11.6861 14.8876C11.4457 14.4315 11.2468 13.9587 11.0976 13.4695H10.2356C9.58076 13.4695 9.04199 12.9304 9.04199 12.2753V9.84541C9.04199 9.19027 9.57247 8.65122 10.2356 8.65122H11.0976C11.2468 8.16193 11.4457 7.68094 11.6861 7.23312L11.0727 6.61944C10.6086 6.15503 10.6086 5.40037 11.0727 4.93596L12.7885 3.2193C13.2527 2.75489 14.0069 2.75489 14.4711 3.2193L15.0844 3.83298C15.5403 3.59248 16.0128 3.39345 16.5018 3.24418V2.3817C16.5018 1.72655 17.0323 1.1875 17.6954 1.1875H20.124C20.7788 1.1875 21.3175 1.72655 21.3175 2.3817V3.24418C21.8066 3.39345 22.2873 3.59248 22.7349 3.83298L23.3483 3.2193C23.8124 2.75489 24.5667 2.75489 25.0309 3.2193L26.7466 4.93596C26.9704 5.15987 27.0948 5.45841 27.0948 5.78184C27.0948 6.10527 26.9704 6.40381 26.7466 6.62772L26.1333 7.24142C26.3736 7.69754 26.5726 8.17023 26.7218 8.65952H27.5838C28.2386 8.65952 28.7774 9.19027 28.7774 9.85371V12.2836C28.7774 12.9387 28.2469 13.4778 27.5838 13.4778H26.7218C26.5726 13.967 26.3736 14.448 26.1333 14.8959L26.7466 15.5096C26.9704 15.7335 27.0948 16.032 27.0948 16.3554C27.0948 16.6789 26.9704 16.9774 26.7466 17.2013L25.0309 18.918C24.5833 19.3658 23.7959 19.3658 23.3483 18.918L22.7349 18.3043C22.279 18.5448 21.8066 18.7438 21.3175 18.8931V19.7556C21.3175 20.4107 20.7788 20.9498 20.124 20.9498V20.9332ZM15.0264 17.5745C15.0845 17.5745 15.1342 17.5911 15.1839 17.616C15.7227 17.9228 16.3029 18.1633 16.908 18.3292C17.0489 18.3706 17.14 18.495 17.14 18.636V19.739C17.14 20.0458 17.3887 20.2863 17.6871 20.2863H20.1157C20.4224 20.2863 20.6627 20.0376 20.6627 19.739V18.636C20.6627 18.495 20.7622 18.3624 20.8948 18.3292C21.4916 18.1633 22.0718 17.9228 22.6189 17.616C22.7432 17.5413 22.9007 17.5662 23.0084 17.6658L23.7876 18.4453C23.9948 18.6526 24.3595 18.6526 24.5667 18.4453L26.2825 16.7286C26.3902 16.6208 26.44 16.4881 26.44 16.3389C26.44 16.1896 26.3819 16.0569 26.2825 15.9491L25.5033 15.1695C25.4039 15.07 25.379 14.9125 25.4536 14.7798C25.7603 14.2324 26.0007 13.6602 26.1664 13.0548C26.2079 12.9138 26.3322 12.8226 26.4731 12.8226H27.5755C27.8822 12.8226 28.1226 12.5738 28.1226 12.2753V9.84541C28.1226 9.53857 27.8739 9.29807 27.5755 9.29807H26.4731C26.3322 9.29807 26.1996 9.19856 26.1664 9.06587C26.0007 8.46877 25.7603 7.88827 25.4536 7.34093C25.379 7.21654 25.4039 7.05897 25.5033 6.95116L26.2825 6.17161C26.3902 6.0638 26.44 5.93111 26.44 5.78184C26.44 5.63257 26.3819 5.49988 26.2825 5.39207L24.5667 3.67541C24.3512 3.45979 24.0031 3.45979 23.7876 3.67541L23.0084 4.45495C22.909 4.55447 22.7515 4.57934 22.6189 4.50471C22.0801 4.19787 21.4999 3.95738 20.8948 3.79152C20.7539 3.75006 20.6627 3.62566 20.6627 3.48468V2.3817C20.6627 2.07486 20.4141 1.83435 20.1157 1.83435H17.6871C17.3804 1.83435 17.14 2.08315 17.14 2.3817V3.48468C17.14 3.62566 17.0406 3.75835 16.908 3.79152C16.3029 3.95738 15.731 4.19787 15.1839 4.50471C15.0596 4.57934 14.9021 4.55447 14.7943 4.45495L14.0152 3.67541C13.7997 3.45979 13.4516 3.45979 13.2361 3.67541L11.5203 5.39207C11.3048 5.60769 11.3048 5.95599 11.5203 6.17161L12.2995 6.95116C12.3989 7.05067 12.4238 7.20824 12.3492 7.34093C12.0425 7.88827 11.8021 8.46877 11.6364 9.06587C11.5949 9.20685 11.4706 9.29807 11.3297 9.29807H10.2273C9.9206 9.29807 9.68023 9.54687 9.68023 9.84541V12.2753C9.68023 12.5821 9.92889 12.8226 10.2273 12.8226H11.3297C11.4706 12.8226 11.6032 12.9221 11.6364 13.0548C11.8021 13.6519 12.0425 14.2324 12.3492 14.7798C12.4238 14.9042 12.3989 15.0617 12.2995 15.1695L11.5203 15.9491C11.4126 16.0569 11.3628 16.1896 11.3628 16.3389C11.3628 16.4881 11.4209 16.6208 11.5203 16.7286L13.2361 18.4453C13.4516 18.6609 13.7997 18.6609 14.0152 18.4453L14.7943 17.6658C14.8524 17.6077 14.9353 17.5745 15.0181 17.5745H15.0264Z" fill="white" stroke="white" stroke-width="0.5"/>
<path d="M8.95119 7.99619C8.77713 7.99619 8.62793 7.8552 8.62793 7.67275V6.62783C8.62793 6.20488 8.86001 5.80682 9.233 5.5912C9.39049 5.49997 9.58112 5.55805 9.6723 5.71561C9.76348 5.87318 9.70546 6.06392 9.54798 6.15514C9.37391 6.25466 9.26616 6.42879 9.26616 6.62783V7.67275C9.26616 7.84691 9.12526 7.99619 8.9429 7.99619H8.95119Z" fill="white" stroke="white" stroke-width="0.5"/>
<path d="M12.2499 25.1874H9.82137C9.16656 25.1874 8.62779 24.6484 8.62779 23.9932V23.1308C8.13876 22.9815 7.65801 22.7825 7.21042 22.542L6.59707 23.1557C6.14948 23.6035 5.36205 23.6035 4.91446 23.1557L3.1987 21.439C2.9749 21.2151 2.85057 20.9166 2.85057 20.5931C2.85057 20.2697 2.9749 19.9711 3.1987 19.7472L3.81206 19.1335C3.57169 18.6774 3.37276 18.2047 3.22356 17.7154H2.36154C1.70674 17.7154 1.16797 17.1764 1.16797 16.5212V14.0914C1.16797 13.4362 1.69845 12.8972 2.36154 12.8972H3.22356C3.37276 12.4079 3.57169 11.9269 3.81206 11.4791L3.1987 10.8654C2.9749 10.6415 2.85057 10.343 2.85057 10.0195C2.85057 9.6961 2.9749 9.39753 3.1987 9.17362L4.91446 7.45696C5.36205 7.00914 6.14948 7.00914 6.59707 7.45696L7.21042 8.07066C7.67459 7.83016 8.16362 7.62284 8.67752 7.47356C8.85159 7.42381 9.02565 7.51501 9.07538 7.68916C9.12511 7.85502 9.03394 8.03748 8.85988 8.08724C8.31282 8.2531 7.79064 8.47703 7.30989 8.7507C7.18556 8.82533 7.02808 8.80043 6.92032 8.70091L6.14119 7.92139C5.93397 7.71407 5.56926 7.71407 5.36205 7.92139L3.64629 9.63803C3.53854 9.74584 3.48881 9.87853 3.48881 10.0278C3.48881 10.1771 3.54683 10.3098 3.64629 10.4176L4.42543 11.1971C4.5249 11.2966 4.54976 11.4542 4.47516 11.5869C4.16848 12.1259 3.92811 12.7065 3.76233 13.3119C3.72089 13.4528 3.59655 13.5441 3.45564 13.5441H2.35326C2.04658 13.5441 1.8062 13.7928 1.8062 14.0914V16.5212C1.8062 16.8281 2.05487 17.0686 2.35326 17.0686H3.45564C3.59655 17.0686 3.72918 17.1681 3.76233 17.3008C3.92811 17.9062 4.16848 18.4867 4.47516 19.0257C4.54976 19.1501 4.5249 19.3077 4.42543 19.4155L3.64629 20.1951C3.53854 20.3029 3.48881 20.4355 3.48881 20.5848C3.48881 20.7341 3.54683 20.8668 3.64629 20.9746L5.36205 22.6913C5.57755 22.9069 5.92568 22.9069 6.14119 22.6913L6.92032 21.9117C7.01979 21.8122 7.17728 21.7873 7.30989 21.862C7.84866 22.1688 8.42887 22.4093 9.03394 22.5751C9.17485 22.6166 9.26603 22.741 9.26603 22.882V23.985C9.26603 24.2918 9.51469 24.5323 9.81308 24.5323H12.2417C12.5483 24.5323 12.7887 24.2835 12.7887 23.985V22.882C12.7887 22.741 12.8882 22.6083 13.0208 22.5751C13.6259 22.4093 14.1978 22.1688 14.7449 21.862C14.8692 21.7873 15.0267 21.8122 15.1344 21.9117L15.9135 22.6913C16.1291 22.9069 16.4772 22.9069 16.6927 22.6913L17.3475 22.0361C17.4718 21.9117 17.6791 21.9117 17.8034 22.0361C17.9277 22.1605 17.9277 22.3678 17.8034 22.4922L17.1486 23.1474C16.6844 23.6118 15.9301 23.6118 15.466 23.1474L14.8526 22.5337C14.3967 22.7742 13.9243 22.9732 13.4352 23.1225V23.985C13.4352 24.6401 12.9048 25.1792 12.2417 25.1792L12.2499 25.1874Z" fill="white" stroke="white" stroke-width="0.5"/>
<path d="M11.0396 21.6459C7.55005 21.6459 4.70703 18.8014 4.70703 15.31C4.70703 13.187 5.7597 11.2216 7.53348 10.0357C7.68268 9.93618 7.8816 9.97763 7.98106 10.1269C8.08053 10.2762 8.03908 10.4752 7.88989 10.5747C6.29846 11.6362 5.35355 13.4026 5.35355 15.31C5.35355 18.4448 7.90647 20.9991 11.0396 20.9991C12.0011 20.9991 12.9543 20.7503 13.7997 20.2859C13.9572 20.2029 14.1479 20.2527 14.239 20.4103C14.3219 20.5678 14.2722 20.7586 14.1147 20.8498C13.1781 21.3723 12.1171 21.6459 11.0396 21.6459Z" fill="white" stroke="white" stroke-width="0.5"/>
<path d="M18.9136 17.4003C18.6898 17.4003 18.4577 17.392 18.2339 17.3671L18.3002 16.7286C18.6898 16.77 19.096 16.77 19.4855 16.7286L19.5518 17.3671C19.3363 17.392 19.1208 17.4003 18.9136 17.4003ZM20.8532 17.1017L20.6542 16.4881C21.0272 16.3637 21.4002 16.2061 21.7401 16.0071L22.0633 16.5627C21.682 16.7866 21.2759 16.9608 20.8532 17.1017ZM16.9409 17.0935C16.5182 16.9525 16.112 16.77 15.7308 16.5544L16.054 15.9988C16.3939 16.1978 16.7586 16.3637 17.1398 16.4881L16.9409 17.1017V17.0935ZM23.1326 15.7914L22.7015 15.3104C22.9999 15.0451 23.2652 14.7465 23.4973 14.4314L24.0112 14.8129C23.7542 15.1695 23.4475 15.5012 23.1243 15.7914H23.1326ZM14.6615 15.7666C14.3383 15.468 14.0399 15.1363 13.7746 14.7797L14.2968 14.4065C14.5289 14.7299 14.7941 15.0285 15.0925 15.2939L14.6615 15.7666ZM24.6825 13.6684L24.0941 13.4031C24.2598 13.0382 24.3842 12.665 24.467 12.2752L25.097 12.4079C25.0058 12.8391 24.8649 13.2621 24.6825 13.6684ZM13.1198 13.6353C12.9375 13.2289 12.8049 12.806 12.7137 12.3747L13.3436 12.242C13.4265 12.6318 13.5508 13.0133 13.7083 13.3699L13.1198 13.627V13.6353ZM24.5997 11.0976V11.0727C24.5997 10.6747 24.5582 10.2766 24.4753 9.88682L25.1053 9.75413C25.1964 10.1854 25.2462 10.6249 25.2462 11.0727L24.6079 11.0976H24.5997ZM13.2193 11.0644H12.5811C12.5811 10.6166 12.6308 10.1771 12.722 9.74583L13.3519 9.87852C13.269 10.2683 13.2276 10.6664 13.2276 11.0644H13.2193ZM24.1106 8.75896C23.9531 8.39407 23.7459 8.05406 23.5138 7.73063L24.036 7.35744C24.293 7.71404 24.5168 8.10381 24.6991 8.50188L24.1106 8.76726V8.75896ZM13.7166 8.75068L13.1281 8.4853C13.3105 8.07894 13.5342 7.69746 13.7912 7.34086L14.3134 7.72233C14.0813 8.04576 13.8824 8.38579 13.7166 8.75068ZM22.7181 6.84327C22.4197 6.5779 22.0965 6.3374 21.7566 6.14666L22.0799 5.59102C22.4612 5.81493 22.8176 6.07202 23.1491 6.37057L22.7181 6.85158V6.84327ZM15.1091 6.84327L14.6781 6.36229C15.0096 6.06374 15.366 5.80666 15.7473 5.58274L16.0706 6.13836C15.7308 6.33739 15.4075 6.5696 15.1091 6.83497V6.84327ZM20.6708 5.66568C20.2978 5.54128 19.9 5.45834 19.5104 5.41687L19.5767 4.77832C20.016 4.82808 20.4553 4.91929 20.8697 5.05198L20.6708 5.66568ZM17.1564 5.66568L16.9575 5.05198C17.3802 4.91929 17.8112 4.82808 18.2505 4.77832L18.3168 5.41687C17.919 5.45834 17.5294 5.54128 17.1564 5.66568Z" fill="white" stroke="white" stroke-width="0.5"/>
</svg>
