<svg width="30" height="26" viewBox="0 0 30 26" fill="none" xmlns="http://www.w3.org/2000/svg">
<path d="M16.9605 24.9916C10.3514 24.9916 4.97518 19.6126 4.9668 13C4.9668 6.38743 10.343 1.00839 16.9522 1C23.5613 1 28.9375 6.37903 28.9459 12.9916C28.9459 19.6042 23.5697 24.9832 16.9605 24.9916ZM16.9605 1.72169C10.7456 1.72169 5.69649 6.78183 5.69649 13C5.69649 19.2182 10.754 24.2699 16.9689 24.2699C23.1839 24.2699 28.233 19.2098 28.233 12.9916C28.233 6.77343 23.1755 1.72169 16.9605 1.72169Z" fill="#2D82FE" stroke="#2D82FE" stroke-width="0.5"/>
<path d="M16.9524 22.1638C11.8949 22.1638 7.78516 18.0519 7.78516 13.0002C7.78516 7.94003 11.8949 3.82812 16.944 3.82812C22.0015 3.82812 26.1113 7.94002 26.1113 12.9918C26.1113 18.0519 22.0015 22.1638 16.9524 22.1638ZM16.9524 4.54142C12.2975 4.54142 8.50646 8.33444 8.50646 13.0002C8.50646 17.6575 12.2975 21.4505 16.9608 21.4505C21.6241 21.4505 25.4067 17.6575 25.4067 12.9918C25.4067 8.33443 21.6157 4.54142 16.9524 4.54142Z" fill="#2D82FE" stroke="#2D82FE" stroke-width="0.5"/>
<path d="M16.9527 18.8994C15.2249 18.8994 13.8242 17.498 13.8242 15.7693C13.8242 15.5679 13.9836 15.4085 14.1849 15.4085C14.3862 15.4085 14.5455 15.5679 14.5455 15.7693C14.5455 17.1036 15.6275 18.1861 16.961 18.1861C18.2946 18.1861 19.3766 17.1036 19.3766 15.7693C19.3766 14.435 18.2946 13.3525 16.961 13.3525C15.2333 13.3525 13.8326 11.9511 13.8326 10.2225C13.8326 8.49379 15.2333 7.09238 16.961 7.08398C18.6888 7.08398 20.0895 8.48539 20.0895 10.2141C20.0895 10.4155 19.9301 10.5749 19.7288 10.5749C19.5275 10.5749 19.3682 10.4155 19.3682 10.2141C19.3682 8.8798 18.2862 7.79728 16.9527 7.79728C15.6191 7.79728 14.5371 8.8798 14.5371 10.2141C14.5371 11.5483 15.6191 12.6308 16.9527 12.6308C18.6804 12.6308 20.0811 14.0322 20.0811 15.7609C20.0811 17.4896 18.6804 18.891 16.9527 18.891V18.8994Z" fill="#2D82FE" stroke="#2D82FE" stroke-width="0.5"/>
<path d="M16.0306 20.4186C15.8293 20.4186 15.6699 20.2591 15.6699 20.0578V5.92626C15.6699 5.72486 15.8293 5.56543 16.0222 5.56543C16.2235 5.56543 16.3828 5.72486 16.3828 5.92626V20.0578C16.3828 20.2591 16.2235 20.4186 16.0306 20.4186Z" fill="#2D82FE" stroke="#2D82FE" stroke-width="0.5"/>
<path d="M17.8841 20.4186C17.6828 20.4186 17.5234 20.2591 17.5234 20.0578V5.92626C17.5234 5.72486 17.6828 5.56543 17.8757 5.56543C18.077 5.56543 18.2364 5.72486 18.2364 5.92626V20.0578C18.2364 20.2591 18.077 20.4186 17.8841 20.4186Z" fill="#2D82FE" stroke="#2D82FE" stroke-width="0.5"/>
<path d="M5.57915 10.953H2.90362C2.70233 10.953 2.54297 10.7935 2.54297 10.5922V7.08447C2.54297 6.88307 2.70233 6.72363 2.90362 6.72363H6.94626C7.07207 6.72363 7.19788 6.79076 7.25659 6.89985C7.32369 7.00894 7.3153 7.15162 7.25659 7.26071C6.62755 8.31805 6.18303 9.46769 5.93141 10.6593C5.89786 10.8271 5.74689 10.9446 5.57915 10.9446V10.953ZM3.26427 10.2397H5.29398C5.52044 9.26629 5.8727 8.33481 6.334 7.4453H3.25588V10.2397H3.26427Z" fill="#2D82FE" stroke="#2D82FE" stroke-width="0.5"/>
<path d="M5.37813 14.4598H1.36065C1.15936 14.4598 1 14.3004 1 14.099V10.5913C1 10.3899 1.15936 10.2305 1.36065 10.2305H5.57943C5.68846 10.2305 5.78911 10.2808 5.85621 10.3647C5.9233 10.4487 5.94847 10.5578 5.93169 10.6668C5.77233 11.4305 5.68846 12.2193 5.68846 12.9997C5.68846 13.3438 5.70524 13.7046 5.73879 14.0654C5.74717 14.1661 5.71362 14.2668 5.64653 14.3424C5.57943 14.4179 5.47878 14.4598 5.37813 14.4598ZM1.71291 13.7466H4.98393C4.96716 13.4948 4.95877 13.2431 4.95877 12.9997C4.95877 12.3116 5.01748 11.6235 5.1349 10.9522H1.7213V13.7466H1.71291Z" fill="#2D82FE" stroke="#2D82FE" stroke-width="0.5"/>
<path d="M6.27462 17.9677H2.25714C2.05584 17.9677 1.89648 17.8082 1.89648 17.6068V14.0991C1.89648 13.8977 2.05584 13.7383 2.25714 13.7383H5.37719C5.5617 13.7383 5.72106 13.881 5.73784 14.0656C5.84687 15.2404 6.14042 16.39 6.61011 17.4642C6.66043 17.5732 6.64366 17.6991 6.57656 17.7998C6.50946 17.9005 6.40043 17.9593 6.27462 17.9593V17.9677ZM2.6094 17.2544H5.73784C5.39396 16.3565 5.1675 15.4166 5.05008 14.46H2.61779V17.2544H2.6094Z" fill="#2D82FE" stroke="#2D82FE" stroke-width="0.5"/>
<path d="M8.63174 21.4843H3.22198C3.02069 21.4843 2.86133 21.3248 2.86133 21.1234V17.6157C2.86133 17.4143 3.02069 17.2549 3.22198 17.2549H6.27493C6.41751 17.2549 6.54332 17.3388 6.60203 17.4731C7.1472 18.7402 7.91883 19.8815 8.88336 20.8717C8.98401 20.9724 9.01756 21.1318 8.95884 21.2577C8.90013 21.392 8.77433 21.4759 8.63174 21.4759V21.4843ZM3.58263 20.771H7.81818C7.09688 19.9234 6.50139 18.992 6.04009 17.9766H3.57424V20.771H3.58263Z" fill="#2D82FE" stroke="#2D82FE" stroke-width="0.5"/>
<path d="M16.9618 24.9915H1.74737C1.54608 24.9915 1.38672 24.8321 1.38672 24.6391V21.1314C1.38672 20.93 1.54608 20.7705 1.74737 20.7705H8.63329C8.73393 20.7705 8.82619 20.8041 8.89329 20.8796C11.032 23.0698 13.9005 24.2782 16.9618 24.2782C17.1631 24.2782 17.3225 24.4377 17.3225 24.6391C17.3225 24.8405 17.1631 24.9999 16.9618 24.9999V24.9915ZM2.10802 24.2782H12.8521C11.2333 23.6824 9.7404 22.7425 8.48232 21.4838H2.10802V24.2782Z" fill="#2D82FE" stroke="#2D82FE" stroke-width="0.5"/>
</svg>
