<svg width="57" height="41" viewBox="0 0 57 41" fill="none" xmlns="http://www.w3.org/2000/svg">
<g clip-path="url(#clip0_2678_719)" filter="url(#filter0_d_2678_719)">
<path d="M26.836 27.1275H16.9451C16.6542 27.1275 16.3633 26.8366 16.3633 26.5456C16.3633 26.2547 16.6542 25.9638 16.9451 25.9638H26.6906L30.036 23.6366C30.3269 23.4911 30.6178 23.4911 30.7633 23.782C30.9087 24.0729 30.9087 24.3638 30.6178 24.5093L27.1269 26.982C26.9815 26.982 26.9815 27.1275 26.836 27.1275Z" fill="#2BB19A" stroke="#2BB19A" stroke-width="0.5"/>
<path d="M25.8172 32.3637H16.9445C14.1809 32.3637 11.5627 31.4909 9.2354 30.0364L5.45358 27.2728C4.72631 26.8364 4.28994 25.9637 4.14449 25.0909C3.99903 24.2182 4.28994 23.3455 4.87176 22.6182C5.88994 21.3091 7.78085 21.1637 9.2354 22.0364L14.9081 25.9637H16.2172C15.6354 25.3819 15.3445 24.5091 15.3445 23.6364C15.3445 21.7455 16.799 20.2909 18.6899 20.2909H23.6354H25.8172L28.7263 17.3819C30.3263 15.7819 32.6536 14.7637 34.9809 14.7637H40.799C41.0899 14.7637 41.3809 15.0546 41.3809 15.3455V26.9819C41.3809 27.2728 41.2354 27.4182 41.0899 27.5637L30.9081 31.3455C29.0172 32.0728 27.4172 32.3637 25.8172 32.3637ZM7.19903 22.6182C6.61722 22.6182 6.0354 22.9091 5.59903 23.3455C5.16267 23.7819 5.01722 24.3637 5.16267 24.9455C5.30813 25.5273 5.59903 26.1091 6.0354 26.4L9.96267 29.0182C11.999 30.4728 14.4718 31.2 16.9445 31.2H25.8172C27.2718 31.2 28.8718 30.9091 30.1809 30.3273L40.0718 26.6909V15.9273H34.8354C32.799 15.9273 30.9081 16.6546 29.4536 18.1091L26.2536 21.3091C26.1081 21.4546 25.9627 21.4546 25.8172 21.4546H23.4899H18.5445C17.2354 21.4546 16.2172 22.4728 16.2172 23.7819C16.2172 25.0909 17.2354 26.1091 18.5445 26.1091H22.9081C23.199 26.1091 23.4899 26.4 23.4899 26.6909C23.4899 26.9819 23.199 27.2728 22.9081 27.2728H18.5445C18.399 27.2728 18.399 27.2728 18.2536 27.2728C18.2536 27.2728 18.2536 27.2728 18.1081 27.2728H14.4718C14.3263 27.2728 14.1809 27.2728 14.1809 27.1273L8.36267 23.2C8.07176 22.7637 7.6354 22.6182 7.19903 22.6182Z" fill="#2BB19A" stroke="#2BB19A" stroke-width="0.5"/>
<path d="M44.145 29.7457H40.6541C40.3632 29.7457 40.0723 29.4548 40.0723 29.1638V13.1638C40.0723 12.8729 40.3632 12.582 40.6541 12.582H44.145C44.4359 12.582 44.7268 12.8729 44.7268 13.1638V29.1638C44.7268 29.6002 44.4359 29.7457 44.145 29.7457ZM41.0904 28.7275H43.5632V13.8911H41.0904V28.7275Z" fill="#2BB19A" stroke="#2BB19A" stroke-width="0.5"/>
<path d="M51.8534 32.8001H44.1443C43.8534 32.8001 43.5625 32.5092 43.5625 32.2183V10.2547C43.5625 9.96376 43.8534 9.67285 44.1443 9.67285H51.8534C52.1443 9.67285 52.4352 9.96376 52.4352 10.2547V32.2183C52.4352 32.6547 52.1443 32.8001 51.8534 32.8001ZM44.7261 31.7819H51.417V10.8365H44.7261V31.7819Z" fill="#2BB19A" stroke="#2BB19A" stroke-width="0.5"/>
<path d="M49.8174 16.9454C49.5265 16.9454 49.2356 16.6545 49.2356 16.3636V13.0181H47.781C47.4901 13.0181 47.1992 12.7272 47.1992 12.4363C47.1992 12.1454 47.4901 11.8545 47.781 11.8545H49.8174C50.1083 11.8545 50.3992 12.1454 50.3992 12.4363V16.3636C50.2538 16.6545 50.1083 16.9454 49.8174 16.9454Z" fill="#2BB19A" stroke="#2BB19A" stroke-width="0.5"/>
<path d="M34.3987 18.6911C34.2532 18.6911 34.1078 18.691 33.9623 18.5456C33.6714 18.4001 33.6714 17.9638 33.9623 17.8183C34.835 16.9456 34.5441 15.6365 34.5441 15.6365C34.5441 15.3456 34.6896 15.0547 34.9805 15.0547C35.2714 15.0547 35.5623 15.2001 35.5623 15.4911C35.5623 15.6365 35.8532 17.382 34.6896 18.6911C34.6896 18.5456 34.5441 18.6911 34.3987 18.6911Z" fill="#2BB19A" stroke="#2BB19A" stroke-width="0.5"/>
<path d="M14.0354 2.25435H11.2717V10.9816H9.38083V2.25435H6.61719V0.799805H14.1808V2.25435H14.0354Z" fill="#2BB19A" stroke="#2BB19A" stroke-width="0.5"/>
<path d="M19.9997 8.94526H16.5088L15.7815 10.9816H13.8906L17.2361 0.799805H19.2724L22.6179 10.9816H20.5815L19.9997 8.94526ZM19.5634 7.49072L18.6906 4.72708C18.5452 4.14526 18.3997 3.12708 18.2543 2.69071C18.1088 3.27253 17.9634 4.14526 17.8179 4.87253L16.7997 7.49072H19.5634Z" fill="#2BB19A" stroke="#2BB19A" stroke-width="0.5"/>
<path d="M29.1627 10.9816L27.1264 7.19981L24.9446 10.9816H22.9082L26.1082 5.74526L23.0537 0.799805H25.2355L27.1264 4.29071L29.0173 0.799805H31.1991L28.1446 5.74526L31.3446 10.9816H29.1627Z" fill="#2BB19A" stroke="#2BB19A" stroke-width="0.5"/>
<path d="M15.6347 24.0729H15.4892C10.5438 22.6183 7.34375 18.1092 7.34375 13.0183C7.34375 12.7274 7.63466 12.4365 7.92557 12.4365H30.0347C30.3256 12.4365 30.6165 12.7274 30.6165 13.0183C30.6165 14.9092 30.1801 16.8002 29.3074 18.4002C29.3074 18.4002 29.3074 18.5456 29.1619 18.5456L26.2529 21.4547C26.1074 21.6002 25.9619 21.6002 25.8165 21.6002H23.4892H18.5438C17.3801 21.6002 16.3619 22.4729 16.3619 23.6365C16.3619 23.782 16.2165 23.9274 16.071 24.0729C15.9256 23.9274 15.7801 24.0729 15.6347 24.0729ZM8.50739 13.4547C8.65284 17.6729 11.4165 21.3092 15.3438 22.7638C15.7801 21.3092 17.0892 20.4365 18.5438 20.4365H23.4892H25.671L28.4347 17.6729C29.1619 16.3638 29.4529 14.9092 29.5983 13.4547H8.50739Z" fill="#2BB19A" stroke="#2BB19A" stroke-width="0.5"/>
<path d="M18.5436 27.1275H15.78H15.6345C14.7618 26.982 14.0345 26.6911 13.3072 26.4002C13.3072 26.4002 13.3072 26.4002 13.1618 26.4002L8.6527 23.3457C8.6527 23.3457 8.6527 23.3457 8.50725 23.3457C5.88906 20.582 4.28906 16.9457 4.28906 13.1638C4.28906 12.8729 4.57997 12.582 4.87088 12.582H32.9436C33.2345 12.582 33.5254 12.8729 33.5254 13.1638C33.5254 14.182 33.38 15.2002 33.2345 16.0729C33.2345 16.2184 33.0891 16.5093 32.7982 16.5093C31.4891 16.8002 30.18 17.5275 29.3072 18.5457L26.1073 21.7457C25.9618 21.8911 25.8163 21.8911 25.6709 21.8911H23.3436H18.5436C17.2345 21.8911 16.2163 22.9093 16.2163 24.2184C16.2163 25.5275 17.2345 26.5457 18.5436 26.5457C18.8345 26.5457 19.1254 26.8366 19.1254 27.1275C19.1254 27.4184 18.8345 27.1275 18.5436 27.1275ZM15.78 25.9638H16.0709C15.4891 25.382 15.1982 24.5093 15.1982 23.6366C15.1982 21.7457 16.6527 20.2911 18.5436 20.2911H23.4891H25.6709L28.58 17.382C29.5982 16.3638 30.9072 15.6366 32.2163 15.2002C32.3618 14.6184 32.3618 14.0366 32.3618 13.3093H5.4527C5.59815 16.6548 6.90724 19.7093 9.23452 22.182L13.7436 25.2366C14.3254 25.5275 15.0527 25.8184 15.78 25.9638Z" fill="#2BB19A" stroke="#2BB19A" stroke-width="0.5"/>
<path d="M20.5805 15.9274H11.5623C11.2714 15.9274 10.9805 15.6365 10.9805 15.3455C10.9805 15.0546 11.2714 14.9092 11.5623 14.9092H20.5805C20.8714 14.9092 21.1623 15.2001 21.1623 15.491C21.1623 15.7819 20.8714 15.9274 20.5805 15.9274Z" fill="#2BB19A" stroke="#2BB19A" stroke-width="0.5"/>
</g>
<defs>
<filter id="filter0_d_2678_719" x="0" y="0.799805" width="56.4365" height="40" filterUnits="userSpaceOnUse" color-interpolation-filters="sRGB">
<feFlood flood-opacity="0" result="BackgroundImageFix"/>
<feColorMatrix in="SourceAlpha" type="matrix" values="0 0 0 0 0 0 0 0 0 0 0 0 0 0 0 0 0 0 127 0" result="hardAlpha"/>
<feOffset dy="4"/>
<feGaussianBlur stdDeviation="2"/>
<feComposite in2="hardAlpha" operator="out"/>
<feColorMatrix type="matrix" values="0 0 0 0 0 0 0 0 0 0 0 0 0 0 0 0 0 0 0.25 0"/>
<feBlend mode="normal" in2="BackgroundImageFix" result="effect1_dropShadow_2678_719"/>
<feBlend mode="normal" in="SourceGraphic" in2="effect1_dropShadow_2678_719" result="shape"/>
</filter>
<clipPath id="clip0_2678_719">
<rect width="48.4364" height="32" fill="white" transform="translate(4 0.799805)"/>
</clipPath>
</defs>
</svg>
