<svg width="26" height="25" viewBox="0 0 26 25" fill="none" xmlns="http://www.w3.org/2000/svg">
<path d="M15.6421 24.6618H3.05082C1.97815 24.6618 1.11426 23.7902 1.11426 22.7242V3.49971C1.11426 2.42648 1.98535 1.56213 3.05082 1.56213H3.2452C3.46117 1.56213 3.63395 1.735 3.63395 1.95109C3.63395 2.16718 3.46117 2.34005 3.2452 2.34005H3.05082C2.4101 2.34005 1.88456 2.85865 1.88456 3.50691V22.7314C1.88456 23.3725 2.4029 23.8983 3.05082 23.8983H15.6421C16.2828 23.8983 16.8084 23.3797 16.8084 22.7314V17.6894C16.8084 17.4733 16.9811 17.3004 17.1971 17.3004C17.4131 17.3004 17.5859 17.4733 17.5859 17.6894V22.7314C17.5859 23.8046 16.7148 24.669 15.6493 24.669L15.6421 24.6618Z" fill="white" stroke="white" stroke-width="0.5"/>
<path d="M15.2392 2.33272H5.31161C5.09563 2.33272 4.92285 2.15985 4.92285 1.94377C4.92285 1.72768 5.09563 1.55481 5.31161 1.55481H15.2392C15.4552 1.55481 15.628 1.72768 15.628 1.94377C15.628 2.15985 15.4552 2.33272 15.2392 2.33272Z" fill="white" stroke="white" stroke-width="0.5"/>
<path d="M17.1903 20.8009H1.49618C1.2802 20.8009 1.10742 20.628 1.10742 20.412V4.2631C1.10742 4.04701 1.2802 3.87415 1.49618 3.87415H13.1084C13.3243 3.87415 13.4971 4.04701 13.4971 4.2631C13.4971 4.47919 13.3243 4.65206 13.1084 4.65206H1.88493V20.023H16.8015V18.3952C16.8015 18.1791 16.9743 18.0062 17.1903 18.0062C17.4062 18.0062 17.579 18.1791 17.579 18.3952V20.412C17.579 20.628 17.4062 20.8009 17.1903 20.8009Z" fill="white" stroke="white" stroke-width="0.5"/>
<path d="M10.359 3.49251H8.33602C8.12004 3.49251 7.94727 3.31964 7.94727 3.10356C7.94727 2.88747 8.12004 2.7146 8.33602 2.7146H10.359C10.5749 2.7146 10.7477 2.88747 10.7477 3.10356C10.7477 3.31964 10.5749 3.49251 10.359 3.49251Z" fill="white" stroke="white" stroke-width="0.5"/>
<path d="M9.34292 23.4302C8.7454 23.4302 8.25586 22.9404 8.25586 22.3425C8.25586 21.7447 8.7454 21.2549 9.34292 21.2549C9.94045 21.2549 10.43 21.7447 10.43 22.3425C10.43 22.9404 9.94045 23.4302 9.34292 23.4302ZM9.34292 22.0328C9.17014 22.0328 9.03336 22.1697 9.03336 22.3425C9.03336 22.5154 9.17014 22.6522 9.34292 22.6522C9.5157 22.6522 9.65249 22.5154 9.65249 22.3425C9.65249 22.1697 9.5157 22.0328 9.34292 22.0328Z" fill="white" stroke="white" stroke-width="0.5"/>
<path d="M5.31161 18.064C5.09563 18.064 4.92285 17.8911 4.92285 17.675V15.8239C4.92285 15.6078 5.09563 15.4349 5.31161 15.4349C5.52758 15.4349 5.70036 15.6078 5.70036 15.8239V17.675C5.70036 17.8911 5.52758 18.064 5.31161 18.064Z" fill="white" stroke="white" stroke-width="0.5"/>
<path d="M9.80379 18.064C9.58782 18.064 9.41504 17.8911 9.41504 17.675V15.8239C9.41504 15.6078 9.58782 15.4349 9.80379 15.4349C10.0198 15.4349 10.1925 15.6078 10.1925 15.8239V17.675C10.1925 17.8911 10.0198 18.064 9.80379 18.064Z" fill="white" stroke="white" stroke-width="0.5"/>
<path d="M7.60076 12.8849C7.60076 12.8849 7.56476 12.8849 7.55036 12.8849C7.07522 12.8993 6.36251 12.6976 5.81537 11.6604C5.53461 11.1346 5.39062 10.5151 5.39062 9.86687V9.80925C5.39062 9.27624 5.67859 8.78644 6.13933 8.52714C6.4561 8.35427 6.96003 8.14539 7.55756 8.14539C8.15509 8.14539 8.72382 8.41189 9.07658 8.64238C9.49413 8.90889 9.7389 9.36987 9.7389 9.87408C9.7389 10.5295 9.58772 11.1562 9.30695 11.682C8.77422 12.676 8.0975 12.8921 7.60076 12.8921V12.8849ZM7.55036 12.107C7.97511 12.107 8.32787 11.8477 8.61584 11.3075C8.83901 10.8897 8.95419 10.3927 8.95419 9.86687C8.95419 9.62918 8.839 9.41309 8.64463 9.29064C8.38546 9.12498 7.98231 8.9233 7.55036 8.9233C7.11842 8.9233 6.74406 9.08176 6.51369 9.21141C6.29772 9.33386 6.16813 9.55715 6.16813 9.80925V9.86687C6.16813 10.3927 6.28332 10.8825 6.49929 11.3002C6.78006 11.8405 7.12562 12.107 7.52877 12.107C7.53597 12.107 7.54316 12.107 7.55036 12.107Z" fill="white" stroke="white" stroke-width="0.5"/>
<path d="M11.6829 18.0639H3.4327C3.21672 18.0639 3.04395 17.891 3.04395 17.6749V15.3268C3.04395 14.0735 4.05902 13.0579 5.31167 13.0579H9.80392C11.0566 13.0579 12.0717 14.0735 12.0717 15.3268V17.6749C12.0717 17.891 11.8989 18.0639 11.6829 18.0639ZM3.82145 17.2859H11.2941V15.3268C11.2941 14.5056 10.6246 13.8358 9.80392 13.8358H5.31167C4.49097 13.8358 3.82145 14.5056 3.82145 15.3268V17.2859Z" fill="white" stroke="white" stroke-width="0.5"/>
<path d="M14.0659 18.0639H1.49618C1.2802 18.0639 1.10742 17.8911 1.10742 17.675C1.10742 17.4589 1.2802 17.286 1.49618 17.286H14.0659C14.2818 17.286 14.4546 17.4589 14.4546 17.675C14.4546 17.8911 14.2818 18.0639 14.0659 18.0639Z" fill="white" stroke="white" stroke-width="0.5"/>
<path d="M18.673 10.8106C17.4923 10.8106 16.3405 10.5441 15.347 10.0327C13.6192 10.3928 11.6826 9.96066 11.6034 9.94626C11.4235 9.90304 11.2939 9.73737 11.3011 9.5501C11.3011 9.36282 11.445 9.20436 11.6322 9.18275C12.5321 9.0459 12.9641 8.57051 13.1728 8.13833C12.6833 7.40364 12.4313 6.57531 12.4313 5.73977C12.4313 2.94506 15.2318 0.668945 18.6802 0.668945C22.1286 0.668945 24.929 2.94506 24.929 5.73977C24.929 6.69776 24.5979 7.63413 23.9715 8.44086C23.8419 8.61372 23.5972 8.64253 23.4244 8.51288C23.2516 8.38323 23.2228 8.13833 23.3524 7.96547C23.8707 7.2956 24.1443 6.52489 24.1443 5.73977C24.1443 3.37003 21.6894 1.44686 18.673 1.44686C15.6565 1.44686 13.2016 3.37723 13.2016 5.73977C13.2016 6.48167 13.4536 7.20916 13.9215 7.85742C13.9935 7.95826 14.0151 8.09512 13.9719 8.21757C13.8568 8.54169 13.6192 9.00268 13.1512 9.37723C13.7992 9.42045 14.5911 9.42045 15.311 9.24758C15.4046 9.22597 15.4982 9.24037 15.5845 9.28359C16.4988 9.77339 17.5643 10.0327 18.673 10.0327C19.7816 10.0327 20.8255 9.78059 21.7326 9.298C21.9198 9.19716 22.1574 9.26919 22.2581 9.45646C22.3589 9.64374 22.2869 9.88143 22.0998 9.98227C21.0847 10.5225 19.8968 10.8106 18.6802 10.8106H18.673Z" fill="white" stroke="white" stroke-width="0.5"/>
<path d="M18.7239 15.9535H17.1905C16.9745 15.9535 16.8018 15.7806 16.8018 15.5645V14.4769H13.7061C13.4902 14.4769 13.3174 14.304 13.3174 14.0879C13.3174 13.8718 13.4902 13.699 13.7061 13.699H17.1905C17.4065 13.699 17.5793 13.8718 17.5793 14.0879V15.1756H18.7239C18.9399 15.1756 19.1127 15.3484 19.1127 15.5645C19.1127 15.7806 18.9399 15.9535 18.7239 15.9535Z" fill="white" stroke="white" stroke-width="0.5"/>
<path d="M21.0994 18.3303C19.5732 18.3303 18.335 17.0914 18.335 15.5644C18.335 14.0374 19.5732 12.7985 21.0994 12.7985C22.6256 12.7985 23.8639 14.0374 23.8639 15.5644C23.8639 17.0914 22.6256 18.3303 21.0994 18.3303ZM21.0994 13.5764C20.0052 13.5764 19.1125 14.4695 19.1125 15.5644C19.1125 16.6592 20.0052 17.5524 21.0994 17.5524C22.1937 17.5524 23.0864 16.6592 23.0864 15.5644C23.0864 14.4695 22.1937 13.5764 21.0994 13.5764Z" fill="white" stroke="white" stroke-width="0.5"/>
<path d="M23.4322 16.4074C23.4322 16.4074 23.3818 16.4074 23.3602 16.4001L21.0277 15.9392C20.8477 15.9032 20.7109 15.7447 20.7109 15.5574V13.1805C20.7109 12.9644 20.8837 12.7915 21.0997 12.7915C21.3157 12.7915 21.4884 12.9644 21.4884 13.1805V15.2405L23.5042 15.6366C23.713 15.6799 23.8498 15.8815 23.8138 16.0904C23.7778 16.2777 23.6122 16.4074 23.4322 16.4074Z" fill="white" stroke="white" stroke-width="0.5"/>
<path d="M19.3792 17.5884C19.2784 17.5884 19.1704 17.5452 19.0984 17.466C18.9545 17.3075 18.9545 17.0626 19.1128 16.9186L20.8406 15.2835C20.999 15.1323 21.2438 15.1395 21.3878 15.2979C21.5317 15.4564 21.5317 15.7013 21.3734 15.8453L19.6456 17.4804C19.5736 17.5524 19.4728 17.5884 19.3792 17.5884Z" fill="white" stroke="white" stroke-width="0.5"/>
<path d="M18.7237 4.40734C18.5077 4.40734 18.335 4.23447 18.335 4.01838V3.67264C18.335 3.45656 18.5077 3.28369 18.7237 3.28369C18.9397 3.28369 19.1125 3.45656 19.1125 3.67264V4.01838C19.1125 4.23447 18.9397 4.40734 18.7237 4.40734Z" fill="white" stroke="white" stroke-width="0.5"/>
<path d="M18.7243 7.84296C18.0044 7.84296 17.4141 7.28113 17.4141 6.59686C17.4141 6.38077 17.5868 6.2079 17.8028 6.2079C18.0188 6.2079 18.1916 6.38077 18.1916 6.59686C18.1916 6.85616 18.4291 7.06505 18.7243 7.06505C19.0195 7.06505 19.257 6.85616 19.257 6.59686C19.257 6.33756 19.0195 6.12867 18.7243 6.12867C18.0044 6.12867 17.4141 5.56685 17.4141 4.88257C17.4141 4.1983 18.0044 3.63647 18.7243 3.63647C19.4442 3.63647 20.0345 4.1983 20.0345 4.88257C20.0345 5.09866 19.8618 5.27153 19.6458 5.27153C19.4298 5.27153 19.257 5.09866 19.257 4.88257C19.257 4.62327 19.0195 4.41439 18.7243 4.41439C18.4291 4.41439 18.1916 4.62327 18.1916 4.88257C18.1916 5.14188 18.4291 5.35076 18.7243 5.35076C19.4442 5.35076 20.0345 5.91259 20.0345 6.59686C20.0345 7.28113 19.4442 7.84296 18.7243 7.84296Z" fill="white" stroke="white" stroke-width="0.5"/>
<path d="M18.7237 8.23913C18.5077 8.23913 18.335 8.06626 18.335 7.85018V7.45402C18.335 7.23793 18.5077 7.06506 18.7237 7.06506C18.9397 7.06506 19.1125 7.23793 19.1125 7.45402V7.85018C19.1125 8.06626 18.9397 8.23913 18.7237 8.23913Z" fill="white" stroke="white" stroke-width="0.5"/>
</svg>
