<svg width="36" height="32" viewBox="0 0 36 32" fill="none" xmlns="http://www.w3.org/2000/svg">
<path d="M35.6484 16.3125C35.3591 15.597 34.8732 14.978 34.2469 14.5271C33.6206 14.0762 32.8794 13.8118 32.1091 13.7645C31.9974 13.7573 31.8845 13.7535 31.7715 13.7535C31.6615 13.7535 31.5516 13.7571 31.4427 13.7645C30.8794 13.8012 30.3297 13.9527 29.8272 14.2097V9.30232L31.5736 9.98929C31.638 10.015 31.7066 10.0281 31.776 10.0281C31.8489 10.0281 31.9211 10.0138 31.9885 9.98596C32.0559 9.9581 32.1171 9.91722 32.1687 9.86567C32.2203 9.81412 32.2612 9.75291 32.2891 9.68553C32.317 9.61816 32.3314 9.54594 32.3314 9.47302V5.954C32.3313 5.83857 32.2952 5.72603 32.2282 5.63203C32.1612 5.53802 32.0666 5.46724 31.9575 5.42951L16.3465 0.0299271C16.2291 -0.0103012 16.1016 -0.0103012 15.9842 0.0299271L0.373899 5.42951C0.264801 5.46724 0.170169 5.53803 0.103159 5.63203C0.03615 5.72603 9.26799e-05 5.83857 2.92651e-08 5.954V9.47301C-2.93547e-05 9.56349 0.0220692 9.65261 0.0643701 9.73259C0.106671 9.81257 0.16789 9.881 0.242694 9.9319C0.317497 9.98281 0.403615 10.0146 0.493542 10.0246C0.583469 10.0346 0.674476 10.0225 0.758634 9.98927L2.50341 9.30232V31.4447C2.50342 31.5919 2.56191 31.7331 2.666 31.8372C2.77008 31.9413 2.91126 31.9998 3.05846 31.9998H29.2721C29.345 31.9998 29.4172 31.9854 29.4845 31.9575C29.5519 31.9296 29.6131 31.8888 29.6646 31.8372C29.7161 31.7857 29.757 31.7245 29.7849 31.6571C29.8128 31.5898 29.8272 31.5176 29.8272 31.4447V28.3039H30.6315C31.0822 28.3034 31.5143 28.1241 31.8329 27.8055C32.1516 27.4868 32.3309 27.0547 32.3314 26.604V23.9357L34.9726 20.8208C35.4936 20.2067 35.833 19.4593 35.9524 18.6628C36.0718 17.8664 35.9665 17.0524 35.6484 16.3125ZM2.88656 7.96006C2.88281 7.96124 2.88047 7.96436 2.87672 7.96566C2.86958 7.96807 2.86195 7.96842 2.85493 7.97124L1.11007 8.65821V6.34916L16.1654 1.14144L31.2213 6.34915V8.65821L29.475 7.97124C29.4683 7.96858 29.461 7.96825 29.4543 7.9659C29.4505 7.96452 29.448 7.96134 29.444 7.96006L16.3372 3.68599C16.2255 3.64955 16.1051 3.64955 15.9934 3.68599L2.88656 7.96006ZM6.74151 13.0767C6.67419 13.0767 6.60963 13.0499 6.56203 13.0023C6.51443 12.9547 6.48769 12.8902 6.48767 12.8228V11.2646C6.48777 11.1974 6.51456 11.1329 6.56215 11.0854C6.60974 11.0378 6.67425 11.0111 6.74151 11.0111H25.5891C25.6564 11.0111 25.7209 11.0378 25.7685 11.0854C25.8161 11.1329 25.8429 11.1974 25.843 11.2646V12.8228C25.843 12.8902 25.8162 12.9547 25.7686 13.0023C25.721 13.0499 25.6564 13.0767 25.5891 13.0767H6.74151ZM15.7968 30.8897H10.4711V26.712H12.579V27.7488C12.5789 27.8218 12.5931 27.8941 12.6209 27.9616C12.6487 28.0291 12.6896 28.0905 12.7411 28.1422C12.7927 28.1938 12.8539 28.2349 12.9213 28.2628C12.9888 28.2908 13.0611 28.3052 13.1341 28.3052C13.2071 28.3052 13.2793 28.2908 13.3468 28.2628C13.4142 28.2349 13.4754 28.1938 13.527 28.1422C13.5786 28.0905 13.6194 28.0291 13.6472 27.9616C13.675 27.8941 13.6893 27.8218 13.6891 27.7488V26.712H15.7968V30.8897ZM16.8349 23.513V25.6018H11.5092V21.4241H13.617V22.5384C13.6169 22.6114 13.6311 22.6838 13.6589 22.7513C13.6867 22.8188 13.7276 22.8801 13.7791 22.9318C13.8307 22.9835 13.8919 23.0245 13.9593 23.0525C14.0268 23.0804 14.0991 23.0948 14.1721 23.0948C14.2451 23.0948 14.3173 23.0804 14.3848 23.0525C14.4522 23.0245 14.5135 22.9835 14.565 22.9318C14.6166 22.8801 14.6574 22.8188 14.6852 22.7513C14.713 22.6838 14.7273 22.6114 14.7271 22.5384V21.4241H16.8349L16.8349 23.513ZM19.12 19.8612C19.1929 19.8612 19.265 19.8469 19.3324 19.819C19.3997 19.7911 19.4609 19.7502 19.5124 19.6987C19.564 19.6472 19.6049 19.586 19.6328 19.5187C19.6607 19.4513 19.675 19.3792 19.675 19.3063V18.7802H21.7829V22.958H17.945V20.8691C17.945 20.7219 17.8865 20.5808 17.7824 20.4767C17.6783 20.3726 17.5372 20.3142 17.39 20.3142H16.4571V18.7802H18.565V19.3063C18.565 19.3792 18.5793 19.4513 18.6072 19.5187C18.6351 19.586 18.676 19.6472 18.7275 19.6987C18.7791 19.7502 18.8403 19.7911 18.9076 19.819C18.9749 19.8469 19.0471 19.8612 19.12 19.8612ZM22.2326 30.8897H16.9069V26.712H19.0147V27.5757C19.0146 27.6487 19.0288 27.7211 19.0566 27.7886C19.0844 27.856 19.1253 27.9174 19.1768 27.9691C19.2284 28.0208 19.2896 28.0618 19.357 28.0897C19.4245 28.1177 19.4968 28.1321 19.5698 28.1321C19.6428 28.1321 19.7151 28.1177 19.7825 28.0897C19.8499 28.0618 19.9112 28.0208 19.9627 27.9691C20.0143 27.9174 20.0551 27.856 20.0829 27.7886C20.1107 27.7211 20.125 27.6487 20.1248 27.5757V26.712H22.2326V30.8897ZM24.6664 30.8897H23.3427V28.3039H24.6664V30.8897ZM28.7171 30.8897H25.7764V28.3039H28.7171L28.7171 30.8897ZM31.2213 26.604C31.2212 26.7604 31.1589 26.9103 31.0484 27.0209C30.9378 27.1314 30.7878 27.1936 30.6315 27.1938H29.2741L29.2721 27.1935L29.2702 27.1938H23.3427V26.1569C23.3427 26.0097 23.2842 25.8686 23.1801 25.7645C23.0761 25.6604 22.9349 25.6019 22.7877 25.6019H17.945V24.0681H22.3379C22.4851 24.0681 22.6263 24.0096 22.7304 23.9055C22.8345 23.8014 22.8929 23.6603 22.8929 23.513V18.2253C22.8929 18.1524 22.8786 18.0802 22.8507 18.0128C22.8228 17.9455 22.7819 17.8843 22.7304 17.8328C22.6788 17.7812 22.6176 17.7403 22.5503 17.7124C22.483 17.6846 22.4108 17.6702 22.3379 17.6702H15.9021C15.8292 17.6702 15.757 17.6846 15.6897 17.7125C15.6224 17.7404 15.5612 17.7812 15.5096 17.8328C15.4581 17.8843 15.4173 17.9455 15.3894 18.0129C15.3615 18.0802 15.3472 18.1524 15.3472 18.2253V20.3141H10.9541C10.8813 20.3141 10.8091 20.3285 10.7418 20.3564C10.6744 20.3843 10.6132 20.4251 10.5617 20.4767C10.5102 20.5282 10.4693 20.5894 10.4414 20.6567C10.4135 20.724 10.3992 20.7962 10.3992 20.8691V25.6018H9.91608C9.76888 25.6019 9.62772 25.6604 9.52365 25.7645C9.41958 25.8686 9.36112 26.0097 9.36113 26.1569V30.8897H7.66431V14.1867H24.6664V24.7945C24.6662 24.8675 24.6804 24.9398 24.7082 25.0073C24.736 25.0748 24.7769 25.1362 24.8284 25.1879C24.88 25.2395 24.9412 25.2805 25.0087 25.3085C25.0761 25.3365 25.1484 25.3509 25.2214 25.3509C25.2944 25.3509 25.3667 25.3365 25.4341 25.3085C25.5015 25.2805 25.5628 25.2395 25.6143 25.1879C25.6659 25.1362 25.7067 25.0748 25.7345 25.0073C25.7623 24.9398 25.7766 24.8675 25.7764 24.7945V14.1679C26.1017 14.1232 26.3999 13.9624 26.6161 13.7153C26.8323 13.4681 26.952 13.1512 26.953 12.8228V11.2646C26.9525 10.9031 26.8086 10.5566 26.5529 10.301C26.2972 10.0454 25.9506 9.90156 25.5891 9.90108H6.74151C6.38 9.90157 6.03343 10.0454 5.77776 10.301C5.5221 10.5566 5.37821 10.9031 5.37763 11.2646V12.8228C5.37869 13.1512 5.49834 13.4681 5.71455 13.7153C5.93075 13.9624 6.22897 14.1232 6.55428 14.1679V30.8897H3.61345V8.89018L16.1654 4.79708L28.7171 8.89018V15.0611C27.9942 15.8384 27.581 16.8537 27.5558 17.9149C27.5305 18.9762 27.895 20.0099 28.5801 20.8208L31.2213 23.9357L31.2213 26.604ZM34.1257 20.1032L31.7763 22.874L29.4269 20.1032C29.0391 19.6455 28.7866 19.0887 28.698 18.4954C28.6094 17.9021 28.6881 17.2958 28.9253 16.7448C29.0889 16.3533 29.3297 15.9988 29.6332 15.7024C29.6483 15.6902 29.6627 15.6773 29.6764 15.6637C30.1795 15.1941 30.8302 14.9141 31.5171 14.8715C31.603 14.8661 31.6889 14.8631 31.7763 14.8631C31.863 14.8631 31.9498 14.8657 32.0349 14.8715C32.5997 14.9074 33.1427 15.1023 33.6013 15.4338C34.0599 15.7653 34.4153 16.2198 34.6265 16.7448C34.8637 17.2957 34.9425 17.9019 34.854 18.4952C34.7655 19.0885 34.5133 19.6454 34.1257 20.1032ZM31.7763 15.7462C31.3461 15.7463 30.9256 15.8739 30.5679 16.1129C30.2102 16.3519 29.9314 16.6916 29.7668 17.0891C29.6022 17.4866 29.5591 17.9239 29.6431 18.3459C29.727 18.7678 29.9342 19.1554 30.2384 19.4596C30.5426 19.7638 30.9302 19.9709 31.3521 20.0548C31.7741 20.1388 32.2114 20.0957 32.6089 19.931C33.0063 19.7664 33.3461 19.4876 33.5851 19.1299C33.8241 18.7722 33.9516 18.3516 33.9516 17.9214C33.9509 17.3447 33.7215 16.7919 33.3137 16.3841C32.9059 15.9763 32.353 15.7469 31.7763 15.7462ZM31.7763 18.9866C31.5656 18.9866 31.3597 18.9241 31.1845 18.8071C31.0094 18.69 30.8728 18.5237 30.7922 18.329C30.7116 18.1344 30.6905 17.9202 30.7316 17.7136C30.7727 17.507 30.8742 17.3172 31.0231 17.1682C31.1721 17.0193 31.3619 16.9178 31.5685 16.8767C31.7751 16.8356 31.9893 16.8567 32.1839 16.9373C32.3786 17.0179 32.5449 17.1545 32.662 17.3296C32.779 17.5048 32.8415 17.7107 32.8415 17.9214C32.8411 18.2038 32.7287 18.4745 32.529 18.6741C32.3294 18.8738 32.0587 18.9862 31.7763 18.9866Z" fill="#624CAB"/>
</svg>
