<svg width="25" height="26" viewBox="0 0 25 26" fill="none" xmlns="http://www.w3.org/2000/svg">
<path d="M6.96638 24.9976H6.00861C5.56213 24.9976 5.16606 24.7671 4.94282 24.3852C4.71958 24.0033 4.71958 23.5422 4.94282 23.1603L5.89338 21.5104C5.93659 21.4311 6.0086 21.3807 6.09502 21.3591C6.18143 21.3374 6.26786 21.3591 6.33987 21.4023C7.09601 21.9139 7.90974 22.3318 8.75949 22.6416C8.84591 22.6704 8.91793 22.7424 8.94673 22.8289C8.97554 22.9154 8.96834 23.0162 8.92513 23.0955L8.26261 24.2411C7.99617 24.7094 7.49207 24.9976 6.95917 24.9976H6.96638ZM6.27505 22.1084L5.49011 23.4702C5.38209 23.6575 5.38209 23.8808 5.49011 24.0682C5.59813 24.2555 5.79257 24.3636 6.00861 24.3636H6.96638C7.27603 24.3636 7.57129 24.1979 7.72971 23.9241L8.205 23.0955C7.53528 22.8289 6.88716 22.4975 6.27505 22.1084Z" fill="#2D82FE" stroke="#2D82FE" stroke-width="0.5"/>
<path d="M18.8778 24.9979H17.9201C17.38 24.9979 16.8831 24.7097 16.6166 24.2413L15.9541 23.0957C15.9109 23.0165 15.8965 22.9156 15.9325 22.8292C15.9613 22.7427 16.0333 22.6707 16.1197 22.6419C16.9767 22.332 17.7904 21.9141 18.5394 21.4026C18.6114 21.3521 18.6978 21.3377 18.7842 21.3593C18.8706 21.3809 18.9427 21.4314 18.9859 21.5107L19.9364 23.1606C20.1597 23.5425 20.1597 24.0036 19.9364 24.3855C19.7132 24.7673 19.3171 24.9979 18.8706 24.9979H18.8778ZM16.6814 23.103L17.1567 23.9315C17.3152 24.2053 17.6032 24.3711 17.9201 24.3711H18.8778C19.0939 24.3711 19.2883 24.263 19.3963 24.0756C19.5044 23.8883 19.5044 23.6649 19.3963 23.4776L18.6114 22.1159C17.9993 22.5049 17.3584 22.8364 16.6814 23.103Z" fill="#2D82FE" stroke="#2D82FE" stroke-width="0.5"/>
<path d="M14.8602 9.86709L14.4121 10.3154L14.8602 10.7638L15.3083 10.3154L14.8602 9.86709Z" fill="#2D82FE" stroke="#2D82FE" stroke-width="0.5"/>
<path d="M16.1691 9.43498L15.7227 8.98827L16.5796 8.13087L17.0261 8.57758L16.1691 9.43498ZM17.8902 7.71299L17.4438 7.26625L18.3007 6.40885L18.7472 6.85558L17.8902 7.71299ZM19.6113 5.99097L19.1649 5.54426L20.0218 4.68686L20.4683 5.13357L19.6113 5.99097ZM21.3325 4.26898L20.886 3.82225L21.7429 2.96484L22.1894 3.41157L21.3325 4.26898Z" fill="#2D82FE" stroke="#2D82FE" stroke-width="0.5"/>
<path d="M23.0477 1.63467L22.5996 2.08301L23.0477 2.53133L23.4958 2.08299L23.0477 1.63467Z" fill="#2D82FE" stroke="#2D82FE" stroke-width="0.5"/>
<path d="M12.4461 23.9101C6.13062 23.9101 0.996094 18.7729 0.996094 12.4541C0.996094 6.13524 6.13062 0.998047 12.4461 0.998047C14.3041 0.998047 16.0828 1.43036 17.7247 2.28776C17.8111 2.33099 17.8759 2.41743 17.8903 2.5183C17.9047 2.61917 17.8759 2.72004 17.8039 2.79209L14.6857 5.91189C14.5633 6.03438 14.3617 6.03438 14.2393 5.91189L13.2455 4.91759C12.9214 4.59336 12.4317 4.4925 11.9997 4.67262C11.5748 4.85275 11.3011 5.27064 11.3083 5.73176L11.4092 12.6342C11.4164 13.2538 11.906 13.7438 12.5254 13.751L19.4242 13.8518C19.8995 13.8518 20.3099 13.5781 20.4828 13.1602C20.6628 12.7351 20.5692 12.2451 20.2379 11.9137L19.2442 10.9194C19.1217 10.7969 19.1217 10.5952 19.2442 10.4727L22.2687 7.44655C22.3407 7.37449 22.4415 7.33847 22.5423 7.36009C22.6432 7.3745 22.7296 7.43936 22.7728 7.53302C23.5073 9.0749 23.8818 10.7321 23.8818 12.4541C23.8818 18.7729 18.7473 23.9101 12.4317 23.9101H12.4461ZM12.4461 1.62488C6.47628 1.62488 1.62261 6.48108 1.62261 12.4541C1.62261 18.427 6.47628 23.2832 12.4461 23.2832C18.416 23.2832 23.2697 18.427 23.2697 12.4541C23.2697 10.977 22.9816 9.55763 22.4055 8.21749L19.9211 10.7032L20.6916 11.4742C21.2029 11.9857 21.3469 12.7422 21.0661 13.4123C20.7924 14.068 20.1515 14.4931 19.4386 14.4931L12.5181 14.3922C11.5604 14.3778 10.797 13.6141 10.7826 12.6558L10.6818 5.75338C10.6674 5.03287 11.0923 4.38441 11.762 4.10342C12.4245 3.82242 13.1879 3.97372 13.6992 4.47807L14.4697 5.24902L17.0478 2.66962C15.6075 1.98514 14.0592 1.6465 12.4461 1.6465V1.62488Z" fill="#2D82FE" stroke="#2D82FE" stroke-width="0.5"/>
<path d="M12.4462 22.1594C7.09567 22.1594 2.74609 17.8076 2.74609 12.4542C2.74609 7.10087 7.09567 2.74902 12.4462 2.74902C13.8145 2.74902 15.1467 3.03003 16.3925 3.59202C16.4861 3.63525 16.5582 3.7217 16.5726 3.82257C16.5942 3.92344 16.5582 4.03152 16.4861 4.10357L14.6786 5.91205C14.5562 6.03453 14.3546 6.03453 14.2321 5.91205L13.2384 4.91775C12.9143 4.59352 12.4246 4.49265 11.9925 4.67278C11.5677 4.8529 11.294 5.2708 11.3012 5.73192L11.402 12.6343C11.4092 13.254 11.8989 13.7439 12.5182 13.7511L19.4171 13.852C19.8923 13.852 20.3028 13.5782 20.4757 13.1603C20.6557 12.7352 20.5621 12.2453 20.2308 11.9138L19.237 10.9195C19.1146 10.7971 19.1146 10.5953 19.237 10.4728L20.9365 8.77245C21.0085 8.7004 21.1166 8.66435 21.2246 8.68597C21.3254 8.70758 21.4118 8.77965 21.455 8.88052C21.9087 10.0189 22.1319 11.2221 22.1319 12.447C22.1319 17.8003 17.7824 22.1522 12.4318 22.1522L12.4462 22.1594ZM12.4462 3.37586C7.44133 3.37586 3.3726 7.44671 3.3726 12.4542C3.3726 17.4617 7.44133 21.5326 12.4462 21.5326C17.4511 21.5326 21.5198 17.4617 21.5198 12.4542C21.5198 11.4671 21.3614 10.5017 21.0518 9.57941L19.9284 10.7034L20.6989 11.4743C21.2102 11.9859 21.3542 12.7424 21.0734 13.4125C20.7997 14.0681 20.1588 14.4932 19.4459 14.4932L12.5254 14.3924C11.5677 14.378 10.8043 13.6142 10.7899 12.656L10.6891 5.75353C10.6747 5.03303 11.0996 4.38457 11.7693 4.10357C12.4318 3.82258 13.1952 3.97388 13.7064 4.47823L14.477 5.24917L15.7228 4.00269C14.6786 3.59921 13.584 3.39747 12.4606 3.39747L12.4462 3.37586Z" fill="#2D82FE" stroke="#2D82FE" stroke-width="0.5"/>
<path d="M12.4467 19.0614C8.80287 19.0614 5.83594 16.0929 5.83594 12.4472C5.83594 9.36344 7.93151 6.7192 10.9344 6.0131C11.0281 5.99149 11.1217 6.01312 11.2009 6.07076C11.2729 6.1284 11.3233 6.22206 11.3233 6.31572L11.4169 12.6201C11.4241 13.2398 11.9138 13.7297 12.5331 13.7369L18.503 13.8234C18.6038 13.8234 18.6902 13.8738 18.7478 13.953C18.8055 14.0323 18.8271 14.1332 18.7982 14.2268C17.9989 17.0656 15.3848 19.0542 12.4395 19.0542L12.4467 19.0614ZM10.6968 6.73361C8.19076 7.49734 6.46965 9.78854 6.46965 12.4472C6.46965 15.7471 9.14853 18.4274 12.4467 18.4274C14.9744 18.4274 17.2284 16.8135 18.0709 14.4574L12.5259 14.371C11.5682 14.3565 10.8048 13.5928 10.7904 12.6345L10.704 6.73361H10.6968Z" fill="#2D82FE" stroke="#2D82FE" stroke-width="0.5"/>
<path d="M12.4469 15.6816C10.6682 15.6816 9.2207 14.2334 9.2207 12.4538C9.2207 11.2649 9.86881 10.177 10.913 9.61497C11.0066 9.56454 11.129 9.56454 11.2227 9.61497C11.3163 9.67262 11.3739 9.77348 11.3811 9.88156L11.4243 12.6267C11.4315 13.2463 11.9212 13.7363 12.5405 13.7435L14.8593 13.7795C14.9745 13.7795 15.0825 13.8443 15.133 13.9524C15.1834 14.0533 15.1762 14.183 15.1113 14.2766C14.5064 15.1557 13.5127 15.6816 12.4469 15.6816ZM10.7546 10.4796C10.1857 10.9695 9.85441 11.6828 9.85441 12.4466C9.85441 13.8804 11.021 15.0476 12.4541 15.0476C13.095 15.0476 13.6999 14.8098 14.168 14.3991L12.5333 14.3775C11.5755 14.3631 10.8122 13.5994 10.7978 12.6411L10.769 10.4868L10.7546 10.4796Z" fill="#2D82FE" stroke="#2D82FE" stroke-width="0.5"/>
</svg>
