<svg width="49" height="50" viewBox="0 0 49 50" fill="none" xmlns="http://www.w3.org/2000/svg">
<path d="M39.3997 24.8127C39.2947 24.8127 39.1747 24.7827 39.0697 24.7377C38.6496 24.5576 38.4696 24.0773 38.6496 23.657L41.2 17.893C41.38 17.4727 41.8601 17.2926 42.2802 17.4727C42.7003 17.6529 42.8803 18.1332 42.7003 18.5535L40.1498 24.3174C40.0148 24.6176 39.7148 24.8127 39.3997 24.8127Z" fill="#0E1681"/>
<path d="M31.3874 46.0072C31.0573 46.0072 30.7272 45.7971 30.6222 45.4669L28.1918 38.5472C27.6368 36.776 27.4868 34.9747 27.7118 33.1585C27.9218 31.4774 28.4619 29.8713 29.317 28.4003L34.4029 19.6343C35.183 18.2834 36.4432 17.3227 37.9434 16.9324C38.9336 16.6623 39.9538 16.6773 40.9289 16.9324L38.9186 3.7685C38.9186 3.7685 38.9186 3.69344 38.9186 3.64841C38.9186 1.89222 40.1788 0.346155 41.844 0.0759708C42.8492 -0.0891417 43.8694 0.181034 44.6645 0.841484C45.4296 1.47191 45.8947 2.40257 45.9247 3.39324L48.4601 16.6172C48.4601 16.6172 48.4601 16.7073 48.4601 16.7523C48.5201 20.0696 47.68 23.3268 46.0147 26.1938L42.2041 32.7682C42.0541 34.6745 43.1643 39.8981 43.7794 41.5642C43.8094 41.6243 43.8244 41.6993 43.8244 41.7594C43.8244 41.8344 43.8244 41.9245 43.8394 41.9995C43.8544 42.4498 43.5093 42.8251 43.0592 42.8551C42.6092 42.8701 42.2341 42.5249 42.2041 42.0746C41.484 40.0332 40.3138 34.4944 40.5838 32.423C40.5838 32.3179 40.6289 32.2129 40.6889 32.1228L44.5895 25.3982C46.0897 22.8165 46.8548 19.8595 46.8098 16.8724L44.2744 3.64841C44.2744 3.64841 44.2744 3.55833 44.2744 3.5133C44.2744 2.97293 44.0194 2.4626 43.5993 2.11736C43.1793 1.77213 42.6392 1.62202 42.0991 1.71208C41.229 1.86218 40.5688 2.67274 40.5388 3.61838L42.7592 18.1483C42.8042 18.4635 42.6692 18.7637 42.4141 18.9438C42.1591 19.1239 41.8141 19.139 41.544 18.9738C40.5839 18.4185 39.4436 18.2533 38.3635 18.5536C37.2833 18.8387 36.3832 19.5292 35.8131 20.5049L30.7273 29.2709C29.9771 30.5467 29.5121 31.9427 29.332 33.4137C29.137 34.9898 29.272 36.5658 29.7371 38.0818L32.1675 44.9715C32.3175 45.3918 32.0925 45.8722 31.6724 46.0223C31.5824 46.0523 31.4924 46.0673 31.4024 46.0673L31.3874 46.0072Z" fill="#0E1681"/>
<path d="M31.7934 46.0972C31.1933 46.0972 30.6232 46.0672 30.0831 46.0071C27.2777 45.6769 26.4675 44.5962 26.2725 43.7406C25.9874 42.4497 27.0076 41.0387 29.168 39.8079C29.5581 39.5827 30.0531 39.7178 30.2782 40.1081C30.5032 40.4984 30.3681 40.9937 29.9781 41.2188C28.4028 42.1345 27.7727 42.975 27.8627 43.3803C27.9378 43.7406 28.7179 44.2059 30.2631 44.386C31.9884 44.5962 34.2088 44.416 36.4891 43.9057C38.7845 43.3953 40.8548 42.5998 42.3251 41.6692C43.6453 40.8436 44.1554 40.0931 44.0654 39.7328C43.9903 39.3876 43.2702 38.9523 41.86 38.7572C41.4099 38.6972 41.0949 38.2769 41.1699 37.8266C41.2299 37.3763 41.65 37.061 42.1 37.1361C44.7255 37.4963 45.4906 38.5471 45.6706 39.3726C45.8657 40.2282 45.5956 41.5491 43.1952 43.0501C41.5749 44.0708 39.3096 44.9414 36.8492 45.4968C35.0789 45.902 33.3236 46.0972 31.7784 46.0972H31.7934Z" fill="#0E1681"/>
<path d="M29.6629 50C29.4379 50 29.2278 49.9099 29.0628 49.7448C27.3976 47.9436 26.3324 43.9359 26.2874 43.7707C26.1673 43.3354 26.4374 42.8851 26.8724 42.765C27.3075 42.645 27.7576 42.9152 27.8776 43.3505C28.1477 44.4012 29.1228 47.3882 30.278 48.6191C30.5781 48.9493 30.5631 49.4746 30.233 49.7748C30.068 49.9249 29.873 50 29.6779 50H29.6629Z" fill="#0E1681"/>
<path d="M46.3445 43.7409C45.9544 43.7409 45.5944 43.4556 45.5343 43.0504C45.1743 40.7538 43.9441 39.4929 43.9441 39.4779C43.629 39.1627 43.614 38.6374 43.9441 38.3222C44.2591 38.0069 44.7843 37.9919 45.0993 38.3222C45.1593 38.3822 46.7046 39.9433 47.1546 42.7952C47.2296 43.2455 46.9146 43.6658 46.4795 43.7258C46.4345 43.7258 46.3895 43.7258 46.3445 43.7258V43.7409Z" fill="#0E1681"/>
<path d="M9.04877 24.8127C8.73372 24.8127 8.43367 24.6326 8.29865 24.3174L5.74823 18.5535C5.5682 18.1332 5.74822 17.6529 6.16829 17.4727C6.58836 17.2926 7.06844 17.4727 7.24847 17.893L9.79889 23.657C9.97892 24.0773 9.79889 24.5576 9.37883 24.7377C9.27381 24.7827 9.15379 24.8127 9.04877 24.8127Z" fill="#0E1681"/>
<path d="M17.0607 46.0073C16.9707 46.0073 16.8807 45.9923 16.7907 45.9622C16.3706 45.8121 16.1456 45.3469 16.2956 44.9116L18.726 37.9918C19.191 36.5058 19.3261 34.9297 19.116 33.3537C18.936 31.8827 18.4559 30.4867 17.7208 29.2109L12.635 20.4449C12.0799 19.4842 11.1648 18.7938 10.0846 18.4936C9.00444 18.2084 7.87923 18.3585 6.90407 18.9138C6.63403 19.079 6.28899 19.0639 6.03395 18.8838C5.77891 18.7037 5.64387 18.3885 5.68888 18.0883L7.90925 3.55836C7.87925 2.61272 7.21913 1.80218 6.34899 1.65208C5.8089 1.56202 5.26882 1.7121 4.84875 2.05734C4.42868 2.40258 4.18867 2.91293 4.17367 3.4533C4.17367 3.49833 4.17367 3.54336 4.17367 3.58839L1.63826 16.8124C1.59325 19.7994 2.35835 22.7565 3.85859 25.3382L7.75922 32.0628C7.81923 32.1529 7.84924 32.2579 7.86425 32.363C8.13429 34.4344 6.96408 39.9732 6.24396 41.9845C6.22896 42.4799 5.83893 42.8251 5.38886 42.8101C4.93879 42.7951 4.5937 42.4049 4.60871 41.9545C4.60871 41.8795 4.60872 41.8044 4.62372 41.7294C4.62372 41.6543 4.65373 41.5943 4.66873 41.5343C5.28383 39.8831 6.394 34.6445 6.25898 32.7382L2.44836 26.1638C0.78309 23.2968 -0.0570062 20.0246 0.00300339 16.7223C0.00300339 16.6773 0.00300339 16.6323 0.00300339 16.5872L2.53841 3.36325C2.58342 2.37257 3.03349 1.44194 3.79861 0.811512C4.57873 0.166072 5.61386 -0.119137 6.61902 0.0459754C8.28429 0.33117 9.54451 1.86222 9.54451 3.61842C9.54451 3.66345 9.54451 3.69347 9.54451 3.7385L7.53419 16.9175C10.0096 16.272 12.71 17.3077 14.0602 19.6193L19.146 28.3853C20.0012 29.8563 20.5413 31.4624 20.7513 33.1436C20.9763 34.9598 20.8263 36.761 20.2862 38.5022L17.8408 45.4519C17.7208 45.7821 17.4057 45.9923 17.0757 45.9923L17.0607 46.0073Z" fill="#0E1681"/>
<path d="M16.6412 46.0971C15.0959 46.0971 13.3406 45.887 11.5703 45.4967C6.73957 44.416 2.16383 41.9543 2.74892 39.3726C2.92895 38.547 3.70908 37.4962 6.3195 37.136C6.76957 37.076 7.17463 37.3912 7.24964 37.8265C7.30965 38.2768 6.99462 38.6821 6.55955 38.7571C5.14932 38.9523 4.4292 39.3876 4.35419 39.7328C4.17416 40.5283 6.69456 42.7198 11.9454 43.9056C14.2408 44.416 16.4461 44.5961 18.1714 44.386C19.7166 44.2058 20.4968 43.7555 20.5718 43.3803C20.6618 42.975 20.0467 42.1344 18.4564 41.2188C18.0664 40.9936 17.9313 40.4983 18.1564 40.108C18.3814 39.7178 18.8765 39.5827 19.2666 39.8078C21.4269 41.0537 22.4471 42.4497 22.162 43.7405C21.967 44.5961 21.1569 45.6768 18.3514 46.0071C17.8113 46.0671 17.2413 46.0971 16.6412 46.0971Z" fill="#0E1681"/>
<path d="M18.7861 50C18.5911 50 18.381 49.9249 18.231 49.7748C17.901 49.4746 17.886 48.9493 18.186 48.6191C19.3412 47.3732 20.3013 44.3862 20.5864 43.3505C20.7064 42.9152 21.1565 42.645 21.5915 42.765C22.0266 42.8851 22.2967 43.3354 22.1766 43.7707C22.1316 43.9359 21.0665 47.9436 19.4012 49.7448C19.2362 49.925 19.0261 50 18.8011 50H18.7861Z" fill="#0E1681"/>
<path d="M2.10288 43.7409C2.10288 43.7409 2.01287 43.7409 1.96786 43.7409C1.51779 43.6659 1.21773 43.2456 1.29274 42.8103C1.74281 39.9583 3.28806 38.3973 3.36308 38.3372C3.67813 38.022 4.20319 38.022 4.51824 38.3372C4.83329 38.6525 4.83329 39.1778 4.51824 39.493C4.50324 39.508 3.28808 40.7689 2.91302 43.0655C2.85301 43.4707 2.50794 43.7559 2.10288 43.7559V43.7409Z" fill="#0E1681"/>
<path d="M24.2167 9.03712C23.7666 9.03712 23.3916 8.67687 23.3916 8.21156V6.60547C23.3916 6.15517 23.7516 5.77991 24.2167 5.77991C24.6818 5.77991 25.0419 6.14016 25.0419 6.60547V8.21156C25.0419 8.66186 24.6818 9.03712 24.2167 9.03712Z" fill="#0E1681"/>
<path d="M39.3388 18.3736C39.3388 18.3736 39.2938 18.3736 39.2638 18.3736C38.8137 18.3286 38.4836 17.9383 38.5136 17.488C38.5436 17.0677 38.5737 16.6324 38.5737 16.2122C38.5737 14.486 38.2736 12.7898 37.6735 11.1987C37.5085 10.7785 37.7335 10.2981 38.1536 10.148C38.5737 9.98292 39.0537 10.2081 39.2037 10.6283C39.8638 12.4146 40.2089 14.2908 40.2089 16.2122C40.2089 16.6925 40.1939 17.1728 40.1489 17.6381C40.1039 18.0584 39.7589 18.3886 39.3388 18.3886V18.3736Z" fill="#0E1681"/>
<path d="M35.9342 7.35593C35.6942 7.35593 35.4692 7.25084 35.3042 7.05571C32.5587 3.73845 28.5231 1.83215 24.2324 1.83215C20.8269 1.83215 17.5263 3.04798 14.9309 5.25448C14.5858 5.53968 14.0758 5.50966 13.7757 5.16443C13.4757 4.81919 13.5207 4.30884 13.8657 4.00863C16.7462 1.54696 20.4368 0.196045 24.2324 0.196045C29.0182 0.196045 33.5189 2.31249 36.5793 6.02002C36.8644 6.36525 36.8194 6.8906 36.4744 7.17579C36.3243 7.29587 36.1443 7.35593 35.9493 7.35593H35.9342Z" fill="#0E1681"/>
<path d="M9.10938 18.3735C8.68931 18.3735 8.32929 18.0583 8.29928 17.623C8.25427 17.1576 8.23926 16.6773 8.23926 16.197C8.23926 12.6996 9.34941 9.36732 11.4497 6.59043C11.7198 6.23019 12.2299 6.15514 12.5899 6.42532C12.95 6.6955 13.025 7.20587 12.755 7.56611C10.8797 10.0728 9.87451 13.0599 9.87451 16.197C9.87451 16.6323 9.88953 17.0526 9.93454 17.4728C9.97954 17.9232 9.64949 18.3284 9.18442 18.3584C9.15441 18.3584 9.13938 18.3584 9.10938 18.3584V18.3735Z" fill="#0E1681"/>
<path d="M24.2166 32.1977C22.4163 32.1977 20.661 31.8975 18.9808 31.3121C18.5607 31.162 18.3207 30.6967 18.4707 30.2764C18.6207 29.8561 19.0858 29.616 19.5059 29.7661C22.5213 30.8168 25.8969 30.8168 28.9123 29.7661C29.3474 29.616 29.8125 29.8411 29.9475 30.2764C30.0975 30.6967 29.8725 31.177 29.4374 31.3121C27.7572 31.8975 25.9868 32.1977 24.2016 32.1977H24.2166Z" fill="#0E1681"/>
<path d="M24.2166 24.9782C21.4112 24.9782 19.1309 22.8167 19.1309 20.1749C19.1309 19.7246 19.4909 19.3494 19.956 19.3494C20.421 19.3494 20.7811 19.7096 20.7811 20.1749C20.7811 21.9161 22.3264 23.3421 24.2317 23.3421C26.137 23.3421 27.6822 21.9161 27.6822 20.1749C27.6822 18.4338 26.137 17.0078 24.2317 17.0078C21.4262 17.0078 19.1458 14.8463 19.1458 12.2045C19.1458 9.56271 21.4262 7.40125 24.2317 7.40125C27.0371 7.40125 29.3175 9.56271 29.3175 12.2045C29.3175 12.6548 28.9574 13.0301 28.4923 13.0301C28.0273 13.0301 27.6672 12.6698 27.6672 12.2045C27.6672 10.4633 26.122 9.03735 24.2166 9.03735C22.3113 9.03735 20.7661 10.4633 20.7661 12.2045C20.7661 13.9457 22.3113 15.3717 24.2166 15.3717C27.0221 15.3717 29.3025 17.5331 29.3025 20.1749C29.3025 22.8167 27.0221 24.9782 24.2166 24.9782Z" fill="#0E1681"/>
<path d="M24.2167 26.8089C23.7666 26.8089 23.3916 26.4486 23.3916 25.9833V24.1521C23.3916 23.7018 23.7516 23.3265 24.2167 23.3265C24.6818 23.3265 25.0419 23.6868 25.0419 24.1521V25.9833C25.0419 26.4336 24.6818 26.8089 24.2167 26.8089Z" fill="#0E1681"/>
</svg>
