<svg width="25" height="26" viewBox="0 0 25 26" fill="none" xmlns="http://www.w3.org/2000/svg">
<path d="M12.2635 6.18636C12.0477 6.18636 11.875 6.01361 11.875 5.79766V1.36334C11.875 1.14738 12.0477 0.974609 12.2635 0.974609C12.4793 0.974609 12.652 1.14738 12.652 1.36334V5.79766C12.652 6.01361 12.4793 6.18636 12.2635 6.18636Z" fill="white" stroke="white" stroke-width="0.5"/>
<path d="M5.75979 13.3563H0.665848C0.450003 13.3563 0.277344 13.1835 0.277344 12.9676C0.277344 12.7516 0.450003 12.5789 0.665848 12.5789H5.75979C5.97563 12.5789 6.14829 12.7516 6.14829 12.9676C6.14829 13.1835 5.97563 13.3563 5.75979 13.3563Z" fill="white" stroke="white" stroke-width="0.5"/>
<path d="M13.0845 17.3155C11.9837 17.3155 10.9477 16.8835 10.1706 16.1061C8.559 14.4936 8.559 11.8805 10.1706 10.2681C10.9477 9.49062 11.9837 9.05872 13.0845 9.05872C14.1853 9.05872 15.2214 9.49062 15.9984 10.2681C16.7755 11.0455 17.2072 12.0821 17.2072 13.1835C17.2072 14.2849 16.7755 15.3215 15.9984 16.0989C15.2214 16.8764 14.1853 17.3083 13.0845 17.3083V17.3155ZM13.0845 9.82897C12.1852 9.82897 11.3434 10.1817 10.7103 10.8152C9.4008 12.1253 9.4008 14.2561 10.7103 15.559C11.3434 16.1925 12.1852 16.5452 13.0845 16.5452C13.9839 16.5452 14.8257 16.1997 15.4588 15.559C16.092 14.9255 16.4445 14.0833 16.4445 13.1835C16.4445 12.2837 16.0991 11.4414 15.4588 10.808C14.8257 10.1745 13.9839 9.82176 13.0845 9.82176V9.82897Z" fill="white" stroke="white" stroke-width="0.5"/>
<path d="M21.6965 23.5782C21.2216 23.5782 20.7755 23.3911 20.4446 23.0599L15.7535 18.3665C13.516 19.5182 10.7675 19.1079 8.96884 17.3083C6.69528 15.0335 6.69528 11.3407 8.96884 9.06592C11.2424 6.79118 14.9333 6.79118 17.2069 9.06592C18.9984 10.8656 19.4157 13.6154 18.2645 15.8542L22.9556 20.5476C23.2937 20.886 23.4736 21.3323 23.4736 21.8074C23.4736 22.2825 23.2865 22.7288 22.9556 23.0599C22.6174 23.3983 22.1713 23.5782 21.7037 23.5782H21.6965ZM15.8183 17.5026C15.919 17.5026 16.0198 17.5386 16.0917 17.6178L20.9842 22.5129C21.3655 22.8944 22.0274 22.8944 22.4016 22.5129C22.5886 22.3257 22.6965 22.0737 22.6965 21.8002C22.6965 21.5266 22.5886 21.2819 22.4016 21.0875L17.5091 16.1925C17.3868 16.0701 17.358 15.8758 17.4515 15.7246C18.6027 13.745 18.2789 11.2255 16.6601 9.60582C15.7032 8.64841 14.4369 8.12291 13.0843 8.12291C11.7317 8.12291 10.4654 8.64841 9.50845 9.60582C7.53707 11.5782 7.53707 14.7888 9.50845 16.754C11.1273 18.3737 13.6383 18.6976 15.624 17.5458C15.6816 17.5098 15.7535 17.4955 15.8183 17.4955V17.5026Z" fill="white" stroke="white" stroke-width="0.5"/>
<path d="M17.3574 19.8134C17.2567 19.8134 17.1632 19.7774 17.084 19.6982C16.9329 19.547 16.9329 19.3023 17.084 19.1511L19.0482 17.1859C19.1993 17.0347 19.4439 17.0347 19.595 17.1859C19.7461 17.3371 19.7461 17.5818 19.595 17.733L17.6308 19.6982C17.5589 19.7702 17.4582 19.8134 17.3574 19.8134Z" fill="white" stroke="white" stroke-width="0.5"/>
<path d="M12.2635 24.9604C12.0477 24.9604 11.875 24.7876 11.875 24.5717V20.1374C11.875 19.9214 12.0477 19.7487 12.2635 19.7487C12.4793 19.7487 12.652 19.9214 12.652 20.1374V24.5717C12.652 24.7876 12.4793 24.9604 12.2635 24.9604Z" fill="white" stroke="white" stroke-width="0.5"/>
<path d="M23.8619 13.5795H18.5233C18.3074 13.5795 18.1348 13.4067 18.1348 13.1907C18.1348 12.9748 18.3074 12.802 18.5233 12.802H23.8619C24.0777 12.802 24.2504 12.9748 24.2504 13.1907C24.2504 13.4067 24.0777 13.5795 23.8619 13.5795Z" fill="white" stroke="white" stroke-width="0.5"/>
<path d="M12.2641 24.9602C11.041 24.9602 9.82511 24.773 8.66674 24.4059C8.60918 24.3843 8.55882 24.3555 8.50845 24.3123C6.17014 22.0016 4.7168 17.6536 4.7168 12.9674C4.7168 8.2811 6.17014 3.93316 8.50845 1.62242C8.55162 1.57923 8.60199 1.55044 8.66674 1.52884C10.9907 0.794586 13.5376 0.794586 15.8616 1.52884C15.9191 1.55044 15.9695 1.57923 16.0198 1.62242C17.7826 3.36448 19.0848 6.3159 19.5813 9.72801C19.6101 9.93677 19.4662 10.1383 19.2575 10.1671C19.0489 10.2031 18.8474 10.052 18.8186 9.84319C18.351 6.63983 17.1566 3.87559 15.545 2.24151C13.4225 1.59364 11.1058 1.59364 8.99052 2.24151C6.83207 4.42988 5.49385 8.52586 5.49385 12.9746C5.49385 17.4233 6.83207 21.5193 8.99052 23.7076C11.1058 24.3555 13.4297 24.3555 15.545 23.7076C16.0414 23.2037 16.5019 22.5919 16.9192 21.8792C17.0271 21.692 17.2646 21.6344 17.4444 21.7424C17.6315 21.8504 17.689 22.088 17.5811 22.2679C17.1135 23.067 16.5882 23.7652 16.0198 24.3267C15.9767 24.3699 15.9263 24.3987 15.8616 24.4203C14.7032 24.7874 13.4873 24.9746 12.2641 24.9746V24.9602Z" fill="white" stroke="white" stroke-width="0.5"/>
<path d="M12.2639 20.5187C7.58006 20.5187 3.23441 19.0646 0.924872 16.7251C0.881703 16.6819 0.852921 16.6315 0.831336 16.5667C0.464401 15.4005 0.277344 14.1912 0.277344 12.9674C0.277344 11.7437 0.464401 10.5271 0.831336 9.36814C0.852921 9.31055 0.881703 9.26016 0.924872 9.20977C3.23441 6.87024 7.58006 5.41614 12.2639 5.41614C16.9477 5.41614 21.2934 6.87024 23.6029 9.20977C23.6461 9.25296 23.6749 9.30336 23.6964 9.36814C24.0634 10.5343 24.2504 11.7437 24.2504 12.9674C24.2504 14.1912 24.0634 15.4077 23.6964 16.5667C23.6749 16.6243 23.6461 16.6819 23.6029 16.7251C23.1209 17.2146 22.5381 17.6753 21.869 18.0928C21.6891 18.208 21.4517 18.1504 21.3365 17.9704C21.2214 17.7905 21.279 17.5529 21.4588 17.4377C22.0416 17.0706 22.5597 16.6747 22.9842 16.25C23.3079 15.1918 23.4734 14.0832 23.4734 12.9674C23.4734 11.8516 23.3079 10.7503 22.9842 9.68488C20.7969 7.52531 16.7031 6.18637 12.2567 6.18637C7.81031 6.18637 3.71646 7.52531 1.52923 9.68488C1.20547 10.7431 1.03999 11.8516 1.03999 12.9674C1.03999 14.0832 1.20547 15.1846 1.52923 16.25C3.71646 18.4095 7.81031 19.7485 12.2567 19.7485C13.4007 19.7485 14.5375 19.6621 15.6311 19.4821C15.8397 19.4461 16.0412 19.5901 16.0699 19.7989C16.1059 20.0076 15.962 20.2092 15.7534 20.238C14.6238 20.4179 13.4438 20.5115 12.2567 20.5115L12.2639 20.5187Z" fill="white" stroke="white" stroke-width="0.5"/>
<path d="M16.6816 17.409C16.5809 17.409 16.4874 17.373 16.4082 17.2938C16.2571 17.1427 16.2571 16.8979 16.4082 16.7467L17.509 15.6454C17.6601 15.4942 17.9048 15.4942 18.0559 15.6454C18.2069 15.7965 18.2069 16.0413 18.0559 16.1925L16.9551 17.2938C16.8831 17.3658 16.7824 17.409 16.6816 17.409Z" fill="white" stroke="white" stroke-width="0.5"/>
<path d="M12.2639 24.9602C5.65904 24.9602 0.277344 19.5829 0.277344 12.9674C0.277344 6.35194 5.65185 0.974609 12.2639 0.974609C18.8759 0.974609 24.2504 6.35194 24.2504 12.9674C24.2504 15.5157 23.459 17.956 21.9553 20.0148C21.8905 20.1084 21.7826 20.166 21.6747 20.1732C21.5596 20.1804 21.4517 20.1444 21.3725 20.058L17.5089 16.1924C17.3866 16.07 17.3578 15.8756 17.4514 15.7245C18.6025 13.7449 18.2788 11.2254 16.6599 9.60568C15.703 8.64827 14.4367 8.12278 13.0841 8.12278C11.7315 8.12278 10.4652 8.64827 9.50828 9.60568C8.55137 10.5631 8.02615 11.83 8.02615 13.1834C8.02615 14.5367 8.55137 15.8036 9.50828 16.7611C11.1271 18.3807 13.6381 18.7047 15.6239 17.5529C15.775 17.4665 15.9692 17.4881 16.0915 17.6105L20.0271 21.5481C20.1062 21.6273 20.1422 21.7281 20.1422 21.8361C20.1422 21.944 20.0918 22.0448 20.0055 22.1168C17.8471 23.9452 15.0986 24.953 12.2711 24.953L12.2639 24.9602ZM12.2639 1.75207C6.08354 1.75207 1.05437 6.78385 1.05437 12.9674C1.05437 19.151 6.08354 24.1828 12.2639 24.1828C14.7677 24.1828 17.2067 23.3406 19.1781 21.7929L15.7534 18.3663C13.5158 19.5181 10.7674 19.1078 8.96867 17.3082C7.86786 16.2068 7.2635 14.7455 7.2635 13.1834C7.2635 11.6213 7.86786 10.16 8.96867 9.05861C10.0695 7.95722 11.53 7.35255 13.0913 7.35255C14.6526 7.35255 16.1131 7.95722 17.2139 9.05861C19.0054 10.8582 19.4227 13.6081 18.2716 15.8468L21.6028 19.1798C22.8403 17.337 23.4878 15.1918 23.4878 12.953C23.4878 6.76946 18.4586 1.73766 12.2783 1.73766L12.2639 1.75207Z" fill="white" stroke="white" stroke-width="0.5"/>
</svg>
