<svg width="28" height="32" viewBox="0 0 28 32" fill="none" xmlns="http://www.w3.org/2000/svg">
<path d="M16.7363 13.9887C16.4257 13.4507 15.9256 13.114 15.3646 13.0651C14.8743 13.0218 14.37 13.2146 14.0027 13.601C13.3494 12.9637 12.4086 12.8871 11.735 13.4429C11.3118 13.7938 11.0474 14.3141 10.9935 14.9075C10.939 15.5164 11.1174 16.1168 11.4839 16.5556L13.6173 18.7766C13.7131 18.8737 13.8726 18.9283 14.0076 18.9283C14.1426 18.9283 14.3028 18.8737 14.3979 18.7766L16.2026 16.9455C16.2124 16.9356 16.2215 16.9257 16.2306 16.9143L16.4768 16.6216C17.086 15.8907 17.1952 14.7841 16.7363 13.9887ZM15.6983 15.9524L14.0076 17.7097L12.5618 16.2451L12.2617 15.8864C12.0735 15.6624 11.9798 15.3314 12.0099 15.0025C12.0379 14.692 12.1736 14.4155 12.3806 14.2439C12.4974 14.1475 12.6254 14.1064 12.7541 14.1064C12.9843 14.1064 13.2137 14.2397 13.3718 14.429L13.618 14.7231C13.7159 14.8394 13.8572 14.906 14.0076 14.906C14.1573 14.906 14.2993 14.8394 14.3972 14.7231L14.6994 14.3616C14.8589 14.1709 15.0687 14.0774 15.2772 14.0951C15.5073 14.1149 15.7123 14.2631 15.8564 14.5119C16.0956 14.9266 16.0256 15.5596 15.6983 15.9524Z" fill="#624CAB"/>
<path d="M23.7836 15.9999C24.453 15.3739 25.0644 14.7451 25.5988 14.1227C27.756 11.6111 28.4933 9.43625 27.6742 7.99933C26.5529 6.02933 23.0128 6.13212 18.8796 7.43931C17.9297 3.15762 16.2481 -0.000488281 14.0028 -0.000488281C11.7567 -0.000488281 10.0745 3.15691 9.12456 7.4386C4.99061 6.13141 1.45122 6.02862 0.329252 7.99933C-0.792719 9.97005 1.06441 13.0254 4.24776 15.9992C1.06371 18.9729 -0.793418 22.0283 0.329252 23.9997C0.930109 25.0552 2.22345 25.516 3.93089 25.516C5.4096 25.516 7.20517 25.1545 9.12176 24.5491C10.071 28.8364 11.7546 31.9995 14.0028 31.9995C16.2502 31.9995 17.9332 28.8364 18.8823 24.5484C20.7989 25.1538 22.5945 25.5153 24.0725 25.5153C25.7793 25.5153 27.0733 25.0538 27.6742 23.999C28.4933 22.5621 27.756 20.3879 25.5988 17.8756C25.0644 17.2539 24.453 16.6258 23.7836 15.9999ZM24.0536 7.52438C25.4533 7.52438 26.4193 7.86323 26.7914 8.51611C27.3664 9.52557 26.6508 11.3219 24.8287 13.4429C24.2985 14.0603 23.6871 14.6849 23.017 15.3073C21.9972 14.4169 20.8591 13.5379 19.6308 12.6929C19.5196 11.2276 19.3349 9.7985 19.0824 8.45444C21.0305 7.837 22.7386 7.52438 24.0536 7.52438ZM16.3712 20.1596C15.5668 20.6303 14.7771 21.0521 14.0014 21.4434C13.2256 21.0521 12.4366 20.6303 11.6322 20.1596C10.8271 19.6889 10.0717 19.2069 9.34909 18.7213C9.29523 17.8451 9.26166 16.9413 9.26166 15.9999C9.26166 15.0585 9.29523 14.1546 9.34909 13.2791C10.0717 12.7936 10.8271 12.3122 11.6322 11.8408C12.4394 11.3687 13.2284 10.9512 14.0063 10.5591C14.7806 10.9497 15.5682 11.3708 16.3712 11.8408C17.1602 12.3023 17.9199 12.7836 18.6529 13.2749C18.7068 14.1525 18.7404 15.057 18.7404 15.9999C18.7404 16.9427 18.7068 17.8472 18.6529 18.7248C17.9206 19.2168 17.1602 19.6981 16.3712 20.1596ZM18.5529 20.0214C18.4473 21.1592 18.3025 22.2346 18.1192 23.227C17.1798 22.8917 16.1893 22.482 15.1646 22.0063C15.7431 21.7029 16.3173 21.3853 16.8818 21.055C17.454 20.7197 18.008 20.373 18.5529 20.0214ZM12.8395 22.0056C11.8148 22.4812 10.8236 22.8917 9.8842 23.2263C9.70023 22.2324 9.55544 21.1556 9.44982 20.0157C9.99961 20.373 10.5564 20.7225 11.1223 21.0542C11.6875 21.3846 12.261 21.7022 12.8395 22.0056ZM8.29287 17.9855C7.37235 17.3227 6.52528 16.6577 5.76774 15.9999C6.52458 15.342 7.37235 14.6764 8.29287 14.0143C8.26279 14.675 8.24181 15.3378 8.24181 15.9999C8.24251 16.662 8.26279 17.3248 8.29287 17.9855ZM9.44982 11.9833C9.55544 10.8434 9.70093 9.7666 9.8842 8.77273C10.825 9.10875 11.8183 9.5199 12.8451 9.99628C12.2652 10.3004 11.6882 10.6137 11.123 10.9441C10.5564 11.2765 10.0003 11.626 9.44982 11.9833ZM15.1562 9.99486C16.1886 9.51494 17.1756 9.11796 18.1206 8.78124C18.3032 9.77085 18.4473 10.8434 18.5529 11.9776C18.008 11.626 17.454 11.2794 16.8818 10.9448C16.3145 10.613 15.7368 10.2997 15.1562 9.99486ZM19.7098 14.01C20.6164 14.6608 21.4711 15.3264 22.249 15.9999C21.4711 16.6733 20.6164 17.339 19.7098 17.9897C19.7399 17.3276 19.7609 16.6634 19.7609 15.9999C19.7609 15.3363 19.7406 14.6721 19.7098 14.01ZM14.0021 1.03378C15.4465 1.03378 16.9923 3.59429 17.9129 7.76753C16.6328 8.21909 15.315 8.77344 14.0021 9.41144C12.6891 8.77415 11.3706 8.21909 10.0905 7.76753C11.0111 3.59429 12.5583 1.03378 14.0021 1.03378ZM1.212 8.51682C1.93457 7.25004 4.89548 7.17277 8.92171 8.45161C8.66779 9.80062 8.48243 11.2354 8.37121 12.7064C7.1702 13.5393 6.03704 14.419 5.01159 15.3158C1.90589 12.4214 0.490134 9.78432 1.212 8.51682ZM1.212 23.4829C0.490833 22.2154 1.90589 19.5783 5.01229 16.6839C6.03774 17.5807 7.1709 18.4604 8.37121 19.2934C8.48243 20.7643 8.66779 22.1991 8.92171 23.5488C4.89618 24.827 1.93457 24.7497 1.212 23.4829ZM14.0021 30.9659C12.5583 30.9659 11.0118 28.4069 10.0912 24.2357C11.3706 23.7842 12.6898 23.2199 14.0021 22.5826C15.3143 23.2199 16.6328 23.7842 17.9122 24.2357C16.9916 28.4069 15.4458 30.9659 14.0021 30.9659ZM26.7914 23.4829C26.0688 24.7497 23.1079 24.827 19.0817 23.5488C19.3349 22.2034 19.5196 20.7728 19.6308 19.3061C20.8591 18.4604 21.9972 17.5821 23.017 16.6917C23.6871 17.3141 24.2985 17.938 24.8287 18.5554C26.6508 20.6764 27.3664 22.4727 26.7914 23.4829Z" fill="#624CAB"/>
</svg>
