<svg width="26" height="26" viewBox="0 0 26 26" fill="none" xmlns="http://www.w3.org/2000/svg">
<path d="M20.5114 12.9099C20.4594 12.9099 20.3999 12.8954 20.3479 12.8738C20.1399 12.7874 20.0507 12.5568 20.1399 12.3551L21.4029 9.58839C21.4921 9.38665 21.7298 9.3002 21.9378 9.38666C22.1459 9.47311 22.235 9.70367 22.1459 9.90541L20.8828 12.6721C20.816 12.8162 20.6674 12.9099 20.5114 12.9099Z" fill="#665EFF" stroke="#9384FE" stroke-width="0.5"/>
<path d="M16.5438 23.0832C16.3803 23.0832 16.2169 22.9823 16.1649 22.8238L14.9613 19.5023C14.6864 18.6521 14.6121 17.7876 14.7236 16.9158C14.8276 16.1088 15.095 15.3379 15.5185 14.6318L18.0371 10.4241C18.4235 9.77569 19.0475 9.31457 19.7905 9.12724C20.2808 8.99756 20.786 9.00476 21.269 9.12724L20.2734 2.80854C20.2734 2.80854 20.2734 2.77251 20.2734 2.7509C20.2734 1.90792 20.8975 1.16581 21.7221 1.03612C22.2199 0.95687 22.7251 1.08655 23.1189 1.40357C23.4978 1.70618 23.7281 2.15289 23.743 2.62842L24.9985 8.97595C24.9985 8.97595 24.9985 9.01917 24.9985 9.04079C25.0283 10.6331 24.6122 12.1965 23.7875 13.5727L21.9004 16.7284C21.8261 17.6435 22.3759 20.1508 22.6806 20.9505C22.6954 20.9793 22.7028 21.0154 22.7028 21.0442C22.7028 21.0802 22.7028 21.1234 22.7103 21.1595C22.7177 21.3756 22.5468 21.5557 22.3239 21.5701C22.101 21.5773 21.9153 21.4116 21.9004 21.1955C21.5438 20.2156 20.9643 17.557 21.0981 16.5627C21.0981 16.5123 21.1204 16.4619 21.1501 16.4186L23.0818 13.1908C23.8247 11.9516 24.2036 10.5322 24.1813 9.09843L22.9257 2.7509C22.9257 2.7509 22.9257 2.70766 22.9257 2.68605C22.9257 2.42667 22.7994 2.18171 22.5914 2.01599C22.3834 1.85028 22.1159 1.77823 21.8485 1.82146C21.4175 1.89351 21.0906 2.28258 21.0758 2.73649L22.1754 9.71084C22.1976 9.86214 22.1308 10.0062 22.0045 10.0927C21.8782 10.1792 21.7073 10.1864 21.5736 10.1071C21.0981 9.84053 20.5334 9.76128 19.9985 9.90538C19.4636 10.0423 19.0178 10.3737 18.7355 10.842L16.2169 15.0497C15.8454 15.6621 15.6151 16.3322 15.526 17.0383C15.4294 17.7948 15.4962 18.5513 15.7265 19.279L16.9301 22.586C17.0044 22.7878 16.893 23.0183 16.685 23.0904C16.6404 23.1048 16.5958 23.112 16.5512 23.112L16.5438 23.0832Z" fill="#665EFF" stroke="#9384FE" stroke-width="0.5"/>
<path d="M16.7446 23.127C16.4474 23.127 16.1651 23.1126 15.8976 23.0837C14.5083 22.9252 14.1071 22.4065 14.0105 21.9958C13.8694 21.3762 14.3746 20.6989 15.4444 20.1081C15.6376 20 15.8828 20.0649 15.9942 20.2522C16.1057 20.4395 16.0388 20.6773 15.8456 20.7854C15.0655 21.2249 14.7535 21.6283 14.7981 21.8229C14.8352 21.9958 15.2215 22.2192 15.9868 22.3056C16.8412 22.4065 17.9407 22.32 19.07 22.075C20.2067 21.8301 21.232 21.4482 21.9601 21.0015C22.6139 20.6053 22.8665 20.245 22.8219 20.0721C22.7848 19.9064 22.4281 19.6974 21.7298 19.6038C21.5069 19.5749 21.3509 19.3732 21.388 19.1571C21.4177 18.9409 21.6258 18.7896 21.8486 18.8256C23.1488 18.9985 23.5277 19.5029 23.6169 19.8992C23.7134 20.3099 23.5797 20.9439 22.391 21.6644C21.5886 22.1543 20.4668 22.5722 19.2483 22.8388C18.3717 23.0333 17.5024 23.127 16.7372 23.127H16.7446Z" fill="#665EFF" stroke="#9384FE" stroke-width="0.5"/>
<path d="M15.6887 24.9999C15.5773 24.9999 15.4733 24.9567 15.3915 24.8775C14.5669 24.0129 14.0394 22.0891 14.0171 22.0099C13.9576 21.8009 14.0914 21.5848 14.3068 21.5272C14.5223 21.4695 14.7452 21.5992 14.8046 21.8082C14.9383 22.3125 15.4213 23.7463 15.9933 24.3371C16.1419 24.4956 16.1345 24.7478 15.971 24.8919C15.8893 24.9639 15.7927 24.9999 15.6962 24.9999H15.6887Z" fill="#665EFF" stroke="#9384FE" stroke-width="0.5"/>
<path d="M23.9511 21.9955C23.7579 21.9955 23.5796 21.8586 23.5499 21.6641C23.3716 20.5617 22.7624 19.9565 22.7624 19.9493C22.6064 19.798 22.5989 19.5458 22.7624 19.3945C22.9184 19.2432 23.1785 19.236 23.3345 19.3945C23.3642 19.4233 24.1294 20.1727 24.3523 21.5416C24.3895 21.7577 24.2334 21.9595 24.018 21.9883C23.9957 21.9883 23.9734 21.9883 23.9511 21.9883V21.9955Z" fill="#665EFF" stroke="#9384FE" stroke-width="0.5"/>
<path d="M5.48142 12.9099C5.3254 12.9099 5.17681 12.8234 5.10995 12.6721L3.84692 9.90541C3.75777 9.70367 3.84692 9.47311 4.05495 9.38666C4.26297 9.3002 4.50072 9.38665 4.58987 9.58839L5.85289 12.3551C5.94205 12.5568 5.85289 12.7874 5.64487 12.8738C5.59286 12.8954 5.53343 12.9099 5.48142 12.9099Z" fill="#665EFF" stroke="#9384FE" stroke-width="0.5"/>
<path d="M9.4488 23.0835C9.40423 23.0835 9.35965 23.0763 9.31508 23.0619C9.10705 22.9899 8.9956 22.7665 9.06989 22.5576L10.2735 19.2361C10.5038 18.5228 10.5707 17.7663 10.4666 17.0098C10.3775 16.3037 10.1397 15.6336 9.7757 15.0212L7.2571 10.8135C6.98221 10.3524 6.52902 10.021 5.9941 9.87692C5.45918 9.74003 4.90195 9.81207 4.41903 10.0787C4.2853 10.1579 4.11443 10.1507 3.98813 10.0642C3.86183 9.97778 3.79496 9.82648 3.81724 9.68238L4.91681 2.70802C4.90196 2.25411 4.57505 1.86505 4.14414 1.793C3.87668 1.74977 3.60922 1.82181 3.40119 1.98752C3.19317 2.15324 3.07431 2.39821 3.06688 2.65759C3.06688 2.6792 3.06688 2.70081 3.06688 2.72243L1.8113 9.06996C1.78901 10.5037 2.1679 11.9231 2.91085 13.1624L4.84252 16.3902C4.87223 16.4334 4.8871 16.4838 4.89453 16.5343C5.02826 17.5285 4.44875 20.1872 4.09213 21.1526C4.0847 21.3904 3.89155 21.5561 3.66867 21.5489C3.44578 21.5417 3.27489 21.3544 3.28232 21.1382C3.28232 21.1022 3.28233 21.0661 3.28976 21.0301C3.28976 20.9941 3.30462 20.9653 3.31204 20.9365C3.61665 20.1439 4.16643 17.6294 4.09957 16.7144L2.21247 13.5586C1.3878 12.1825 0.971769 10.6118 1.00149 9.02673C1.00149 9.00512 1.00149 8.98351 1.00149 8.96189L2.25707 2.61436C2.27936 2.13884 2.50224 1.69213 2.88114 1.38953C3.26748 1.07971 3.78009 0.942814 4.27787 1.02207C5.10254 1.15896 5.72663 1.89387 5.72663 2.73684C5.72663 2.75846 5.72663 2.77287 5.72663 2.79448L4.73108 9.1204C5.95694 8.81059 7.29425 9.30773 7.96291 10.4173L10.4815 14.625C10.905 15.331 11.1724 16.102 11.2764 16.9089C11.3879 17.7807 11.3136 18.6453 11.0461 19.4811L9.83513 22.8169C9.77569 22.9755 9.61966 23.0763 9.45622 23.0763L9.4488 23.0835Z" fill="#665EFF" stroke="#9384FE" stroke-width="0.5"/>
<path d="M9.24074 23.1269C8.47551 23.1269 7.60625 23.026 6.72957 22.8387C4.33728 22.3199 2.07129 21.1383 2.36104 19.8991C2.45019 19.5028 2.83653 18.9985 4.12926 18.8255C4.35214 18.7967 4.55273 18.948 4.58988 19.157C4.6196 19.3731 4.46359 19.5677 4.24813 19.6037C3.54976 19.6974 3.19314 19.9063 3.156 20.072C3.06684 20.4539 4.31499 21.5058 6.91531 22.075C8.05202 22.3199 9.14415 22.4064 9.99854 22.3055C10.7638 22.2191 11.1501 22.0029 11.1873 21.8228C11.2318 21.6283 10.9272 21.2248 10.1397 20.7853C9.94654 20.6772 9.87966 20.4395 9.9911 20.2521C10.1025 20.0648 10.3477 19.9999 10.5409 20.108C11.6107 20.706 12.1159 21.3761 11.9748 21.9957C11.8782 22.4064 11.477 22.9251 10.0877 23.0837C9.82023 23.1125 9.53792 23.1269 9.24074 23.1269Z" fill="#665EFF" stroke="#9384FE" stroke-width="0.5"/>
<path d="M10.3027 24.9999C10.2061 24.9999 10.1021 24.9639 10.0278 24.8919C9.86439 24.7478 9.85696 24.4956 10.0055 24.3371C10.5776 23.7391 11.0531 22.3053 11.1943 21.8082C11.2537 21.5992 11.4766 21.4695 11.692 21.5272C11.9075 21.5848 12.0412 21.8009 11.9818 22.0099C11.9595 22.0891 11.432 24.0129 10.6073 24.8775C10.5256 24.9639 10.4216 24.9999 10.3102 24.9999H10.3027Z" fill="#665EFF" stroke="#9384FE" stroke-width="0.5"/>
<path d="M2.04068 21.9958C2.04068 21.9958 1.9961 21.9958 1.97381 21.9958C1.75093 21.9598 1.60233 21.758 1.63948 21.5491C1.86236 20.1802 2.6276 19.4309 2.66475 19.4021C2.82077 19.2507 3.08079 19.2507 3.23681 19.4021C3.39283 19.5534 3.39283 19.8055 3.23681 19.9568C3.22938 19.964 2.62761 20.5692 2.44187 21.6716C2.41216 21.8661 2.24127 22.003 2.04068 22.003V21.9958Z" fill="#665EFF" stroke="#9384FE" stroke-width="0.5"/>
<path d="M12.9936 5.33764C12.7707 5.33764 12.585 5.16472 12.585 4.94136V4.17044C12.585 3.9543 12.7633 3.77417 12.9936 3.77417C13.2239 3.77417 13.4022 3.94709 13.4022 4.17044V4.94136C13.4022 5.15751 13.2239 5.33764 12.9936 5.33764Z" fill="#665EFF" stroke="#9384FE" stroke-width="0.5"/>
<path d="M20.4805 9.81962C20.4805 9.81962 20.4582 9.81962 20.4434 9.81962C20.2205 9.79801 20.057 9.61068 20.0719 9.39453C20.0867 9.1928 20.1016 8.98385 20.1016 8.78211C20.1016 7.95355 19.953 7.13939 19.6558 6.37567C19.5741 6.17393 19.6856 5.94338 19.8936 5.87133C20.1016 5.79207 20.3393 5.90014 20.4136 6.10188C20.7405 6.95927 20.9114 7.85988 20.9114 8.78211C20.9114 9.01267 20.904 9.24322 20.8817 9.46658C20.8594 9.66831 20.6885 9.82682 20.4805 9.82682V9.81962Z" fill="#665EFF" stroke="#9384FE" stroke-width="0.5"/>
<path d="M18.7958 4.53074C18.6769 4.53074 18.5655 4.4803 18.4838 4.38664C17.1242 2.79435 15.1256 1.87933 13.0008 1.87933C11.3143 1.87933 9.67982 2.46292 8.39452 3.52205C8.22364 3.65894 7.97104 3.64453 7.82245 3.47882C7.67386 3.31311 7.69615 3.06814 7.86703 2.92404C9.29349 1.74243 11.1211 1.09399 13.0008 1.09399C15.3708 1.09399 17.5996 2.10989 19.1153 3.88951C19.2564 4.05522 19.2341 4.30738 19.0633 4.44428C18.989 4.50192 18.8998 4.53074 18.8032 4.53074H18.7958Z" fill="#665EFF" stroke="#9384FE" stroke-width="0.5"/>
<path d="M5.51098 9.81917C5.30295 9.81917 5.12466 9.66786 5.1098 9.45892C5.08751 9.23557 5.08008 9.00501 5.08008 8.77445C5.08008 7.09571 5.62985 5.49621 6.66998 4.1633C6.80371 3.99038 7.05632 3.95436 7.23462 4.08405C7.41293 4.21373 7.45009 4.45871 7.31636 4.63163C6.38767 5.83485 5.88989 7.26863 5.88989 8.77445C5.88989 8.9834 5.89732 9.18513 5.91961 9.38687C5.9419 9.60301 5.77845 9.79754 5.54814 9.81195C5.53328 9.81195 5.52584 9.81195 5.51098 9.81195V9.81917Z" fill="#665EFF" stroke="#9384FE" stroke-width="0.5"/>
<path d="M12.9927 16.4551C12.1012 16.4551 11.2319 16.311 10.3998 16.03C10.1918 15.958 10.0729 15.7346 10.1472 15.5329C10.2215 15.3311 10.4518 15.2159 10.6599 15.2879C12.1532 15.7923 13.8248 15.7923 15.3181 15.2879C15.5336 15.2159 15.7639 15.3239 15.8308 15.5329C15.9051 15.7346 15.7936 15.9652 15.5782 16.03C14.7461 16.311 13.8694 16.4551 12.9853 16.4551H12.9927Z" fill="#665EFF" stroke="#9384FE" stroke-width="0.5"/>
<path d="M12.9932 12.9894C11.6039 12.9894 10.4746 11.9519 10.4746 10.6839C10.4746 10.4677 10.6529 10.2876 10.8832 10.2876C11.1135 10.2876 11.2918 10.4605 11.2918 10.6839C11.2918 11.5196 12.0571 12.2041 13.0006 12.2041C13.9442 12.2041 14.7094 11.5196 14.7094 10.6839C14.7094 9.8481 13.9442 9.16363 13.0006 9.16363C11.6113 9.16363 10.482 8.12613 10.482 6.85806C10.482 5.59 11.6113 4.55249 13.0006 4.55249C14.3899 4.55249 15.5192 5.59 15.5192 6.85806C15.5192 7.07421 15.3409 7.25433 15.1106 7.25433C14.8803 7.25433 14.702 7.08141 14.702 6.85806C14.702 6.02229 13.9367 5.33782 12.9932 5.33782C12.0496 5.33782 11.2844 6.02229 11.2844 6.85806C11.2844 7.69383 12.0496 8.3783 12.9932 8.3783C14.3825 8.3783 15.5118 9.41581 15.5118 10.6839C15.5118 11.9519 14.3825 12.9894 12.9932 12.9894Z" fill="#665EFF" stroke="#9384FE" stroke-width="0.5"/>
<path d="M12.9936 13.8683C12.7707 13.8683 12.585 13.6954 12.585 13.472V12.593C12.585 12.3769 12.7633 12.1968 12.9936 12.1968C13.2239 12.1968 13.4022 12.3697 13.4022 12.593V13.472C13.4022 13.6882 13.2239 13.8683 12.9936 13.8683Z" fill="#665EFF" stroke="#9384FE" stroke-width="0.5"/>
</svg>
