<svg width="30" height="26" viewBox="0 0 30 26" fill="none" xmlns="http://www.w3.org/2000/svg">
<path d="M16.9605 24.9916C10.3514 24.9916 4.97518 19.6126 4.9668 13C4.9668 6.38743 10.343 1.00839 16.9522 1C23.5613 1 28.9375 6.37903 28.9459 12.9916C28.9459 19.6042 23.5697 24.9832 16.9605 24.9916ZM16.9605 1.72169C10.7456 1.72169 5.69649 6.78183 5.69649 13C5.69649 19.2182 10.754 24.2699 16.9689 24.2699C23.1839 24.2699 28.233 19.2098 28.233 12.9916C28.233 6.77343 23.1755 1.72169 16.9605 1.72169Z" fill="#6860FF" stroke="#6A62FF" stroke-width="0.5"/>
<path d="M16.9524 22.1638C11.8949 22.1638 7.78516 18.0519 7.78516 13.0002C7.78516 7.94003 11.8949 3.82812 16.944 3.82812C22.0015 3.82812 26.1113 7.94002 26.1113 12.9918C26.1113 18.0519 22.0015 22.1638 16.9524 22.1638ZM16.9524 4.54142C12.2975 4.54142 8.50646 8.33444 8.50646 13.0002C8.50646 17.6575 12.2975 21.4505 16.9608 21.4505C21.6241 21.4505 25.4067 17.6575 25.4067 12.9918C25.4067 8.33443 21.6157 4.54142 16.9524 4.54142Z" fill="#6860FF" stroke="#6A62FF" stroke-width="0.5"/>
<path d="M16.9527 18.8994C15.2249 18.8994 13.8242 17.498 13.8242 15.7693C13.8242 15.5679 13.9836 15.4085 14.1849 15.4085C14.3862 15.4085 14.5455 15.5679 14.5455 15.7693C14.5455 17.1036 15.6275 18.1861 16.961 18.1861C18.2946 18.1861 19.3766 17.1036 19.3766 15.7693C19.3766 14.435 18.2946 13.3525 16.961 13.3525C15.2333 13.3525 13.8326 11.9511 13.8326 10.2225C13.8326 8.49379 15.2333 7.09238 16.961 7.08398C18.6888 7.08398 20.0895 8.48539 20.0895 10.2141C20.0895 10.4155 19.9301 10.5749 19.7288 10.5749C19.5275 10.5749 19.3682 10.4155 19.3682 10.2141C19.3682 8.8798 18.2862 7.79728 16.9527 7.79728C15.6191 7.79728 14.5371 8.8798 14.5371 10.2141C14.5371 11.5483 15.6191 12.6308 16.9527 12.6308C18.6804 12.6308 20.0811 14.0322 20.0811 15.7609C20.0811 17.4896 18.6804 18.891 16.9527 18.891V18.8994Z" fill="#6860FF" stroke="#6A62FF" stroke-width="0.5"/>
<path d="M16.0296 20.4183C15.8283 20.4183 15.6689 20.2589 15.6689 20.0575V5.92602C15.6689 5.72462 15.8283 5.56519 16.0212 5.56519C16.2225 5.56519 16.3819 5.72462 16.3819 5.92602V20.0575C16.3819 20.2589 16.2225 20.4183 16.0296 20.4183Z" fill="#6860FF" stroke="#6A62FF" stroke-width="0.5"/>
<path d="M17.8831 20.4183C17.6818 20.4183 17.5225 20.2589 17.5225 20.0575V5.92602C17.5225 5.72462 17.6818 5.56519 17.8747 5.56519C18.076 5.56519 18.2354 5.72462 18.2354 5.92602V20.0575C18.2354 20.2589 18.076 20.4183 17.8831 20.4183Z" fill="#6860FF" stroke="#6A62FF" stroke-width="0.5"/>
<path d="M5.57915 10.9525H2.90362C2.70233 10.9525 2.54297 10.7931 2.54297 10.5917V7.08398C2.54297 6.88258 2.70233 6.72314 2.90362 6.72314H6.94626C7.07207 6.72314 7.19788 6.79027 7.25659 6.89936C7.32369 7.00845 7.3153 7.15113 7.25659 7.26022C6.62755 8.31756 6.18303 9.4672 5.93141 10.6588C5.89786 10.8266 5.74689 10.9441 5.57915 10.9441V10.9525ZM3.26427 10.2392H5.29398C5.52044 9.2658 5.8727 8.33432 6.334 7.44481H3.25588V10.2392H3.26427Z" fill="#6860FF" stroke="#6A62FF" stroke-width="0.5"/>
<path d="M5.37813 14.46H1.36065C1.15936 14.46 1 14.3005 1 14.0991V10.5914C1 10.39 1.15936 10.2306 1.36065 10.2306H5.57943C5.68846 10.2306 5.78911 10.2809 5.85621 10.3649C5.9233 10.4488 5.94847 10.5579 5.93169 10.667C5.77233 11.4306 5.68846 12.2194 5.68846 12.9998C5.68846 13.3439 5.70524 13.7047 5.73879 14.0656C5.74717 14.1663 5.71362 14.2669 5.64653 14.3425C5.57943 14.418 5.47878 14.46 5.37813 14.46ZM1.71291 13.7467H4.98393C4.96716 13.4949 4.95877 13.2432 4.95877 12.9998C4.95877 12.3117 5.01748 11.6236 5.1349 10.9523H1.7213V13.7467H1.71291Z" fill="#6860FF" stroke="#6A62FF" stroke-width="0.5"/>
<path d="M6.2756 17.9679H2.25811C2.05682 17.9679 1.89746 17.8085 1.89746 17.6071V14.0994C1.89746 13.898 2.05682 13.7385 2.25811 13.7385H5.37816C5.56268 13.7385 5.72204 13.8812 5.73881 14.0658C5.84785 15.2406 6.1414 16.3903 6.61108 17.4644C6.66141 17.5735 6.64463 17.6994 6.57754 17.8001C6.51044 17.9008 6.4014 17.9595 6.2756 17.9595V17.9679ZM2.61038 17.2546H5.73881C5.39494 16.3567 5.16848 15.4169 5.05106 14.4602H2.61876V17.2546H2.61038Z" fill="#6860FF" stroke="#6A62FF" stroke-width="0.5"/>
<path d="M8.63272 21.4839H3.22296C3.02166 21.4839 2.8623 21.3245 2.8623 21.1231V17.6154C2.8623 17.414 3.02166 17.2545 3.22296 17.2545H6.27591C6.41849 17.2545 6.5443 17.3384 6.60301 17.4727C7.14818 18.7398 7.9198 19.8811 8.88434 20.8713C8.98498 20.972 9.01853 21.1315 8.95982 21.2573C8.90111 21.3916 8.7753 21.4755 8.63272 21.4755V21.4839ZM3.58361 20.7706H7.81916C7.09786 19.923 6.50236 18.9916 6.04107 17.9762H3.57522V20.7706H3.58361Z" fill="#6860FF" stroke="#6A62FF" stroke-width="0.5"/>
<path d="M16.9608 24.9915H1.74639C1.5451 24.9915 1.38574 24.8321 1.38574 24.6391V21.1314C1.38574 20.93 1.5451 20.7705 1.74639 20.7705H8.63231C8.73296 20.7705 8.82522 20.8041 8.89231 20.8796C11.0311 23.0698 13.8995 24.2782 16.9608 24.2782C17.1621 24.2782 17.3215 24.4377 17.3215 24.6391C17.3215 24.8405 17.1621 24.9999 16.9608 24.9999V24.9915ZM2.10704 24.2782H12.8511C11.2324 23.6824 9.73942 22.7425 8.48134 21.4838H2.10704V24.2782Z" fill="#6860FF" stroke="#6A62FF" stroke-width="0.5"/>
</svg>
