<svg width="41" height="50" viewBox="0 0 41 50" fill="none" xmlns="http://www.w3.org/2000/svg">
<path d="M23.9515 50H3.84184C1.72583 50 0 48.2733 0 46.1562V3.84384C0 1.72672 1.72583 0 3.84184 0H23.9515C26.0675 0 27.7933 1.72672 27.7933 3.84384V6.63664C27.7933 7.1021 27.4181 7.46244 26.9679 7.46244H1.65079V39.5496H26.9679C27.4331 39.5496 27.7933 39.9249 27.7933 40.3754V46.1562C27.7933 48.2733 26.0675 50 23.9515 50ZM1.65079 41.2012V46.1411C1.65079 47.3423 2.62626 48.3334 3.84184 48.3334H23.9515C25.1521 48.3334 26.1425 47.3573 26.1425 46.1411V41.2012H1.65079ZM1.65079 5.78077H26.1425V3.82881C26.1425 2.62761 25.1671 1.63663 23.9515 1.63663H3.84184C2.64127 1.63663 1.65079 2.6126 1.65079 3.82881V5.78077Z" fill="#0E1681"/>
<path d="M17.2651 4.62017H13.3332C12.868 4.62017 12.5078 4.24479 12.5078 3.79434C12.5078 3.34389 12.883 2.96851 13.3332 2.96851H17.2651C17.7303 2.96851 18.0905 3.34389 18.0905 3.79434C18.0905 4.24479 17.7153 4.62017 17.2651 4.62017Z" fill="#0E1681"/>
<path d="M10.8453 4.62017H10.0949C9.62971 4.62017 9.26953 4.24479 9.26953 3.79434C9.26953 3.34389 9.64472 2.96851 10.0949 2.96851H10.8453C11.3105 2.96851 11.6707 3.34389 11.6707 3.79434C11.6707 4.24479 11.2955 4.62017 10.8453 4.62017Z" fill="#0E1681"/>
<path d="M13.8998 47.4412C12.4291 47.4412 11.2285 46.24 11.2285 44.7685C11.2285 43.2971 12.4291 42.0958 13.8998 42.0958C15.3705 42.0958 16.5711 43.2971 16.5711 44.7685C16.5711 46.24 15.3705 47.4412 13.8998 47.4412ZM13.8998 43.7625C13.3445 43.7625 12.8943 44.213 12.8943 44.7685C12.8943 45.3241 13.3445 45.7745 13.8998 45.7745C14.4551 45.7745 14.9053 45.3241 14.9053 44.7685C14.9053 44.213 14.4551 43.7625 13.8998 43.7625Z" fill="#0E1681"/>
<path d="M11.448 37.8853H6.0754C5.61018 37.8853 5.25 37.5099 5.25 37.0595V26.8493C5.25 26.3838 5.62518 26.0234 6.0754 26.0234H11.448C11.9132 26.0234 12.2734 26.3988 12.2734 26.8493V37.0595C12.2734 37.5249 11.8982 37.8853 11.448 37.8853ZM6.9158 36.2186H10.6226V27.6601H6.9158V36.2186Z" fill="#0E1681"/>
<path d="M20.6648 37.8914H15.2922C14.827 37.8914 14.4668 37.516 14.4668 37.0655V23.522C14.4668 23.0565 14.842 22.6962 15.2922 22.6962H20.6648C21.13 22.6962 21.4902 23.0715 21.4902 23.522V37.0655C21.4902 37.531 21.115 37.8914 20.6648 37.8914ZM16.1326 36.2247H19.8394V24.3328H16.1326V36.2247Z" fill="#0E1681"/>
<path d="M29.9265 37.8707H24.5539C24.0887 37.8707 23.7285 37.4954 23.7285 37.0449V18.5614C23.7285 18.096 24.1037 17.7356 24.5539 17.7356H29.9265C30.3917 17.7356 30.7519 18.111 30.7519 18.5614V37.0449C30.7519 37.5104 30.3767 37.8707 29.9265 37.8707ZM25.3943 36.2041H29.1011V19.3873H25.3943V36.2041Z" fill="#0E1681"/>
<path d="M39.1882 37.8787H33.8156C33.3504 37.8787 32.9902 37.5034 32.9902 37.0529V10.5965C32.9902 10.131 33.3654 9.77063 33.8156 9.77063H39.1882C39.6534 9.77063 40.0136 10.146 40.0136 10.5965V37.0529C40.0136 37.5184 39.6384 37.8787 39.1882 37.8787ZM34.656 36.2121H38.3628V11.4223H34.656V36.2121Z" fill="#0E1681"/>
<path d="M39.1688 37.8821H0.8254C0.360177 37.8821 0 37.5067 0 37.0563C0 36.6058 0.375184 36.2305 0.8254 36.2305H39.1688C39.634 36.2305 39.9942 36.6058 39.9942 37.0563C39.9942 37.5067 39.619 37.8821 39.1688 37.8821Z" fill="#0E1681"/>
<path d="M8.73555 24.6491C8.27033 24.6491 7.91016 24.2737 7.91016 23.8233V21.1656C7.91016 20.8052 8.13527 20.4899 8.48043 20.3698L17.7249 17.3368C17.98 17.2467 18.2501 17.2917 18.4752 17.4569C18.6853 17.607 18.8204 17.8623 18.8204 18.1325V20.7902C18.8204 21.2557 18.4452 21.616 17.995 21.616C17.5448 21.616 17.1696 21.2407 17.1696 20.7902V19.2737L9.57596 21.7662V23.8233C9.57596 24.2887 9.20078 24.6491 8.75056 24.6491H8.73555Z" fill="#0E1681"/>
<path d="M27.2141 16.0718C26.7488 16.0718 26.3887 15.6964 26.3887 15.2459V12.5883C26.3887 12.348 26.4937 12.1078 26.6888 11.9576L35.9332 4.19487C36.1734 3.98466 36.5185 3.93961 36.8187 4.07475C37.1038 4.20988 37.2989 4.51018 37.2989 4.8255V7.48317C37.2989 7.94863 36.9237 8.309 36.4735 8.309C36.0233 8.309 35.6481 7.93362 35.6481 7.48317V6.61229L28.0545 12.9787V15.2459C28.0545 15.7114 27.6793 16.0718 27.2291 16.0718H27.2141Z" fill="#0E1681"/>
<path d="M18.0118 18.9693C17.7266 18.9693 17.4565 18.8191 17.2914 18.5638C17.0513 18.1735 17.1864 17.6629 17.5765 17.4227L26.821 11.8822C27.2112 11.6419 27.7214 11.7771 27.9615 12.1675C28.2016 12.5578 28.0666 13.0683 27.6764 13.3086L18.432 18.8491C18.2969 18.9242 18.1468 18.9693 18.0118 18.9693Z" fill="#0E1681"/>
</svg>
