<svg width="25" height="26" viewBox="0 0 25 26" fill="none" xmlns="http://www.w3.org/2000/svg">
<path d="M6.96638 24.998H6.00861C5.56213 24.998 5.16606 24.7674 4.94282 24.3856C4.71958 24.0037 4.71958 23.5426 4.94282 23.1607L5.89338 21.5107C5.93659 21.4315 6.0086 21.381 6.09502 21.3594C6.18143 21.3378 6.26786 21.3594 6.33987 21.4027C7.09601 21.9142 7.90974 22.3321 8.75949 22.6419C8.84591 22.6708 8.91793 22.7428 8.94673 22.8293C8.97554 22.9157 8.96834 23.0166 8.92513 23.0958L8.26261 24.2414C7.99617 24.7098 7.49207 24.998 6.95917 24.998H6.96638ZM6.27505 22.1088L5.49011 23.4705C5.38209 23.6579 5.38209 23.8812 5.49011 24.0685C5.59813 24.2559 5.79257 24.3639 6.00861 24.3639H6.96638C7.27603 24.3639 7.57129 24.1982 7.72971 23.9244L8.205 23.0958C7.53528 22.8293 6.88716 22.4978 6.27505 22.1088Z" fill="#675FFF" stroke="#665EFF" stroke-width="0.5"/>
<path d="M18.8769 24.9981H17.9191C17.379 24.9981 16.8821 24.7099 16.6157 24.2416L15.9531 23.096C15.9099 23.0167 15.8955 22.9159 15.9315 22.8294C15.9603 22.7429 16.0324 22.6709 16.1188 22.6421C16.9757 22.3323 17.7895 21.9144 18.5384 21.4028C18.6104 21.3524 18.6968 21.338 18.7833 21.3596C18.8697 21.3812 18.9417 21.4316 18.9849 21.5109L19.9355 23.1608C20.1587 23.5427 20.1587 24.0038 19.9355 24.3857C19.7122 24.7676 19.3161 24.9981 18.8697 24.9981H18.8769ZM16.6805 23.1032L17.1558 23.9318C17.3142 24.2056 17.6022 24.3713 17.9191 24.3713H18.8769C19.0929 24.3713 19.2873 24.2632 19.3954 24.0759C19.5034 23.8886 19.5034 23.6652 19.3954 23.4779L18.6104 22.1161C17.9983 22.5052 17.3574 22.8366 16.6805 23.1032Z" fill="#675FFF" stroke="#665EFF" stroke-width="0.5"/>
<path d="M14.8602 9.86709L14.4121 10.3154L14.8602 10.7638L15.3083 10.3154L14.8602 9.86709Z" fill="#675FFF" stroke="#665EFF" stroke-width="0.5"/>
<path d="M16.1701 9.43486L15.7236 8.98815L16.5806 8.13075L17.0271 8.57745L16.1701 9.43486ZM17.8912 7.71286L17.4447 7.26613L18.3017 6.40873L18.7482 6.85546L17.8912 7.71286ZM19.6123 5.99085L19.1658 5.54414L20.0228 4.68674L20.4693 5.13345L19.6123 5.99085ZM21.3334 4.26885L20.887 3.82212L21.7439 2.96472L22.1904 3.41145L21.3334 4.26885Z" fill="#675FFF" stroke="#665EFF" stroke-width="0.5"/>
<path d="M23.0487 1.63504L22.6006 2.08337L23.0487 2.5317L23.4968 2.08336L23.0487 1.63504Z" fill="#675FFF" stroke="#665EFF" stroke-width="0.5"/>
<path d="M12.4461 23.9101C6.13062 23.9101 0.996094 18.7729 0.996094 12.4541C0.996094 6.13524 6.13062 0.998047 12.4461 0.998047C14.3041 0.998047 16.0828 1.43036 17.7247 2.28776C17.8111 2.33099 17.8759 2.41743 17.8903 2.5183C17.9047 2.61917 17.8759 2.72004 17.8039 2.79209L14.6857 5.91189C14.5633 6.03438 14.3617 6.03438 14.2393 5.91189L13.2455 4.91759C12.9214 4.59336 12.4317 4.4925 11.9997 4.67262C11.5748 4.85275 11.3011 5.27064 11.3083 5.73176L11.4092 12.6342C11.4164 13.2538 11.906 13.7438 12.5254 13.751L19.4242 13.8518C19.8995 13.8518 20.3099 13.5781 20.4828 13.1602C20.6628 12.7351 20.5692 12.2451 20.2379 11.9137L19.2442 10.9194C19.1217 10.7969 19.1217 10.5952 19.2442 10.4727L22.2687 7.44654C22.3407 7.37449 22.4415 7.33847 22.5423 7.36009C22.6432 7.3745 22.7296 7.43936 22.7728 7.53302C23.5073 9.0749 23.8818 10.7321 23.8818 12.4541C23.8818 18.7729 18.7473 23.9101 12.4317 23.9101H12.4461ZM12.4461 1.62488C6.47628 1.62488 1.62261 6.48108 1.62261 12.4541C1.62261 18.427 6.47628 23.2832 12.4461 23.2832C18.416 23.2832 23.2697 18.427 23.2697 12.4541C23.2697 10.977 22.9816 9.55763 22.4055 8.21749L19.9211 10.7032L20.6916 11.4742C21.2029 11.9857 21.3469 12.7422 21.0661 13.4123C20.7924 14.068 20.1515 14.4931 19.4386 14.4931L12.5181 14.3922C11.5604 14.3778 10.797 13.6141 10.7826 12.6558L10.6818 5.75338C10.6674 5.03287 11.0923 4.38441 11.762 4.10342C12.4245 3.82242 13.1879 3.97372 13.6992 4.47807L14.4697 5.24902L17.0478 2.66962C15.6075 1.98514 14.0592 1.6465 12.4461 1.6465V1.62488Z" fill="#675FFF" stroke="#665EFF" stroke-width="0.5"/>
<path d="M12.4462 22.1593C7.09567 22.1593 2.74609 17.8074 2.74609 12.4541C2.74609 7.10075 7.09567 2.7489 12.4462 2.7489C13.8145 2.7489 15.1467 3.02991 16.3925 3.5919C16.4861 3.63513 16.5582 3.72157 16.5726 3.82245C16.5942 3.92332 16.5582 4.0314 16.4861 4.10345L14.6786 5.91192C14.5562 6.03441 14.3546 6.03441 14.2321 5.91192L13.2384 4.91763C12.9143 4.5934 12.4246 4.49253 11.9925 4.67266C11.5677 4.85278 11.294 5.27068 11.3012 5.7318L11.402 12.6342C11.4092 13.2539 11.8989 13.7438 12.5182 13.751L19.4171 13.8519C19.8923 13.8519 20.3028 13.5781 20.4757 13.1602C20.6557 12.7351 20.5621 12.2451 20.2308 11.9137L19.237 10.9194C19.1146 10.7969 19.1146 10.5952 19.237 10.4727L20.9365 8.77233C21.0085 8.70028 21.1166 8.66423 21.2246 8.68585C21.3254 8.70746 21.4118 8.77953 21.455 8.8804C21.9087 10.0188 22.1319 11.222 22.1319 12.4469C22.1319 17.8002 17.7824 22.1521 12.4318 22.1521L12.4462 22.1593ZM12.4462 3.37574C7.44133 3.37574 3.3726 7.44659 3.3726 12.4541C3.3726 17.4616 7.44133 21.5324 12.4462 21.5324C17.4511 21.5324 21.5198 17.4616 21.5198 12.4541C21.5198 11.467 21.3614 10.5015 21.0518 9.57929L19.9284 10.7033L20.6989 11.4742C21.2102 11.9858 21.3542 12.7423 21.0734 13.4124C20.7997 14.068 20.1588 14.4931 19.4459 14.4931L12.5254 14.3922C11.5677 14.3778 10.8043 13.6141 10.7899 12.6558L10.6891 5.75341C10.6747 5.03291 11.0996 4.38445 11.7693 4.10345C12.4318 3.82246 13.1952 3.97375 13.7064 4.47811L14.477 5.24905L15.7228 4.00257C14.6786 3.59909 13.584 3.39735 12.4606 3.39735L12.4462 3.37574Z" fill="#675FFF" stroke="#665EFF" stroke-width="0.5"/>
<path d="M12.4467 19.0611C8.80287 19.0611 5.83594 16.0926 5.83594 12.4468C5.83594 9.36308 7.93151 6.71883 10.9344 6.01274C11.0281 5.99112 11.1217 6.01275 11.2009 6.07039C11.2729 6.12803 11.3233 6.22169 11.3233 6.31536L11.4169 12.6198C11.4241 13.2394 11.9138 13.7293 12.5331 13.7365L18.503 13.823C18.6038 13.823 18.6902 13.8734 18.7478 13.9527C18.8055 14.0319 18.8271 14.1328 18.7982 14.2265C17.9989 17.0653 15.3848 19.0539 12.4395 19.0539L12.4467 19.0611ZM10.6968 6.73324C8.19076 7.49697 6.46965 9.78817 6.46965 12.4468C6.46965 15.7467 9.14853 18.427 12.4467 18.427C14.9744 18.427 17.2284 16.8131 18.0709 14.457L12.5259 14.3706C11.5682 14.3562 10.8048 13.5924 10.7904 12.6342L10.704 6.73324H10.6968Z" fill="#675FFF" stroke="#665EFF" stroke-width="0.5"/>
<path d="M12.4459 15.6819C10.6672 15.6819 9.21973 14.2337 9.21973 12.454C9.21973 11.2652 9.86784 10.1772 10.912 9.61522C11.0056 9.56478 11.1281 9.56478 11.2217 9.61522C11.3153 9.67286 11.3729 9.77373 11.3801 9.8818L11.4233 12.6269C11.4305 13.2466 11.9202 13.7365 12.5395 13.7437L14.8583 13.7797C14.9735 13.7797 15.0816 13.8446 15.132 13.9526C15.1824 14.0535 15.1752 14.1832 15.1104 14.2769C14.5055 15.1559 13.5117 15.6819 12.4459 15.6819ZM10.7536 10.4798C10.1847 10.9698 9.85343 11.6831 9.85343 12.4468C9.85343 13.8806 11.02 15.0478 12.4531 15.0478C13.094 15.0478 13.6989 14.8101 14.167 14.3994L12.5323 14.3778C11.5745 14.3634 10.8112 13.5996 10.7968 12.6413L10.768 10.487L10.7536 10.4798Z" fill="#675FFF" stroke="#665EFF" stroke-width="0.5"/>
</svg>
