<svg width="31" height="34" viewBox="0 0 31 34" fill="none" xmlns="http://www.w3.org/2000/svg">
<path d="M28.4009 15.9255H27.1415C27.0128 12.9665 25.843 10.1478 23.8382 7.9656L25.7503 6.05569L25.6759 5.96419L28.4811 5.27228L31 2.75622H28.2177V0L25.6988 2.53321L25.0061 5.33518L24.9374 5.26656L23.0253 7.17647C20.8439 5.16562 18.0216 3.98897 15.0563 3.85414V2.59611C15.0563 2.44445 14.996 2.299 14.8886 2.19177C14.7813 2.08453 14.6357 2.02428 14.4838 2.02428C14.332 2.02428 14.1864 2.08453 14.079 2.19177C13.9717 2.299 13.9114 2.44445 13.9114 2.59611V3.85414C10.7544 4.00176 7.76619 5.32111 5.53194 7.55387C3.29769 9.78663 1.97824 12.772 1.83195 15.9255H0.572484C0.420652 15.9255 0.275038 15.9857 0.167677 16.093C0.0603152 16.2002 0 16.3457 0 16.4973C0 16.649 0.0603152 16.7944 0.167677 16.9017C0.275038 17.0089 0.420652 17.0691 0.572484 17.0691H1.83195C1.93159 19.2244 2.58077 21.3185 3.71792 23.1529C4.85507 24.9873 6.44249 26.5011 8.32964 27.5508L4.32225 33.0804C4.24071 33.2035 4.20998 33.3533 4.23649 33.4985C4.263 33.6437 4.3447 33.7731 4.4645 33.8595C4.5843 33.9459 4.73291 33.9827 4.87925 33.9622C5.0256 33.9417 5.15833 33.8655 5.24968 33.7494L9.36584 28.0654C10.801 28.7018 12.3427 29.0645 13.9114 29.1348V30.3871C13.9114 30.5387 13.9717 30.6842 14.079 30.7914C14.1864 30.8987 14.332 30.9589 14.4838 30.9589C14.6357 30.9589 14.7813 30.8987 14.8886 30.7914C14.996 30.6842 15.0563 30.5387 15.0563 30.3871V29.1348C16.625 29.0645 18.1667 28.7018 19.6018 28.0654L23.6779 33.7437C23.7205 33.808 23.7756 33.863 23.84 33.9054C23.9044 33.9479 23.9768 33.9769 24.0527 33.9907C24.1286 34.0046 24.2065 34.0029 24.2817 33.9859C24.357 33.9689 24.428 33.9369 24.4905 33.8917C24.5531 33.8466 24.6059 33.7893 24.6457 33.7233C24.6855 33.6573 24.7116 33.584 24.7223 33.5077C24.733 33.4313 24.7282 33.3536 24.7081 33.2792C24.688 33.2048 24.653 33.1353 24.6054 33.0747L20.598 27.5451C22.4929 26.5016 24.0889 24.9912 25.2343 23.1575C26.3796 21.3238 27.0362 19.2279 27.1415 17.0691H28.3952C28.547 17.0691 28.6926 17.0089 28.8 16.9017C28.9074 16.7944 28.9677 16.649 28.9677 16.4973C28.9677 16.3457 28.9074 16.2002 28.8 16.093C28.6926 15.9857 28.547 15.9255 28.3952 15.9255H28.4009ZM14.4838 28.0083C12.6091 28.0155 10.7609 27.5658 9.09955 26.6982C7.43818 25.8305 6.01382 24.5711 4.95001 23.0292C3.88619 21.4873 3.21505 19.7094 2.9948 17.8498C2.77454 15.9901 3.01182 14.1049 3.68605 12.3576C4.36028 10.6103 5.45111 9.05366 6.86392 7.82274C8.27673 6.59182 9.96885 5.72376 11.7935 5.29387C13.6182 4.86399 15.5203 4.88524 17.3349 5.3558C19.1495 5.82635 20.8218 6.732 22.2066 7.99419L20.9644 9.23506C19.0593 7.54199 16.5687 6.65718 14.0212 6.76845C11.4737 6.87973 9.06996 7.97833 7.32018 9.83105C5.5704 11.6838 4.61239 14.1447 4.64954 16.6915C4.68668 19.2382 5.71605 21.6702 7.51912 23.4712C9.32219 25.2722 11.757 26.3004 14.3067 26.3375C16.8563 26.3746 19.3201 25.4177 21.1749 23.67C23.0297 21.9222 24.1296 19.5211 24.241 16.9765C24.3524 14.432 23.4666 11.9442 21.7716 10.0413L23.0139 8.80047C24.5142 10.4491 25.5024 12.4977 25.8585 14.6971C26.2145 16.8965 25.9229 19.1518 25.0191 21.1887C24.1154 23.2256 22.6384 24.9562 20.768 26.1699C18.8976 27.3837 16.7143 28.0284 14.4838 28.0254V28.0083ZM14.4838 13.3008L13.3045 17.7096L17.7184 16.5316L16.5104 15.3251L18.8004 13.0377C19.7249 14.0938 20.2086 15.464 20.1517 16.8657C20.0948 18.2675 19.5017 19.594 18.4946 20.5719C17.4875 21.5498 16.1432 22.1044 14.7388 22.1216C13.3344 22.1387 11.9769 21.617 10.9462 20.664C9.91552 19.711 9.29014 18.3993 9.19899 16.9993C9.10785 15.5994 9.55789 14.2179 10.4563 13.1395C11.3548 12.0612 12.6332 11.3683 14.028 11.2036C15.4228 11.0389 16.8277 11.415 17.9531 12.2543L15.6632 14.5416L14.4838 13.3008ZM18.766 11.4366C17.4814 10.3083 15.8102 9.71914 14.1011 9.79213C12.3921 9.86511 10.7773 10.5946 9.59376 11.8283C8.41026 13.062 7.74952 14.7047 7.74945 16.4133C7.74938 18.122 8.40999 19.7647 9.59338 20.9985C10.7768 22.2323 12.3915 22.9619 14.1006 23.035C15.8096 23.1082 17.4809 22.5191 18.7656 21.3909C20.0503 20.2627 20.8491 18.6825 20.9953 16.9801C21.1416 15.2777 20.6239 13.5846 19.5503 12.2543L20.9644 10.8419C22.4434 12.5285 23.2082 14.7234 23.0971 16.9628C22.986 19.2023 22.0076 21.3109 20.3688 22.8431C18.73 24.3754 16.5591 25.2113 14.3147 25.1743C12.0702 25.1373 9.92809 24.2302 8.34081 22.6448C6.75354 21.0593 5.84545 18.9196 5.8084 16.6777C5.77134 14.4359 6.60823 12.2674 8.14224 10.6305C9.67625 8.99353 11.7872 8.01634 14.0292 7.90534C16.2712 7.79435 18.4686 8.55824 20.1572 10.0356L18.766 11.4366Z" fill="white"/>
</svg>
