<svg width="34" height="30" viewBox="0 0 34 30" fill="none" xmlns="http://www.w3.org/2000/svg">
<path d="M23.1153 24.0363H20.282C19.5181 24.0363 18.8895 23.4074 18.8895 22.6431V21.6369C18.319 21.4627 17.7581 21.2306 17.236 20.95L16.5204 21.6659C15.9789 22.2077 15.0989 22.2077 14.5574 21.6659L12.5557 19.6632C12.0142 19.1214 12.0142 18.2409 12.5557 17.6991L13.2713 16.9832C12.9908 16.4511 12.7587 15.8996 12.5847 15.3287H11.579C10.8151 15.3287 10.1865 14.6999 10.1865 13.9356V11.1008C10.1865 10.3364 10.8054 9.70754 11.579 9.70754H12.5847C12.7587 9.13672 12.9908 8.57557 13.2713 8.05312L12.5557 7.33718C12.0142 6.79537 12.0142 5.91494 12.5557 5.37314L14.5574 3.3704C15.0989 2.8286 15.9789 2.8286 16.5204 3.3704L17.236 4.08634C17.7678 3.80577 18.319 3.57357 18.8895 3.39942V2.39321C18.8895 1.62888 19.5084 1 20.282 1H23.1153C23.8792 1 24.5078 1.62888 24.5078 2.39321V3.39942C25.0783 3.57357 25.6392 3.80577 26.1614 4.08634L26.8769 3.3704C27.4185 2.8286 28.2984 2.8286 28.84 3.3704L30.8417 5.37314C31.1027 5.63437 31.2478 5.98266 31.2478 6.35999C31.2478 6.73731 31.1027 7.0856 30.8417 7.34683L30.1261 8.0628C30.4065 8.59493 30.6386 9.1464 30.8126 9.71723H31.8183C32.5823 9.71723 33.2108 10.3364 33.2108 11.1104V13.9452C33.2108 14.7095 32.5919 15.3384 31.8183 15.3384H30.8126C30.6386 15.9093 30.4065 16.4704 30.1261 16.9929L30.8417 17.7088C31.1027 17.9701 31.2478 18.3183 31.2478 18.6957C31.2478 19.073 31.1027 19.4213 30.8417 19.6825L28.84 21.6853C28.3178 22.2077 27.3991 22.2077 26.8769 21.6853L26.1614 20.9693C25.6295 21.2499 25.0783 21.4821 24.5078 21.6562V22.6625C24.5078 23.4268 23.8792 24.0557 23.1153 24.0557V24.0363ZM17.1683 20.1179C17.236 20.1179 17.294 20.1372 17.352 20.1663C17.9806 20.5242 18.6575 20.8048 19.3634 20.9983C19.5278 21.0467 19.6341 21.1918 19.6341 21.3563V22.6431C19.6341 23.0011 19.9242 23.2816 20.2723 23.2816H23.1057C23.4634 23.2816 23.7439 22.9914 23.7439 22.6431V21.3563C23.7439 21.1918 23.8599 21.037 24.0146 20.9983C24.7109 20.8048 25.3878 20.5242 26.026 20.1663C26.171 20.0792 26.3548 20.1082 26.4805 20.2243L27.3895 21.1338C27.6312 21.3757 28.0567 21.3757 28.2984 21.1338L30.3001 19.1311C30.4258 19.0053 30.4839 18.8505 30.4839 18.6763C30.4839 18.5022 30.4162 18.3474 30.3001 18.2216L29.3912 17.3121C29.2751 17.196 29.2461 17.0122 29.3331 16.8574C29.6909 16.2189 29.9714 15.5513 30.1648 14.845C30.2131 14.6805 30.3582 14.5741 30.5225 14.5741H31.8087C32.1664 14.5741 32.4469 14.2839 32.4469 13.9356V11.1008C32.4469 10.7428 32.1568 10.4622 31.8087 10.4622H30.5225C30.3582 10.4622 30.2034 10.3461 30.1648 10.1913C29.9714 9.49469 29.6909 8.81745 29.3331 8.1789C29.2461 8.03377 29.2751 7.84995 29.3912 7.72417L30.3001 6.81471C30.4258 6.68894 30.4839 6.53414 30.4839 6.35999C30.4839 6.18583 30.4162 6.03103 30.3001 5.90526L28.2984 3.90251C28.047 3.65096 27.6409 3.65096 27.3895 3.90251L26.4805 4.81197C26.3644 4.92807 26.1807 4.9571 26.026 4.87002C25.3974 4.51204 24.7205 4.23148 24.0146 4.03798C23.8502 3.9896 23.7439 3.84448 23.7439 3.68001V2.39321C23.7439 2.03523 23.4538 1.75465 23.1057 1.75465H20.2723C19.9146 1.75465 19.6341 2.04491 19.6341 2.39321V3.68001C19.6341 3.84448 19.5181 3.99928 19.3634 4.03798C18.6575 4.23148 17.9902 4.51204 17.352 4.87002C17.207 4.9571 17.0232 4.92807 16.8975 4.81197L15.9885 3.90251C15.7371 3.65096 15.331 3.65096 15.0795 3.90251L13.0779 5.90526C12.8264 6.15681 12.8264 6.56316 13.0779 6.81471L13.9868 7.72417C14.1029 7.84027 14.1319 8.0241 14.0449 8.1789C13.6871 8.81745 13.4066 9.49469 13.2132 10.1913C13.1649 10.3558 13.0198 10.4622 12.8554 10.4622H11.5693C11.2116 10.4622 10.9311 10.7525 10.9311 11.1008V13.9356C10.9311 14.2935 11.2212 14.5741 11.5693 14.5741H12.8554C13.0198 14.5741 13.1746 14.6902 13.2132 14.845C13.4066 15.5416 13.6871 16.2189 14.0449 16.8574C14.1319 17.0025 14.1029 17.1864 13.9868 17.3121L13.0779 18.2216C12.9522 18.3474 12.8941 18.5022 12.8941 18.6763C12.8941 18.8505 12.9618 19.0053 13.0779 19.1311L15.0795 21.1338C15.331 21.3853 15.7371 21.3853 15.9885 21.1338L16.8975 20.2243C16.9652 20.1566 17.0619 20.1179 17.1586 20.1179H17.1683Z" fill="#08CE8A" stroke="#08CE8A" stroke-width="0.5"/>
<path d="M10.0812 8.9423C9.87816 8.9423 9.7041 8.77781 9.7041 8.56495V7.34589C9.7041 6.85246 9.97486 6.38806 10.41 6.13651C10.5937 6.03008 10.8161 6.09783 10.9225 6.28166C11.0289 6.46548 10.9612 6.68801 10.7775 6.79443C10.5744 6.91053 10.4487 7.11369 10.4487 7.34589V8.56495C10.4487 8.76813 10.2843 8.9423 10.0716 8.9423H10.0812Z" fill="#08CE8A" stroke="#08CE8A" stroke-width="0.5"/>
<path d="M13.9288 28.999H11.0955C10.3316 28.999 9.703 28.3701 9.703 27.6058V26.5996C9.13247 26.4254 8.57161 26.1932 8.04943 25.9126L7.33386 26.6286C6.81168 27.1511 5.89303 27.1511 5.37085 26.6286L3.36915 24.6259C3.10806 24.3646 2.96301 24.0163 2.96301 23.639C2.96301 23.2617 3.10806 22.9134 3.36915 22.6521L4.08473 21.9362C3.8043 21.4041 3.57222 20.8526 3.39816 20.2818H2.39248C1.62855 20.2818 1 19.6529 1 18.8886V16.0538C1 15.2894 1.61888 14.6606 2.39248 14.6606H3.39816C3.57222 14.0897 3.8043 13.5286 4.08473 13.0061L3.36915 12.2902C3.10806 12.0289 2.96301 11.6807 2.96301 11.3033C2.96301 10.926 3.10806 10.5777 3.36915 10.3165L5.37085 8.31371C5.89303 7.79126 6.81168 7.79126 7.33386 8.31371L8.04943 9.02969C8.59095 8.74911 9.16148 8.50723 9.76102 8.33308C9.96409 8.27503 10.1672 8.38144 10.2252 8.58461C10.2832 8.77812 10.1768 8.99098 9.97376 9.04903C9.33554 9.24253 8.72634 9.50377 8.16548 9.82305C8.02043 9.91012 7.8367 9.88107 7.71099 9.76497L6.802 8.85554C6.56025 8.61367 6.13477 8.61367 5.89302 8.85554L3.89134 10.8583C3.76563 10.984 3.7076 11.1388 3.7076 11.313C3.7076 11.4871 3.7753 11.6419 3.89134 11.7677L4.80032 12.6772C4.91636 12.7933 4.94537 12.9771 4.85834 13.1319C4.50055 13.7608 4.22012 14.438 4.02672 15.1443C3.97837 15.3088 3.83331 15.4152 3.66892 15.4152H2.38282C2.02503 15.4152 1.74459 15.7055 1.74459 16.0538V18.8886C1.74459 19.2465 2.0347 19.5271 2.38282 19.5271H3.66892C3.83331 19.5271 3.98804 19.6432 4.02672 19.798C4.22012 20.5043 4.50055 21.1815 4.85834 21.8104C4.94537 21.9555 4.91636 22.1394 4.80032 22.2651L3.89134 23.1746C3.76563 23.3004 3.7076 23.4552 3.7076 23.6293C3.7076 23.8035 3.7753 23.9583 3.89134 24.0841L5.89302 26.0868C6.14444 26.3384 6.55058 26.3384 6.802 26.0868L7.71099 25.1773C7.82703 25.0612 8.01076 25.0322 8.16548 25.1193C8.79403 25.4773 9.47093 25.7578 10.1768 25.9513C10.3412 25.9997 10.4476 26.1448 10.4476 26.3093V27.5961C10.4476 27.9541 10.7377 28.2347 11.0858 28.2347H13.9191C14.2769 28.2347 14.5574 27.9444 14.5574 27.5961V26.3093C14.5574 26.1448 14.6734 25.99 14.8281 25.9513C15.534 25.7578 16.2013 25.4773 16.8395 25.1193C16.9845 25.0322 17.1683 25.0612 17.294 25.1773L18.2029 26.0868C18.4544 26.3384 18.8605 26.3384 19.1119 26.0868L19.8759 25.3225C20.0209 25.1773 20.2627 25.1773 20.4077 25.3225C20.5528 25.4676 20.5528 25.7095 20.4077 25.8546L19.6438 26.6189C19.1022 27.1607 18.2223 27.1607 17.6808 26.6189L16.9652 25.903C16.4333 26.1836 15.8821 26.4157 15.3116 26.5899V27.5961C15.3116 28.3604 14.6927 28.9893 13.9191 28.9893L13.9288 28.999Z" fill="#08CE8A" stroke="#08CE8A" stroke-width="0.5"/>
<path d="M12.5168 24.8681C8.44572 24.8681 5.12891 21.5496 5.12891 17.4764C5.12891 14.9996 6.357 12.7066 8.42638 11.3231C8.60044 11.207 8.83252 11.2553 8.94856 11.4295C9.0646 11.6036 9.01625 11.8358 8.84219 11.9519C6.98554 13.1903 5.88317 15.2511 5.88317 17.4764C5.88317 21.1335 8.86153 24.1135 12.5168 24.1135C13.6385 24.1135 14.7506 23.8232 15.7369 23.2814C15.9206 23.1847 16.143 23.2427 16.2494 23.4265C16.3461 23.6104 16.2881 23.8329 16.1044 23.9393C15.0116 24.5489 13.7739 24.8681 12.5168 24.8681Z" fill="#08CE8A" stroke="#08CE8A" stroke-width="0.5"/>
<path d="M21.7033 19.9149C21.4422 19.9149 21.1715 19.9052 20.9104 19.8762L20.9877 19.1312C21.4422 19.1796 21.9161 19.1796 22.3705 19.1312L22.4479 19.8762C22.1965 19.9052 21.9451 19.9149 21.7033 19.9149ZM23.9661 19.5666L23.734 18.8506C24.1692 18.7055 24.6043 18.5217 25.0008 18.2895L25.3779 18.9377C24.9331 19.1989 24.4593 19.4021 23.9661 19.5666ZM19.4018 19.5569C18.9087 19.3924 18.4349 19.1796 17.99 18.928L18.3672 18.2798C18.7636 18.512 19.1891 18.7055 19.6339 18.8506L19.4018 19.5666V19.5569ZM26.6253 18.0379L26.1225 17.4768C26.4706 17.1671 26.7801 16.8188 27.0508 16.4512L27.6504 16.8963C27.3506 17.3123 26.9928 17.6993 26.6157 18.0379H26.6253ZM16.7426 18.0089C16.3655 17.6606 16.0174 17.2736 15.7079 16.8576L16.3171 16.4222C16.5879 16.7995 16.8973 17.1478 17.2454 17.4574L16.7426 18.0089ZM28.4336 15.5611L27.7471 15.2515C27.9405 14.8258 28.0855 14.3904 28.1822 13.9357L28.9171 14.0905C28.8108 14.5936 28.6464 15.087 28.4336 15.5611ZM14.944 15.5224C14.7312 15.0483 14.5765 14.5549 14.4702 14.0518L15.2051 13.897C15.3018 14.3517 15.4468 14.7968 15.6306 15.2128L14.944 15.5127V15.5224ZM28.3369 12.5618V12.5328C28.3369 12.0684 28.2886 11.604 28.1919 11.1493L28.9268 10.9945C29.0332 11.4976 29.0912 12.0104 29.0912 12.5328L28.3466 12.5618H28.3369ZM15.06 12.5231H14.3154C14.3154 12.0007 14.3734 11.4879 14.4798 10.9848L15.2147 11.1396C15.118 11.5943 15.0697 12.0587 15.0697 12.5231H15.06ZM27.7664 9.83347C27.5827 9.40776 27.3409 9.0111 27.0702 8.63377L27.6794 8.19838C27.9791 8.61441 28.2402 9.06914 28.453 9.53354L27.7664 9.84315V9.83347ZM15.6402 9.82381L14.9537 9.5142C15.1664 9.04012 15.4275 8.59507 15.7272 8.17904L16.3365 8.62408C16.0657 9.00141 15.8336 9.39811 15.6402 9.82381ZM26.1418 7.59853C25.7937 7.28893 25.4166 7.00836 25.0201 6.78583L25.3972 6.13759C25.8421 6.39882 26.2579 6.69874 26.6447 7.04705L26.1418 7.60822V7.59853ZM17.2648 7.59853L16.7619 7.03739C17.1487 6.68909 17.5645 6.38916 18.0094 6.12793L18.3865 6.77615C17.99 7.00835 17.6129 7.27925 17.2648 7.58885V7.59853ZM23.7533 6.22469C23.3182 6.07956 22.854 5.9828 22.3996 5.93442L22.4769 5.18945C22.9894 5.2475 23.5019 5.35392 23.9854 5.50872L23.7533 6.22469ZM19.6533 6.22469L19.4212 5.50872C19.9144 5.35392 20.4172 5.2475 20.9297 5.18945L21.0071 5.93442C20.5429 5.9828 20.0884 6.07956 19.6533 6.22469Z" fill="#08CE8A" stroke="#08CE8A" stroke-width="0.5"/>
</svg>
