<svg width="38" height="32" viewBox="0 0 38 32" fill="none" xmlns="http://www.w3.org/2000/svg">
<path d="M3.80097 28.8626H16.4708C16.8207 28.8626 17.1043 28.5816 17.1043 28.2351C17.1043 27.8886 16.8207 27.6077 16.4708 27.6077H3.80097C2.40376 27.6077 1.267 26.4818 1.267 25.098V12.8488L7.60193 15.3584V16.9414C7.67508 20.0141 12.067 20.352 12.6281 17.35C16.4967 18.9729 16.452 18.9699 20.3135 17.3499C20.8759 20.3535 25.2668 20.0127 25.3397 16.9413C25.3397 16.9414 25.3397 15.3583 25.3397 15.3583L26.8418 14.7634C27.6102 14.4436 27.15 13.3072 26.3716 13.598L25.3397 14.0067V13.1768C25.2332 9.85984 20.3777 9.86095 20.2718 13.1768C20.2718 13.1768 20.2718 16.015 20.2718 16.015L17.4282 17.1423C16.8114 17.3847 16.1315 17.3856 15.5153 17.1432L12.6699 16.015V13.1768C12.5633 9.85983 7.70786 9.86094 7.60192 13.1768C7.60192 13.1768 7.60192 14.0065 7.60192 14.0065L1.26699 11.497V7.52986C1.26699 6.14601 2.40374 5.02013 3.80096 5.02013C10.3689 5.0227 22.51 5.01825 29.1408 5.02013C30.5379 5.02013 31.6747 6.14601 31.6747 7.52986V9.41216C31.6844 10.2338 32.9297 10.2382 32.9416 9.41212C32.9416 9.41216 32.9416 7.52986 32.9416 7.52986C32.9416 5.45394 31.2366 3.76526 29.1407 3.76526H25.6207C26.6295 2.17708 25.3451 -0.0516852 23.4392 0.000705393C23.4392 0.000667747 9.5024 0.000667696 9.5024 0.000667696C7.59929 -0.0518735 6.30899 2.1775 7.32094 3.76526H3.80096C1.70499 3.76526 0 5.45394 0 7.52986V25.098C0 27.1739 1.705 28.8626 3.80097 28.8626ZM21.5388 16.4516V13.1768C21.5819 11.5232 24.0292 11.5214 24.0727 13.1768C24.0728 14.1045 24.0727 16.0088 24.0727 16.9414C24.0295 18.5951 21.5824 18.5966 21.5388 16.9413C21.5388 16.9414 21.5388 16.4516 21.5388 16.4516ZM8.86891 14.9225V13.1768C8.91207 11.5232 11.3593 11.5214 11.4029 13.1768C11.4029 13.4949 11.4029 16.7354 11.4029 16.9414C11.3595 18.5958 8.9123 18.5959 8.86891 16.9413C8.86891 16.9414 8.86891 14.9225 8.86891 14.9225ZM9.50241 1.25553H23.4393C25.1058 1.29712 25.1132 3.72157 23.4392 3.76526C23.4393 3.76526 9.50241 3.76526 9.50241 3.76526C7.83589 3.72363 7.82847 1.29923 9.50241 1.25553Z" fill="#624CAB"/>
<path d="M27.8738 13.1767V29.49C27.8738 29.9491 28.008 30.3742 28.2263 30.7448H26.2543C26.4725 30.3742 26.6068 29.9491 26.6068 29.49V25.0979C26.6068 23.7141 25.47 22.5882 24.0728 22.5882H20.2719C18.8746 22.5882 17.7379 23.7141 17.7379 25.0979V29.49C17.7379 29.9491 17.8721 30.3742 18.0904 30.7448H13.9369C13.1122 30.7567 13.0979 31.985 13.937 31.9997C21.4005 31.9996 29.9798 31.9997 37.3762 31.9997C38.2003 31.9883 38.2157 30.7594 37.3762 30.7448H36.3902C36.6084 30.3742 36.7427 29.9491 36.7427 29.49V13.1767C36.7427 11.7929 35.6059 10.667 34.2087 10.667H30.4077C29.0105 10.667 27.8738 11.7929 27.8738 13.1767ZM25.3398 29.49C25.3398 30.1821 24.7716 30.7448 24.0728 30.7448H20.2719C19.5731 30.7448 19.0049 30.1821 19.0049 29.49V25.0979C19.0049 24.4059 19.5731 23.8431 20.2719 23.8431H24.0728C24.7716 23.8431 25.3398 24.4059 25.3398 25.0979V29.49ZM35.4757 13.1767V29.49C35.4757 30.1821 34.9075 30.7448 34.2087 30.7448H30.4077C29.709 30.7448 29.1408 30.1821 29.1408 29.49V13.1767C29.1408 12.4846 29.709 11.9219 30.4077 11.9219H34.2087C34.9075 11.9219 35.4757 12.4846 35.4757 13.1767Z" fill="#624CAB"/>
<path d="M2.53394 15.6867V25.0982C2.53394 25.4447 2.81758 25.7256 3.16743 25.7256C3.51727 25.7256 3.80092 25.4447 3.80092 25.0982V15.6867C3.7877 14.8649 2.54828 14.8596 2.53394 15.6867Z" fill="#624CAB"/>
</svg>
