<svg width="25" height="26" viewBox="0 0 25 26" fill="none" xmlns="http://www.w3.org/2000/svg">
<path d="M19.9579 12.9013C19.9075 12.9013 19.8499 12.8869 19.7995 12.8653C19.5978 12.7788 19.5114 12.5483 19.5978 12.3465L20.822 9.57985C20.9084 9.37811 21.1389 9.29165 21.3405 9.37811C21.5421 9.46457 21.6286 9.69513 21.5421 9.89687L20.3179 12.6636C20.2531 12.8077 20.1091 12.9013 19.9579 12.9013Z" fill="#2D82FE" stroke="#2D82FE" stroke-width="0.5"/>
<path d="M16.1133 23.0746C15.9549 23.0746 15.7964 22.9738 15.746 22.8153L14.5794 19.4938C14.313 18.6436 14.241 17.779 14.349 16.9072C14.4498 16.1003 14.7091 15.3293 15.1195 14.6233L17.5607 10.4156C17.9352 9.76714 18.5401 9.30603 19.2602 9.1187C19.7355 8.98901 20.2252 8.99622 20.6932 9.1187L19.7283 2.79999C19.7283 2.79999 19.7283 2.76397 19.7283 2.74235C19.7283 1.89938 20.3332 1.15727 21.1325 1.02758C21.615 0.948325 22.1047 1.07801 22.4863 1.39503C22.8536 1.69763 23.0768 2.14435 23.0912 2.61987L24.3082 8.9674C24.3082 8.9674 24.3082 9.01063 24.3082 9.03224C24.337 10.6245 23.9337 12.188 23.1344 13.5641L21.3053 16.7199C21.2333 17.6349 21.7662 20.1422 22.0614 20.942C22.0759 20.9708 22.0831 21.0068 22.0831 21.0356C22.0831 21.0717 22.0831 21.1149 22.0903 21.1509C22.0975 21.3671 21.9318 21.5472 21.7158 21.5616C21.4997 21.5688 21.3197 21.4031 21.3053 21.1869C20.9597 20.2071 20.398 17.5485 20.5276 16.5542C20.5276 16.5037 20.5492 16.4533 20.578 16.4101L22.4503 13.1823C23.1704 11.943 23.5377 10.5237 23.5161 9.08988L22.2991 2.74235C22.2991 2.74235 22.2991 2.69912 22.2991 2.6775C22.2991 2.41812 22.1767 2.17316 21.975 2.00745C21.7734 1.84174 21.5142 1.76968 21.2549 1.81291C20.8373 1.88496 20.5204 2.27403 20.506 2.72794L21.5718 9.7023C21.5934 9.8536 21.5286 9.9977 21.4061 10.0842C21.2837 10.1706 21.1181 10.1778 20.9885 10.0986C20.5276 9.83199 19.9803 9.75273 19.4618 9.89683C18.9433 10.0337 18.5113 10.3652 18.2376 10.8335L15.7964 15.0411C15.4364 15.6536 15.2131 16.3236 15.1267 17.0297C15.0331 17.7862 15.0979 18.5427 15.3211 19.2704L16.4878 22.5775C16.5598 22.7792 16.4517 23.0098 16.2501 23.0818C16.2069 23.0962 16.1637 23.1034 16.1205 23.1034L16.1133 23.0746Z" fill="#2D82FE" stroke="#2D82FE" stroke-width="0.5"/>
<path d="M16.3073 23.1182C16.0193 23.1182 15.7456 23.1038 15.4864 23.0749C14.1398 22.9164 13.7509 22.3977 13.6573 21.987C13.5205 21.3674 14.0102 20.6901 15.0471 20.0993C15.2344 19.9912 15.472 20.0561 15.58 20.2434C15.688 20.4307 15.6232 20.6685 15.436 20.7766C14.6798 21.2161 14.3774 21.6195 14.4206 21.8141C14.4566 21.987 14.8311 22.2104 15.5728 22.2968C16.4009 22.3977 17.4667 22.3112 18.5613 22.0663C19.663 21.8213 20.6568 21.4394 21.3625 20.9927C21.9962 20.5965 22.2411 20.2362 22.1979 20.0633C22.1619 19.8976 21.8162 19.6886 21.1393 19.595C20.9233 19.5662 20.772 19.3644 20.808 19.1483C20.8369 18.9321 21.0385 18.7808 21.2545 18.8168C22.5147 18.9898 22.882 19.4941 22.9684 19.8904C23.062 20.3011 22.9324 20.9351 21.7802 21.6556C21.0025 22.1455 19.9151 22.5634 18.7341 22.83C17.8844 23.0245 17.0418 23.1182 16.3001 23.1182H16.3073Z" fill="#2D82FE" stroke="#2D82FE" stroke-width="0.5"/>
<path d="M15.2844 24.9914C15.1764 24.9914 15.0755 24.9482 14.9963 24.8689C14.197 24.0043 13.6857 22.0806 13.6641 22.0013C13.6065 21.7924 13.7361 21.5762 13.9449 21.5186C14.1538 21.461 14.3698 21.5907 14.4274 21.7996C14.5571 22.304 15.0251 23.7377 15.5796 24.3285C15.7236 24.487 15.7164 24.7392 15.558 24.8833C15.4788 24.9554 15.3852 24.9914 15.2916 24.9914H15.2844Z" fill="#2D82FE" stroke="#2D82FE" stroke-width="0.5"/>
<path d="M23.2918 21.9867C23.1045 21.9867 22.9317 21.8498 22.9029 21.6553C22.7301 20.5529 22.1396 19.9477 22.1396 19.9405C21.9883 19.7892 21.9811 19.537 22.1396 19.3857C22.2908 19.2344 22.5429 19.2272 22.6941 19.3857C22.7229 19.4145 23.4646 20.1639 23.6806 21.5328C23.7166 21.7489 23.5654 21.9507 23.3566 21.9795C23.335 21.9795 23.3134 21.9795 23.2918 21.9795V21.9867Z" fill="#2D82FE" stroke="#2D82FE" stroke-width="0.5"/>
<path d="M5.39107 12.9013C5.23984 12.9013 5.09582 12.8149 5.03101 12.6636L3.8068 9.89687C3.72039 9.69513 3.8068 9.46457 4.00844 9.37811C4.21007 9.29165 4.44051 9.37811 4.52692 9.57985L5.75113 12.3465C5.83754 12.5483 5.75113 12.7788 5.54949 12.8653C5.49909 12.8869 5.44148 12.9013 5.39107 12.9013Z" fill="#2D82FE" stroke="#2D82FE" stroke-width="0.5"/>
<path d="M9.23603 23.0747C9.19283 23.0747 9.14962 23.0675 9.10642 23.0531C8.90478 22.9811 8.79675 22.7577 8.86877 22.5488L10.0354 19.2273C10.2586 18.514 10.3234 17.7575 10.2226 17.001C10.1362 16.2949 9.90574 15.6249 9.55289 15.0124L7.11168 10.8048C6.84524 10.3436 6.40598 10.0122 5.8875 9.86813C5.36901 9.73124 4.82891 9.80328 4.36083 10.0699C4.23121 10.1491 4.06559 10.1419 3.94318 10.0555C3.82076 9.96899 3.75594 9.81769 3.77754 9.67359L4.84332 2.69923C4.82892 2.24532 4.51206 1.85626 4.09439 1.78421C3.83515 1.74098 3.57591 1.81302 3.37428 1.97874C3.17265 2.14445 3.05744 2.38942 3.05024 2.6488C3.05024 2.67041 3.05024 2.69203 3.05024 2.71364L1.83324 9.06117C1.81164 10.495 2.17888 11.9143 2.899 13.1536L4.7713 16.3814C4.80011 16.4246 4.81452 16.475 4.82172 16.5255C4.95134 17.5197 4.38964 20.1784 4.04398 21.1438C4.03678 21.3816 3.84957 21.5473 3.63353 21.5401C3.4175 21.5329 3.25186 21.3456 3.25906 21.1294C3.25906 21.0934 3.25906 21.0574 3.26626 21.0213C3.26626 20.9853 3.28067 20.9565 3.28787 20.9277C3.58311 20.1351 4.116 17.6206 4.05119 16.7056L2.22209 13.5498C1.42276 12.1737 1.01951 10.603 1.04832 9.01794C1.04832 8.99633 1.04832 8.97472 1.04832 8.9531L2.26531 2.60557C2.28692 2.13005 2.50295 1.68334 2.87021 1.38074C3.24467 1.07093 3.74153 0.934025 4.22401 1.01328C5.02334 1.15017 5.62824 1.88508 5.62824 2.72805C5.62824 2.74967 5.62824 2.76408 5.62824 2.78569L4.66329 9.11161C5.85148 8.8018 7.1477 9.29894 7.7958 10.4085L10.237 14.6162C10.6474 15.3223 10.9067 16.0932 11.0075 16.9001C11.1155 17.7719 11.0435 18.6365 10.7843 19.4723L9.61049 22.8082C9.55288 22.9667 9.40164 23.0675 9.24322 23.0675L9.23603 23.0747Z" fill="#2D82FE" stroke="#2D82FE" stroke-width="0.5"/>
<path d="M9.03441 23.1183C8.29269 23.1183 7.45015 23.0175 6.60041 22.8301C4.28164 22.3114 2.08528 21.1298 2.36612 19.8905C2.45254 19.4943 2.827 18.9899 4.08 18.817C4.29604 18.7882 4.49047 18.9395 4.52647 19.1484C4.55528 19.3646 4.40406 19.5591 4.19523 19.5951C3.51832 19.6888 3.17266 19.8977 3.13665 20.0635C3.05024 20.4453 4.26003 21.4972 6.78044 22.0664C7.88222 22.3114 8.94078 22.3979 9.76892 22.297C10.5106 22.2105 10.8851 21.9944 10.9211 21.8142C10.9643 21.6197 10.6691 21.2162 9.90574 20.7767C9.71851 20.6687 9.65369 20.4309 9.76171 20.2436C9.86972 20.0563 10.1074 19.9914 10.2946 20.0995C11.3316 20.6975 11.8212 21.3676 11.6844 21.9872C11.5908 22.3979 11.2019 22.9166 9.85533 23.0751C9.59608 23.1039 9.32245 23.1183 9.03441 23.1183Z" fill="#2D82FE" stroke="#2D82FE" stroke-width="0.5"/>
<path d="M10.0628 24.9914C9.96918 24.9914 9.86836 24.9554 9.79635 24.8833C9.63793 24.7392 9.63073 24.487 9.77475 24.3285C10.3292 23.7305 10.7901 22.2967 10.9269 21.7996C10.9845 21.5907 11.2006 21.461 11.4094 21.5186C11.6182 21.5762 11.7479 21.7924 11.6903 22.0013C11.6687 22.0806 11.1574 24.0043 10.358 24.8689C10.2788 24.9554 10.178 24.9914 10.07 24.9914H10.0628Z" fill="#2D82FE" stroke="#2D82FE" stroke-width="0.5"/>
<path d="M2.05649 21.9875C2.05649 21.9875 2.01329 21.9875 1.99168 21.9875C1.77565 21.9515 1.63162 21.7497 1.66762 21.5408C1.88366 20.1719 2.62538 19.4226 2.66139 19.3938C2.81261 19.2424 3.06464 19.2424 3.21587 19.3938C3.36709 19.5451 3.36709 19.7972 3.21587 19.9485C3.20867 19.9557 2.62539 20.5609 2.44536 21.6633C2.41656 21.8578 2.25092 21.9947 2.05649 21.9947V21.9875Z" fill="#2D82FE" stroke="#2D82FE" stroke-width="0.5"/>
<path d="M12.6714 5.32909C12.4554 5.32909 12.2754 5.15617 12.2754 4.93282V4.1619C12.2754 3.94575 12.4482 3.76562 12.6714 3.76562C12.8947 3.76562 13.0675 3.93855 13.0675 4.1619V4.93282C13.0675 5.14897 12.8947 5.32909 12.6714 5.32909Z" fill="#2D82FE" stroke="#2D82FE" stroke-width="0.5"/>
<path d="M19.929 9.81034C19.929 9.81034 19.9073 9.81034 19.8929 9.81034C19.6769 9.78873 19.5185 9.6014 19.5329 9.38526C19.5473 9.18352 19.5617 8.97457 19.5617 8.77283C19.5617 7.94427 19.4177 7.13011 19.1296 6.36639C19.0504 6.16466 19.1584 5.9341 19.3601 5.86205C19.5617 5.7828 19.7921 5.89087 19.8641 6.0926C20.181 6.94999 20.3466 7.8506 20.3466 8.77283C20.3466 9.00339 20.3394 9.23395 20.3178 9.4573C20.2962 9.65904 20.1306 9.81754 19.929 9.81754V9.81034Z" fill="#2D82FE" stroke="#2D82FE" stroke-width="0.5"/>
<path d="M18.2944 4.52171C18.1792 4.52171 18.0712 4.47127 17.992 4.3776C16.6741 2.78532 14.737 1.87029 12.6775 1.87029C11.0428 1.87029 9.45857 2.45389 8.21277 3.51301C8.04714 3.64991 7.80231 3.6355 7.65828 3.46979C7.51426 3.30407 7.53586 3.0591 7.70149 2.91501C9.08411 1.7334 10.8556 1.08496 12.6775 1.08496C14.9747 1.08496 17.135 2.10086 18.604 3.88047C18.7409 4.04619 18.7193 4.29835 18.5536 4.43524C18.4816 4.49288 18.3952 4.52171 18.3016 4.52171H18.2944Z" fill="#2D82FE" stroke="#2D82FE" stroke-width="0.5"/>
<path d="M5.41961 9.81013C5.21798 9.81013 5.04517 9.65883 5.03076 9.44989C5.00916 9.22653 5.00195 8.99598 5.00195 8.76542C5.00195 7.08668 5.53483 5.48718 6.54299 4.15427C6.67261 3.98135 6.91746 3.94532 7.09029 4.07501C7.26311 4.2047 7.29913 4.44968 7.16951 4.62259C6.26936 5.82582 5.78688 7.25959 5.78688 8.76542C5.78688 8.97436 5.79408 9.1761 5.81569 9.37783C5.83729 9.59398 5.67887 9.78851 5.45563 9.80292C5.44123 9.80292 5.43401 9.80292 5.41961 9.80292V9.81013Z" fill="#2D82FE" stroke="#2D82FE" stroke-width="0.5"/>
<path d="M12.6702 16.4463C11.8061 16.4463 10.9635 16.3022 10.157 16.0212C9.95538 15.9492 9.84017 15.7258 9.91218 15.5241C9.98419 15.3224 10.2074 15.2071 10.4091 15.2791C11.8565 15.7835 13.4767 15.7835 14.9242 15.2791C15.133 15.2071 15.3562 15.3152 15.4211 15.5241C15.4931 15.7258 15.3851 15.9564 15.1762 16.0212C14.3697 16.3022 13.5199 16.4463 12.663 16.4463H12.6702Z" fill="#2D82FE" stroke="#2D82FE" stroke-width="0.5"/>
<path d="M12.6717 12.9809C11.325 12.9809 10.2305 11.9434 10.2305 10.6753C10.2305 10.4592 10.4033 10.2791 10.6265 10.2791C10.8498 10.2791 11.0226 10.452 11.0226 10.6753C11.0226 11.5111 11.7643 12.1956 12.6789 12.1956C13.5934 12.1956 14.3351 11.5111 14.3351 10.6753C14.3351 9.83956 13.5934 9.15509 12.6789 9.15509C11.3322 9.15509 10.2377 8.11758 10.2377 6.84952C10.2377 5.58145 11.3322 4.54395 12.6789 4.54395C14.0255 4.54395 15.12 5.58145 15.12 6.84952C15.12 7.06566 14.9472 7.24579 14.724 7.24579C14.5007 7.24579 14.3279 7.07287 14.3279 6.84952C14.3279 6.01375 13.5862 5.32928 12.6717 5.32928C11.7571 5.32928 11.0154 6.01375 11.0154 6.84952C11.0154 7.68529 11.7571 8.36975 12.6717 8.36975C14.0183 8.36975 15.1129 9.40726 15.1129 10.6753C15.1129 11.9434 14.0183 12.9809 12.6717 12.9809Z" fill="#2D82FE" stroke="#2D82FE" stroke-width="0.5"/>
<path d="M12.6714 13.859C12.4554 13.859 12.2754 13.6861 12.2754 13.4628V12.5838C12.2754 12.3676 12.4482 12.1875 12.6714 12.1875C12.8947 12.1875 13.0675 12.3604 13.0675 12.5838V13.4628C13.0675 13.6789 12.8947 13.859 12.6714 13.859Z" fill="#2D82FE" stroke="#2D82FE" stroke-width="0.5"/>
</svg>
