<svg width="21" height="24" viewBox="0 0 21 24" fill="none" xmlns="http://www.w3.org/2000/svg">
<g clip-path="url(#clip0_3165_794)">
<path d="M10.0645 23.9545C10.0645 23.9545 9.97343 23.9545 9.88235 23.9545L5.23719 21.8596C2.04934 20.4479 0 17.26 0 13.7534V2.77805C0 2.77805 0.182163 2.36819 0.409867 2.36819H3.37002C4.14421 2.36819 4.96395 2.18602 5.64706 1.86724L9.1537 0.182228C9.74573 -0.0910163 10.3833 -0.0910163 10.9298 0.182228L14.4364 1.8217C15.1651 2.14048 15.9393 2.32265 16.7135 2.32265H19.6736C19.6736 2.32265 20.0835 2.50481 20.0835 2.73251V13.7078C20.0835 17.2145 18.0342 20.4023 14.8463 21.8141L10.2011 23.909C10.2011 23.909 10.1101 23.909 10.019 23.909L10.0645 23.9545ZM0.819734 3.14238V13.7078C0.819734 16.8957 2.68691 19.7648 5.60152 21.0855L10.0645 23.0893L14.5275 21.0855C17.4421 19.7648 19.3093 16.8957 19.3093 13.7078V3.14238H16.759C15.8482 3.14238 14.9374 2.96022 14.1176 2.55035L10.611 0.910881C10.2467 0.728718 9.83681 0.728718 9.51803 0.910881L6.01139 2.55035C5.19165 2.91468 4.28083 3.14238 3.37002 3.14238H0.819734Z" fill="#FF7D00"/>
<path d="M10.0645 21.7684C10.0645 21.7684 9.97342 21.7684 9.88234 21.7684L6.05692 20.0378C3.59771 18.9449 2.00378 16.4857 2.00378 13.7532V4.78166C2.00378 4.78166 2.18595 4.3718 2.41365 4.3718H3.37001C4.46299 4.3718 5.55597 4.14409 6.51232 3.68869L9.15369 2.45908C9.74572 2.18584 10.3833 2.18584 10.9298 2.45908L13.5711 3.68869C14.5275 4.14409 15.6205 4.3718 16.7135 4.3718H17.6698C17.6698 4.3718 18.0797 4.55396 18.0797 4.78166V13.7532C18.0797 16.4401 16.4858 18.8993 14.0266 20.0378L10.2011 21.7684C10.2011 21.7684 10.11 21.7684 10.019 21.7684H10.0645ZM2.82352 5.19153V13.7532C2.82352 16.1213 4.23528 18.3073 6.42124 19.2636L10.0645 20.9031L13.7078 19.2636C15.8937 18.3073 17.3055 16.1213 17.3055 13.7532V5.19153H16.759C15.5749 5.19153 14.3453 4.91829 13.2524 4.41734L10.611 3.18774C10.2467 3.00557 9.8368 3.00557 9.51802 3.18774L6.87665 4.41734C5.78367 4.91829 4.59961 5.19153 3.37001 5.19153H2.82352Z" fill="#FF7D00"/>
<path d="M17.0778 23.9545H3.05122C3.05122 23.9545 2.64136 23.7723 2.64136 23.5446C2.64136 23.3169 2.82352 23.1348 3.05122 23.1348H17.0778C17.0778 23.1348 17.4877 23.3169 17.4877 23.5446C17.4877 23.7723 17.3055 23.9545 17.0778 23.9545Z" fill="#FF7D00"/>
<path d="M10.0645 23.9999C10.0645 23.9999 9.97343 23.9999 9.88235 23.9999L5.23719 21.9051C2.04934 20.4933 0 17.3054 0 13.7988V2.77792C0 2.77792 0.182163 2.36806 0.409867 2.36806H3.37002C4.14421 2.36806 4.96395 2.18589 5.64706 1.86711L9.1537 0.227639C9.74573 -0.0456061 10.3833 -0.0456061 10.9298 0.227639L14.4364 1.86711C15.1651 2.18589 15.9393 2.36806 16.7135 2.36806H19.6736C19.6736 2.36806 20.0835 2.55022 20.0835 2.77792V13.7533C20.0835 17.2599 18.0342 20.4478 14.8463 21.8595L10.2011 23.9544C10.2011 23.9544 10.1101 23.9544 10.019 23.9544L10.0645 23.9999ZM0.819734 3.18779V13.7533C0.819734 16.9411 2.68691 19.8102 5.60152 21.1309L10.0645 23.1347L14.5275 21.1309C17.4421 19.8102 19.3093 16.9411 19.3093 13.7533V3.18779H16.759C15.8482 3.18779 14.9374 3.00563 14.1176 2.59576L10.611 0.956291C10.2467 0.774128 9.83681 0.774128 9.51803 0.956291L6.01139 2.59576C5.19165 2.96009 4.28083 3.18779 3.37002 3.18779H0.819734Z" fill="#FF7D00"/>
<path d="M13.8902 13.6623C12.4329 13.6623 11.2488 12.4783 11.2488 11.021C11.2488 10.7932 11.431 10.6111 11.6587 10.6111H16.1672C16.1672 10.6111 16.5771 10.7932 16.5771 11.021C16.5771 12.4783 15.3931 13.6623 13.9357 13.6623H13.8902ZM12.0686 11.3853C12.2507 12.205 12.9794 12.8426 13.8902 12.8426C14.801 12.8426 15.5297 12.205 15.7118 11.3853H12.1141H12.0686Z" fill="#FF7D00"/>
<path d="M15.6203 11.4307H12.2047C12.2047 11.4307 11.9315 11.3397 11.8404 11.2486C11.7493 11.1575 11.7493 10.9753 11.8404 10.8387L13.571 7.37761C13.571 7.37761 13.7987 7.1499 13.9353 7.1499C14.0719 7.1499 14.2085 7.24098 14.2996 7.37761L16.0302 10.8387C16.0302 10.8387 16.0757 11.112 16.0302 11.2486C15.9846 11.3852 15.848 11.4307 15.6658 11.4307H15.6203ZM12.8423 10.611H14.9827L13.9353 8.47059L12.8878 10.611H12.8423Z" fill="#FF7D00"/>
<path d="M6.23908 13.6623C4.78178 13.6623 3.59772 12.4783 3.59772 11.021C3.59772 10.7932 3.77988 10.6111 4.00758 10.6111H8.51612C8.51612 10.6111 8.92599 10.7932 8.92599 11.021C8.92599 12.4783 7.74193 13.6623 6.28462 13.6623H6.23908ZM4.41745 11.3853C4.59961 12.205 5.32827 12.8426 6.23908 12.8426C7.1499 12.8426 7.87855 12.205 8.06072 11.3853H4.46299H4.41745Z" fill="#FF7D00"/>
<path d="M7.96966 11.4307H4.5541C4.5541 11.4307 4.28085 11.3397 4.18977 11.2486C4.09869 11.1575 4.09869 10.9753 4.18977 10.8387L5.92032 7.37761C5.92032 7.37761 6.14803 7.1499 6.28465 7.1499C6.42127 7.1499 6.55789 7.24098 6.64897 7.37761L8.37952 10.8387C8.37952 10.8387 8.42507 11.112 8.37952 11.2486C8.33398 11.3852 8.19736 11.4307 8.0152 11.4307H7.96966ZM5.19167 10.611H7.33209L6.28465 8.47059L5.23721 10.611H5.19167Z" fill="#FF7D00"/>
<path d="M10.0643 15.7117C10.0643 15.7117 9.65448 15.5295 9.65448 15.3018V7.69649C9.65448 7.69649 9.83664 7.28662 10.0643 7.28662C10.2921 7.28662 10.4742 7.46878 10.4742 7.69649V15.3018C10.4742 15.3018 10.2921 15.7117 10.0643 15.7117Z" fill="#FF7D00"/>
<path d="M12.4784 17.3055H7.69661C7.69661 17.3055 7.28674 17.1233 7.28674 16.8956V16.1214C7.28674 15.4383 7.83323 14.8918 8.51634 14.8918H11.7042C12.3873 14.8918 12.9338 15.4383 12.9338 16.1214V16.8956C12.9338 16.8956 12.7516 17.3055 12.5239 17.3055H12.4784ZM8.06094 16.4858H12.0685V16.1214C12.0685 16.1214 11.8864 15.7116 11.6587 15.7116H8.4708C8.4708 15.7116 8.06094 15.8937 8.06094 16.1214V16.4858Z" fill="#FF7D00"/>
<path d="M13.7075 17.3056H6.42098C6.42098 17.3056 6.01111 17.1234 6.01111 16.8957C6.01111 16.668 6.19327 16.4858 6.42098 16.4858H13.7075C13.7075 16.4858 14.1174 16.668 14.1174 16.8957C14.1174 17.1234 13.9352 17.3056 13.7075 17.3056Z" fill="#FF7D00"/>
<path d="M10.0648 8.06078C9.3817 8.06078 8.78967 7.51429 8.78967 6.78564C8.78967 6.05699 9.33616 5.5105 10.0648 5.5105C10.7935 5.5105 11.34 6.05699 11.34 6.78564C11.34 7.51429 10.7935 8.06078 10.0648 8.06078ZM10.0648 6.37577C9.83711 6.37577 9.60941 6.55794 9.60941 6.83118C9.60941 7.10443 9.79157 7.28659 10.0648 7.28659C10.3381 7.28659 10.5202 7.10443 10.5202 6.83118C10.5202 6.55794 10.3381 6.37577 10.0648 6.37577Z" fill="#FF7D00"/>
<path d="M6.23934 8.06074C6.23934 8.06074 5.82947 7.87858 5.82947 7.65087C5.82947 6.96776 6.37596 6.37573 7.10461 6.37573H9.24503C9.24503 6.37573 9.6549 6.5579 9.6549 6.7856C9.6549 7.0133 9.47273 7.19547 9.24503 7.19547H7.10461C6.87691 7.19547 6.6492 7.37763 6.6492 7.65087C6.6492 7.87858 6.46704 8.06074 6.23934 8.06074Z" fill="#FF7D00"/>
<path d="M13.8898 8.06074C13.8898 8.06074 13.4799 7.87858 13.4799 7.65087C13.4799 7.42317 13.2978 7.19547 13.0245 7.19547H10.8841C10.8841 7.19547 10.4742 7.0133 10.4742 6.7856C10.4742 6.5579 10.6564 6.37573 10.8841 6.37573H13.0245C13.7076 6.37573 14.2997 6.92222 14.2997 7.65087C14.2997 7.87858 14.1175 8.06074 13.8898 8.06074Z" fill="#FF7D00"/>
</g>
<defs>
<clipPath id="clip0_3165_794">
<rect width="20.129" height="24" fill="white"/>
</clipPath>
</defs>
</svg>
