<svg width="24" height="26" viewBox="0 0 24 26" fill="none" xmlns="http://www.w3.org/2000/svg">
<path d="M4.94553 15.9351C3.79367 15.9351 2.85059 14.9915 2.85059 13.8391C2.85059 12.6866 3.79367 11.743 4.94553 11.743C6.09739 11.743 7.04048 12.6866 7.04048 13.8391C7.04048 14.9915 6.09739 15.9351 4.94553 15.9351ZM4.94553 12.4993C4.20402 12.4993 3.60649 13.1044 3.60649 13.8391C3.60649 14.5738 4.21122 15.1788 4.94553 15.1788C5.67984 15.1788 6.28456 14.5738 6.28456 13.8391C6.28456 13.1044 5.67984 12.4993 4.94553 12.4993Z" fill="white" stroke="white" stroke-width="0.5"/>
<path d="M9.04147 21.193C8.8399 21.193 8.6671 21.0274 8.6671 20.8257C8.63111 19.3419 7.71682 18.0238 6.33459 17.462C6.14022 17.3827 6.04662 17.1666 6.12581 16.9721C6.205 16.7777 6.42097 16.684 6.61535 16.7633C8.27835 17.4331 9.37262 19.0178 9.41582 20.8041C9.41582 21.013 9.25743 21.1858 9.04865 21.193H9.04147Z" fill="white" stroke="white" stroke-width="0.5"/>
<path d="M8.31447 22.2807H0.848978C0.640203 22.2807 0.474609 22.115 0.474609 21.9061V20.9121C0.474609 19.0754 1.57609 17.4476 3.28229 16.7633C3.47666 16.684 3.69263 16.7777 3.77182 16.9721C3.85101 17.1666 3.75742 17.3827 3.56304 17.462C2.14481 18.031 1.23053 19.3851 1.23053 20.9121V21.5244H8.32167C8.53045 21.5244 8.69602 21.6901 8.69602 21.8989C8.69602 22.1078 8.53045 22.2735 8.32167 22.2735L8.31447 22.2807Z" fill="white" stroke="white" stroke-width="0.5"/>
<path d="M12.0432 18.6216C10.8913 18.6216 9.94824 17.6781 9.94824 16.5256C9.94824 15.3731 10.8913 14.4296 12.0432 14.4296C13.195 14.4296 14.1381 15.3731 14.1381 16.5256C14.1381 17.6781 13.195 18.6216 12.0432 18.6216ZM12.0432 15.1859C11.3017 15.1859 10.7042 15.7909 10.7042 16.5256C10.7042 17.2603 11.3089 17.8654 12.0432 17.8654C12.7775 17.8654 13.3822 17.2603 13.3822 16.5256C13.3822 15.7909 12.7775 15.1859 12.0432 15.1859Z" fill="white" stroke="white" stroke-width="0.5"/>
<path d="M16.147 24.9747H7.95442C7.74565 24.9747 7.58008 24.809 7.58008 24.6001V23.6061C7.58008 21.7694 8.68154 20.1415 10.3877 19.4572C10.5821 19.378 10.7981 19.4717 10.8773 19.6661C10.9565 19.8606 10.8629 20.0767 10.6685 20.1559C9.25026 20.725 8.33598 22.0791 8.33598 23.6061V24.2183H15.7799V23.6061C15.7799 22.0791 14.8656 20.725 13.4474 20.1559C13.253 20.0767 13.1594 19.8606 13.2386 19.6661C13.3178 19.4717 13.5337 19.378 13.7281 19.4572C15.4343 20.1415 16.5358 21.7766 16.5358 23.6061V24.6001C16.5358 24.809 16.3702 24.9747 16.1614 24.9747H16.147Z" fill="white" stroke="white" stroke-width="0.5"/>
<path d="M19.1418 15.9351C17.99 15.9351 17.0469 14.9915 17.0469 13.8391C17.0469 12.6866 17.99 11.743 19.1418 11.743C20.2937 11.743 21.2367 12.6866 21.2367 13.8391C21.2367 14.9915 20.2937 15.9351 19.1418 15.9351ZM19.1418 12.4993C18.4003 12.4993 17.8028 13.1044 17.8028 13.8391C17.8028 14.5738 18.4075 15.1788 19.1418 15.1788C19.8761 15.1788 20.4808 14.5738 20.4808 13.8391C20.4808 13.1044 19.8761 12.4993 19.1418 12.4993Z" fill="white" stroke="white" stroke-width="0.5"/>
<path d="M23.2461 22.2808H15.7806C15.5718 22.2808 15.4062 22.1151 15.4062 21.9063C15.4062 21.6974 15.5718 21.5317 15.7806 21.5317H22.8717V20.9195C22.8717 19.3925 21.9575 18.0383 20.5392 17.4693C20.3449 17.3901 20.2513 17.174 20.3304 16.9795C20.4096 16.785 20.6256 16.6914 20.82 16.7706C22.5262 17.4549 23.6276 19.0899 23.6276 20.9195V21.9135C23.6276 22.1224 23.4621 22.288 23.2533 22.288L23.2461 22.2808Z" fill="white" stroke="white" stroke-width="0.5"/>
<path d="M15.0462 21.1932C14.8375 21.1932 14.6719 21.0275 14.6719 20.8186C14.6719 19.0179 15.7446 17.4621 17.4723 16.7706C17.6667 16.6914 17.8827 16.785 17.9619 16.9795C18.0411 17.174 17.9475 17.3901 17.7531 17.4693C16.3133 18.0527 15.4206 19.3348 15.4206 20.8186C15.4206 21.0275 15.255 21.1932 15.0462 21.1932Z" fill="white" stroke="white" stroke-width="0.5"/>
<path d="M12.7493 8.11267C9.65363 8.11267 6.87477 6.78733 5.66532 4.73451C5.59333 4.61927 5.59333 4.46801 5.66532 4.35276C6.87477 2.29994 9.65363 0.974609 12.7493 0.974609C15.8449 0.974609 18.6237 2.29994 19.8332 4.35276C19.9052 4.46801 19.9052 4.61927 19.8332 4.73451C18.6237 6.78733 15.8449 8.11267 12.7493 8.11267ZM6.43561 4.54723C7.57307 6.26152 10.0208 7.36356 12.7493 7.36356C15.4777 7.36356 17.9326 6.26872 19.0629 4.54723C17.9254 2.83295 15.4777 1.73092 12.7493 1.73092C10.0208 1.73092 7.56587 2.82574 6.43561 4.54723Z" fill="white" stroke="white" stroke-width="0.5"/>
<path d="M12.7491 8.11278C10.7838 8.11278 9.18555 6.51373 9.18555 4.54735C9.18555 2.58096 10.7838 0.981934 12.7491 0.981934C14.7145 0.981934 16.3127 2.58096 16.3127 4.54735C16.3127 6.51373 14.7145 8.11278 12.7491 8.11278ZM12.7491 1.73104C11.2013 1.73104 9.93426 2.99152 9.93426 4.54735C9.93426 6.10317 11.1941 7.36367 12.7491 7.36367C14.3041 7.36367 15.564 6.10317 15.564 4.54735C15.564 2.99152 14.3041 1.73104 12.7491 1.73104Z" fill="white" stroke="white" stroke-width="0.5"/>
<path d="M12.749 6.03826C11.9283 6.03826 11.2588 5.36838 11.2588 4.54725C11.2588 3.72613 11.9283 3.05627 12.749 3.05627C13.5697 3.05627 14.2392 3.72613 14.2392 4.54725C14.2392 5.36838 13.5697 6.03826 12.749 6.03826ZM12.749 3.81257C12.3459 3.81257 12.0147 4.14389 12.0147 4.54725C12.0147 4.95062 12.3459 5.28196 12.749 5.28196C13.1522 5.28196 13.4833 4.95062 13.4833 4.54725C13.4833 4.14389 13.1522 3.81257 12.749 3.81257Z" fill="white" stroke="white" stroke-width="0.5"/>
<path d="M12.7494 11.8367C12.5406 11.8367 12.375 11.671 12.375 11.4621V7.73821C12.375 7.52933 12.5406 7.36365 12.7494 7.36365C12.9581 7.36365 13.1237 7.52933 13.1237 7.73821V11.4621C13.1237 11.671 12.9581 11.8367 12.7494 11.8367Z" fill="white" stroke="white" stroke-width="0.5"/>
<path d="M4.94469 10.4106C4.8511 10.4106 4.75029 10.3746 4.6783 10.3025C4.53432 10.1585 4.53432 9.91356 4.6783 9.7695L8.04751 6.41297C8.19149 6.26892 8.43625 6.26892 8.58023 6.41297C8.72422 6.55703 8.72422 6.80192 8.58023 6.94598L5.21105 10.3025C5.13906 10.3746 5.03827 10.4106 4.94469 10.4106Z" fill="white" stroke="white" stroke-width="0.5"/>
<path d="M20.5535 10.3743C20.4599 10.3743 20.3592 10.3383 20.2872 10.2663L16.9828 6.96734C16.8388 6.82329 16.8316 6.57839 16.9828 6.43434C17.1268 6.29028 17.3715 6.29028 17.5155 6.43434L20.8199 9.73325C20.9639 9.8773 20.9711 10.1222 20.8199 10.2663C20.7479 10.3383 20.6471 10.3743 20.5535 10.3743Z" fill="white" stroke="white" stroke-width="0.5"/>
<path d="M19.1414 24.9746H4.94468C4.73591 24.9746 4.57031 24.8089 4.57031 24.6V21.9134C4.57031 21.7045 4.73591 21.5388 4.94468 21.5388C5.15346 21.5388 5.31903 21.7045 5.31903 21.9134V24.2255H18.7598V21.9134C18.7598 21.7045 18.9254 21.5388 19.1341 21.5388C19.3429 21.5388 19.5085 21.7045 19.5085 21.9134V24.6C19.5085 24.8089 19.3429 24.9746 19.1341 24.9746H19.1414Z" fill="white" stroke="white" stroke-width="0.5"/>
</svg>
