<svg width="36" height="36" viewBox="0 0 36 36" fill="none" xmlns="http://www.w3.org/2000/svg">
<path d="M21 23.5279C21 20.922 21 19.6191 21.8096 18.8096C22.6191 18 23.922 18 26.5279 18C29.1337 18 30.4367 18 31.2462 18.8096C32.0558 19.6191 32.0558 20.922 32.0558 23.5279C32.0558 26.1337 32.0558 27.4367 31.2462 28.2462C30.4367 29.0558 29.1337 29.0558 26.5279 29.0558C23.922 29.0558 22.6191 29.0558 21.8096 28.2462C21 27.4367 21 26.1337 21 23.5279Z" fill="#08CE8A" stroke="#08CE8A" stroke-width="3"/>
<path d="M21 24V17.7939C21 12.2935 24.7736 7.62876 30 6" stroke="#08CE8A" stroke-width="3" stroke-linecap="round"/>
<path d="M3 23.5279C3 20.922 3 19.6191 3.80955 18.8096C4.61908 18 5.92202 18 8.52789 18C11.1338 18 12.4367 18 13.2462 18.8096C14.0558 19.6191 14.0558 20.922 14.0558 23.5279C14.0558 26.1337 14.0558 27.4367 13.2462 28.2462C12.4367 29.0558 11.1338 29.0558 8.52789 29.0558C5.92202 29.0558 4.61908 29.0558 3.80955 28.2462C3 27.4367 3 26.1337 3 23.5279Z" fill="#08CE8A" stroke="#08CE8A" stroke-width="3"/>
<path d="M3 24V17.7939C3 12.2935 6.77357 7.62876 12 6" stroke="#08CE8A" stroke-width="3" stroke-linecap="round"/>
</svg>
