<svg width="138" height="138" viewBox="0 0 138 138" fill="none" xmlns="http://www.w3.org/2000/svg">
<mask id="mask0_3230_4441" style="mask-type:alpha" maskUnits="userSpaceOnUse" x="0" y="0" width="138" height="138">
<circle cx="69" cy="69" r="68.4692" fill="#C4C4C4" stroke="#FED8CE" stroke-width="1.06154"/>
</mask>
<g mask="url(#mask0_3230_4441)">
<path d="M-18.0469 33.9714C-18.0469 33.9714 10.5839 28.6375 17.9711 9.96939C25.0358 -7.92611 54.1377 -12.7363 54.1377 -12.7363" stroke="#1C1C57" stroke-opacity="0.2" stroke-width="1.06154" stroke-miterlimit="10"/>
<path d="M-18.0469 42.4637C-18.0469 42.4637 16.9345 36.3606 25.9453 14.0236C34.5363 -7.30044 70.0608 -12.7363 70.0608 -12.7363" stroke="#1C1C57" stroke-opacity="0.2" stroke-width="1.06154" stroke-miterlimit="10"/>
<path d="M-18.0469 50.956C-18.0469 50.956 23.2601 44.0591 33.8946 18.1158C44.0368 -6.69845 85.9839 -12.7363 85.9839 -12.7363" stroke="#1C1C57" stroke-opacity="0.2" stroke-width="1.06154" stroke-miterlimit="10"/>
<path d="M-18.0469 60.5098C-18.0469 60.5098 30.0321 52.7267 42.3988 22.6846C54.1708 -5.96942 102.969 -12.7363 102.969 -12.7363" stroke="#1C1C57" stroke-opacity="0.2" stroke-width="1.06154" stroke-miterlimit="10"/>
<path d="M-18.0469 69.0021C-18.0469 69.0021 36.3923 60.4461 50.3852 26.7644C63.6859 -5.33916 118.892 -12.7363 118.892 -12.7363" stroke="#1C1C57" stroke-opacity="0.2" stroke-width="1.06154" stroke-miterlimit="10"/>
<path d="M-18.0469 77.4944C-18.0469 77.4944 42.7178 68.167 58.3346 30.8326C73.2111 -4.73442 134.815 -12.7363 134.815 -12.7363" stroke="#1C1C57" stroke-opacity="0.2" stroke-width="1.06154" stroke-miterlimit="10"/>
<path d="M-18.0469 87.0483C-18.0469 87.0483 49.4901 76.8126 66.8391 35.4253C83.3454 -4.00893 151.799 -12.7363 151.799 -12.7363" stroke="#1C1C57" stroke-opacity="0.2" stroke-width="1.06154" stroke-miterlimit="10"/>
<path d="M-18.0469 95.5406C-18.0469 95.5406 55.8403 84.5306 74.7882 39.481C92.8456 -3.37667 167.722 -12.7363 167.722 -12.7363" stroke="#1C1C57" stroke-opacity="0.2" stroke-width="1.06154" stroke-miterlimit="10"/>
<path d="M-18.0469 105.094C-18.0469 105.094 62.1755 93.2048 82.7745 44.0858C102.361 -2.67984 183.645 -12.7363 183.645 -12.7363" stroke="#1C1C57" stroke-opacity="0.2" stroke-width="1.06154" stroke-miterlimit="10"/>
<path d="M-18.0469 113.587C-18.0469 113.587 68.948 100.923 91.2545 48.1667C112.495 -2.04693 200.63 -12.7363 200.63 -12.7363" stroke="#1C1C57" stroke-opacity="0.2" stroke-width="1.06154" stroke-miterlimit="10"/>
<path d="M-18.0469 122.079C-18.0469 122.079 75.2982 108.618 99.2285 52.2351C121.996 -1.41563 216.553 -12.7363 216.553 -12.7363" stroke="#1C1C57" stroke-opacity="0.2" stroke-width="1.06154" stroke-miterlimit="10"/>
<path d="M-18.0469 131.633C-18.0469 131.633 81.6238 117.29 107.178 56.8269C131.496 -0.717937 232.476 -12.7363 232.476 -12.7363" stroke="#1C1C57" stroke-opacity="0.2" stroke-width="1.06154" stroke-miterlimit="10"/>
<path d="M-18.0469 140.125C-18.0469 140.125 88.3963 125.008 115.682 60.8832C141.63 -0.0841027 249.461 -12.7363 249.461 -12.7363" stroke="#1C1C57" stroke-opacity="0.2" stroke-width="1.06154" stroke-miterlimit="10"/>
<path d="M-18.0469 148.618C-18.0469 148.618 94.7562 132.702 123.669 64.9765C151.145 0.547961 265.384 -12.7363 265.384 -12.7363" stroke="#1C1C57" stroke-opacity="0.2" stroke-width="1.06154" stroke-miterlimit="10"/>
<path d="M-18.0469 158.171C-18.0469 158.171 101.081 141.375 131.618 69.5434C160.646 1.24451 281.307 -12.7363 281.307 -12.7363" stroke="#1C1C57" stroke-opacity="0.2" stroke-width="1.06154" stroke-miterlimit="10"/>
<path d="M-18.0469 166.664C-18.0469 166.664 107.432 149.09 139.592 73.6237C170.146 1.8788 297.23 -12.7363 297.23 -12.7363" stroke="#1C1C57" stroke-opacity="0.2" stroke-width="1.06154" stroke-miterlimit="10"/>
<path d="M-18.0469 176.218C-18.0469 176.218 114.204 157.766 148.071 78.2035C180.28 2.59753 314.215 -12.7363 314.215 -12.7363" stroke="#1C1C57" stroke-opacity="0.2" stroke-width="1.06154" stroke-miterlimit="10"/>
<path d="M-18.0469 184.71C-18.0469 184.71 120.539 165.459 156.057 82.2847C189.795 3.20735 330.138 -12.7363 330.138 -12.7363" stroke="#1C1C57" stroke-opacity="0.2" stroke-width="1.06154" stroke-miterlimit="10"/>
</g>
</svg>
