<svg width="150" height="148" viewBox="0 0 150 148" fill="none" xmlns="http://www.w3.org/2000/svg">
<mask id="mask0_3257_474" style="mask-type:alpha" maskUnits="userSpaceOnUse" x="0" y="0" width="150" height="148">
<path d="M149.469 73.554C149.469 113.876 116.307 146.577 75.3839 146.577C34.4604 146.577 1.29835 113.876 1.29835 73.554C1.29835 33.2315 34.4604 0.530769 75.3839 0.530769C116.307 0.530769 149.469 33.2315 149.469 73.554Z" fill="#C4C4C4" stroke="#FED8CE" stroke-width="1.06154"/>
</mask>
<g mask="url(#mask0_3257_474)">
<path d="M-18.749 36.2135C-18.749 36.2135 12.2122 30.5276 20.2006 10.6274C27.8404 -8.44921 59.3111 -13.5769 59.3111 -13.5769" stroke="#1C1C57" stroke-opacity="0.2" stroke-width="1.06154" stroke-miterlimit="10"/>
<path d="M-18.749 45.2663C-18.749 45.2663 19.0797 38.7605 28.8239 14.9492C38.1142 -7.78224 76.5302 -13.5769 76.5302 -13.5769" stroke="#1C1C57" stroke-opacity="0.2" stroke-width="1.06154" stroke-miterlimit="10"/>
<path d="M-18.749 54.3191C-18.749 54.3191 25.9202 46.967 37.4203 19.3114C48.3879 -7.14052 93.7494 -13.5769 93.7494 -13.5769" stroke="#1C1C57" stroke-opacity="0.2" stroke-width="1.06154" stroke-miterlimit="10"/>
<path d="M-18.749 64.5035C-18.749 64.5035 33.2434 56.2067 46.6167 24.1818C59.3468 -6.36338 112.116 -13.5769 112.116 -13.5769" stroke="#1C1C57" stroke-opacity="0.2" stroke-width="1.06154" stroke-miterlimit="10"/>
<path d="M-18.749 73.5563C-18.749 73.5563 40.1212 64.4356 55.2531 28.5308C69.6364 -5.69153 129.336 -13.5769 129.336 -13.5769" stroke="#1C1C57" stroke-opacity="0.2" stroke-width="1.06154" stroke-miterlimit="10"/>
<path d="M-18.749 82.6091C-18.749 82.6091 46.9616 72.6661 63.8495 32.8675C79.9369 -5.04687 146.555 -13.5769 146.555 -13.5769" stroke="#1C1C57" stroke-opacity="0.2" stroke-width="1.06154" stroke-miterlimit="10"/>
<path d="M-18.749 92.7935C-18.749 92.7935 54.2851 81.8823 73.0462 37.7634C90.8961 -4.2735 164.922 -13.5769 164.922 -13.5769" stroke="#1C1C57" stroke-opacity="0.2" stroke-width="1.06154" stroke-miterlimit="10"/>
<path d="M-18.749 101.846C-18.749 101.846 61.1523 90.1097 81.6424 42.0868C101.17 -3.59951 182.141 -13.5769 182.141 -13.5769" stroke="#1C1C57" stroke-opacity="0.2" stroke-width="1.06154" stroke-miterlimit="10"/>
<path d="M-18.749 112.031C-18.749 112.031 68.003 99.3564 90.2787 46.9955C111.459 -2.85669 199.36 -13.5769 199.36 -13.5769" stroke="#1C1C57" stroke-opacity="0.2" stroke-width="1.06154" stroke-miterlimit="10"/>
<path d="M-18.749 121.083C-18.749 121.083 75.3269 107.584 99.4489 51.3457C122.418 -2.18201 217.727 -13.5769 217.727 -13.5769" stroke="#1C1C57" stroke-opacity="0.2" stroke-width="1.06154" stroke-miterlimit="10"/>
<path d="M-18.749 130.136C-18.749 130.136 82.1939 115.786 108.072 55.6827C132.692 -1.50905 234.946 -13.5769 234.946 -13.5769" stroke="#1C1C57" stroke-opacity="0.2" stroke-width="1.06154" stroke-miterlimit="10"/>
<path d="M-18.749 140.321C-18.749 140.321 89.0344 125.031 116.668 60.5775C142.966 -0.7653 252.165 -13.5769 252.165 -13.5769" stroke="#1C1C57" stroke-opacity="0.2" stroke-width="1.06154" stroke-miterlimit="10"/>
<path d="M-18.749 149.374C-18.749 149.374 96.3581 133.258 125.865 64.9015C153.925 -0.0896311 270.533 -13.5769 270.533 -13.5769" stroke="#1C1C57" stroke-opacity="0.2" stroke-width="1.06154" stroke-miterlimit="10"/>
<path d="M-18.749 158.426C-18.749 158.426 103.236 141.46 134.501 69.265C164.214 0.584147 287.752 -13.5769 287.752 -13.5769" stroke="#1C1C57" stroke-opacity="0.2" stroke-width="1.06154" stroke-miterlimit="10"/>
<path d="M-18.749 168.611C-18.749 168.611 110.076 150.705 143.097 74.1333C174.488 1.32666 304.971 -13.5769 304.971 -13.5769" stroke="#1C1C57" stroke-opacity="0.2" stroke-width="1.06154" stroke-miterlimit="10"/>
<path d="M-18.749 177.663C-18.749 177.663 116.943 158.93 151.72 78.4828C184.762 2.00282 322.19 -13.5769 322.19 -13.5769" stroke="#1C1C57" stroke-opacity="0.2" stroke-width="1.06154" stroke-miterlimit="10"/>
<path d="M-18.749 187.848C-18.749 187.848 124.267 168.179 160.891 83.365C195.721 2.76898 340.557 -13.5769 340.557 -13.5769" stroke="#1C1C57" stroke-opacity="0.2" stroke-width="1.06154" stroke-miterlimit="10"/>
<path d="M-18.749 196.901C-18.749 196.901 131.117 176.38 169.527 87.7155C206.01 3.41906 357.776 -13.5769 357.776 -13.5769" stroke="#1C1C57" stroke-opacity="0.2" stroke-width="1.06154" stroke-miterlimit="10"/>
</g>
</svg>
