<svg width="86" height="58" viewBox="0 0 86 58" fill="none" xmlns="http://www.w3.org/2000/svg">
<path fill-rule="evenodd" clip-rule="evenodd" d="M27.799 52.2794C20.6669 53.3114 13.3159 53.8448 6.77067 57.1126C6.38035 57.3058 5.9067 57.1496 5.71033 56.7597C5.51709 56.3694 5.67331 55.8957 6.06325 55.6993C12.7617 52.3559 20.2751 51.7711 27.5729 50.716C28.0042 50.6514 28.4062 50.953 28.4676 51.3846C28.5322 51.8159 28.2302 52.2148 27.799 52.2794Z" fill="#1C1C57"/>
<path fill-rule="evenodd" clip-rule="evenodd" d="M27.1933 41.8185C24.7172 40.035 22.0992 38.7905 19.0663 38.3823C18.633 38.3243 18.3308 37.9264 18.387 37.4946C18.4464 37.0625 18.8458 36.7591 19.2759 36.8175C22.5739 37.261 25.4227 38.5989 28.1145 40.5368C28.4696 40.7913 28.5512 41.285 28.2947 41.6391C28.0413 41.9924 27.5452 42.0733 27.1933 41.8185Z" fill="#1C1C57"/>
<path fill-rule="evenodd" clip-rule="evenodd" d="M30.704 18.6755C29.2606 15.2941 26.918 12.7947 23.5945 11.1859C23.2027 10.996 23.0377 10.5234 23.2291 10.1311C23.4174 9.73912 23.8908 9.57471 24.2826 9.76461C27.9609 11.5462 30.5581 14.3114 32.1564 18.0553C32.3286 18.4558 32.1395 18.9207 31.7401 19.0915C31.3376 19.263 30.873 19.0764 30.704 18.6755Z" fill="#1C1C57"/>
<path fill-rule="evenodd" clip-rule="evenodd" d="M65.3629 9.68587C66.0573 10.3287 66.6956 11.0345 67.2584 11.8C67.5093 12.1408 67.9664 12.8741 68.103 13.5337C68.251 14.2361 68.0815 14.8641 67.4986 15.2541C66.7241 15.7715 66.0603 15.8071 65.5219 15.6151C65.0035 15.4308 64.5636 14.9992 64.2452 14.3879C63.6371 13.2194 63.4814 11.3406 63.5946 10.2442C62.8649 9.65237 62.0801 9.13049 61.2532 8.68207C55.0942 5.34247 46.9468 7.82587 41.2629 14.6089C39.2738 16.9838 38.7265 21.5349 38.7384 26.3728C38.7561 33.9057 40.2517 42.1419 40.6127 44.5641C40.7005 45.1624 40.6869 45.5255 40.6641 45.6004C40.5588 45.9681 40.3094 46.0903 40.1317 46.1466C39.8739 46.2253 39.6578 46.2004 39.4779 46.1329C39.2346 46.04 39.0209 45.8507 38.8938 45.5342C38.8251 45.3592 38.7823 45.1092 38.7564 44.8403C38.7403 44.6536 38.7535 44.4459 38.6999 44.3172C38.3527 43.493 37.9578 42.6949 37.5684 41.8901C36.2666 39.1839 34.7039 36.6891 33.0036 34.214C27.6018 26.3493 22.2872 17.9921 14.3159 12.4635C13.9584 12.2154 13.8674 11.7231 14.117 11.3648C14.3635 11.0069 14.8554 10.9179 15.216 11.1659C23.3468 16.8036 28.7958 25.2995 34.3054 33.3198C35.7513 35.4253 37.1004 37.5457 38.2801 39.7913C37.6889 35.6391 37.0308 29.8723 37.1801 24.6819C37.3125 20.0659 38.1197 15.9034 40.0532 13.5948C46.2795 6.16409 55.2612 3.63516 62.0058 7.29408C62.7272 7.68582 63.423 8.12837 64.0801 8.62009C66.6263 2.35754 73.305 -0.832456 79.7949 1.23663C80.2116 1.36883 80.44 1.81346 80.3086 2.22849C80.174 2.64388 79.7308 2.87338 79.3141 2.74118C73.4659 0.876823 67.45 3.89076 65.3629 9.68587ZM65.1445 11.7063C65.4416 12.0345 65.7215 12.3782 65.9872 12.7363C66.128 12.9287 66.3764 13.3012 66.5077 13.6793C66.5374 13.7679 66.5576 13.9099 66.5656 13.9758C66.362 14.1084 66.1989 14.1802 66.0526 14.1275C65.8698 14.0629 65.7579 13.8728 65.6463 13.6587C65.3654 13.1218 65.2069 12.3844 65.1445 11.7063Z" fill="#1C1C57"/>
</svg>
