<svg width="101" height="22" viewBox="0 0 101 22" fill="none" xmlns="http://www.w3.org/2000/svg">
<path fill-rule="evenodd" clip-rule="evenodd" d="M22.1355 7.7853C22.1355 11.834 24.0161 15.0802 28.0654 15.0802L41.4593 15.0722V11.4122H29.0611C27.0582 11.4122 26.1722 9.78879 26.1722 7.78587C26.1722 5.78296 27.0582 4.15902 29.0611 4.15902L41.4587 4.15102V0.491012L28.0654 0.491012C24.0161 0.491012 22.1355 3.73603 22.1355 7.7853ZM17.2723 5.93672L4.43168 5.94758C3.94924 5.94758 3.70516 5.53774 3.70516 5.05473C3.70516 4.57229 3.94867 4.18074 4.43168 4.18074H20.9066V0.479577L4.24705 0.47615C1.71825 0.47615 0 2.52593 0 5.05473C0 7.58352 1.71768 9.63388 4.24705 9.63388L16.8293 9.62359C17.3123 9.62359 17.593 10.0334 17.593 10.5159C17.593 10.9989 17.3123 11.4087 16.8293 11.4087L0.502443 11.4019V15.095H17.2723C19.8011 15.095 21.4084 13.0441 21.4084 10.5159C21.4084 7.98708 19.8011 5.93672 17.2723 5.93672ZM82.2687 0.479577V4.39052H89.0577V15.0916H93.4854V4.39052H100.274V0.479577L82.2687 0.479577ZM60.8666 1.69768C60.0549 1.07005 59.022 0 52.5279 0C46.0345 0 45.001 1.07005 44.1899 1.69768C42.6231 2.9998 41.876 5.23307 41.876 7.7853C41.876 10.2827 42.5911 12.4748 44.0893 13.7872C44.8901 14.4268 46.0711 15.4226 52.5279 15.386C58.9854 15.4226 60.1652 14.4268 60.9672 13.7872C62.4654 12.4742 63.181 10.2821 63.181 7.7853C63.181 5.23307 62.4333 2.9998 60.8666 1.69768Z" fill="#021334"/>
<path fill-rule="evenodd" clip-rule="evenodd" d="M58.0487 10.7939C57.4 11.3644 56.7729 11.8834 52.5293 11.8834C48.2862 11.8834 47.6586 11.3644 47.0098 10.7939C46.2605 10.1423 45.9141 9.0385 45.9141 7.7861C45.9141 6.41882 46.3268 5.22816 47.2259 4.61025C47.8432 4.20669 48.4337 3.46875 52.5293 3.46875C56.6254 3.46875 57.2159 4.20669 57.8332 4.61025C58.7318 5.22816 59.1451 6.41882 59.1451 7.7861C59.1451 9.03793 58.7975 10.1423 58.0487 10.7939Z" fill="#021334"/>
<path fill-rule="evenodd" clip-rule="evenodd" d="M63.6717 4.39141H70.4613V15.0925H74.8896V4.39141H81.6785V0.480469L63.6717 0.480469V4.39141ZM0.843419 20.8989V21.1167C0.843419 21.2922 0.901152 21.4471 1.1298 21.4471C1.29728 21.4471 1.37101 21.2962 1.37101 21.1412C1.37101 20.8835 1.15838 20.7851 0.969745 20.6702C0.749104 20.5439 0.560473 20.4245 0.425574 20.2695C0.294675 20.1146 0.216937 19.9254 0.216937 19.6556C0.216937 19.0795 0.564474 18.7851 1.12122 18.7851C1.74713 18.7851 2.06666 19.2024 2.03351 19.7785H1.37101C1.36244 19.599 1.37101 19.3533 1.1338 19.3367C0.986322 19.3247 0.90058 19.407 0.884004 19.5419C0.863426 19.7259 0.95717 19.8197 1.10064 19.918C1.37101 20.0901 1.60366 20.1958 1.77171 20.3513C1.93919 20.5073 2.03751 20.712 2.03751 21.0835C2.03751 21.6728 1.70998 22.0004 1.11265 22.0004C0.454154 22.0004 0.175781 21.6317 0.175781 21.2276V20.8995L0.843419 20.8989ZM7.81018 18.8582H9.67591V19.471H9.09516V21.9261H8.37493V19.471H7.81018V18.8582ZM16.2208 21.9261H15.5006V18.8582H16.5524C17.1417 18.8582 17.4361 19.0949 17.4361 19.7042C17.4361 20.0323 17.3583 20.2644 17.0554 20.4044V20.4124C17.256 20.4582 17.3989 20.5965 17.4115 20.8097C17.4315 21.0555 17.4355 21.5825 17.4766 21.7786C17.4908 21.8196 17.5147 21.8565 17.5464 21.8861V21.9261H16.7604C16.7386 21.8698 16.7249 21.8107 16.7198 21.7506C16.7078 21.4802 16.7238 21.227 16.7033 21.0384C16.6827 20.8497 16.6255 20.7268 16.458 20.716H16.2208V21.9261Z" fill="#021334"/>
<path fill-rule="evenodd" clip-rule="evenodd" d="M16.2207 20.1639H16.4665C16.6751 20.1639 16.7243 19.9718 16.7243 19.7832C16.7243 19.4191 16.5728 19.4025 16.2213 19.4105L16.2207 20.1639Z" fill="#021334"/>
<path fill-rule="evenodd" clip-rule="evenodd" d="M23.2031 21.9243L23.8742 18.8564H24.7413L25.4084 21.9243H24.6802L24.5773 21.3269H24.0131L23.9274 21.9243H23.2031Z" fill="#021334"/>
<path fill-rule="evenodd" clip-rule="evenodd" d="M24.3045 19.4121H24.2965L24.0879 20.7863H24.5052L24.3045 19.4121Z" fill="#021334"/>
<path fill-rule="evenodd" clip-rule="evenodd" d="M30.8711 18.8583H32.7368V19.4711H32.1555V21.9261H31.4358V19.4711H30.8711V18.8583ZM38.5781 21.9261V18.8583H40.2272V19.4711H39.2983V20.0364H40.1986V20.6503H39.2983V21.3134H40.2758V21.9261H38.5781ZM47.6026 21.9307L47.5701 21.6563H47.5621C47.4146 21.9187 47.2511 22.0005 46.9401 22.0005C46.3302 22.0005 46.1342 21.5797 46.1342 21.0224V19.7632C46.1342 19.0955 46.4411 18.7852 47.0996 18.7852C47.7135 18.7852 48.0771 19.0464 48.0771 19.6729V19.9015H47.3574V19.734C47.3574 19.4717 47.3248 19.3408 47.1322 19.3368C46.907 19.3333 46.8544 19.4562 46.8544 19.6563V21.1745C46.8544 21.3465 46.9321 21.4483 47.1202 21.4483C47.3654 21.4483 47.374 21.2528 47.374 21.0562V20.8138H47.1162V20.2622H48.0936V21.9313L47.6026 21.9307ZM54.0452 21.9261V18.8583H54.7655V21.9261H54.0452ZM61.9237 19.9301V19.7335C61.9237 19.4711 61.8288 19.3362 61.6939 19.3362C61.4693 19.3328 61.4161 19.4556 61.4161 19.6557L61.4127 21.1739C61.4127 21.346 61.4819 21.4477 61.6693 21.4477C61.9151 21.4477 61.9363 21.1945 61.9363 21.007V20.7281H62.6565V21.1053C62.6565 21.6323 62.353 22.0005 61.6173 22.0005C60.9543 22.0005 60.6965 21.6489 60.6965 21.0224V19.7632C60.6965 19.0955 61.0034 18.7852 61.6619 18.7852C62.2758 18.7852 62.6445 19.0464 62.6445 19.6729V19.9301H61.9237ZM76.5632 21.9307L76.5306 21.6563H76.5226C76.3751 21.9187 76.2111 22.0005 75.9007 22.0005C75.2913 22.0005 75.0947 21.5797 75.0947 21.0224V19.7632C75.0947 19.0955 75.4017 18.7852 76.0602 18.7852C76.6729 18.7852 77.0382 19.0464 77.0382 19.6729V19.9015H76.3179V19.734C76.3179 19.4717 76.2842 19.3408 76.0922 19.3368C75.8675 19.3333 75.8144 19.4562 75.8144 19.6563V21.1745C75.8144 21.3465 75.8915 21.4483 76.0802 21.4483C76.326 21.4483 76.3334 21.2528 76.3334 21.0562V20.8138H76.0756V20.2622H77.0536V21.9313L76.5632 21.9307ZM82.9863 21.9261V18.8583H84.6348V19.4711H83.706V20.0364H84.6063V20.6503H83.706V21.3134H84.684V21.9261H82.9863ZM90.443 21.9261L91.1134 18.8583H91.9823L92.6488 21.9261H91.9211L91.8182 21.3288H91.2535L91.1672 21.9261H90.443Z" fill="#021334"/>
<path fill-rule="evenodd" clip-rule="evenodd" d="M91.5467 19.4121H91.5393L91.3301 20.7863H91.7468L91.5467 19.4121Z" fill="#021334"/>
<path fill-rule="evenodd" clip-rule="evenodd" d="M99.1382 21.9243H98.418V18.8564H99.4697C100.058 18.8564 100.353 19.0931 100.353 19.7024C100.353 20.0305 100.276 20.2626 99.9722 20.4026V20.4106C100.173 20.4564 100.316 20.5947 100.328 20.8079C100.348 21.0537 100.353 21.5807 100.394 21.7768C100.408 21.8177 100.432 21.8546 100.463 21.8843V21.9243H99.6772C99.6561 21.8678 99.6427 21.8088 99.6372 21.7488C99.6252 21.4784 99.6418 21.2252 99.6206 21.0366C99.6006 20.8479 99.5435 20.725 99.3748 20.7142H99.1382V21.9243Z" fill="#021334"/>
<path fill-rule="evenodd" clip-rule="evenodd" d="M99.1309 20.1639H99.3766C99.5853 20.1639 99.6344 19.9718 99.6344 19.7832C99.6344 19.4191 99.4824 19.4025 99.1309 19.4105V20.1639Z" fill="#021334"/>
</svg>
