<svg width="88" height="22" viewBox="0 0 88 22" fill="none" xmlns="http://www.w3.org/2000/svg">
<path fill-rule="evenodd" clip-rule="evenodd" d="M87.5243 11.0785C87.5243 15.9298 87.6953 20.7812 87.6953 20.7812H84.9266C84.9266 20.7812 85.0976 15.9298 85.0976 11.0785C85.0976 6.2271 84.9266 1.37573 84.9266 1.37573H87.6953C87.6953 1.37573 87.5243 6.2271 87.5243 11.0785ZM32.5587 11.0785C32.5587 15.9298 32.7297 20.7812 32.7297 20.7812H29.9609C29.9609 20.7812 30.1319 15.9298 30.1319 11.0785C30.1319 6.2271 29.9609 1.37573 29.9609 1.37573H32.7297C32.7297 1.37573 32.5587 6.2271 32.5587 11.0785ZM79.6835 14.4797C77.9325 12.0389 76.7941 10.3891 76.1226 9.39732C78.8702 6.49385 83.5517 1.37573 83.5517 1.37573H80.0801C80.0801 1.37573 77.8384 4.06871 74.6189 7.68749C73.6834 8.74279 72.7348 9.78644 71.7733 10.8182C71.7787 6.05666 71.9438 1.37573 71.9438 1.37573H69.175C69.175 1.37573 69.346 6.2271 69.346 11.0785C69.346 15.9298 69.175 20.7812 69.175 20.7812H71.9438C71.9438 20.7812 71.8356 17.7641 71.7923 14.1091C72.5904 13.2304 73.5411 12.1866 74.3895 11.2651C75.0047 12.0768 75.9229 13.3472 77.254 15.3043C79.6775 18.8674 80.8766 20.7812 80.8766 20.7812H84.2881C84.2881 20.7812 82.5096 18.4172 79.6856 14.4797M57.1673 19.5822C52.1747 19.5822 49.5693 15.7708 49.5693 11.0698C49.5693 6.36886 52.3473 2.61265 57.2241 2.61265C62.1009 2.61265 64.7646 6.3667 64.7646 11.0682C64.7646 15.7697 62.0749 19.5822 57.1673 19.5822ZM57.138 0.552734C51.4377 0.552734 46.8163 4.99775 46.8163 11.0704C46.8163 16.8789 51.1033 21.5874 57.138 21.5874C62.8384 21.5874 67.4603 17.3459 67.4603 11.0704C67.4603 4.56218 62.8384 0.552734 57.138 0.552734ZM48.9438 3.60933V1.33244H33.5559V3.60879C33.5559 3.60879 33.5364 3.4167 39.9824 3.39235C40.0316 5.25531 40.0933 8.16527 40.0933 11.0758C40.0933 15.9271 39.9218 20.7785 39.9218 20.7785H42.6905C42.6905 20.7785 42.5195 15.9277 42.5195 11.0763C42.5195 8.16527 42.5812 5.25531 42.6305 3.39289C48.9168 3.41562 48.742 3.59796 48.9433 3.60933" fill="#021334"/>
<path fill-rule="evenodd" clip-rule="evenodd" d="M17.0728 6.47084L15.7834 5.17657L20.9411 0L22.2305 1.29428L17.0728 6.47084ZM9.33532 6.47084L8.04591 5.17657L13.2035 0L14.4929 1.29428L9.33532 6.47084ZM1.59779 6.47084L0.310547 5.17711L5.46818 0.000541085L6.75758 1.29482L1.59779 6.47084ZM17.0728 14.2354L15.7834 12.9411L20.9411 7.76512L22.2305 9.05886L17.0728 14.2354ZM9.33532 14.2354L8.04591 12.9411L13.2035 7.76512L14.4929 9.05886L9.33532 14.2354ZM1.59779 14.2354L0.310547 12.9411L5.46818 7.76512L6.75758 9.05886L1.59779 14.2354ZM17.0728 22L15.7834 20.7057L20.9411 15.5292L22.2305 16.8234L17.0728 22ZM9.33532 22L8.04591 20.7057L13.2046 15.5292L14.494 16.8234L9.33532 22ZM1.59779 22L0.310547 20.7057L5.46818 15.5292L6.75758 16.8234L1.59779 22Z" fill="#021334"/>
</svg>
