<svg width="101" height="22" viewBox="0 0 101 22" fill="none" xmlns="http://www.w3.org/2000/svg">
<path fill-rule="evenodd" clip-rule="evenodd" d="M22.5418 7.7853C22.5418 11.834 24.4224 15.0802 28.4716 15.0802L41.8656 15.0722V11.4122H29.4674C27.4645 11.4122 26.5785 9.78879 26.5785 7.78587C26.5785 5.78296 27.4645 4.15902 29.4674 4.15902L41.865 4.15102V0.491012L28.4716 0.491012C24.4224 0.491012 22.5418 3.73603 22.5418 7.7853ZM17.6785 5.93672L4.83793 5.94758C4.35549 5.94758 4.11141 5.53774 4.11141 5.05473C4.11141 4.57229 4.35492 4.18074 4.83793 4.18074H21.3128V0.479577L4.6533 0.47615C2.1245 0.47615 0.40625 2.52593 0.40625 5.05473C0.40625 7.58352 2.12393 9.63388 4.6533 9.63388L17.2355 9.62359C17.7185 9.62359 17.9992 10.0334 17.9992 10.5159C17.9992 10.9989 17.7185 11.4087 17.2355 11.4087L0.908693 11.4019V15.095H17.6785C20.2073 15.095 21.8147 13.0441 21.8147 10.5159C21.8147 7.98708 20.2073 5.93672 17.6785 5.93672ZM82.675 0.479577V4.39052H89.464V15.0916H93.8916V4.39052H100.681V0.479577L82.675 0.479577ZM61.2728 1.69768C60.4611 1.07005 59.4282 0 52.9342 0C46.4407 0 45.4073 1.07005 44.5961 1.69768C43.0294 2.9998 42.2823 5.23307 42.2823 7.7853C42.2823 10.2827 42.9974 12.4748 44.4955 13.7872C45.2964 14.4268 46.4773 15.4226 52.9342 15.386C59.3917 15.4226 60.5714 14.4268 61.3734 13.7872C62.8716 12.4742 63.5873 10.2821 63.5873 7.7853C63.5873 5.23307 62.8396 2.9998 61.2728 1.69768Z" fill="#021334"/>
<path fill-rule="evenodd" clip-rule="evenodd" d="M58.455 10.7939C57.8062 11.3644 57.1792 11.8834 52.9355 11.8834C48.6925 11.8834 48.0649 11.3644 47.4161 10.7939C46.6667 10.1423 46.3203 9.0385 46.3203 7.7861C46.3203 6.41882 46.733 5.22816 47.6322 4.61025C48.2495 4.20669 48.84 3.46875 52.9355 3.46875C57.0317 3.46875 57.6222 4.20669 58.2395 4.61025C59.1381 5.22816 59.5513 6.41882 59.5513 7.7861C59.5513 9.03793 59.2038 10.1423 58.455 10.7939Z" fill="#021334"/>
<path fill-rule="evenodd" clip-rule="evenodd" d="M64.078 4.39141H70.8676V15.0925H75.2958V4.39141H82.0848V0.480469L64.078 0.480469V4.39141ZM1.24967 20.8989V21.1167C1.24967 21.2922 1.3074 21.4471 1.53605 21.4471C1.70353 21.4471 1.77726 21.2962 1.77726 21.1412C1.77726 20.8835 1.56463 20.7851 1.376 20.6702C1.15535 20.5439 0.966723 20.4245 0.831824 20.2695C0.700925 20.1146 0.623187 19.9254 0.623187 19.6556C0.623187 19.0795 0.970724 18.7851 1.52747 18.7851C2.15338 18.7851 2.47291 19.2024 2.43976 19.7785H1.77726C1.76869 19.599 1.77726 19.3533 1.54005 19.3367C1.39257 19.3247 1.30683 19.407 1.29025 19.5419C1.26968 19.7259 1.36342 19.8197 1.50689 19.918C1.77726 20.0901 2.00991 20.1958 2.17796 20.3513C2.34544 20.5073 2.44376 20.712 2.44376 21.0835C2.44376 21.6728 2.11623 22.0004 1.5189 22.0004C0.860404 22.0004 0.582031 21.6317 0.582031 21.2276V20.8995L1.24967 20.8989ZM8.21643 18.8582H10.0822V19.471H9.50141V21.9261H8.78118V19.471H8.21643V18.8582ZM16.6271 21.9261H15.9068V18.8582H16.9586C17.5479 18.8582 17.8423 19.0949 17.8423 19.7042C17.8423 20.0323 17.7646 20.2644 17.4616 20.4044V20.4124C17.6623 20.4582 17.8052 20.5965 17.8177 20.8097C17.8377 21.0555 17.8417 21.5825 17.8829 21.7786C17.897 21.8196 17.921 21.8565 17.9526 21.8861V21.9261H17.1667C17.1448 21.8698 17.1312 21.8107 17.1261 21.7506C17.1141 21.4802 17.1301 21.227 17.1095 21.0384C17.0889 20.8497 17.0318 20.7268 16.8643 20.716H16.6271V21.9261Z" fill="#021334"/>
<path fill-rule="evenodd" clip-rule="evenodd" d="M16.627 20.1639H16.8727C17.0814 20.1639 17.1305 19.9718 17.1305 19.7832C17.1305 19.4191 16.9791 19.4025 16.6275 19.4105L16.627 20.1639Z" fill="#021334"/>
<path fill-rule="evenodd" clip-rule="evenodd" d="M23.6094 21.9243L24.2804 18.8564H25.1476L25.8146 21.9243H25.0864L24.9835 21.3269H24.4193L24.3336 21.9243H23.6094Z" fill="#021334"/>
<path fill-rule="evenodd" clip-rule="evenodd" d="M24.7108 19.4121H24.7028L24.4941 20.7863H24.9114L24.7108 19.4121Z" fill="#021334"/>
<path fill-rule="evenodd" clip-rule="evenodd" d="M31.2773 18.8583H33.1431V19.4711H32.5617V21.9261H31.8421V19.4711H31.2773V18.8583ZM38.9843 21.9261V18.8583H40.6334V19.4711H39.7046V20.0364H40.6048V20.6503H39.7046V21.3134H40.682V21.9261H38.9843ZM48.0089 21.9307L47.9763 21.6563H47.9683C47.8208 21.9187 47.6574 22.0005 47.3464 22.0005C46.7365 22.0005 46.5404 21.5797 46.5404 21.0224V19.7632C46.5404 19.0955 46.8474 18.7852 47.5059 18.7852C48.1198 18.7852 48.4833 19.0464 48.4833 19.6729V19.9015H47.7637V19.734C47.7637 19.4717 47.7311 19.3408 47.5385 19.3368C47.3132 19.3333 47.2607 19.4562 47.2607 19.6563V21.1745C47.2607 21.3465 47.3384 21.4483 47.5264 21.4483C47.7717 21.4483 47.7802 21.2528 47.7802 21.0562V20.8138H47.5224V20.2622H48.4999V21.9313L48.0089 21.9307ZM54.4515 21.9261V18.8583H55.1717V21.9261H54.4515ZM62.33 19.9301V19.7335C62.33 19.4711 62.2351 19.3362 62.1002 19.3362C61.8755 19.3328 61.8224 19.4556 61.8224 19.6557L61.8189 21.1739C61.8189 21.346 61.8881 21.4477 62.0756 21.4477C62.3214 21.4477 62.3425 21.1945 62.3425 21.007V20.7281H63.0628V21.1053C63.0628 21.6323 62.7592 22.0005 62.0236 22.0005C61.3605 22.0005 61.1027 21.6489 61.1027 21.0224V19.7632C61.1027 19.0955 61.4097 18.7852 62.0682 18.7852C62.6821 18.7852 63.0508 19.0464 63.0508 19.6729V19.9301H62.33ZM76.9694 21.9307L76.9368 21.6563H76.9288C76.7813 21.9187 76.6173 22.0005 76.3069 22.0005C75.6976 22.0005 75.5009 21.5797 75.5009 21.0224V19.7632C75.5009 19.0955 75.8079 18.7852 76.4664 18.7852C77.0792 18.7852 77.4444 19.0464 77.4444 19.6729V19.9015H76.7242V19.734C76.7242 19.4717 76.6905 19.3408 76.4984 19.3368C76.2738 19.3333 76.2206 19.4562 76.2206 19.6563V21.1745C76.2206 21.3465 76.2978 21.4483 76.4864 21.4483C76.7322 21.4483 76.7396 21.2528 76.7396 21.0562V20.8138H76.4818V20.2622H77.4599V21.9313L76.9694 21.9307ZM83.3926 21.9261V18.8583H85.0411V19.4711H84.1122V20.0364H85.0125V20.6503H84.1122V21.3134H85.0902V21.9261H83.3926ZM90.8492 21.9261L91.5197 18.8583H92.3885L93.055 21.9261H92.3274L92.2245 21.3288H91.6597L91.5734 21.9261H90.8492Z" fill="#021334"/>
<path fill-rule="evenodd" clip-rule="evenodd" d="M91.953 19.4121H91.9455L91.7363 20.7863H92.153L91.953 19.4121Z" fill="#021334"/>
<path fill-rule="evenodd" clip-rule="evenodd" d="M99.5445 21.9243H98.8242V18.8564H99.876C100.464 18.8564 100.759 19.0931 100.759 19.7024C100.759 20.0305 100.682 20.2626 100.378 20.4026V20.4106C100.58 20.4564 100.723 20.5947 100.735 20.8079C100.755 21.0537 100.759 21.5807 100.8 21.7768C100.814 21.8177 100.838 21.8546 100.869 21.8843V21.9243H100.083C100.062 21.8678 100.049 21.8088 100.043 21.7488C100.031 21.4784 100.048 21.2252 100.027 21.0366C100.007 20.8479 99.9497 20.725 99.7811 20.7142H99.5445V21.9243Z" fill="#021334"/>
<path fill-rule="evenodd" clip-rule="evenodd" d="M99.5371 20.1639H99.7829C99.9915 20.1639 100.041 19.9718 100.041 19.7832C100.041 19.4191 99.8886 19.4025 99.5371 19.4105V20.1639Z" fill="#021334"/>
</svg>
