<svg width="128" height="29" viewBox="0 0 128 29" fill="none" xmlns="http://www.w3.org/2000/svg">
<g clip-path="url(#clip0_2628_1433)">
<path d="M121.363 4.21721C121.331 2.78699 122.454 1.58894 123.86 1.55743C124.54 1.5422 125.18 1.80938 125.683 2.26727C126.186 2.74862 126.459 3.39934 126.474 4.07928C126.489 4.75922 126.246 5.42149 125.765 5.92489C125.283 6.42829 124.656 6.72383 123.977 6.73906C122.57 6.77057 121.395 5.64743 121.363 4.21721ZM121.152 4.22194C121.187 5.76939 122.458 7.00766 124.005 6.973C124.755 6.95619 125.429 6.6596 125.933 6.10879C126.437 5.55797 126.726 4.84775 126.709 4.09747C126.692 3.34719 126.395 2.6501 125.844 2.12292C125.292 1.59573 124.606 1.32961 123.879 1.34589C122.332 1.38055 121.117 2.67448 121.152 4.22194ZM122.924 5.84776L123.323 5.83883L123.294 4.52584L124.185 4.50588C124.325 4.50273 124.442 4.50011 124.537 4.5449C124.656 4.61261 124.73 4.75171 124.757 4.93876L124.816 5.45353L124.821 5.68799C124.845 5.73436 124.846 5.7578 124.87 5.78072L125.362 5.7697L125.361 5.69936C125.29 5.67749 125.265 5.60767 125.239 5.51441C125.215 5.46805 125.213 5.37426 125.21 5.25703L125.178 4.85897C125.173 4.6714 125.124 4.55522 125.075 4.48593C125.004 4.41716 124.908 4.34893 124.79 4.30466C124.929 4.23117 125.021 4.13528 125.088 4.01648C125.156 3.89767 125.176 3.75647 125.172 3.5689C125.164 3.2172 125.018 2.98589 124.757 2.85099C124.615 2.7838 124.427 2.76456 124.216 2.76928L122.88 2.79922L122.924 5.84776ZM123.262 4.17467L123.239 3.11959L124.176 3.09858C124.317 3.09543 124.435 3.11625 124.506 3.16157C124.649 3.22876 124.723 3.39131 124.727 3.60232C124.732 3.81334 124.688 3.95507 124.573 4.02803C124.48 4.10047 124.341 4.15051 124.153 4.15472L123.262 4.17467ZM12.2604 10.5316L1.26679 28.6998L9.05096 28.5254L19.6404 11.1638L12.2604 10.5316ZM59.1675 9.08212L59.0189 2.44682L36.8622 2.94311C33.8418 3.19843 32.5614 4.68151 31.5997 5.7352C30.5693 6.86081 30.0352 9.19512 30.0352 9.19512L29.8997 3.14598L18.1062 3.41014C17.2152 3.4301 16.3796 3.82415 15.7665 4.72929C15.1294 5.6115 12.5329 10.1267 12.5329 10.1267L59.1675 9.08212ZM119.424 7.73242L119.276 1.09713L95.5716 1.62808C92.5747 1.88287 91.2708 3.36648 90.3092 4.42017C89.2788 5.54578 88.7446 7.88009 88.7446 7.88009L88.7567 8.41935L119.424 7.73242ZM66.8036 2.29591L60.1683 2.44454L60.3164 9.05639L66.9517 8.90776L66.8036 2.29591ZM88.5383 1.80908L81.9264 1.95718L82.0745 8.56903L88.6864 8.42093L88.5383 1.80908ZM88.74 10.8124L82.213 10.5599L82.3847 18.2268C82.3847 18.2268 82.4106 20.4313 80.277 20.4791L69.1166 20.729C69.1166 20.729 67.2137 20.6075 67.1686 18.5911L66.9732 9.86906L60.3978 9.54718L60.6609 21.2938C61.842 26.8972 66.9398 27.2288 66.9398 27.2288C66.9398 27.2288 67.4562 27.2406 67.5505 27.262L82.6733 26.9233C82.6733 26.9233 89.1329 26.2625 88.9932 20.0258L88.74 10.8124ZM23.7049 28.1972L54.7009 27.5029C60.0693 26.3036 60.5218 21.3673 60.5218 21.3673C60.7471 19.9078 60.5797 18.7152 60.5797 18.7152C60.3935 17.7341 58.4201 13.4151 54.3789 13.1303C51.9587 12.95 30.4201 11.72 30.4201 11.72C30.8905 13.8676 31.8765 14.948 32.5466 15.5429C34.0792 16.9395 36.4567 17.3085 36.4567 17.3085L53.0642 18.3205C53.5806 18.3324 54.545 18.4516 54.5499 19.7182C54.5536 19.8823 54.4376 20.9875 53.2184 21.0148L30.0301 21.5342L29.8095 11.6867L23.3513 11.3622C23.3278 11.3627 23.7049 28.1972 23.7049 28.1972ZM89.1445 26.7783L112.872 26.2468C118.82 25.7617 119.537 20.0923 119.537 20.0923C119.715 18.6104 119.524 17.3949 119.524 17.3949C119.33 16.0622 117.34 12.0719 113.275 11.7642C110.878 11.5833 89.2089 10.8019 89.2089 10.8019C89.8918 13.0152 90.7746 13.6757 91.4447 14.2706C92.9778 15.6906 95.2126 15.969 95.2126 15.969C95.7763 16.0033 111.985 17.0008 111.985 17.0008C112.501 17.0127 113.557 17.0359 113.586 18.302C113.594 18.6772 113.415 19.08 113.186 19.2962C113.186 19.2962 112.63 19.6136 112.09 19.6257L89.0662 20.1414L89.1445 26.7783Z" fill="white"/>
</g>
<defs>
<clipPath id="clip0_2628_1433">
<rect width="126.008" height="25" fill="white" transform="translate(0.686523 3.75391) rotate(-1.28315)"/>
</clipPath>
</defs>
</svg>
