<svg width="112" height="23" viewBox="0 0 112 23" fill="none" xmlns="http://www.w3.org/2000/svg">
<g clip-path="url(#clip0_2628_752)">
<path d="M106.333 3.28612C106.333 2.0272 107.344 0.99531 108.583 0.99531C109.181 0.99531 109.738 1.24296 110.172 1.65572C110.605 2.08912 110.832 2.66698 110.832 3.26548C110.832 3.86398 110.605 4.44184 110.172 4.87523C109.738 5.30863 109.181 5.55628 108.583 5.55628C107.344 5.55628 106.333 4.54503 106.333 3.28612ZM106.147 3.28612C106.147 4.64822 107.241 5.76266 108.603 5.76266C109.264 5.76266 109.862 5.51501 110.316 5.04034C110.77 4.56567 111.039 3.94653 111.039 3.28612C111.039 2.6257 110.791 2.00657 110.316 1.53189C109.842 1.05722 109.243 0.809568 108.603 0.809568C107.241 0.809568 106.147 1.92401 106.147 3.28612ZM107.675 4.75141H108.025V3.59568H108.81C108.933 3.59568 109.037 3.59568 109.119 3.63696C109.222 3.69887 109.284 3.8227 109.305 3.9878L109.346 4.44184V4.64822C109.367 4.68949 109.367 4.71013 109.387 4.73077H109.821V4.66886C109.759 4.64822 109.738 4.5863 109.718 4.50375C109.697 4.46248 109.697 4.37992 109.697 4.27673L109.676 3.92589C109.676 3.76079 109.635 3.6576 109.594 3.59568C109.532 3.53377 109.449 3.47186 109.346 3.43058C109.47 3.36867 109.553 3.28612 109.615 3.18293C109.676 3.07974 109.697 2.95591 109.697 2.79081C109.697 2.48124 109.573 2.27486 109.346 2.15103C109.222 2.08912 109.057 2.06848 108.872 2.06848H107.695L107.675 4.75141ZM108.005 3.28612V2.35741H108.83C108.954 2.35741 109.057 2.37805 109.119 2.41932C109.243 2.48124 109.305 2.6257 109.305 2.81144C109.305 2.99719 109.264 3.12101 109.16 3.18293C109.078 3.24484 108.954 3.28612 108.789 3.28612H108.005ZM10.2224 6.69137L0.192383 22.4587H7.04417L16.7027 7.39306L10.2224 6.69137ZM51.5188 6.34052V0.5H32.016C29.3537 0.665103 28.198 1.94465 27.3312 2.85272C26.4025 3.8227 25.8866 5.86585 25.8866 5.86585V0.541276H15.5057C14.7215 0.541276 13.9785 0.871482 13.4213 1.65572C12.8434 2.41932 10.4701 6.34052 10.4701 6.34052H51.5188ZM104.558 6.34052V0.5H83.6933C81.0517 0.665103 79.8753 1.94465 79.0085 2.85272C78.0798 3.8227 77.5639 5.86585 77.5639 5.86585V6.34052H104.558ZM58.3706 0.520638H52.5301V6.34052H58.3706V0.520638ZM77.502 0.520638H71.6821V6.34052H77.502V0.520638ZM77.502 8.44559L71.7646 8.09475V14.8433C71.7646 14.8433 71.744 16.7833 69.8659 16.7833H60.0423C60.0423 16.7833 58.3706 16.6388 58.3706 14.864V7.18668L52.592 6.77392V17.1135C53.5207 22.0666 57.9991 22.4587 57.9991 22.4587C57.9991 22.4587 58.4532 22.4794 58.5357 22.5H71.8472C71.8472 22.5 77.5432 22.046 77.5432 16.5563L77.502 8.44559ZM19.9429 22.4587H47.2262C51.9729 21.5094 52.4682 17.1754 52.4682 17.1754C52.6952 15.8959 52.5714 14.8433 52.5714 14.8433C52.4269 13.9765 50.7759 10.1379 47.2262 9.80769C45.1004 9.60131 26.1755 8.09475 26.1755 8.09475C26.547 9.99343 27.3931 10.9634 27.971 11.5C29.2918 12.7589 31.3762 13.1304 31.3762 13.1304L45.9672 14.348C46.4213 14.3687 47.2674 14.4925 47.2468 15.6069C47.2468 15.7514 47.123 16.7214 46.0498 16.7214H25.6389V8.05347L19.9635 7.64071C19.9429 7.64071 19.9429 22.4587 19.9429 22.4587ZM77.5432 22.5H98.4288C103.671 22.1904 104.414 17.2167 104.414 17.2167C104.6 15.9165 104.455 14.8433 104.455 14.8433C104.311 13.667 102.639 10.1173 99.0686 9.76642C96.9635 9.56004 77.9147 8.44559 77.9147 8.44559C78.4719 10.4062 79.2355 11.0047 79.8134 11.5413C81.1342 12.8208 83.0948 13.1098 83.0948 13.1098C83.5901 13.151 97.8303 14.348 97.8303 14.348C98.2843 14.3687 99.213 14.4099 99.213 15.5244C99.213 15.8546 99.0479 16.2054 98.8415 16.3912C98.8415 16.3912 98.3462 16.6595 97.8716 16.6595H77.6051L77.5432 22.5Z" fill="#03163B"/>
</g>
<defs>
<clipPath id="clip0_2628_752">
<rect width="110.887" height="22" fill="white" transform="translate(0.172852 0.5)"/>
</clipPath>
</defs>
</svg>
