<svg width="169" height="23" viewBox="0 0 169 23" fill="none" xmlns="http://www.w3.org/2000/svg">
<g clip-path="url(#clip0_2628_736)">
<path d="M144.134 9.22977V22.487H148.371V13.6488H163.868V22.487H168.106V9.22977H144.134ZM147.887 4.93177H164.231C166.532 4.50802 168.166 2.44982 168.651 0.512695H143.468C143.952 2.44982 145.647 4.44749 147.887 4.93177ZM131.24 22.487C133.359 21.579 134.509 20.005 134.993 18.189H115.924V0.573231H111.626V22.487H131.24ZM79.8454 4.87123H94.9792C97.2796 4.20534 99.1562 2.44982 99.6405 0.573231H75.6685V13.5278H95.2819V18.0679H79.906C77.4846 18.7338 75.4264 20.3682 74.3973 22.487H99.5194V9.22977H79.906L79.8454 4.87123ZM42.5558 4.93177H58.9003C61.2006 4.50802 62.8956 2.44982 63.3193 0.512695H38.0762C38.5605 2.44982 40.2554 4.44749 42.5558 4.93177ZM42.5558 13.5883H58.9003C61.2006 13.1646 62.8956 11.1064 63.3193 9.16923H38.0762C38.5605 11.1064 40.2554 13.104 42.5558 13.5883ZM42.5558 22.487H58.9003C61.2006 22.0632 62.8956 20.005 63.3193 18.0679H38.0762C38.5605 20.005 40.2554 22.0632 42.5558 22.487Z" fill="#03163B"/>
<path d="M0 0.573231C0.484282 2.51036 2.17927 4.44748 4.41907 4.93177H11.3201L11.6833 5.05284V22.4264H15.9813V5.05284L16.3445 4.93177H23.2455C25.5459 4.32641 27.1803 2.51036 27.6646 0.573231V0.512695L0 0.573231Z" fill="#03163B"/>
</g>
<defs>
<clipPath id="clip0_2628_736">
<rect width="168.712" height="22" fill="white" transform="translate(0 0.5)"/>
</clipPath>
</defs>
</svg>
