<svg width="128" height="29" viewBox="0 0 128 29" fill="none" xmlns="http://www.w3.org/2000/svg">
<g clip-path="url(#clip0_2628_1454)">
<path d="M121.339 4.15666C121.307 2.72644 122.429 1.52839 123.836 1.49688C124.516 1.48165 125.155 1.74883 125.658 2.20673C126.162 2.68807 126.434 3.33879 126.449 4.01873C126.465 4.69867 126.221 5.36094 125.74 5.86435C125.259 6.36775 124.632 6.66328 123.952 6.67851C122.545 6.71002 121.371 5.58689 121.339 4.15666ZM121.128 4.16139C121.162 5.70884 122.433 6.94711 123.981 6.91245C124.731 6.89564 125.405 6.59906 125.908 6.04824C126.412 5.49742 126.701 4.78721 126.684 4.03693C126.668 3.28664 126.371 2.58956 125.819 2.06237C125.268 1.53519 124.582 1.26906 123.855 1.28534C122.307 1.32 121.093 2.61394 121.128 4.16139ZM122.9 5.78721L123.299 5.77829L123.269 4.46529L124.16 4.44534C124.301 4.44219 124.418 4.43956 124.513 4.48435C124.632 4.55207 124.705 4.69117 124.733 4.87821L124.791 5.39298L124.797 5.62744C124.821 5.67381 124.822 5.69726 124.845 5.72018L125.338 5.70915L125.336 5.63881C125.265 5.61694 125.24 5.54713 125.215 5.45387C125.19 5.4075 125.188 5.31371 125.186 5.19648L125.153 4.79842C125.149 4.61085 125.1 4.49467 125.051 4.42538C124.979 4.35662 124.884 4.28838 124.766 4.24411C124.905 4.17062 124.996 4.07474 125.064 3.95593C125.132 3.83712 125.152 3.69592 125.148 3.50835C125.14 3.15666 124.994 2.92534 124.733 2.79044C124.591 2.72326 124.403 2.70401 124.192 2.70874L122.855 2.73867L122.9 5.78721ZM123.238 4.11413L123.214 3.05904L124.152 3.03804C124.293 3.03488 124.41 3.05571 124.482 3.10102C124.624 3.16821 124.698 3.33076 124.703 3.54178C124.708 3.75279 124.664 3.89452 124.548 3.96748C124.456 4.03992 124.316 4.08997 124.129 4.09417L123.238 4.11413ZM12.236 10.471L1.24238 28.6392L9.02654 28.4649L19.616 11.1033L12.236 10.471ZM59.1431 9.02157L58.9945 2.38628L36.8377 2.88257C33.8174 3.13788 32.537 4.62096 31.5753 5.67466C30.5449 6.80026 30.0108 9.13457 30.0108 9.13457L29.8753 3.08543L18.0818 3.3496C17.1908 3.36955 16.3552 3.7636 15.7421 4.66874C15.105 5.55096 12.5085 10.0661 12.5085 10.0661L59.1431 9.02157ZM119.4 7.67188L119.251 1.03658L95.5472 1.56753C92.5503 1.82232 91.2464 3.30593 90.2848 4.35962C89.2544 5.48523 88.7202 7.81954 88.7202 7.81954L88.7323 8.3588L119.4 7.67188ZM66.7792 2.23537L60.1439 2.38399L60.292 8.99584L66.9273 8.84722L66.7792 2.23537ZM88.5139 1.74853L81.902 1.89663L82.0501 8.50848L88.662 8.36038L88.5139 1.74853ZM88.7155 10.7519L82.1885 10.4993L82.3603 18.1662C82.3603 18.1662 82.3862 20.3707 80.2526 20.4185L69.0922 20.6685C69.0922 20.6685 67.1893 20.5469 67.1442 18.5305L66.9488 9.80851L60.3733 9.48664L60.6365 21.2332C61.8176 26.8367 66.9154 27.1682 66.9154 27.1682C66.9154 27.1682 67.4317 27.1801 67.5261 27.2014L82.6489 26.8627C82.6489 26.8627 89.1085 26.2019 88.9688 19.9652L88.7155 10.7519ZM23.6805 28.1366L54.6764 27.4424C60.0449 26.243 60.4973 21.3067 60.4973 21.3067C60.7227 19.8473 60.5552 18.6547 60.5552 18.6547C60.3691 17.6736 58.3957 13.3546 54.3545 13.0698C51.9343 12.8894 30.3957 11.6594 30.3957 11.6594C30.8661 13.807 31.8521 14.8875 32.5222 15.4824C34.0548 16.879 36.4323 17.248 36.4323 17.248L53.0398 18.26C53.5562 18.2719 54.5206 18.391 54.5255 19.6577C54.5292 19.8218 54.4132 20.9269 53.194 20.9542L30.0056 21.4736L29.7851 11.6262L23.3268 11.3017C23.3034 11.3022 23.6805 28.1366 23.6805 28.1366ZM89.1201 26.7178L112.848 26.1863C118.795 25.7012 119.513 20.0317 119.513 20.0317C119.691 18.5499 119.499 17.3344 119.499 17.3344C119.305 16.0016 117.316 12.0114 113.251 11.7037C110.854 11.5228 89.1845 10.7414 89.1845 10.7414C89.8674 12.9546 90.7501 13.6151 91.4203 14.21C92.9534 15.6301 95.1882 15.9084 95.1882 15.9084C95.7519 15.9427 111.96 16.9402 111.96 16.9402C112.477 16.9521 113.533 16.9754 113.561 18.2415C113.57 18.6166 113.391 19.0194 113.161 19.2357C113.161 19.2357 112.605 19.5531 112.066 19.5652L89.0418 20.0809L89.1201 26.7178Z" fill="white"/>
</g>
<defs>
<clipPath id="clip0_2628_1454">
<rect width="126.008" height="25" fill="white" transform="translate(0.662109 3.69336) rotate(-1.28315)"/>
</clipPath>
</defs>
</svg>
