<svg width="116" height="29" viewBox="0 0 116 29" fill="none" xmlns="http://www.w3.org/2000/svg">
<path fill-rule="evenodd" clip-rule="evenodd" d="M25.8947 11.3225C25.9977 15.9221 28.2168 19.5621 32.8171 19.4591L48.0335 19.1092L47.9403 14.9511L33.855 15.2666C31.5795 15.3176 30.5317 13.4959 30.4807 11.2204C30.4297 8.94491 31.395 7.07744 33.6704 7.02648L47.7549 6.7019L47.6618 2.54384L32.4458 2.88466C27.8455 2.98771 25.7916 6.72216 25.8947 11.3225ZM20.3226 9.34608L5.73492 9.68517C5.18683 9.69745 4.89911 9.23804 4.88682 8.6893C4.87454 8.14122 5.14122 7.69019 5.68996 7.6779L24.4067 7.25866L24.3126 3.05384L5.38593 3.47388C2.51302 3.53824 0.613106 5.91068 0.677456 8.78359C0.741806 11.6565 2.74541 13.9422 5.61897 13.8778L19.9131 13.5459C20.4619 13.5336 20.7912 13.9921 20.8034 14.5402C20.8157 15.0889 20.5073 15.5617 19.9586 15.574L1.40979 15.9817L1.50377 20.1774L20.5556 19.7506C23.4286 19.6863 25.2025 17.3154 25.1381 14.4431C25.0738 11.5702 23.1955 9.28173 20.3226 9.34608ZM94.0248 1.49236L94.1244 5.9355L101.837 5.76274L102.11 17.92L107.14 17.8073L106.867 5.65007L114.58 5.47731L114.481 1.03417L94.0248 1.49236ZM69.7413 3.42084C68.8032 2.72846 67.6025 1.53908 60.2248 1.70433C52.8477 1.86957 51.7008 3.11154 50.7953 3.84521C49.0484 5.3644 48.2565 7.92058 48.3214 10.8201C48.385 13.6573 49.2532 16.1295 50.9886 17.5824C51.9147 18.2887 53.2817 19.3899 60.6163 19.184C67.9534 19.0613 69.2684 17.9 70.1632 17.1529C71.8319 15.6231 72.5891 13.1145 72.5256 10.278C72.4607 7.37843 71.5544 4.86028 69.7413 3.42084Z" fill="white"/>
<path fill-rule="evenodd" clip-rule="evenodd" d="M66.7692 13.8247C66.0467 14.4893 65.3475 15.0949 60.5264 15.2029C55.706 15.3109 54.9797 14.7372 54.2282 14.1056C53.3602 13.3844 52.9386 12.1392 52.9067 10.7164C52.8719 9.16303 53.3105 7.79985 54.3163 7.07497C55.0074 6.60079 55.6594 5.74741 60.3123 5.64319C64.9658 5.53895 65.6554 6.36229 66.3671 6.80505C67.4036 7.48418 67.9034 8.82634 67.9382 10.3797C67.9701 11.8019 67.6034 13.0653 66.7692 13.8247Z" fill="white"/>
<path fill-rule="evenodd" clip-rule="evenodd" d="M72.9958 6.40841L80.7092 6.23564L80.9815 18.3929L86.0124 18.2802L85.7401 6.12295L93.4529 5.95019L93.3534 1.50705L72.8962 1.96527L72.9958 6.40841ZM2.03784 26.761L2.04339 27.0084C2.04785 27.2078 2.11738 27.3823 2.37714 27.3765C2.56741 27.3722 2.64734 27.1989 2.6434 27.0229C2.63684 26.7301 2.39277 26.6238 2.17554 26.498C1.92166 26.3601 1.70432 26.2292 1.54712 26.0567C1.39447 25.884 1.30134 25.671 1.29447 25.3645C1.27981 24.7099 1.66715 24.3667 2.29966 24.3525C3.01074 24.3366 3.38437 24.8025 3.36137 25.4579L2.60872 25.4748C2.59442 25.2711 2.5979 24.9916 2.32798 24.9788C2.16013 24.9689 2.06482 25.0646 2.04942 25.2183C2.03072 25.428 2.13961 25.5321 2.30511 25.6401C2.61665 25.8287 2.88365 25.9429 3.07852 26.1153C3.27277 26.2883 3.38967 26.5183 3.39912 26.9404C3.41412 27.6099 3.05035 27.9903 2.37174 28.0055C1.62364 28.0223 1.298 27.6105 1.28772 27.1514L1.27937 26.7787L2.03784 26.761ZM9.90071 24.2654L12.0203 24.2179L12.0359 24.9141L11.3761 24.9288L11.4386 27.718L10.6204 27.7363L10.5579 24.9472L9.9163 24.9615L9.90071 24.2654ZM19.5339 27.5367L18.7157 27.555L18.6376 24.0697L19.8325 24.0429C20.502 24.0279 20.8425 24.2893 20.858 24.9816C20.8664 25.3543 20.7839 25.6199 20.4433 25.7867L20.4435 25.7958C20.6726 25.8427 20.8385 25.9962 20.8582 26.2381C20.8872 26.5168 20.9052 27.1155 20.9569 27.3372C20.974 27.3834 21.0021 27.4247 21.0389 27.4575L21.0399 27.5029L20.147 27.5229C20.1207 27.4596 20.1037 27.3928 20.0964 27.3246C20.0759 27.0177 20.0876 26.7297 20.0594 26.5159C20.0313 26.3021 19.9632 26.1639 19.7726 26.1559L19.5031 26.1619L19.5339 27.5367Z" fill="white"/>
<path fill-rule="evenodd" clip-rule="evenodd" d="M19.488 25.5361L19.7672 25.5299C20.0042 25.5246 20.0552 25.3051 20.0504 25.0908C20.0411 24.6772 19.8686 24.6622 19.4694 24.6802L19.488 25.5361Z" fill="white"/>
<path fill-rule="evenodd" clip-rule="evenodd" d="M27.4677 27.3574L28.152 23.855L29.1372 23.8329L29.9731 27.3012L29.1457 27.3198L29.0137 26.6438L28.3727 26.6581L28.2905 27.3389L27.4677 27.3574Z" fill="white"/>
<path fill-rule="evenodd" clip-rule="evenodd" d="M28.6543 24.4759L28.6452 24.4761L28.4432 26.0426L28.9172 26.032L28.6543 24.4759Z" fill="white"/>
<path fill-rule="evenodd" clip-rule="evenodd" d="M36.0995 23.6798L38.2191 23.6323L38.2347 24.3285L37.5743 24.3433L37.6368 27.1324L36.8192 27.1507L36.7567 24.3616L36.1151 24.3759L36.0995 23.6798ZM44.9333 26.969L44.8553 23.4837L46.7288 23.4417L46.7444 24.1379L45.6891 24.1615L45.7035 24.8037L46.7263 24.7808L46.7419 25.4783L45.7191 25.5012L45.736 26.2545L46.8464 26.2296L46.862 26.9258L44.9333 26.969ZM55.1861 26.7445L55.1421 26.4336L55.133 26.4338C54.9721 26.7357 54.7885 26.8327 54.4352 26.8406C53.7423 26.8561 53.5088 26.3832 53.4947 25.75L53.4626 24.3194C53.4456 23.5609 53.7865 23.2005 54.5346 23.1837C55.232 23.1681 55.6517 23.4556 55.6676 24.1673L55.6734 24.4271L54.8558 24.4454L54.8516 24.2551C54.8449 23.9571 54.8046 23.8092 54.5856 23.8095C54.3297 23.8114 54.273 23.9523 54.2781 24.1796L54.3168 25.9044C54.3211 26.0999 54.4121 26.2135 54.6257 26.2087C54.9043 26.2025 54.9091 25.9802 54.9041 25.7568L54.8979 25.4814L54.605 25.488L54.591 24.8613L55.7014 24.8364L55.7439 26.7327L55.1861 26.7445ZM62.5053 26.5754L62.4272 23.0901L63.2454 23.0718L63.3235 26.557L62.5053 26.5754ZM71.405 24.1072L71.4 23.8838C71.3934 23.5858 71.2821 23.4349 71.1289 23.4383C70.8736 23.4402 70.8163 23.5811 70.8214 23.8084L70.8561 25.5333C70.8605 25.7288 70.9417 25.8426 71.1547 25.8378C71.4339 25.8316 71.4515 25.5434 71.4467 25.3304L71.4396 25.0134L72.2579 24.9951L72.2675 25.4237C72.2809 26.0225 71.9454 26.4484 71.1096 26.4671C70.3563 26.484 70.0545 26.0912 70.0386 25.3794L70.0065 23.9488C69.9896 23.1903 70.3304 22.8299 71.0785 22.8131C71.7759 22.7975 72.2014 23.0849 72.2174 23.7966L72.2239 24.0889L71.405 24.1072ZM88.0875 26.0076L88.0435 25.6967L88.0344 25.6969C87.8736 25.9987 87.6893 26.0957 87.3367 26.1036C86.6444 26.1191 86.4103 25.6462 86.3961 25.013L86.3641 23.5824C86.3471 22.8239 86.6879 22.4635 87.436 22.4468C88.1322 22.4312 88.5538 22.7186 88.5697 23.4304L88.5755 23.6901L87.7573 23.7085L87.7531 23.5182C87.7464 23.2201 87.7047 23.0723 87.4864 23.0726C87.2311 23.0744 87.1739 23.2154 87.1789 23.4427L87.2176 25.1675C87.222 25.3629 87.3122 25.4766 87.5265 25.4718C87.8058 25.4655 87.8092 25.2432 87.8042 25.0198L87.7981 24.7445L87.5052 24.7511L87.4911 24.1244L88.6023 24.0995L88.6447 25.9957L88.0875 26.0076ZM95.3846 25.8389L95.3066 22.3536L97.1794 22.3117L97.195 23.0078L96.1397 23.0315L96.1541 23.6737L97.1769 23.6508L97.1926 24.3482L96.1698 24.3712L96.1866 25.1244L97.2977 25.0996L97.3133 25.7957L95.3846 25.8389ZM103.856 25.6492L104.54 22.1468L105.527 22.1247L106.362 25.593L105.535 25.6115L105.403 24.9355L104.762 24.9499L104.679 25.6307L103.856 25.6492Z" fill="white"/>
<path fill-rule="evenodd" clip-rule="evenodd" d="M105.049 22.765L105.04 22.7652L104.838 24.3316L105.311 24.321L105.049 22.765Z" fill="white"/>
<path fill-rule="evenodd" clip-rule="evenodd" d="M113.734 25.4259L112.916 25.4443L112.838 21.959L114.033 21.9322C114.701 21.9173 115.042 22.1786 115.058 22.8708C115.066 23.2436 114.984 23.5092 114.643 23.676L114.643 23.6851C114.873 23.732 115.039 23.8855 115.058 24.1274C115.087 24.4061 115.105 25.0048 115.157 25.2264C115.174 25.2726 115.202 25.3139 115.238 25.3468L115.239 25.3922L114.347 25.4122C114.321 25.3486 114.304 25.2819 114.297 25.2139C114.276 24.907 114.289 24.6189 114.26 24.4052C114.232 24.1914 114.164 24.0532 113.972 24.0452L113.703 24.0512L113.734 25.4259Z" fill="white"/>
<path fill-rule="evenodd" clip-rule="evenodd" d="M113.685 23.4258L113.964 23.4195C114.201 23.4142 114.252 23.1948 114.248 22.9805C114.238 22.5668 114.065 22.5518 113.666 22.5699L113.685 23.4258Z" fill="white"/>
</svg>
