<svg width="116" height="29" viewBox="0 0 116 29" fill="none" xmlns="http://www.w3.org/2000/svg">
<path fill-rule="evenodd" clip-rule="evenodd" d="M25.9191 11.383C26.0221 15.9826 28.2412 19.6227 32.8415 19.5196L48.0579 19.1697L47.9647 15.0117L33.8794 15.3272C31.6039 15.3781 30.5561 13.5564 30.5051 11.2809C30.4541 9.00546 31.4194 7.13799 33.6948 7.08702L47.7793 6.76245L47.6862 2.60439L32.4703 2.94521C27.87 3.04825 25.816 6.7827 25.9191 11.383ZM20.347 9.40662L5.75933 9.74572C5.21124 9.75799 4.92352 9.29859 4.91123 8.74985C4.89896 8.20176 5.16563 7.75073 5.71437 7.73844L24.4312 7.3192L24.337 3.11439L5.41034 3.53443C2.53743 3.59878 0.63752 5.97122 0.70187 8.84414C0.76622 11.717 2.76982 14.0027 5.64338 13.9383L19.9375 13.6065C20.4863 13.5942 20.8156 14.0527 20.8278 14.6007C20.8401 15.1495 20.5317 15.6222 19.983 15.6345L1.4342 16.0422L1.52818 20.2379L20.5801 19.8112C23.453 19.7468 25.2269 17.3759 25.1625 14.5036C25.0982 11.6307 23.2199 9.34227 20.347 9.40662ZM94.0493 1.5529L94.1488 5.99605L101.862 5.82329L102.134 17.9806L107.164 17.8679L106.892 5.71062L114.605 5.53786L114.505 1.09471L94.0493 1.5529ZM69.7657 3.48138C68.8276 2.78901 67.6269 1.59963 60.2492 1.76488C52.8721 1.93012 51.7252 3.17208 50.8197 3.90576C49.0728 5.42494 48.2809 7.98113 48.3459 10.8807C48.4094 13.7179 49.2776 16.1901 51.013 17.643C51.9391 18.3493 53.3061 19.4504 60.6407 19.2446C67.9778 19.1218 69.2928 17.9605 70.1876 17.2135C71.8563 15.6837 72.6135 13.1751 72.55 10.3385C72.4851 7.43898 71.5788 4.92083 69.7657 3.48138Z" fill="white"/>
<path fill-rule="evenodd" clip-rule="evenodd" d="M66.7936 13.8852C66.0711 14.5498 65.3719 15.1555 60.5508 15.2634C55.7304 15.3714 55.0042 14.7977 54.2526 14.1661C53.3846 13.4449 52.963 12.1997 52.9312 10.7769C52.8964 9.22358 53.3349 7.86039 54.3407 7.13552C55.0318 6.66134 55.6838 5.80795 60.3367 5.70373C64.9903 5.5995 65.6799 6.42283 66.3915 6.8656C67.428 7.54472 67.9278 8.88689 67.9626 10.4402C67.9945 11.8624 67.6278 13.1259 66.7936 13.8852Z" fill="white"/>
<path fill-rule="evenodd" clip-rule="evenodd" d="M73.0202 6.46896L80.7336 6.29619L81.006 18.4535L86.0368 18.3408L85.7645 6.1835L93.4773 6.01074L93.3778 1.5676L72.9206 2.02582L73.0202 6.46896ZM2.06226 26.8216L2.0678 27.069C2.07227 27.2683 2.1418 27.4429 2.40155 27.437C2.59183 27.4328 2.67176 27.2595 2.66782 27.0835C2.66125 26.7906 2.41718 26.6843 2.19996 26.5586C1.94608 26.4207 1.72874 26.2898 1.57154 26.1172C1.41888 25.9446 1.32575 25.7316 1.31889 25.4251C1.30422 24.7705 1.69156 24.4272 2.32407 24.413C3.03516 24.3971 3.40879 24.863 3.38578 25.5185L2.63314 25.5353C2.61883 25.3316 2.62232 25.0522 2.3524 25.0394C2.18455 25.0295 2.08923 25.1252 2.07383 25.2789C2.05514 25.4885 2.16403 25.5926 2.32952 25.7007C2.64107 25.8892 2.90806 26.0035 3.10294 26.1758C3.29718 26.3488 3.41408 26.5788 3.42354 27.0009C3.43853 27.6704 3.07477 28.0509 2.39615 28.0661C1.64805 28.0828 1.32242 27.6711 1.31213 27.2119L1.30378 26.8392L2.06226 26.8216ZM9.92513 24.3259L12.0447 24.2785L12.0603 24.9746L11.4006 24.9894L11.463 27.7785L10.6448 27.7969L10.5823 25.0077L9.94072 25.0221L9.92513 24.3259ZM19.5584 27.5972L18.7401 27.6155L18.6621 24.1302L19.8569 24.1035C20.5265 24.0885 20.8669 24.3498 20.8824 25.0421C20.8908 25.4148 20.8084 25.6805 20.4677 25.8473L20.4679 25.8564C20.697 25.9032 20.8629 26.0567 20.8826 26.2986C20.9116 26.5774 20.9296 27.176 20.9813 27.3977C20.9984 27.4439 21.0265 27.4852 21.0633 27.518L21.0643 27.5635L20.1714 27.5835C20.1452 27.5201 20.1281 27.4533 20.1208 27.3851C20.1003 27.0783 20.112 26.7902 20.0838 26.5764C20.0557 26.3627 19.9876 26.2245 19.7971 26.2164L19.5276 26.2224L19.5584 27.5972Z" fill="white"/>
<path fill-rule="evenodd" clip-rule="evenodd" d="M19.5124 25.5967L19.7916 25.5904C20.0286 25.5851 20.0796 25.3657 20.0748 25.1514C20.0655 24.7377 19.893 24.7227 19.4938 24.7408L19.5124 25.5967Z" fill="white"/>
<path fill-rule="evenodd" clip-rule="evenodd" d="M27.4921 27.4179L28.1764 23.9155L29.1616 23.8935L29.9975 27.3618L29.1702 27.3803L29.0381 26.7043L28.3971 26.7187L28.3149 27.3995L27.4921 27.4179Z" fill="white"/>
<path fill-rule="evenodd" clip-rule="evenodd" d="M28.6787 24.5365L28.6696 24.5367L28.4676 26.1031L28.9416 26.0925L28.6787 24.5365Z" fill="white"/>
<path fill-rule="evenodd" clip-rule="evenodd" d="M36.1239 23.7403L38.2436 23.6929L38.2591 24.389L37.5987 24.4038L37.6612 27.193L36.8436 27.2113L36.7811 24.4221L36.1395 24.4365L36.1239 23.7403ZM44.9578 27.0295L44.8797 23.5442L46.7532 23.5023L46.7688 24.1984L45.7135 24.222L45.7279 24.8643L46.7507 24.8414L46.7663 25.5388L45.7435 25.5617L45.7604 26.315L46.8709 26.2902L46.8865 26.9863L44.9578 27.0295ZM55.2105 26.8051L55.1665 26.4942L55.1574 26.4944C54.9965 26.7962 54.8129 26.8932 54.4596 26.9011C53.7667 26.9167 53.5333 26.4437 53.5191 25.8105L53.487 24.3799C53.47 23.6214 53.8109 23.261 54.559 23.2443C55.2564 23.2286 55.6761 23.5162 55.692 24.2279L55.6978 24.4876L54.8803 24.506L54.876 24.3157C54.8693 24.0176 54.829 23.8697 54.61 23.8701C54.3541 23.8719 54.2975 24.0129 54.3026 24.2402L54.3412 25.965C54.3456 26.1604 54.4365 26.274 54.6501 26.2693C54.9287 26.263 54.9335 26.0407 54.9285 25.8173L54.9223 25.542L54.6294 25.5485L54.6154 24.9219L55.7259 24.897L55.7683 26.7932L55.2105 26.8051ZM62.5297 26.6359L62.4516 23.1506L63.2698 23.1323L63.3479 26.6176L62.5297 26.6359ZM71.4295 24.1678L71.4244 23.9444C71.4178 23.6463 71.3065 23.4955 71.1533 23.4989C70.898 23.5007 70.8407 23.6417 70.8458 23.869L70.8805 25.5938C70.8849 25.7893 70.9661 25.9031 71.1791 25.8984C71.4583 25.8921 71.4759 25.6039 71.4711 25.3909L71.464 25.074L72.2823 25.0557L72.2919 25.4843C72.3053 26.083 71.9698 26.5089 71.1341 26.5277C70.3808 26.5445 70.0789 26.1517 70.063 25.44L70.031 24.0094C70.014 23.2509 70.3548 22.8904 71.1029 22.8737C71.8003 22.8581 72.2258 23.1455 72.2418 23.8572L72.2483 24.1494L71.4295 24.1678ZM88.1119 26.0681L88.068 25.7572L88.0589 25.7574C87.898 26.0593 87.7137 26.1563 87.3611 26.1642C86.6688 26.1797 86.4347 25.7067 86.4205 25.0736L86.3885 23.643C86.3715 22.8845 86.7123 22.5241 87.4604 22.5073C88.1566 22.4917 88.5782 22.7792 88.5941 23.4909L88.6 23.7507L87.7817 23.769L87.7775 23.5787C87.7708 23.2807 87.7291 23.1328 87.5108 23.1331C87.2555 23.135 87.1983 23.2759 87.2034 23.5032L87.242 25.228C87.2464 25.4235 87.3366 25.5371 87.5509 25.5323C87.8302 25.5261 87.8336 25.3038 87.8286 25.0804L87.8225 24.805L87.5296 24.8116L87.5156 24.1849L88.6267 24.16L88.6691 26.0563L88.1119 26.0681ZM95.409 25.8995L95.331 22.4142L97.2038 22.3722L97.2194 23.0684L96.1642 23.092L96.1785 23.7343L97.2014 23.7113L97.217 24.4088L96.1942 24.4317L96.211 25.185L97.3222 25.1601L97.3377 25.8563L95.409 25.8995ZM103.88 25.7097L104.564 22.2074L105.551 22.1852L106.386 25.6536L105.56 25.6721L105.428 24.9961L104.786 25.0105L104.703 25.6913L103.88 25.7097Z" fill="white"/>
<path fill-rule="evenodd" clip-rule="evenodd" d="M105.072 22.8255L105.064 22.8257L104.861 24.3922L105.335 24.3816L105.072 22.8255Z" fill="white"/>
<path fill-rule="evenodd" clip-rule="evenodd" d="M113.76 25.4865L112.941 25.5048L112.863 22.0195L114.058 21.9928C114.726 21.9778 115.068 22.2391 115.083 22.9314C115.091 23.3041 115.01 23.5698 114.668 23.7366L114.669 23.7457C114.898 23.7925 115.064 23.946 115.083 24.1879C115.112 24.4667 115.131 25.0653 115.183 25.287C115.199 25.3332 115.227 25.3745 115.264 25.4073L115.265 25.4528L114.372 25.4728C114.347 25.4092 114.33 25.3425 114.322 25.2744C114.302 24.9676 114.314 24.6795 114.285 24.4657C114.258 24.2519 114.189 24.1138 113.998 24.1057L113.729 24.1117L113.76 25.4865Z" fill="white"/>
<path fill-rule="evenodd" clip-rule="evenodd" d="M113.71 23.4863L113.989 23.4801C114.226 23.4748 114.277 23.2553 114.272 23.041C114.263 22.6274 114.09 22.6124 113.69 22.6304L113.71 23.4863Z" fill="white"/>
</svg>
