<svg width="194" height="31" viewBox="0 0 194 31" fill="none" xmlns="http://www.w3.org/2000/svg">
<g clip-path="url(#clip0_2628_1438)">
<path d="M164.868 11.3763L165.205 26.4375L170.019 26.3297L169.794 16.2889L187.4 15.8945L187.625 25.9354L192.439 25.8275L192.102 10.7663L164.868 11.3763ZM169.022 6.39793L187.591 5.98201C190.194 5.44206 191.998 3.0622 192.499 0.849145L163.89 1.48997C164.489 3.67837 166.466 5.90474 169.022 6.39793ZM150.557 26.7657C152.941 25.6801 154.207 23.8628 154.711 21.7873L133.048 22.2725L132.6 2.25964L127.717 2.36901L128.274 27.2648L150.557 26.7657ZM91.7203 8.06061L108.914 7.6755C111.51 6.86046 113.597 4.8183 114.1 2.67402L86.8656 3.28403L87.1953 18.0014L109.478 17.5023L109.593 22.6603L92.1249 23.0515C89.391 23.8697 87.0943 25.7789 85.9791 28.2121L114.52 27.5728L114.182 12.5116L91.9 13.0107L91.7203 8.06061ZM49.3579 9.07829L67.9265 8.66238C70.5291 8.12243 72.4024 5.74102 72.8345 3.52951L44.1562 4.17188C44.7557 6.36028 46.7322 8.58665 49.3579 9.07829ZM49.5782 18.9128L68.1468 18.4969C70.7494 17.9569 72.6226 15.5755 73.0548 13.364L44.3765 14.0064C44.976 16.1948 46.9525 18.4212 49.5782 18.9128ZM49.8046 29.0224L68.3732 28.6065C70.9758 28.0665 72.8491 25.6851 73.2812 23.4736L44.603 24.116C45.2025 26.3044 47.1805 28.5995 49.8046 29.0224Z" fill="white"/>
<path d="M0.899978 5.2094C1.49945 7.3978 3.47439 9.5554 6.0313 10.0486L13.8714 9.87297L14.2871 10.0013L14.7292 29.7391L19.6121 29.6297L19.17 9.89191L19.5795 9.74512L27.4196 9.56951C30.0176 8.82324 31.8282 6.71847 32.3291 4.50542L32.3276 4.43664L0.899978 5.2094Z" fill="white"/>
</g>
<defs>
<clipPath id="clip0_2628_1438">
<rect width="191.718" height="25" fill="white" transform="translate(0.898438 5.12598) rotate(-1.28315)"/>
</clipPath>
</defs>
</svg>
