<svg width="88" height="23" viewBox="0 0 88 23" fill="none" xmlns="http://www.w3.org/2000/svg">
<path fill-rule="evenodd" clip-rule="evenodd" d="M87.2733 11.5785C87.2733 16.4298 87.4443 21.2812 87.4443 21.2812H84.6756C84.6756 21.2812 84.8466 16.4298 84.8466 11.5785C84.8466 6.7271 84.6756 1.87573 84.6756 1.87573H87.4443C87.4443 1.87573 87.2733 6.7271 87.2733 11.5785ZM32.3077 11.5785C32.3077 16.4298 32.4787 21.2812 32.4787 21.2812H29.71C29.71 21.2812 29.8809 16.4298 29.8809 11.5785C29.8809 6.7271 29.71 1.87573 29.71 1.87573H32.4787C32.4787 1.87573 32.3077 6.7271 32.3077 11.5785ZM79.4325 14.9797C77.6815 12.5389 76.5431 10.8891 75.8716 9.89732C78.6192 6.99385 83.3007 1.87573 83.3007 1.87573H79.8291C79.8291 1.87573 77.5874 4.56871 74.3679 8.18749C73.4324 9.24279 72.4838 10.2864 71.5224 11.3182C71.5278 6.55666 71.6928 1.87573 71.6928 1.87573H68.9241C68.9241 1.87573 69.095 6.7271 69.095 11.5785C69.095 16.4298 68.9241 21.2812 68.9241 21.2812H71.6928C71.6928 21.2812 71.5846 18.2641 71.5413 14.6091C72.3394 13.7304 73.2901 12.6866 74.1385 11.7651C74.7537 12.5768 75.6719 13.8472 77.003 15.8043C79.4265 19.3674 80.6256 21.2812 80.6256 21.2812H84.0371C84.0371 21.2812 82.2586 18.9172 79.4346 14.9797M56.9163 20.0822C51.9237 20.0822 49.3184 16.2708 49.3184 11.5698C49.3184 6.86886 52.0963 3.11265 56.9731 3.11265C61.8499 3.11265 64.5137 6.8667 64.5137 11.5682C64.5137 16.2697 61.8239 20.0822 56.9163 20.0822ZM56.8871 1.05273C51.1867 1.05273 46.5653 5.49775 46.5653 11.5704C46.5653 17.3789 50.8523 22.0874 56.8871 22.0874C62.5874 22.0874 67.2094 17.8459 67.2094 11.5704C67.2094 5.06218 62.5874 1.05273 56.8871 1.05273ZM48.6929 4.10933V1.83244H33.3049V4.10879C33.3049 4.10879 33.2855 3.9167 39.7314 3.89235C39.7806 5.75531 39.8423 8.66527 39.8423 11.5758C39.8423 16.4271 39.6708 21.2785 39.6708 21.2785H42.4395C42.4395 21.2785 42.2686 16.4277 42.2686 11.5763C42.2686 8.66527 42.3302 5.75531 42.3795 3.89289C48.6658 3.91562 48.491 4.09796 48.6923 4.10933" fill="#03163B"/>
<path fill-rule="evenodd" clip-rule="evenodd" d="M16.8219 6.97084L15.5325 5.67657L20.6901 0.5L21.9795 1.79428L16.8219 6.97084ZM9.08434 6.97084L7.79493 5.67657L12.9526 0.5L14.242 1.79428L9.08434 6.97084ZM1.34681 6.97084L0.0595703 5.67711L5.2172 0.500541L6.5066 1.79482L1.34681 6.97084ZM16.8219 14.7354L15.5325 13.4411L20.6901 8.26512L21.9795 9.55886L16.8219 14.7354ZM9.08434 14.7354L7.79493 13.4411L12.9526 8.26512L14.242 9.55886L9.08434 14.7354ZM1.34681 14.7354L0.0595703 13.4411L5.2172 8.26512L6.5066 9.55886L1.34681 14.7354ZM16.8219 22.5L15.5325 21.2057L20.6901 16.0292L21.9795 17.3234L16.8219 22.5ZM9.08434 22.5L7.79493 21.2057L12.9536 16.0292L14.243 17.3234L9.08434 22.5ZM1.34681 22.5L0.0595703 21.2057L5.2172 16.0292L6.5066 17.3234L1.34681 22.5Z" fill="#03163B"/>
</svg>
