<svg width="182" height="31" viewBox="0 0 182 31" fill="none" xmlns="http://www.w3.org/2000/svg">
<g clip-path="url(#clip0_2628_1417)">
<path d="M152.893 11.4369L153.231 26.4981L158.045 26.3903L157.82 16.3494L175.426 15.9551L175.651 25.9959L180.465 25.8881L180.127 10.8268L152.893 11.4369ZM157.048 6.45848L175.616 6.04256C178.219 5.50261 180.024 3.12274 180.524 0.909692L151.915 1.55052C152.514 3.73892 154.491 5.96529 157.048 6.45848ZM138.582 26.8262C140.966 25.7407 142.233 23.9233 142.737 21.8478L121.073 22.3331L120.625 2.32019L115.742 2.42956L116.3 27.3253L138.582 26.8262ZM79.7457 8.12116L96.9389 7.73605C99.5353 6.92101 101.623 4.87885 102.125 2.73457L74.891 3.34458L75.2207 18.062L97.5031 17.5629L97.6186 22.7208L80.1503 23.1121C77.4164 23.9302 75.1197 25.8394 74.0045 28.2727L102.545 27.6334L102.208 12.5722L79.9254 13.0713L79.7457 8.12116ZM37.3833 9.13884L55.9519 8.72292C58.5545 8.18298 60.4277 5.80157 60.8599 3.59006L32.1816 4.23242C32.7811 6.42083 34.7576 8.6472 37.3833 9.13884ZM37.6036 18.9733L56.1722 18.5574C58.7748 18.0175 60.648 15.6361 61.0801 13.4246L32.4019 14.0669C33.0014 16.2553 34.9779 18.4817 37.6036 18.9733ZM37.83 29.0829L56.3986 28.667C59.0012 28.1271 60.8745 25.7457 61.3066 23.5342L32.6284 24.1765C33.2278 26.3649 35.2059 28.6601 37.83 29.0829Z" fill="white"/>
<path d="M-11.0746 5.26994C-10.4752 7.45835 -8.50022 9.61594 -5.94331 10.1091L1.89678 9.93352L2.3125 10.0618L2.75461 29.7996L7.63747 29.6902L7.19537 9.95245L7.60492 9.80566L15.445 9.63005C18.043 8.88379 19.8536 6.77901 20.3545 4.56596L20.353 4.49719L-11.0746 5.26994Z" fill="white"/>
</g>
<defs>
<clipPath id="clip0_2628_1417">
<rect width="191.718" height="25" fill="white" transform="translate(-11.0762 5.18652) rotate(-1.28315)"/>
</clipPath>
</defs>
</svg>
