<svg width="107" height="21" viewBox="0 0 107 21" fill="none" xmlns="http://www.w3.org/2000/svg">
<g clip-path="url(#clip0_2628_1583)">
<path d="M101.797 2.65947C101.797 1.45779 102.762 0.472795 103.944 0.472795C104.515 0.472795 105.047 0.709193 105.461 1.10319C105.874 1.51689 106.091 2.06848 106.091 2.63977C106.091 3.21107 105.874 3.76266 105.461 4.17636C105.047 4.59006 104.515 4.82645 103.944 4.82645C102.762 4.82645 101.797 3.86116 101.797 2.65947ZM101.619 2.65947C101.619 3.95966 102.663 5.02345 103.964 5.02345C104.594 5.02345 105.165 4.78705 105.599 4.33396C106.032 3.88086 106.288 3.28987 106.288 2.65947C106.288 2.02908 106.052 1.43809 105.599 0.984991C105.146 0.531895 104.574 0.295497 103.964 0.295497C102.663 0.295497 101.619 1.35929 101.619 2.65947ZM103.077 4.05816H103.412V2.95497H104.161C104.279 2.95497 104.377 2.95497 104.456 2.99437C104.555 3.05347 104.614 3.17167 104.633 3.32927L104.673 3.76266V3.95966C104.692 3.99906 104.692 4.01876 104.712 4.03846H105.126V3.97936C105.067 3.95966 105.047 3.90056 105.027 3.82176C105.008 3.78236 105.008 3.70356 105.008 3.60507L104.988 3.27017C104.988 3.11257 104.949 3.01407 104.909 2.95497C104.85 2.89587 104.771 2.83677 104.673 2.79737C104.791 2.73827 104.87 2.65947 104.929 2.56098C104.988 2.46248 105.008 2.34428 105.008 2.18668C105.008 1.89118 104.889 1.69418 104.673 1.57598C104.555 1.51689 104.397 1.49719 104.22 1.49719H103.097L103.077 4.05816ZM103.392 2.65947V1.77298H104.18C104.298 1.77298 104.397 1.79268 104.456 1.83208C104.574 1.89118 104.633 2.02908 104.633 2.20638C104.633 2.38368 104.594 2.50188 104.495 2.56098C104.417 2.62007 104.298 2.65947 104.141 2.65947H103.392ZM10.0546 5.90994L0.480469 20.9606H7.02081L16.2403 6.57974L10.0546 5.90994ZM49.4739 5.57505V0L30.8576 0C28.3163 0.157598 27.2131 1.37899 26.3857 2.24578C25.4992 3.17167 25.0067 5.12195 25.0067 5.12195V0.0393996L15.0977 0.0393996C14.3491 0.0393996 13.6399 0.354597 13.108 1.10319C12.5565 1.83208 10.291 5.57505 10.291 5.57505H49.4739ZM100.102 5.57505V0L80.1859 0C77.6643 0.157598 76.5414 1.37899 75.7141 2.24578C74.8276 3.17167 74.3351 5.12195 74.3351 5.12195V5.57505H100.102ZM56.0142 0.0196998L50.4392 0.0196998V5.57505H56.0142V0.0196998ZM74.276 0.0196998L68.7206 0.0196998V5.57505H74.276V0.0196998ZM74.276 7.58443L68.7994 7.24953V13.6914C68.7994 13.6914 68.7797 15.5432 66.987 15.5432H57.6099C57.6099 15.5432 56.0142 15.4053 56.0142 13.7111V6.38274L50.4983 5.98874V15.8583C51.3848 20.5863 55.6596 20.9606 55.6596 20.9606C55.6596 20.9606 56.093 20.9803 56.1718 21H68.8782C68.8782 21 74.3154 20.5666 74.3154 15.3265L74.276 7.58443ZM19.3332 20.9606H45.3763C49.9073 20.0544 50.3801 15.9174 50.3801 15.9174C50.5968 14.6961 50.4786 13.6914 50.4786 13.6914C50.3407 12.864 48.7647 9.19981 45.3763 8.88461C43.3473 8.68762 25.2825 7.24953 25.2825 7.24953C25.6371 9.06191 26.4448 9.9878 26.9964 10.5C28.2572 11.7017 30.2469 12.0563 30.2469 12.0563L44.1747 13.2186C44.608 13.2383 45.4157 13.3565 45.396 14.4203C45.396 14.5582 45.2778 15.4841 44.2534 15.4841H24.7703V7.21013L19.3529 6.81613C19.3332 6.81613 19.3332 20.9606 19.3332 20.9606ZM74.3154 21H94.2516C99.2553 20.7045 99.9645 15.9568 99.9645 15.9568C100.142 14.7158 100.004 13.6914 100.004 13.6914C99.866 12.5685 98.2703 9.18011 94.8623 8.84521C92.8529 8.64822 74.67 7.58443 74.67 7.58443C75.2019 9.45591 75.9307 10.0272 76.4823 10.5394C77.7431 11.7608 79.6146 12.0366 79.6146 12.0366C80.0874 12.076 93.6803 13.2186 93.6803 13.2186C94.1137 13.2383 95.0002 13.2777 95.0002 14.3415C95.0002 14.6567 94.8426 14.9916 94.6456 15.1689C94.6456 15.1689 94.1728 15.425 93.7197 15.425H74.3745L74.3154 21Z" fill="#021334"/>
</g>
<defs>
<clipPath id="clip0_2628_1583">
<rect width="105.847" height="21" fill="white" transform="translate(0.462891)"/>
</clipPath>
</defs>
</svg>
