<svg width="101" height="29" viewBox="0 0 101 29" fill="none" xmlns="http://www.w3.org/2000/svg">
<path fill-rule="evenodd" clip-rule="evenodd" d="M100.007 13.5079C100.131 19.0194 100.448 24.5266 100.448 24.5266L97.3028 24.5971C97.3028 24.5971 97.3736 19.0812 97.2502 13.5697C97.1267 8.05811 96.809 2.55092 96.809 2.55092L99.9545 2.48046C99.9545 2.48046 99.8837 7.99636 100.007 13.5079ZM37.5619 14.9066C37.6853 20.4182 38.003 25.9253 38.003 25.9253L34.8575 25.9958C34.8575 25.9958 34.9283 20.4799 34.8049 14.9684C34.6814 9.45682 34.3637 3.94963 34.3637 3.94963L37.5092 3.87918C37.5092 3.87918 37.4384 9.39507 37.5619 14.9066ZM91.1859 17.5715C89.1345 14.8431 87.7992 12.9978 87.0111 11.8881C90.0587 8.51963 95.247 2.58591 95.247 2.58591L91.303 2.67425C91.303 2.67425 88.8248 5.79073 85.2593 9.98388C84.2233 11.2066 83.1722 12.4164 82.1062 13.613C81.9911 8.2034 82.0595 2.88129 82.0595 2.88129L78.914 2.95175C78.914 2.95175 79.2317 8.45894 79.3552 13.9705C79.4786 19.482 79.4078 24.9979 79.4078 24.9979L82.5533 24.9275C82.5533 24.9275 82.3536 21.5026 82.2114 17.3513C83.0958 16.3326 84.1493 15.1227 85.0897 14.0542C85.8093 14.9606 86.8848 16.3806 88.4468 18.5702C91.2908 22.5564 92.7017 24.7002 92.7017 24.7002L96.5775 24.6133C96.5775 24.6133 94.4967 21.9729 91.1883 17.5715M65.7355 23.9413C60.0636 24.0683 57.0067 19.8046 56.8871 14.4639C56.7675 9.12325 59.8278 4.78521 65.3683 4.66111C70.9087 4.53701 74.0305 8.73412 74.1501 14.0754C74.2698 19.4167 71.311 23.8164 65.7355 23.9413ZM65.2181 2.32307C58.7421 2.46813 53.6049 7.63562 53.7594 14.5346C53.9072 21.1336 58.8975 26.3737 65.7534 26.2202C72.2294 26.0751 77.3724 21.1387 77.2127 14.0092C77.0471 6.61544 71.6941 2.17802 65.2181 2.32307ZM55.9866 6.00412L55.9287 3.4174L38.4468 3.80897L38.5047 6.39508C38.5047 6.39508 38.4777 6.17735 45.8002 5.98566C45.9035 8.10087 46.0477 11.4052 46.1217 14.7118C46.2452 20.2233 46.1738 25.7393 46.1738 25.7393L49.3193 25.6688C49.3193 25.6688 49.0016 20.1622 48.8781 14.6507C48.804 11.3435 48.8001 8.03599 48.8086 5.91889C55.951 5.78474 55.7571 5.99635 55.986 6.00413" fill="white"/>
<path fill-rule="evenodd" clip-rule="evenodd" d="M19.8515 10.0655L18.3537 8.62787L24.0814 2.61564L25.5793 4.05323L19.8515 10.0655ZM11.0611 10.2624L9.56326 8.82477L15.291 2.81254L16.7888 4.25013L11.0611 10.2624ZM2.27063 10.4593L0.775297 9.02223L6.50304 3.00999L8.00084 4.44758L2.27063 10.4593ZM20.0491 18.8866L18.5513 17.449L24.279 11.4374L25.7768 12.8744L20.0491 18.8866ZM11.2587 19.0835L9.76085 17.6459L15.4886 11.6343L16.9864 13.0713L11.2587 19.0835ZM2.46821 19.2804L0.972868 17.8428L6.70063 11.8312L8.19842 13.2681L2.46821 19.2804ZM20.2467 27.7078L18.7489 26.2702L24.4766 20.258L25.9744 21.6956L20.2467 27.7078ZM11.4562 27.9047L9.95843 26.4671L15.6874 20.4549L17.1852 21.8924L11.4562 27.9047ZM2.6658 28.1016L1.17045 26.664L6.8982 20.6517L8.396 22.0893L2.6658 28.1016Z" fill="white"/>
</svg>
