<svg width="89" height="29" viewBox="0 0 89 29" fill="none" xmlns="http://www.w3.org/2000/svg">
<path fill-rule="evenodd" clip-rule="evenodd" d="M99.9828 13.4474C100.106 18.9589 100.424 24.4661 100.424 24.4661L97.2784 24.5365C97.2784 24.5365 97.3492 19.0206 97.2258 13.5091C97.1023 7.99756 96.7846 2.49037 96.7846 2.49037L99.9301 2.41992C99.9301 2.41992 99.8593 7.93581 99.9828 13.4474ZM37.5375 14.8461C37.6609 20.3576 37.9786 25.8648 37.9786 25.8648L34.8331 25.9353C34.8331 25.9353 34.9039 20.4194 34.7805 14.9078C34.657 9.39628 34.3393 3.88908 34.3393 3.88908L37.4848 3.81863C37.4848 3.81863 37.414 9.33452 37.5375 14.8461ZM91.1615 17.511C89.1101 14.7826 87.7748 12.9373 86.9867 11.8276C90.0343 8.45908 95.2226 2.52536 95.2226 2.52536L91.2786 2.6137C91.2786 2.6137 88.8003 5.73019 85.2349 9.92333C84.1989 11.146 83.1478 12.3559 82.0818 13.5525C81.9667 8.14285 82.0351 2.82075 82.0351 2.82075L78.8896 2.8912C78.8896 2.8912 79.2073 8.39839 79.3308 13.9099C79.4542 19.4215 79.3834 24.9374 79.3834 24.9374L82.5289 24.8669C82.5289 24.8669 82.3292 21.442 82.187 17.2907C83.0714 16.2721 84.1249 15.0621 85.0653 13.9937C85.7849 14.9001 86.8604 16.3201 88.4224 18.5096C91.2664 22.4959 92.6773 24.6396 92.6773 24.6396L96.553 24.5528C96.553 24.5528 94.4723 21.9124 91.1639 17.5109M65.7111 23.8807C60.0391 24.0078 56.9823 19.744 56.8627 14.4034C56.7431 9.06271 59.8034 4.72466 65.3438 4.60056C70.8843 4.47646 74.0061 8.67357 74.1257 14.0148C74.2453 19.3561 71.2866 23.7558 65.7111 23.8807ZM65.1937 2.26252C58.7177 2.40758 53.5805 7.57507 53.735 14.474C53.8828 21.073 58.873 26.3132 65.729 26.1596C72.205 26.0145 77.348 21.0782 77.1883 13.9487C77.0227 6.5549 71.6697 2.11747 65.1937 2.26252ZM55.9622 5.94357L55.9043 3.35685L38.4224 3.74843L38.4803 6.33454C38.4803 6.33454 38.4533 6.11681 45.7758 5.92511C45.8791 8.04033 46.0232 11.3447 46.0973 14.6513C46.2208 20.1628 46.1493 25.6787 46.1493 25.6787L49.2948 25.6082C49.2948 25.6082 48.9772 20.1017 48.8537 14.5901C48.7796 11.283 48.7757 7.97545 48.7842 5.85834C55.9265 5.72419 55.7326 5.9358 55.9616 5.94359" fill="white"/>
<path fill-rule="evenodd" clip-rule="evenodd" d="M19.8271 10.0049L18.3293 8.56733L24.057 2.55509L25.5548 3.99268L19.8271 10.0049ZM11.0367 10.2018L9.53885 8.76422L15.2666 2.75199L16.7644 4.18958L11.0367 10.2018ZM2.24621 10.3987L0.750883 8.96168L6.47863 2.94945L7.97643 4.38704L2.24621 10.3987ZM20.0247 18.8261L18.5269 17.3885L24.2546 11.3769L25.7524 12.8139L20.0247 18.8261ZM11.2342 19.023L9.73643 17.5854L15.4642 11.5738L16.962 13.0108L11.2342 19.023ZM2.4438 19.2199L0.948454 17.7822L6.67621 11.7706L8.174 13.2076L2.4438 19.2199ZM20.2223 27.6473L18.7245 26.2097L24.4522 20.1974L25.95 21.635L20.2223 27.6473ZM11.4318 27.8442L9.93402 26.4066L15.663 20.3943L17.1608 21.8319L11.4318 27.8442ZM2.64138 28.0411L1.14604 26.6034L6.87378 20.5912L8.37159 22.0288L2.64138 28.0411Z" fill="white"/>
</svg>
