<svg width="102" height="23" viewBox="0 0 102 23" fill="none" xmlns="http://www.w3.org/2000/svg">
<path fill-rule="evenodd" clip-rule="evenodd" d="M22.8477 8.2854C22.8477 12.3342 24.7283 15.5804 28.7777 15.5804L42.1718 15.5724V11.9123H29.7734C27.7705 11.9123 26.8845 10.2889 26.8845 8.28597C26.8845 6.28303 27.7705 4.65908 29.7734 4.65908L42.1712 4.65107V0.991019H28.7777C24.7283 0.991019 22.8477 4.23608 22.8477 8.2854ZM17.9844 6.4368L5.14365 6.44766C4.66121 6.44766 4.41713 6.03781 4.41713 5.55479C4.41713 5.07235 4.66064 4.68079 5.14365 4.68079H21.6188V0.979584L4.95902 0.976156C2.43019 0.976156 0.711914 3.02597 0.711914 5.55479C0.711914 8.08362 2.42962 10.134 4.95902 10.134L17.5414 10.1237C18.0244 10.1237 18.3051 10.5336 18.3051 11.016C18.3051 11.499 18.0244 11.9089 17.5414 11.9089L1.21436 11.902V15.5952H17.9844C20.5133 15.5952 22.1206 13.5443 22.1206 11.016C22.1206 8.48718 20.5133 6.4368 17.9844 6.4368ZM82.9817 0.979584V4.89058H89.7708V15.5918H94.1985V4.89058H100.988V0.979584H82.9817ZM61.5793 2.1977C60.7676 1.57007 59.7347 0.5 53.2405 0.5C46.747 0.5 45.7135 1.57007 44.9024 2.1977C43.3356 3.49984 42.5885 5.73314 42.5885 8.2854C42.5885 10.7828 43.3036 12.9749 44.8018 14.2874C45.6026 14.927 46.7836 15.9228 53.2405 15.8862C59.6981 15.9228 60.8779 14.927 61.6799 14.2874C63.1781 12.9744 63.8937 10.7822 63.8937 8.2854C63.8937 5.73314 63.1461 3.49984 61.5793 2.1977Z" fill="#03163B"/>
<path fill-rule="evenodd" clip-rule="evenodd" d="M58.7589 11.294C58.1101 11.8645 57.483 12.3835 53.2393 12.3835C48.9962 12.3835 48.3686 11.8645 47.7198 11.294C46.9704 10.6424 46.624 9.53857 46.624 8.28616C46.624 6.91886 47.0367 5.72818 47.9359 5.11026C48.5532 4.7067 49.1437 3.96875 53.2393 3.96875C57.3355 3.96875 57.926 4.7067 58.5434 5.11026C59.4419 5.72818 59.8552 6.91886 59.8552 8.28616C59.8552 9.538 59.5077 10.6424 58.7589 11.294Z" fill="white"/>
<path fill-rule="evenodd" clip-rule="evenodd" d="M64.3845 4.89146H71.1741V15.5927H75.6024V4.89146H82.3915V0.980469H64.3845V4.89146ZM1.55534 21.3992V21.6169C1.55534 21.7924 1.61308 21.9473 1.84172 21.9473C2.00921 21.9473 2.08294 21.7964 2.08294 21.6415C2.08294 21.3837 1.8703 21.2854 1.68167 21.1705C1.46103 21.0442 1.27239 20.9247 1.13749 20.7698C1.00659 20.6149 0.928851 20.4257 0.928851 20.1559C0.928851 19.5797 1.27639 19.2853 1.83315 19.2853C2.45907 19.2853 2.7786 19.7026 2.74545 20.2788H2.08294C2.07437 20.0993 2.08294 19.8535 1.84572 19.8369C1.69825 19.8249 1.6125 19.9072 1.59593 20.0421C1.57535 20.2262 1.66909 20.3199 1.81257 20.4183C2.08294 20.5903 2.31559 20.6961 2.48365 20.8515C2.65113 21.0076 2.74945 21.2122 2.74945 21.5838C2.74945 22.1731 2.42191 22.5007 1.82457 22.5007C1.16607 22.5007 0.887695 22.132 0.887695 21.7278V21.3997L1.55534 21.3992ZM8.52219 19.3585H10.3879V19.9713H9.80719V22.4263H9.08695V19.9713H8.52219V19.3585ZM16.9329 22.4263H16.2127V19.3585H17.2645C17.8538 19.3585 18.1482 19.5951 18.1482 20.2045C18.1482 20.5326 18.0705 20.7647 17.7675 20.9047V20.9127C17.9681 20.9584 18.111 21.0968 18.1236 21.31C18.1436 21.5558 18.1476 22.0828 18.1888 22.2789C18.2029 22.3199 18.2268 22.3567 18.2585 22.3863V22.4263H17.4726C17.4507 22.3701 17.4371 22.311 17.432 22.2509C17.42 21.9805 17.436 21.7273 17.4154 21.5386C17.3948 21.35 17.3377 21.2271 17.1702 21.2162H16.9329V22.4263Z" fill="#03163B"/>
<path fill-rule="evenodd" clip-rule="evenodd" d="M16.9316 20.6629H17.1774C17.3861 20.6629 17.4352 20.4709 17.4352 20.2822C17.4352 19.9181 17.2838 19.9015 16.9322 19.9095L16.9316 20.6629Z" fill="white"/>
<path fill-rule="evenodd" clip-rule="evenodd" d="M23.915 22.4253L24.5861 19.3574H25.4533L26.1203 22.4253H25.3921L25.2892 21.8279H24.725L24.6393 22.4253H23.915Z" fill="#03163B"/>
<path fill-rule="evenodd" clip-rule="evenodd" d="M25.0184 19.9131H25.0104L24.8018 21.2872H25.219L25.0184 19.9131Z" fill="white"/>
<path fill-rule="evenodd" clip-rule="evenodd" d="M31.582 19.3573H33.4478V19.9701H32.8665V22.4252H32.1468V19.9701H31.582V19.3573ZM39.2891 22.4252V19.3573H40.9382V19.9701H40.0094V20.5354H40.9097V21.1494H40.0094V21.8124H40.9868V22.4252H39.2891ZM48.3138 22.4298L48.2812 22.1554H48.2732C48.1257 22.4178 47.9623 22.4995 47.6513 22.4995C47.0414 22.4995 46.8453 22.0788 46.8453 21.5215V20.2622C46.8453 19.5946 47.1523 19.2842 47.8108 19.2842C48.4247 19.2842 48.7882 19.5454 48.7882 20.1719V20.4005H48.0686V20.2331C48.0686 19.9707 48.036 19.8398 47.8434 19.8358C47.6181 19.8324 47.5656 19.9553 47.5656 20.1553V21.6735C47.5656 21.8456 47.6433 21.9473 47.8314 21.9473C48.0766 21.9473 48.0851 21.7518 48.0851 21.5552V21.3128H47.8274V20.7612H48.8048V22.4304L48.3138 22.4298ZM54.7565 22.4252V19.3573H55.4767V22.4252H54.7565ZM62.6351 20.4291V20.2325C62.6351 19.9701 62.5402 19.8352 62.4053 19.8352C62.1806 19.8318 62.1275 19.9547 62.1275 20.1547L62.124 21.673C62.124 21.845 62.1932 21.9468 62.3807 21.9468C62.6265 21.9468 62.6476 21.6935 62.6476 21.5061V21.2271H63.3679V21.6044C63.3679 22.1314 63.0643 22.4995 62.3287 22.4995C61.6656 22.4995 61.4078 22.148 61.4078 21.5215V20.2622C61.4078 19.5946 61.7148 19.2842 62.3733 19.2842C62.9872 19.2842 63.3559 19.5454 63.3559 20.1719V20.4291H62.6351ZM77.2747 22.4298L77.2421 22.1554H77.2341C77.0866 22.4178 76.9226 22.4995 76.6122 22.4995C76.0029 22.4995 75.8062 22.0788 75.8062 21.5215V20.2622C75.8062 19.5946 76.1132 19.2842 76.7717 19.2842C77.3845 19.2842 77.7497 19.5454 77.7497 20.1719V20.4005H77.0295V20.2331C77.0295 19.9707 76.9958 19.8398 76.8037 19.8358C76.579 19.8324 76.5259 19.9553 76.5259 20.1553V21.6735C76.5259 21.8456 76.6031 21.9473 76.7917 21.9473C77.0375 21.9473 77.0449 21.7518 77.0449 21.5552V21.3128H76.7871V20.7612H77.7651V22.4304L77.2747 22.4298ZM83.6979 22.4252V19.3573H85.3465V19.9701H84.4176V20.5354H85.3179V21.1494H84.4176V21.8124H85.3956V22.4252H83.6979ZM91.1547 22.4252L91.8252 19.3573H92.694L93.3605 22.4252H92.6329L92.53 21.8279H91.9652L91.8789 22.4252H91.1547Z" fill="#03163B"/>
<path fill-rule="evenodd" clip-rule="evenodd" d="M92.2586 19.9131H92.2512L92.042 21.2872H92.4587L92.2586 19.9131Z" fill="white"/>
<path fill-rule="evenodd" clip-rule="evenodd" d="M99.8482 22.4253H99.1279V19.3574H100.18C100.768 19.3574 101.063 19.5941 101.063 20.2034C101.063 20.5315 100.986 20.7636 100.682 20.9036V20.9116C100.883 20.9574 101.026 21.0957 101.038 21.3089C101.058 21.5547 101.063 22.0817 101.104 22.2778C101.118 22.3188 101.142 22.3557 101.173 22.3853V22.4253H100.387C100.366 22.3688 100.353 22.3098 100.347 22.2498C100.335 21.9794 100.352 21.7262 100.331 21.5376C100.311 21.3489 100.253 21.226 100.085 21.2152H99.8482V22.4253Z" fill="#03163B"/>
<path fill-rule="evenodd" clip-rule="evenodd" d="M99.8477 20.6629H100.093C100.302 20.6629 100.351 20.4709 100.351 20.2822C100.351 19.9181 100.199 19.9015 99.8477 19.9095V20.6629Z" fill="white"/>
</svg>
