<svg width="170" height="22" viewBox="0 0 170 22" fill="none" xmlns="http://www.w3.org/2000/svg">
<g clip-path="url(#clip0_2628_1588)">
<path d="M144.829 8.72977V21.987H149.067V13.1488H164.564V21.987H168.801V8.72977H144.829ZM148.582 4.43177H164.927C167.227 4.00802 168.862 1.94982 169.346 0.0126953L144.163 0.0126953C144.648 1.94982 146.342 3.94749 148.582 4.43177ZM131.935 21.987C134.054 21.079 135.204 19.505 135.688 17.689H116.62V0.0732305L112.322 0.0732305V21.987H131.935ZM80.5408 4.37123L95.6745 4.37123C97.9749 3.70534 99.8515 1.94982 100.336 0.0732305L76.3638 0.0732305V13.0278H95.9772V17.5679H80.6013C78.1799 18.2338 76.1217 19.8682 75.0926 21.987H100.215V8.72977H80.6013L80.5408 4.37123ZM43.2511 4.43177H59.5956C61.8959 4.00802 63.5909 1.94982 64.0147 0.0126953L38.7715 0.0126953C39.2558 1.94982 40.9508 3.94749 43.2511 4.43177ZM43.2511 13.0883H59.5956C61.8959 12.6646 63.5909 10.6064 64.0147 8.66923H38.7715C39.2558 10.6064 40.9508 12.604 43.2511 13.0883ZM43.2511 21.987H59.5956C61.8959 21.5632 63.5909 19.505 64.0147 17.5679H38.7715C39.2558 19.505 40.9508 21.5632 43.2511 21.987Z" fill="#021334"/>
<path d="M0.695312 0.0732305C1.17959 2.01036 2.87458 3.94748 5.11438 4.43177H12.0154L12.3786 4.55284V21.9264H16.6766V4.55284L17.0398 4.43177H23.9408C26.2412 3.82641 27.8756 2.01036 28.3599 0.0732305V0.0126953L0.695312 0.0732305Z" fill="#021334"/>
</g>
<defs>
<clipPath id="clip0_2628_1588">
<rect width="168.712" height="22" fill="white" transform="translate(0.695312)"/>
</clipPath>
</defs>
</svg>
