<svg width="150" height="49" viewBox="0 0 150 49" fill="none" xmlns="http://www.w3.org/2000/svg">
<circle cx="24.5" cy="24.5" r="24.5" fill="url(#paint0_linear_3208_582)"/>
<path d="M21.1875 26.5775L23.822 19.9053L21.188 26.5775H21.1875Z" fill="url(#paint1_linear_3208_582)"/>
<path d="M25.3232 23.7781L25.3229 23.7783L23.8135 19.9053L25.3232 23.7779V23.7781Z" fill="url(#paint2_linear_3208_582)"/>
<path d="M33.1234 26.3838C33.1234 26.3838 31.7648 26.5837 29.9128 27.323C29.0883 27.6519 28.1658 28.0881 27.2217 28.661L30.1529 36.2292H37.2622L33.1234 26.3838Z" fill="url(#paint3_linear_3208_582)"/>
<path d="M30.7947 20.884C28.8966 21.72 27.0624 22.7098 25.3232 23.7775C25.3232 23.7777 25.3229 23.7777 25.3229 23.7777L23.8135 19.9047L27.0601 12L30.7947 20.884Z" fill="url(#paint4_linear_3208_582)"/>
<path d="M27.0686 12L23.8218 19.9049L21.1878 26.5771H21.1875C14.8055 31.2774 10.4922 36.23 10.4922 36.23L20.6774 12H27.0686Z" fill="url(#paint5_linear_3208_582)"/>
<path d="M26.7002 27.3368V27.3417C26.71 27.3343 26.7173 27.3282 26.7247 27.3208L26.7002 27.3368Z" fill="url(#paint6_linear_3208_582)"/>
<path d="M22.4424 33.1404C22.4462 33.134 22.4488 33.1251 22.4526 33.1187C22.4488 33.1251 22.4475 33.1327 22.4462 33.1353C22.4449 33.1379 22.4424 33.1404 22.4424 33.1404Z" fill="url(#paint7_linear_3208_582)"/>
<path d="M32.5019 24.9418L32.035 23.8306L32.0266 23.8103C32.0266 23.8103 29.3575 24.9376 26.6949 27.3247C26.6937 27.3259 26.692 27.3273 26.6904 27.3287C25.0708 28.7816 23.4542 30.7011 22.4431 33.1168C22.4429 33.1175 22.4424 33.118 22.4424 33.1187C23.8195 31.1013 25.5466 29.67 27.2071 28.6625C30.2709 26.8032 33.1088 26.3855 33.1088 26.3855L32.5017 24.9416L32.5019 24.9418Z" fill="url(#paint8_linear_3208_582)"/>
<path d="M38.7273 18.5247C36.2756 19.4509 34.0822 20.4959 32.1235 21.6048C29.2761 23.2162 26.926 24.9606 25.0051 26.6646C19.4227 31.6173 17.4644 36.2277 17.4644 36.2277H10.4922C10.4922 36.2277 14.8058 31.2751 21.1878 26.5753C21.1878 26.5753 21.188 26.5753 21.188 26.5751C21.5947 26.276 22.0097 25.9773 22.4324 25.6813C23.3629 25.0296 24.3314 24.3895 25.3315 23.7757C25.3315 23.7757 25.3317 23.7757 25.3317 23.7754C27.0709 22.7075 28.9049 21.7179 30.8032 20.882C33.3566 19.7566 36.0245 18.9098 38.7275 18.5249L38.7273 18.5247Z" fill="url(#paint9_linear_3208_582)"/>
<path d="M38.7217 18.5257L38.7259 18.5247L38.7217 18.5257Z" fill="url(#paint10_linear_3208_582)"/>
<path d="M22.4455 33.1187L22.4424 33.1229L22.4455 33.1187Z" fill="url(#paint11_linear_3208_582)"/>
<path d="M57.33 36.5L65.04 14.15H70.32L78.03 36.5H73.59L72 31.7H63.36L61.74 36.5H57.33ZM64.53 28.1H70.83L67.11 16.97H68.25L64.53 28.1ZM87.1915 36.86C85.6115 36.86 84.2015 36.49 82.9615 35.75C81.7215 34.99 80.7415 33.96 80.0215 32.66C79.3015 31.36 78.9415 29.92 78.9415 28.34C78.9415 26.74 79.3015 25.3 80.0215 24.02C80.7415 22.74 81.7215 21.72 82.9615 20.96C84.2215 20.2 85.6215 19.82 87.1615 19.82C88.4015 19.82 89.5015 20.07 90.4615 20.57C91.4415 21.05 92.2115 21.73 92.7715 22.61L92.1715 23.42V13.79H96.1015V36.5H92.3815V33.35L92.8015 34.13C92.2415 35.01 91.4615 35.69 90.4615 36.17C89.4615 36.63 88.3715 36.86 87.1915 36.86ZM87.6115 33.26C88.5115 33.26 89.3015 33.05 89.9815 32.63C90.6615 32.21 91.1915 31.63 91.5715 30.89C91.9715 30.15 92.1715 29.3 92.1715 28.34C92.1715 27.4 91.9715 26.56 91.5715 25.82C91.1915 25.06 90.6615 24.47 89.9815 24.05C89.3015 23.63 88.5115 23.42 87.6115 23.42C86.7315 23.42 85.9415 23.64 85.2415 24.08C84.5415 24.5 83.9915 25.08 83.5915 25.82C83.2115 26.54 83.0215 27.38 83.0215 28.34C83.0215 29.3 83.2115 30.15 83.5915 30.89C83.9915 31.63 84.5415 32.21 85.2415 32.63C85.9415 33.05 86.7315 33.26 87.6115 33.26ZM104.678 36.5L98.2577 20.18H102.548L107.198 33.02H105.608L110.288 20.18H114.578L108.158 36.5H104.678ZM116.75 36.5V20.18H120.68V36.5H116.75ZM116.75 18.35V14.15H120.68V18.35H116.75ZM130.519 36.86C128.779 36.86 127.259 36.45 125.959 35.63C124.679 34.79 123.799 33.66 123.319 32.24L126.259 30.83C126.679 31.75 127.259 32.47 127.999 32.99C128.759 33.51 129.599 33.77 130.519 33.77C131.239 33.77 131.809 33.61 132.229 33.29C132.649 32.97 132.859 32.55 132.859 32.03C132.859 31.71 132.769 31.45 132.589 31.25C132.429 31.03 132.199 30.85 131.899 30.71C131.619 30.55 131.309 30.42 130.969 30.32L128.299 29.57C126.919 29.17 125.869 28.56 125.149 27.74C124.449 26.92 124.099 25.95 124.099 24.83C124.099 23.83 124.349 22.96 124.849 22.22C125.369 21.46 126.079 20.87 126.979 20.45C127.899 20.03 128.949 19.82 130.129 19.82C131.669 19.82 133.029 20.19 134.209 20.93C135.389 21.67 136.229 22.71 136.729 24.05L133.729 25.46C133.449 24.72 132.979 24.13 132.319 23.69C131.659 23.25 130.919 23.03 130.099 23.03C129.439 23.03 128.919 23.18 128.539 23.48C128.159 23.78 127.969 24.17 127.969 24.65C127.969 24.95 128.049 25.21 128.209 25.43C128.369 25.65 128.589 25.83 128.869 25.97C129.169 26.11 129.509 26.24 129.889 26.36L132.499 27.14C133.839 27.54 134.869 28.14 135.589 28.94C136.329 29.74 136.699 30.72 136.699 31.88C136.699 32.86 136.439 33.73 135.919 34.49C135.399 35.23 134.679 35.81 133.759 36.23C132.839 36.65 131.759 36.86 130.519 36.86ZM139.719 36.5V20.18H143.409V23.81L143.109 23.27C143.489 22.05 144.079 21.2 144.879 20.72C145.699 20.24 146.679 20 147.819 20H148.779V23.48H147.369C146.249 23.48 145.349 23.83 144.669 24.53C143.989 25.21 143.649 26.17 143.649 27.41V36.5H139.719Z" fill="white" fill-opacity="0.9"/>
<defs>
<linearGradient id="paint0_linear_3208_582" x1="0" y1="24.5" x2="49" y2="24.5" gradientUnits="userSpaceOnUse">
<stop stop-color="#9384FE"/>
<stop offset="1" stop-color="#615AFF"/>
</linearGradient>
<linearGradient id="paint1_linear_3208_582" x1="21.1875" y1="23.2414" x2="23.822" y2="23.2414" gradientUnits="userSpaceOnUse">
<stop stop-color="white"/>
<stop offset="1" stop-color="white"/>
</linearGradient>
<linearGradient id="paint2_linear_3208_582" x1="23.8135" y1="21.8418" x2="25.3232" y2="21.8418" gradientUnits="userSpaceOnUse">
<stop stop-color="white"/>
<stop offset="1" stop-color="white"/>
</linearGradient>
<linearGradient id="paint3_linear_3208_582" x1="27.2217" y1="31.3065" x2="37.2622" y2="31.3065" gradientUnits="userSpaceOnUse">
<stop stop-color="white"/>
<stop offset="1" stop-color="white"/>
</linearGradient>
<linearGradient id="paint4_linear_3208_582" x1="23.8135" y1="17.8889" x2="30.7947" y2="17.8889" gradientUnits="userSpaceOnUse">
<stop stop-color="white"/>
<stop offset="1" stop-color="white"/>
</linearGradient>
<linearGradient id="paint5_linear_3208_582" x1="10.4922" y1="24.115" x2="27.0686" y2="24.115" gradientUnits="userSpaceOnUse">
<stop stop-color="white"/>
<stop offset="1" stop-color="white"/>
</linearGradient>
<linearGradient id="paint6_linear_3208_582" x1="26.7002" y1="27.3313" x2="26.7247" y2="27.3313" gradientUnits="userSpaceOnUse">
<stop stop-color="white"/>
<stop offset="1" stop-color="white"/>
</linearGradient>
<linearGradient id="paint7_linear_3208_582" x1="22.4424" y1="33.1295" x2="22.4526" y2="33.1295" gradientUnits="userSpaceOnUse">
<stop stop-color="white"/>
<stop offset="1" stop-color="white"/>
</linearGradient>
<linearGradient id="paint8_linear_3208_582" x1="22.4424" y1="28.4645" x2="33.1088" y2="28.4645" gradientUnits="userSpaceOnUse">
<stop stop-color="white"/>
<stop offset="1" stop-color="white"/>
</linearGradient>
<linearGradient id="paint9_linear_3208_582" x1="10.4922" y1="27.3762" x2="38.7275" y2="27.3762" gradientUnits="userSpaceOnUse">
<stop stop-color="white"/>
<stop offset="1" stop-color="white"/>
</linearGradient>
<linearGradient id="paint10_linear_3208_582" x1="38.7217" y1="18.5252" x2="38.7259" y2="18.5252" gradientUnits="userSpaceOnUse">
<stop stop-color="white"/>
<stop offset="1" stop-color="white"/>
</linearGradient>
<linearGradient id="paint11_linear_3208_582" x1="22.4424" y1="33.1208" x2="22.4455" y2="33.1208" gradientUnits="userSpaceOnUse">
<stop stop-color="white"/>
<stop offset="1" stop-color="white"/>
</linearGradient>
</defs>
</svg>
