<svg width="190" height="55" viewBox="0 0 190 55" fill="none" xmlns="http://www.w3.org/2000/svg">
<g clip-path="url(#clip0_2678_969)">
<path d="M27.6539 53.8777C42.2218 53.8777 54.0315 42.068 54.0315 27.5001C54.0315 12.9322 42.2218 1.12256 27.6539 1.12256C13.086 1.12256 1.27637 12.9322 1.27637 27.5001C1.27637 42.068 13.086 53.8777 27.6539 53.8777Z" fill="#2BB19A" stroke="#2BB19A" stroke-width="2"/>
<path d="M37.3324 29.6143C37.3324 29.6143 35.8074 29.8386 33.7286 30.6685C32.8032 31.0376 31.7677 31.5272 30.708 32.1703L33.9981 40.6652H41.978L37.3324 29.6143Z" fill="url(#paint0_linear_2678_969)"/>
<path d="M34.7197 23.4411C32.5892 24.3794 30.5305 25.4904 28.5782 26.6889L26.8838 22.3419L30.5278 13.4692L34.7197 23.4411Z" fill="url(#paint1_linear_2678_969)"/>
<path d="M30.5368 13.4692L26.8925 22.3421L23.9359 29.8313C16.7725 35.1071 11.9307 40.6662 11.9307 40.6662L23.363 13.4692H30.5368Z" fill="url(#paint2_linear_2678_969)"/>
<path d="M30.124 30.682V30.6869C30.1338 30.6795 30.1411 30.6734 30.1484 30.666L30.124 30.682Z" fill="url(#paint3_linear_2678_969)"/>
<path d="M25.3428 37.1955C25.3466 37.1891 25.3492 37.1802 25.353 37.1738C25.3492 37.1802 25.3479 37.1878 25.3466 37.1904C25.3454 37.193 25.3428 37.1955 25.3428 37.1955Z" fill="url(#paint4_linear_2678_969)"/>
<path d="M36.634 27.9961L36.1101 26.7489L36.1005 26.7261C36.1005 26.7261 33.1047 27.9914 30.116 30.6708C30.1146 30.6722 30.1128 30.6737 30.1109 30.6753C28.293 32.3061 26.4785 34.4606 25.3436 37.1721C25.3433 37.1729 25.3428 37.1735 25.3428 37.1743C26.8886 34.9098 28.8271 33.3033 30.6909 32.1724C34.1299 30.0855 37.3154 29.6166 37.3154 29.6166L36.634 27.9961Z" fill="url(#paint5_linear_2678_969)"/>
<path d="M43.6231 20.793C40.8712 21.8326 38.4092 23.0055 36.2107 24.2502C33.0146 26.0589 30.3768 28.0169 28.2206 29.9296C21.9547 35.4887 19.7566 40.6637 19.7566 40.6637H11.9307C11.9307 40.6637 16.7725 35.1046 23.9359 29.8294C24.3924 29.4936 24.8585 29.1581 25.3329 28.8259C26.3774 28.0944 27.4645 27.3759 28.587 26.6869C30.5392 25.4882 32.598 24.3772 34.7287 23.4389C37.5948 22.1757 40.589 21.225 43.6231 20.793Z" fill="url(#paint6_linear_2678_969)"/>
<path d="M64.5029 40.9693L73.157 15.8826H79.0835L87.7376 40.9693H82.7539L80.9693 35.5816H71.2713L69.4529 40.9693H64.5029ZM72.5846 31.5408H79.656L75.4805 19.0479H76.7601L72.5846 31.5408ZM98.0209 41.3734C96.2475 41.3734 94.6648 40.9581 93.273 40.1275C91.8811 39.2744 90.7811 38.1183 89.973 36.6591C89.1648 35.1999 88.7607 33.5836 88.7607 31.8101C88.7607 30.0142 89.1648 28.3979 89.973 26.9612C90.7811 25.5244 91.8811 24.3795 93.273 23.5265C94.6873 22.6734 96.2587 22.2469 97.9873 22.2469C99.3791 22.2469 100.614 22.5275 101.691 23.0887C102.791 23.6275 103.656 24.3908 104.284 25.3785L103.611 26.2877V15.4785H108.022V40.9693H103.846V37.4336L104.318 38.3091C103.689 39.2969 102.814 40.0601 101.691 40.5989C100.569 41.1152 99.3454 41.3734 98.0209 41.3734ZM98.4924 37.3326C99.5026 37.3326 100.389 37.0969 101.153 36.6255C101.916 36.154 102.511 35.503 102.937 34.6724C103.386 33.8418 103.611 32.8877 103.611 31.8101C103.611 30.755 103.386 29.8122 102.937 28.9816C102.511 28.1285 101.916 27.4663 101.153 26.9948C100.389 26.5234 99.5026 26.2877 98.4924 26.2877C97.5046 26.2877 96.6179 26.5346 95.8322 27.0285C95.0464 27.4999 94.4291 28.151 93.9801 28.9816C93.5536 29.7897 93.3403 30.7326 93.3403 31.8101C93.3403 32.8877 93.5536 33.8418 93.9801 34.6724C94.4291 35.503 95.0464 36.154 95.8322 36.6255C96.6179 37.0969 97.5046 37.3326 98.4924 37.3326ZM117.649 40.9693L110.442 22.651H115.258L120.477 37.0632H118.693L123.946 22.651H128.761L121.555 40.9693H117.649ZM131.199 40.9693V22.651H135.61V40.9693H131.199ZM131.199 20.5969V15.8826H135.61V20.5969H131.199ZM146.654 41.3734C144.701 41.3734 142.995 40.9132 141.535 39.9928C140.099 39.0499 139.111 37.7816 138.572 36.1877L141.872 34.605C142.344 35.6377 142.995 36.4459 143.825 37.0295C144.678 37.6132 145.621 37.905 146.654 37.905C147.462 37.905 148.102 37.7255 148.573 37.3663C149.045 37.0071 149.28 36.5357 149.28 35.952C149.28 35.5928 149.179 35.301 148.977 35.0765C148.798 34.8295 148.54 34.6275 148.203 34.4703C147.889 34.2908 147.541 34.1448 147.159 34.0326L144.162 33.1908C142.613 32.7418 141.434 32.0571 140.626 31.1367C139.841 30.2163 139.448 29.1275 139.448 27.8703C139.448 26.7479 139.728 25.7714 140.29 24.9408C140.873 24.0877 141.67 23.4255 142.68 22.954C143.713 22.4826 144.892 22.2469 146.216 22.2469C147.945 22.2469 149.471 22.6622 150.796 23.4928C152.12 24.3234 153.063 25.4908 153.624 26.9948L150.257 28.5775C149.943 27.7469 149.415 27.0846 148.674 26.5908C147.933 26.0969 147.103 25.8499 146.182 25.8499C145.442 25.8499 144.858 26.0183 144.431 26.355C144.005 26.6918 143.792 27.1295 143.792 27.6683C143.792 28.005 143.881 28.2969 144.061 28.5438C144.241 28.7908 144.488 28.9928 144.802 29.1499C145.139 29.3071 145.52 29.453 145.947 29.5877L148.876 30.4632C150.38 30.9122 151.536 31.5857 152.345 32.4836C153.175 33.3816 153.591 34.4816 153.591 35.7836C153.591 36.8836 153.299 37.8601 152.715 38.7132C152.131 39.5438 151.323 40.1948 150.291 40.6663C149.258 41.1377 148.046 41.3734 146.654 41.3734ZM165.938 41.3734C164.142 41.3734 162.503 40.9581 161.021 40.1275C159.562 39.2969 158.395 38.1632 157.519 36.7265C156.666 35.2897 156.24 33.651 156.24 31.8101C156.24 29.9693 156.666 28.3306 157.519 26.8938C158.395 25.4571 159.562 24.3234 161.021 23.4928C162.48 22.6622 164.119 22.2469 165.938 22.2469C167.733 22.2469 169.361 22.6622 170.82 23.4928C172.279 24.3234 173.435 25.4571 174.289 26.8938C175.164 28.3081 175.602 29.9469 175.602 31.8101C175.602 33.651 175.164 35.2897 174.289 36.7265C173.413 38.1632 172.246 39.2969 170.786 40.1275C169.327 40.9581 167.711 41.3734 165.938 41.3734ZM165.938 37.3326C166.925 37.3326 167.79 37.0969 168.53 36.6255C169.294 36.154 169.889 35.503 170.315 34.6724C170.764 33.8193 170.989 32.8652 170.989 31.8101C170.989 30.7326 170.764 29.7897 170.315 28.9816C169.889 28.151 169.294 27.4999 168.53 27.0285C167.79 26.5346 166.925 26.2877 165.938 26.2877C164.927 26.2877 164.041 26.5346 163.277 27.0285C162.514 27.4999 161.908 28.151 161.459 28.9816C161.032 29.7897 160.819 30.7326 160.819 31.8101C160.819 32.8652 161.032 33.8193 161.459 34.6724C161.908 35.503 162.514 36.154 163.277 36.6255C164.041 37.0969 164.927 37.3326 165.938 37.3326ZM178.947 40.9693V22.651H183.089V26.7255L182.752 26.1193C183.178 24.7499 183.841 23.7959 184.739 23.2571C185.659 22.7183 186.759 22.4489 188.039 22.4489H189.116V26.355H187.533C186.276 26.355 185.266 26.7479 184.503 27.5336C183.74 28.2969 183.358 29.3744 183.358 30.7663V40.9693H178.947Z" fill="white"/>
</g>
<defs>
<linearGradient id="paint0_linear_2678_969" x1="30.708" y1="35.1397" x2="41.978" y2="35.1397" gradientUnits="userSpaceOnUse">
<stop stop-color="white"/>
<stop offset="1" stop-color="white"/>
</linearGradient>
<linearGradient id="paint1_linear_2678_969" x1="26.8838" y1="20.0792" x2="34.7197" y2="20.0792" gradientUnits="userSpaceOnUse">
<stop stop-color="white"/>
<stop offset="1" stop-color="white"/>
</linearGradient>
<linearGradient id="paint2_linear_2678_969" x1="11.9307" y1="27.0677" x2="30.5368" y2="27.0677" gradientUnits="userSpaceOnUse">
<stop stop-color="white"/>
<stop offset="1" stop-color="white"/>
</linearGradient>
<linearGradient id="paint3_linear_2678_969" x1="30.124" y1="30.6765" x2="30.1484" y2="30.6765" gradientUnits="userSpaceOnUse">
<stop stop-color="white"/>
<stop offset="1" stop-color="white"/>
</linearGradient>
<linearGradient id="paint4_linear_2678_969" x1="25.3428" y1="37.1846" x2="25.353" y2="37.1846" gradientUnits="userSpaceOnUse">
<stop stop-color="white"/>
<stop offset="1" stop-color="white"/>
</linearGradient>
<linearGradient id="paint5_linear_2678_969" x1="25.3428" y1="31.9502" x2="37.3154" y2="31.9502" gradientUnits="userSpaceOnUse">
<stop stop-color="white"/>
<stop offset="1" stop-color="white"/>
</linearGradient>
<linearGradient id="paint6_linear_2678_969" x1="11.9307" y1="30.7283" x2="43.6233" y2="30.7283" gradientUnits="userSpaceOnUse">
<stop stop-color="white"/>
<stop offset="1" stop-color="white"/>
</linearGradient>
<clipPath id="clip0_2678_969">
<rect width="189.694" height="55" fill="white" transform="translate(0.15332)"/>
</clipPath>
</defs>
</svg>
