<svg width="86" height="25" viewBox="0 0 86 25" fill="none" xmlns="http://www.w3.org/2000/svg">
<g clip-path="url(#clip0_3297_6878)">
<path d="M23.8916 7.2763H27.8498C30.3733 7.2763 32.4579 8.73637 32.4579 12.07V12.7705C32.4579 16.1295 30.5083 17.6402 27.9258 17.6402H23.8916V7.2763ZM26.1028 9.15835V15.7497H27.7992C29.2339 15.7497 30.196 14.8129 30.196 12.7283V12.1797C30.196 10.0951 29.1833 9.15835 27.7232 9.15835H26.1028ZM33.631 9.25962H35.4033L35.6902 11.2092C36.0278 9.88416 36.8887 9.17523 38.45 9.17523H38.9986V11.4117H38.0871C36.2895 11.4117 35.8506 12.0363 35.8506 13.8086V17.6655H33.6647V9.25962H33.631ZM39.4375 13.6314V13.3951C39.4375 10.5847 41.2351 9.04863 43.6826 9.04863C46.1807 9.04863 47.9277 10.5847 47.9277 13.3951V13.6314C47.9277 16.3911 46.2314 17.8765 43.6826 17.8765C40.9735 17.8512 39.4375 16.3996 39.4375 13.6314ZM45.6912 13.606V13.3951C45.6912 11.8337 44.9063 10.8969 43.6573 10.8969C42.4335 10.8969 41.6233 11.7578 41.6233 13.3951V13.606C41.6233 15.1167 42.4082 15.9776 43.6573 15.9776C44.9063 15.9523 45.6912 15.1167 45.6912 13.606ZM49.0755 9.25962H50.8985L51.1095 10.8463C51.5484 9.78288 52.4852 9.04863 53.8693 9.04863C56.0045 9.04863 57.4139 10.5847 57.4139 13.4288V13.6651C57.4139 16.4249 55.8526 17.885 53.8693 17.885C52.5442 17.885 51.6328 17.2857 51.1855 16.3236V20.5688H49.0502L49.0755 9.25962ZM55.1943 13.606V13.4204C55.1943 11.7493 54.3334 10.9222 53.1857 10.9222C51.9619 10.9222 51.1517 11.859 51.1517 13.4204V13.5807C51.1517 15.0661 51.9366 16.0029 53.1603 16.0029C54.4178 15.9776 55.1943 15.1758 55.1943 13.606ZM60.6463 16.1126L60.4606 17.6486H58.587V6.44922H60.7223V10.745C61.1949 9.64785 62.1317 9.04863 63.4567 9.04863C65.4654 9.07395 66.9507 10.4581 66.9507 13.2431V13.5048C66.9507 16.2899 65.5413 17.885 63.4061 17.885C61.9967 17.8512 61.0852 17.2013 60.6463 16.1126ZM64.7058 13.5048V13.2938C64.7058 11.7578 63.8703 10.8969 62.6971 10.8969C61.4987 10.8969 60.6632 11.859 60.6632 13.3191V13.5048C60.6632 15.0661 61.4734 15.9776 62.6718 15.9776C63.9547 15.9776 64.7058 15.1758 64.7058 13.5048ZM67.8875 13.6314V13.3951C67.8875 10.5847 69.6852 9.04863 72.1327 9.04863C74.6308 9.04863 76.3778 10.5847 76.3778 13.3951V13.6314C76.3778 16.3911 74.6561 17.8765 72.1327 17.8765C69.4236 17.8512 67.8875 16.3996 67.8875 13.6314ZM74.1582 13.606V13.3951C74.1582 11.8337 73.3733 10.8969 72.1242 10.8969C70.9005 10.8969 70.0903 11.7578 70.0903 13.3951V13.606C70.0903 15.1167 70.8752 15.9776 72.1242 15.9776C73.3818 15.9523 74.1582 15.1167 74.1582 13.606ZM79.2389 13.2938L76.2934 9.25962H78.8169L80.5133 11.7831L82.235 9.25962H84.7331L81.7455 13.2685L84.8934 17.6486H82.4206L80.4964 14.8636L78.6228 17.6486H76.0402L79.2389 13.2938Z" fill="#10242D"/>
<path d="M10.2871 7.27697L5.39207 10.3996L10.2871 13.5223L5.39207 16.645L0.49707 13.5054L5.39207 10.3828L0.49707 7.27697L5.39207 4.1543L10.2871 7.27697ZM5.36675 17.6493L10.2618 14.5266L15.1568 17.6493L10.2618 20.772L5.36675 17.6493ZM10.2871 13.5054L15.1821 10.3828L10.2871 7.27697L15.1568 4.1543L20.0518 7.27697L15.1568 10.3996L20.0518 13.5223L15.1568 16.645L10.2871 13.5054Z" fill="#0061FF"/>
</g>
<defs>
<clipPath id="clip0_3297_6878">
<rect width="84.6463" height="24.9265" fill="white" transform="translate(0.49707)"/>
</clipPath>
</defs>
</svg>
