<svg width="150" height="50" viewBox="0 0 150 50" fill="none" xmlns="http://www.w3.org/2000/svg">
<circle cx="24.5" cy="25" r="23.5" fill="url(#paint0_linear_3208_129)" stroke="url(#paint1_linear_3208_129)" stroke-width="2"/>
<path d="M21.1875 27.0775L23.822 20.4053L21.188 27.0775H21.1875Z" fill="url(#paint2_linear_3208_129)"/>
<path d="M25.3232 24.2781L25.3229 24.2783L23.8135 20.4053L25.3232 24.2779V24.2781Z" fill="url(#paint3_linear_3208_129)"/>
<path d="M33.1234 26.8838C33.1234 26.8838 31.7648 27.0837 29.9128 27.823C29.0883 28.1519 28.1658 28.5881 27.2217 29.161L30.1529 36.7292H37.2622L33.1234 26.8838Z" fill="url(#paint4_linear_3208_129)"/>
<path d="M30.7947 21.384C28.8966 22.22 27.0624 23.2098 25.3232 24.2775C25.3232 24.2777 25.3229 24.2777 25.3229 24.2777L23.8135 20.4047L27.0601 12.5L30.7947 21.384Z" fill="url(#paint5_linear_3208_129)"/>
<path d="M27.0686 12.5L23.8218 20.4049L21.1878 27.0771H21.1875C14.8055 31.7774 10.4922 36.73 10.4922 36.73L20.6774 12.5H27.0686Z" fill="url(#paint6_linear_3208_129)"/>
<path d="M26.7002 27.8368V27.8417C26.71 27.8343 26.7173 27.8282 26.7247 27.8208L26.7002 27.8368Z" fill="url(#paint7_linear_3208_129)"/>
<path d="M22.4424 33.6404C22.4462 33.634 22.4488 33.6251 22.4526 33.6187C22.4488 33.6251 22.4475 33.6327 22.4462 33.6353C22.4449 33.6379 22.4424 33.6404 22.4424 33.6404Z" fill="url(#paint8_linear_3208_129)"/>
<path d="M32.5019 25.4418L32.035 24.3306L32.0266 24.3103C32.0266 24.3103 29.3575 25.4376 26.6949 27.8247C26.6937 27.8259 26.692 27.8273 26.6904 27.8287C25.0708 29.2816 23.4542 31.2011 22.4431 33.6168C22.4429 33.6175 22.4424 33.618 22.4424 33.6187C23.8195 31.6013 25.5466 30.17 27.2071 29.1625C30.2709 27.3032 33.1088 26.8855 33.1088 26.8855L32.5017 25.4416L32.5019 25.4418Z" fill="url(#paint9_linear_3208_129)"/>
<path d="M38.7273 19.0247C36.2756 19.9509 34.0822 20.9959 32.1235 22.1048C29.2761 23.7162 26.926 25.4606 25.0051 27.1646C19.4227 32.1173 17.4644 36.7277 17.4644 36.7277H10.4922C10.4922 36.7277 14.8058 31.7751 21.1878 27.0753C21.1878 27.0753 21.188 27.0753 21.188 27.0751C21.5947 26.776 22.0097 26.4773 22.4324 26.1813C23.3629 25.5296 24.3314 24.8895 25.3315 24.2757C25.3315 24.2757 25.3317 24.2757 25.3317 24.2754C27.0709 23.2075 28.9049 22.2179 30.8032 21.382C33.3566 20.2566 36.0245 19.4098 38.7275 19.0249L38.7273 19.0247Z" fill="url(#paint10_linear_3208_129)"/>
<path d="M38.7217 19.0257L38.7259 19.0247L38.7217 19.0257Z" fill="url(#paint11_linear_3208_129)"/>
<path d="M22.4455 33.6187L22.4424 33.6229L22.4455 33.6187Z" fill="url(#paint12_linear_3208_129)"/>
<path d="M57.33 37L65.04 14.65H70.32L78.03 37H73.59L72 32.2H63.36L61.74 37H57.33ZM64.53 28.6H70.83L67.11 17.47H68.25L64.53 28.6ZM87.1915 37.36C85.6115 37.36 84.2015 36.99 82.9615 36.25C81.7215 35.49 80.7415 34.46 80.0215 33.16C79.3015 31.86 78.9415 30.42 78.9415 28.84C78.9415 27.24 79.3015 25.8 80.0215 24.52C80.7415 23.24 81.7215 22.22 82.9615 21.46C84.2215 20.7 85.6215 20.32 87.1615 20.32C88.4015 20.32 89.5015 20.57 90.4615 21.07C91.4415 21.55 92.2115 22.23 92.7715 23.11L92.1715 23.92V14.29H96.1015V37H92.3815V33.85L92.8015 34.63C92.2415 35.51 91.4615 36.19 90.4615 36.67C89.4615 37.13 88.3715 37.36 87.1915 37.36ZM87.6115 33.76C88.5115 33.76 89.3015 33.55 89.9815 33.13C90.6615 32.71 91.1915 32.13 91.5715 31.39C91.9715 30.65 92.1715 29.8 92.1715 28.84C92.1715 27.9 91.9715 27.06 91.5715 26.32C91.1915 25.56 90.6615 24.97 89.9815 24.55C89.3015 24.13 88.5115 23.92 87.6115 23.92C86.7315 23.92 85.9415 24.14 85.2415 24.58C84.5415 25 83.9915 25.58 83.5915 26.32C83.2115 27.04 83.0215 27.88 83.0215 28.84C83.0215 29.8 83.2115 30.65 83.5915 31.39C83.9915 32.13 84.5415 32.71 85.2415 33.13C85.9415 33.55 86.7315 33.76 87.6115 33.76ZM104.678 37L98.2577 20.68H102.548L107.198 33.52H105.608L110.288 20.68H114.578L108.158 37H104.678ZM116.75 37V20.68H120.68V37H116.75ZM116.75 18.85V14.65H120.68V18.85H116.75ZM130.519 37.36C128.779 37.36 127.259 36.95 125.959 36.13C124.679 35.29 123.799 34.16 123.319 32.74L126.259 31.33C126.679 32.25 127.259 32.97 127.999 33.49C128.759 34.01 129.599 34.27 130.519 34.27C131.239 34.27 131.809 34.11 132.229 33.79C132.649 33.47 132.859 33.05 132.859 32.53C132.859 32.21 132.769 31.95 132.589 31.75C132.429 31.53 132.199 31.35 131.899 31.21C131.619 31.05 131.309 30.92 130.969 30.82L128.299 30.07C126.919 29.67 125.869 29.06 125.149 28.24C124.449 27.42 124.099 26.45 124.099 25.33C124.099 24.33 124.349 23.46 124.849 22.72C125.369 21.96 126.079 21.37 126.979 20.95C127.899 20.53 128.949 20.32 130.129 20.32C131.669 20.32 133.029 20.69 134.209 21.43C135.389 22.17 136.229 23.21 136.729 24.55L133.729 25.96C133.449 25.22 132.979 24.63 132.319 24.19C131.659 23.75 130.919 23.53 130.099 23.53C129.439 23.53 128.919 23.68 128.539 23.98C128.159 24.28 127.969 24.67 127.969 25.15C127.969 25.45 128.049 25.71 128.209 25.93C128.369 26.15 128.589 26.33 128.869 26.47C129.169 26.61 129.509 26.74 129.889 26.86L132.499 27.64C133.839 28.04 134.869 28.64 135.589 29.44C136.329 30.24 136.699 31.22 136.699 32.38C136.699 33.36 136.439 34.23 135.919 34.99C135.399 35.73 134.679 36.31 133.759 36.73C132.839 37.15 131.759 37.36 130.519 37.36ZM139.719 37V20.68H143.409V24.31L143.109 23.77C143.489 22.55 144.079 21.7 144.879 21.22C145.699 20.74 146.679 20.5 147.819 20.5H148.779V23.98H147.369C146.249 23.98 145.349 24.33 144.669 25.03C143.989 25.71 143.649 26.67 143.649 27.91V37H139.719Z" fill="#1C1C57"/>
<defs>
<linearGradient id="paint0_linear_3208_129" x1="0" y1="25" x2="49" y2="25" gradientUnits="userSpaceOnUse">
<stop stop-color="#9384FE"/>
<stop offset="1" stop-color="#615AFF"/>
</linearGradient>
<linearGradient id="paint1_linear_3208_129" x1="0" y1="25" x2="49" y2="25" gradientUnits="userSpaceOnUse">
<stop stop-color="#9384FE"/>
<stop offset="1" stop-color="#615AFF"/>
</linearGradient>
<linearGradient id="paint2_linear_3208_129" x1="21.1875" y1="23.7414" x2="23.822" y2="23.7414" gradientUnits="userSpaceOnUse">
<stop stop-color="white"/>
<stop offset="1" stop-color="white"/>
</linearGradient>
<linearGradient id="paint3_linear_3208_129" x1="23.8135" y1="22.3418" x2="25.3232" y2="22.3418" gradientUnits="userSpaceOnUse">
<stop stop-color="white"/>
<stop offset="1" stop-color="white"/>
</linearGradient>
<linearGradient id="paint4_linear_3208_129" x1="27.2217" y1="31.8065" x2="37.2622" y2="31.8065" gradientUnits="userSpaceOnUse">
<stop stop-color="white"/>
<stop offset="1" stop-color="white"/>
</linearGradient>
<linearGradient id="paint5_linear_3208_129" x1="23.8135" y1="18.3889" x2="30.7947" y2="18.3889" gradientUnits="userSpaceOnUse">
<stop stop-color="white"/>
<stop offset="1" stop-color="white"/>
</linearGradient>
<linearGradient id="paint6_linear_3208_129" x1="10.4922" y1="24.615" x2="27.0686" y2="24.615" gradientUnits="userSpaceOnUse">
<stop stop-color="white"/>
<stop offset="1" stop-color="white"/>
</linearGradient>
<linearGradient id="paint7_linear_3208_129" x1="26.7002" y1="27.8313" x2="26.7247" y2="27.8313" gradientUnits="userSpaceOnUse">
<stop stop-color="white"/>
<stop offset="1" stop-color="white"/>
</linearGradient>
<linearGradient id="paint8_linear_3208_129" x1="22.4424" y1="33.6295" x2="22.4526" y2="33.6295" gradientUnits="userSpaceOnUse">
<stop stop-color="white"/>
<stop offset="1" stop-color="white"/>
</linearGradient>
<linearGradient id="paint9_linear_3208_129" x1="22.4424" y1="28.9645" x2="33.1088" y2="28.9645" gradientUnits="userSpaceOnUse">
<stop stop-color="white"/>
<stop offset="1" stop-color="white"/>
</linearGradient>
<linearGradient id="paint10_linear_3208_129" x1="10.4922" y1="27.8762" x2="38.7275" y2="27.8762" gradientUnits="userSpaceOnUse">
<stop stop-color="white"/>
<stop offset="1" stop-color="white"/>
</linearGradient>
<linearGradient id="paint11_linear_3208_129" x1="38.7217" y1="19.0252" x2="38.7259" y2="19.0252" gradientUnits="userSpaceOnUse">
<stop stop-color="white"/>
<stop offset="1" stop-color="white"/>
</linearGradient>
<linearGradient id="paint12_linear_3208_129" x1="22.4424" y1="33.6208" x2="22.4455" y2="33.6208" gradientUnits="userSpaceOnUse">
<stop stop-color="white"/>
<stop offset="1" stop-color="white"/>
</linearGradient>
</defs>
</svg>
