<svg width="63" height="25" viewBox="0 0 63 25" fill="none" xmlns="http://www.w3.org/2000/svg">
<g clip-path="url(#clip0_3297_6877)">
<path d="M19.7385 16.8392L20.5009 15.0572C21.3357 15.6754 22.4245 16.0026 23.5136 16.0026C24.3121 16.0026 24.8202 15.6936 24.8202 15.221C24.802 13.9117 20.0108 14.9299 19.9744 11.6383C19.9561 9.96538 21.4445 8.67433 23.55 8.67433C24.802 8.67433 26.0545 8.98356 26.9437 9.69285L26.2313 11.5128C25.4132 10.9868 24.4027 10.62 23.4409 10.62C22.7876 10.62 22.3519 10.929 22.3519 11.3293C22.3701 12.6204 27.198 11.9111 27.2524 15.0572C27.2524 16.7666 25.8002 17.9668 23.7312 17.9668C22.2069 17.9668 20.8094 17.6031 19.7383 16.8392H19.7385ZM50.096 14.412C49.9035 14.7539 49.6236 15.0385 49.2849 15.2365C48.9462 15.4346 48.5609 15.539 48.1685 15.539C46.9456 15.539 45.9544 14.5458 45.9544 13.3206C45.9544 12.0954 46.9456 11.1021 48.1685 11.1021C48.5609 11.1021 48.9462 11.2065 49.2849 11.4046C49.6236 11.6026 49.9035 11.8872 50.096 12.2291L52.2155 11.0526C51.4216 9.63377 49.9072 8.67433 48.1685 8.67433C45.6075 8.67433 43.5314 10.7543 43.5314 13.3206C43.5314 15.8865 45.6075 17.9668 48.1685 17.9668C49.9072 17.9668 51.4216 17.0073 52.2155 15.5885L50.096 14.412ZM28.6278 17.7848H31.2776V4.80664H28.6281L28.6278 17.7848ZM53.5537 4.80664V17.7848H56.2035V13.8966L59.3434 17.7848H62.7303L58.7374 13.1657L62.4398 8.85549H59.1981L56.2035 12.4389V4.80664H53.5537ZM39.4411 8.85601V9.91098C39.0057 9.18346 37.9348 8.67433 36.8096 8.67433C34.4865 8.67433 32.6535 10.7293 32.6535 13.3114C32.6535 15.8935 34.4865 17.9668 36.8096 17.9668C37.9348 17.9668 39.0057 17.4576 39.4411 16.7301V17.7848H42.0909V8.85601H39.4411ZM39.4411 14.4299C39.0601 15.0663 38.2615 15.5388 37.3723 15.5388C36.1492 15.5388 35.158 14.5458 35.158 13.3206C35.158 12.0954 36.1492 11.1021 37.3723 11.1021C38.2615 11.1021 39.0601 11.593 39.4411 12.2474V14.4299Z" fill="#10242D"/>
<path d="M5.74488 4.51953C4.88617 4.51953 4.19015 5.21712 4.19015 6.07738C4.18994 6.28176 4.22999 6.48417 4.30802 6.67307C4.38604 6.86196 4.5005 7.03364 4.64487 7.1783C4.78924 7.32296 4.96069 7.43777 5.14943 7.51617C5.33817 7.59457 5.5405 7.63503 5.74488 7.63523H7.29986V6.07738C7.30021 5.66461 7.13658 5.26859 6.84497 4.97645C6.55336 4.6843 6.15765 4.51995 5.74488 4.51953ZM5.74488 8.6738H1.59867C0.739968 8.6738 0.0439453 9.37139 0.0439453 10.2319C0.0439453 11.0922 0.739968 11.7898 1.59867 11.7898H5.74514C6.60358 11.7898 7.29986 11.0922 7.29986 10.2319C7.29986 9.37139 6.60358 8.6738 5.74488 8.6738Z" fill="#36C5F0"/>
<path d="M15.5928 10.2319C15.5928 9.37139 14.8966 8.6738 14.0378 8.6738C13.1791 8.6738 12.4831 9.37139 12.4831 10.2319V11.7898H14.0378C14.4506 11.7894 14.8463 11.625 15.1379 11.3329C15.4296 11.0407 15.5932 10.6447 15.5928 10.2319ZM11.4466 10.2319V6.07738C11.447 5.66461 11.2833 5.26859 10.9917 4.97645C10.7001 4.6843 10.3044 4.51995 9.89164 4.51953C9.03294 4.51953 8.33691 5.21712 8.33691 6.07738V10.2317C8.33691 11.0924 9.03294 11.79 9.89164 11.79C10.3044 11.7896 10.7001 11.6253 10.9917 11.3331C11.2833 11.041 11.447 10.645 11.4466 10.2322" fill="#2EB67D"/>
<path d="M9.89164 20.0984C10.3044 20.0979 10.7001 19.9336 10.9917 19.6414C11.2834 19.3493 11.447 18.9533 11.4466 18.5405C11.447 18.1277 11.2834 17.7317 10.9917 17.4396C10.7001 17.1474 10.3044 16.9831 9.89164 16.9827H8.33691V18.5405C8.33691 19.4008 9.03294 20.0984 9.89164 20.0984ZM9.89164 15.9441H14.0381C14.8966 15.9441 15.5928 15.2465 15.5928 14.386C15.5932 13.9732 15.4296 13.5772 15.1379 13.285C14.8463 12.9929 14.4506 12.8285 14.0378 12.8281H9.89164C9.03294 12.8281 8.33691 13.5257 8.33691 14.386C8.33671 14.5904 8.37676 14.7928 8.45478 14.9817C8.5328 15.1706 8.64727 15.3422 8.79164 15.4869C8.93601 15.6316 9.10746 15.7464 9.2962 15.8248C9.48493 15.9032 9.68727 15.9436 9.89164 15.9438" fill="#ECB22E"/>
<path d="M0.0439461 14.386C0.0437409 14.5904 0.0837924 14.7928 0.161814 14.9817C0.239835 15.1706 0.354298 15.3422 0.498668 15.4869C0.643038 15.6316 0.814487 15.7464 1.00323 15.8248C1.19197 15.9032 1.3943 15.9436 1.59867 15.9438C2.01145 15.9434 2.40716 15.7791 2.69877 15.4869C2.99038 15.1948 3.15401 14.7988 3.15366 14.386V12.8281H1.59867C0.739969 12.8281 0.0439461 13.5257 0.0439461 14.386ZM4.19015 14.386V18.5402C4.19015 19.4008 4.88617 20.0984 5.74488 20.0984C6.15765 20.0979 6.55336 19.9336 6.84497 19.6414C7.13658 19.3493 7.30021 18.9533 7.29986 18.5405V14.386C7.30007 14.1816 7.26001 13.9791 7.18197 13.7902C7.10393 13.6013 6.98945 13.4296 6.84505 13.285C6.70065 13.1403 6.52917 13.0255 6.3404 12.9471C6.15163 12.8687 5.94927 12.8283 5.74488 12.8281C4.88617 12.8281 4.19015 13.5257 4.19015 14.386Z" fill="#E01E5A"/>
</g>
<defs>
<clipPath id="clip0_3297_6877">
<rect width="62.8356" height="24.9265" fill="white" transform="translate(0.0439453)"/>
</clipPath>
</defs>
</svg>
