<svg width="151" height="49" viewBox="0 0 151 49" fill="none" xmlns="http://www.w3.org/2000/svg">
<circle cx="25" cy="24.5" r="23.5" fill="#2BB19A" stroke="#2BB19A" stroke-width="2"/>
<path d="M21.6875 26.5775L24.322 19.9053L21.688 26.5775H21.6875Z" fill="url(#paint0_linear_2678_576)"/>
<path d="M25.8232 23.7781L25.8229 23.7783L24.3135 19.9053L25.8232 23.7779V23.7781Z" fill="url(#paint1_linear_2678_576)"/>
<path d="M33.6234 26.3838C33.6234 26.3838 32.2648 26.5837 30.4128 27.323C29.5883 27.6519 28.6658 28.0881 27.7217 28.661L30.6529 36.2292H37.7622L33.6234 26.3838Z" fill="url(#paint2_linear_2678_576)"/>
<path d="M31.2947 20.884C29.3966 21.72 27.5624 22.7098 25.8232 23.7775C25.8232 23.7777 25.8229 23.7777 25.8229 23.7777L24.3135 19.9047L27.5601 12L31.2947 20.884Z" fill="url(#paint3_linear_2678_576)"/>
<path d="M27.5686 12L24.3218 19.9049L21.6878 26.5771H21.6875C15.3055 31.2774 10.9922 36.23 10.9922 36.23L21.1774 12H27.5686Z" fill="url(#paint4_linear_2678_576)"/>
<path d="M27.2002 27.3373V27.3422C27.21 27.3348 27.2173 27.3287 27.2247 27.3213L27.2002 27.3373Z" fill="url(#paint5_linear_2678_576)"/>
<path d="M22.9424 33.1399C22.9462 33.1335 22.9488 33.1246 22.9526 33.1182C22.9488 33.1246 22.9475 33.1323 22.9462 33.1348C22.9449 33.1374 22.9424 33.1399 22.9424 33.1399Z" fill="url(#paint6_linear_2678_576)"/>
<path d="M33.0019 24.9421L32.535 23.8309L32.5266 23.8105C32.5266 23.8105 29.8575 24.9378 27.1949 27.3249C27.1937 27.3261 27.192 27.3275 27.1904 27.3289C25.5708 28.7818 23.9542 30.7013 22.9431 33.117C22.9429 33.1177 22.9424 33.1182 22.9424 33.1189C24.3195 31.1016 26.0466 29.6702 27.7071 28.6627C30.7709 26.8035 33.6088 26.3857 33.6088 26.3857L33.0017 24.9418L33.0019 24.9421Z" fill="url(#paint7_linear_2678_576)"/>
<path d="M39.2273 18.5244C36.7756 19.4506 34.5822 20.4957 32.6235 21.6045C29.7761 23.2159 27.426 24.9604 25.5051 26.6644C19.9227 31.617 17.9644 36.2275 17.9644 36.2275H10.9922C10.9922 36.2275 15.3058 31.2749 21.6878 26.5751C21.6878 26.5751 21.688 26.5751 21.688 26.5749C22.0947 26.2757 22.5097 25.9771 22.9324 25.681C23.8629 25.0294 24.8314 24.3893 25.8315 23.7754C25.8315 23.7754 25.8317 23.7754 25.8317 23.7752C27.5709 22.7072 29.4049 21.7177 31.3032 20.8818C33.8566 19.7564 36.5245 18.9095 39.2275 18.5247L39.2273 18.5244Z" fill="url(#paint8_linear_2678_576)"/>
<path d="M39.2217 18.5255L39.2259 18.5244L39.2217 18.5255Z" fill="url(#paint9_linear_2678_576)"/>
<path d="M22.9455 33.1182L22.9424 33.1224L22.9455 33.1182Z" fill="url(#paint10_linear_2678_576)"/>
<path d="M57.83 36.5L65.54 14.15H70.82L78.53 36.5H74.09L72.5 31.7H63.86L62.24 36.5H57.83ZM65.03 28.1H71.33L68.18 18.68L65.03 28.1ZM87.6915 36.86C86.1115 36.86 84.7015 36.49 83.4615 35.75C82.2215 34.99 81.2415 33.97 80.5215 32.69C79.8015 31.39 79.4415 29.94 79.4415 28.34C79.4415 26.74 79.8015 25.3 80.5215 24.02C81.2415 22.72 82.2215 21.7 83.4615 20.96C84.7215 20.2 86.1215 19.82 87.6615 19.82C89.7815 19.82 91.4515 20.49 92.6715 21.83V13.79H96.6015V36.5H92.8815V34.7C92.2815 35.4 91.5315 35.94 90.6315 36.32C89.7315 36.68 88.7515 36.86 87.6915 36.86ZM88.1115 33.26C88.9915 33.26 89.7715 33.05 90.4515 32.63C91.1515 32.21 91.6915 31.63 92.0715 30.89C92.4715 30.15 92.6715 29.3 92.6715 28.34C92.6715 27.38 92.4715 26.53 92.0715 25.79C91.6915 25.05 91.1515 24.47 90.4515 24.05C89.7715 23.63 88.9915 23.42 88.1115 23.42C87.2315 23.42 86.4415 23.64 85.7415 24.08C85.0415 24.5 84.4915 25.08 84.0915 25.82C83.7115 26.56 83.5215 27.4 83.5215 28.34C83.5215 29.28 83.7115 30.13 84.0915 30.89C84.4915 31.63 85.0415 32.21 85.7415 32.63C86.4415 33.05 87.2315 33.26 88.1115 33.26ZM105.178 36.5L98.7577 20.18H103.048L106.918 30.83L110.788 20.18H115.078L108.658 36.5H105.178ZM117.25 18.35V14.15H121.18V18.35H117.25ZM117.25 36.5V20.18H121.18V36.5H117.25ZM131.019 36.86C129.279 36.86 127.759 36.44 126.459 35.6C125.179 34.76 124.299 33.64 123.819 32.24L126.759 30.83C127.199 31.75 127.789 32.47 128.529 32.99C129.269 33.51 130.099 33.77 131.019 33.77C131.719 33.77 132.279 33.62 132.699 33.32C133.139 33 133.359 32.57 133.359 32.03C133.359 31.57 133.169 31.21 132.789 30.95C132.429 30.67 131.989 30.46 131.469 30.32L128.799 29.57C127.419 29.17 126.369 28.56 125.649 27.74C124.949 26.92 124.599 25.95 124.599 24.83C124.599 23.83 124.849 22.96 125.349 22.22C125.869 21.46 126.579 20.87 127.479 20.45C128.399 20.03 129.449 19.82 130.629 19.82C132.169 19.82 133.529 20.2 134.709 20.96C135.889 21.7 136.729 22.73 137.229 24.05L134.229 25.46C133.969 24.72 133.499 24.13 132.819 23.69C132.159 23.25 131.419 23.03 130.599 23.03C129.939 23.03 129.419 23.18 129.039 23.48C128.659 23.78 128.469 24.17 128.469 24.65C128.469 25.11 128.649 25.47 129.009 25.73C129.369 25.99 129.829 26.2 130.389 26.36L132.999 27.14C134.359 27.52 135.399 28.12 136.119 28.94C136.839 29.76 137.199 30.74 137.199 31.88C137.199 32.86 136.939 33.73 136.419 34.49C135.899 35.23 135.179 35.81 134.259 36.23C133.339 36.65 132.259 36.86 131.019 36.86ZM140.219 36.5V20.18H143.909V22.49C144.329 21.55 144.919 20.9 145.679 20.54C146.439 20.18 147.319 20 148.319 20H149.279V23.48H147.869C146.769 23.48 145.869 23.83 145.169 24.53C144.489 25.21 144.149 26.17 144.149 27.41V36.5H140.219Z" fill="#00092C"/>
<defs>
<linearGradient id="paint0_linear_2678_576" x1="21.6875" y1="23.2414" x2="24.322" y2="23.2414" gradientUnits="userSpaceOnUse">
<stop stop-color="white"/>
<stop offset="1" stop-color="white"/>
</linearGradient>
<linearGradient id="paint1_linear_2678_576" x1="24.3135" y1="21.8418" x2="25.8232" y2="21.8418" gradientUnits="userSpaceOnUse">
<stop stop-color="white"/>
<stop offset="1" stop-color="white"/>
</linearGradient>
<linearGradient id="paint2_linear_2678_576" x1="27.7217" y1="31.3065" x2="37.7622" y2="31.3065" gradientUnits="userSpaceOnUse">
<stop stop-color="white"/>
<stop offset="1" stop-color="white"/>
</linearGradient>
<linearGradient id="paint3_linear_2678_576" x1="24.3135" y1="17.8889" x2="31.2947" y2="17.8889" gradientUnits="userSpaceOnUse">
<stop stop-color="white"/>
<stop offset="1" stop-color="white"/>
</linearGradient>
<linearGradient id="paint4_linear_2678_576" x1="10.9922" y1="24.115" x2="27.5686" y2="24.115" gradientUnits="userSpaceOnUse">
<stop stop-color="white"/>
<stop offset="1" stop-color="white"/>
</linearGradient>
<linearGradient id="paint5_linear_2678_576" x1="27.2002" y1="27.3317" x2="27.2247" y2="27.3317" gradientUnits="userSpaceOnUse">
<stop stop-color="white"/>
<stop offset="1" stop-color="white"/>
</linearGradient>
<linearGradient id="paint6_linear_2678_576" x1="22.9424" y1="33.1291" x2="22.9526" y2="33.1291" gradientUnits="userSpaceOnUse">
<stop stop-color="white"/>
<stop offset="1" stop-color="white"/>
</linearGradient>
<linearGradient id="paint7_linear_2678_576" x1="22.9424" y1="28.4647" x2="33.6088" y2="28.4647" gradientUnits="userSpaceOnUse">
<stop stop-color="white"/>
<stop offset="1" stop-color="white"/>
</linearGradient>
<linearGradient id="paint8_linear_2678_576" x1="10.9922" y1="27.3759" x2="39.2275" y2="27.3759" gradientUnits="userSpaceOnUse">
<stop stop-color="white"/>
<stop offset="1" stop-color="white"/>
</linearGradient>
<linearGradient id="paint9_linear_2678_576" x1="39.2217" y1="18.5249" x2="39.2259" y2="18.5249" gradientUnits="userSpaceOnUse">
<stop stop-color="white"/>
<stop offset="1" stop-color="white"/>
</linearGradient>
<linearGradient id="paint10_linear_2678_576" x1="22.9424" y1="33.1203" x2="22.9455" y2="33.1203" gradientUnits="userSpaceOnUse">
<stop stop-color="white"/>
<stop offset="1" stop-color="white"/>
</linearGradient>
</defs>
</svg>
