<svg width="71" height="25" viewBox="0 0 71 25" fill="none" xmlns="http://www.w3.org/2000/svg">
<path d="M14.0814 8.67287C11.5468 8.67287 9.56643 10.5969 9.56643 13.1727C9.56643 15.7484 11.4968 17.656 14.0814 17.656C16.666 17.656 18.63 15.7155 18.63 13.1562C18.63 10.6134 16.6996 8.67287 14.0814 8.67287ZM14.0985 15.7997C12.6552 15.7997 11.5975 14.6787 11.5975 13.1733C11.5975 11.6508 12.6381 10.5304 14.0814 10.5304C15.5419 10.5304 16.5989 11.6679 16.5989 13.1733C16.5989 14.6787 15.5419 15.7997 14.0985 15.7997ZM19.1835 10.6305H20.4425V17.4894H22.4565V8.84007H19.1835V10.6305ZM4.49789 10.5298C5.55556 10.5298 6.3947 11.1821 6.71328 12.1524H8.84506C8.45874 10.0782 6.74685 8.67287 4.51499 8.67287C1.98041 8.67287 0 10.5969 0 13.1733C0 15.7497 1.93038 17.6566 4.51499 17.6566C6.6968 17.6566 8.44226 16.2513 8.82859 14.16H6.71328C6.41118 15.1303 5.57201 15.7997 4.51437 15.7997C3.05391 15.7997 2.03044 14.6787 2.03044 13.1733C2.03108 11.6508 3.03808 10.5298 4.49789 10.5298ZM57.4504 12.3367L55.9735 12.1194C55.2687 12.0194 54.7651 11.785 54.7651 11.2328C54.7651 10.6305 55.42 10.3296 56.3092 10.3296C57.2827 10.3296 57.9039 10.7477 58.0381 11.4335H59.9851C59.7666 9.69379 58.4239 8.67349 56.3598 8.67349C54.228 8.67349 52.8183 9.76093 52.8183 11.2999C52.8183 12.7718 53.7416 13.6255 55.6043 13.8928L57.0812 14.11C57.8032 14.21 58.206 14.495 58.206 15.0302C58.206 15.7161 57.5012 16.0005 56.5277 16.0005C55.3357 16.0005 54.6645 15.5153 54.5638 14.7794H52.5833C52.7683 16.4691 54.0939 17.6566 56.5106 17.6566C58.7096 17.6566 60.1693 16.6528 60.1693 14.9295C60.1693 13.3905 59.1123 12.5875 57.4504 12.3367ZM21.4495 5.27696C20.711 5.27696 20.157 5.81212 20.157 6.54805C20.157 7.28397 20.7104 7.81914 21.4495 7.81914C22.1879 7.81914 22.7421 7.28397 22.7421 6.54805C22.7421 5.81212 22.1879 5.27696 21.4495 5.27696ZM51.0057 11.8015C51.0057 9.92811 49.8645 8.67349 47.4476 8.67349C45.1651 8.67349 43.8896 9.82806 43.6376 11.6014H45.635C45.7357 10.9155 46.2728 10.3467 47.4141 10.3467C48.4383 10.3467 48.9417 10.7983 48.9417 11.3506C48.9417 12.07 48.0182 12.2537 46.8771 12.3709C45.333 12.5381 43.4197 13.0732 43.4197 15.0809C43.4197 16.637 44.578 17.6401 46.4243 17.6401C47.8675 17.6401 48.7738 17.0379 49.2274 16.0841C49.2945 16.9372 49.9323 17.4894 50.8221 17.4894H51.9969V15.6996H51.0063V11.8015H51.0057ZM49.0252 13.9764C49.0252 15.1309 48.0182 15.984 46.7927 15.984C46.0373 15.984 45.3996 15.6661 45.3996 14.9973C45.3996 14.1442 46.4235 13.9099 47.3635 13.8098C48.2698 13.7262 48.7732 13.5254 49.0252 13.1404V13.9764ZM38.3341 8.67287C37.2093 8.67287 36.2695 9.14153 35.5982 9.92749V5.19336H33.5842V17.4894H35.5645V16.352C36.2358 17.1715 37.1929 17.6566 38.3341 17.6566C40.7508 17.6566 42.5805 15.7497 42.5805 13.1733C42.5805 10.5969 40.7173 8.67287 38.3341 8.67287ZM38.032 15.7997C36.5886 15.7997 35.531 14.6787 35.531 13.1733C35.531 11.6679 36.6052 10.5304 38.0484 10.5304C39.5089 10.5304 40.5323 11.6514 40.5323 13.1733C40.5323 14.6787 39.4752 15.7997 38.032 15.7997ZM28.767 8.67287C27.4579 8.67287 26.6017 9.20803 26.0983 9.96104V8.84007H24.1006V17.4888H26.1146V12.7882C26.1146 11.4665 26.9537 10.5298 28.1958 10.5298C29.3541 10.5298 30.0754 11.3493 30.0754 12.5374V17.4894H32.0894V12.3873C32.0902 10.2118 30.9659 8.67287 28.767 8.67287ZM69.7699 12.8889C69.7699 10.4132 67.9573 8.67349 65.5235 8.67349C62.9389 8.67349 61.0421 10.614 61.0421 13.1733C61.0421 15.8668 63.0731 17.6566 65.5571 17.6566C67.6553 17.6566 69.3 16.4185 69.7193 14.6622H67.621C67.3189 15.4317 66.5805 15.8668 65.5901 15.8668C64.2974 15.8668 63.3239 15.0638 63.106 13.6584H69.7693V12.8889H69.7699ZM63.2238 12.2195C63.5432 11.0149 64.4493 10.4297 65.49 10.4297C66.6311 10.4297 67.5039 11.082 67.7053 12.2195H63.2238Z" fill="#0052FF"/>
</svg>
