<svg width="74" height="25" viewBox="0 0 74 25" fill="none" xmlns="http://www.w3.org/2000/svg">
<g clip-path="url(#clip0_3297_6876)">
<path d="M11.6663 1.59961C5.64345 1.59961 0.760742 6.48219 0.760742 12.505C0.760742 18.5281 5.64345 23.4103 11.6663 23.4103C17.6898 23.4103 22.572 18.5281 22.572 12.505C22.572 6.48258 17.6898 1.60013 11.6662 1.60013L11.6663 1.59961ZM16.6675 17.3284C16.4722 17.6487 16.0528 17.7503 15.7325 17.5536C13.172 15.9896 9.94861 15.6354 6.15251 16.5027C5.7867 16.5861 5.42207 16.3569 5.33872 15.9909C5.25499 15.625 5.48327 15.2604 5.84999 15.177C10.0042 14.2279 13.5676 14.6366 16.4422 16.3933C16.7626 16.59 16.8642 17.008 16.6675 17.3284ZM18.0023 14.3589C17.7562 14.759 17.2327 14.8853 16.8329 14.6392C13.9015 12.8374 9.43304 12.3156 5.96576 13.368C5.51609 13.5039 5.04116 13.2504 4.90468 12.8016C4.76924 12.3519 5.02279 11.8779 5.47168 11.7411C9.43226 10.5394 14.356 11.1215 17.7223 13.1902C18.1221 13.4363 18.2485 13.9598 18.0023 14.3591V14.3589ZM18.1169 11.2668C14.6021 9.17918 8.80314 8.98723 5.44733 10.0057C4.90846 10.1692 4.33858 9.86495 4.17528 9.32607C4.01198 8.78694 4.31592 8.21746 4.85519 8.05363C8.70742 6.8842 15.1113 7.11014 19.158 9.51243C19.6437 9.8001 19.8026 10.4261 19.5148 10.9101C19.2283 11.3949 18.6006 11.5546 18.1175 11.2668H18.1169ZM30.4311 11.6669C28.5481 11.2179 28.2134 10.9027 28.2134 10.2405C28.2134 9.61492 28.802 9.19389 29.6784 9.19389C30.5275 9.19389 31.3688 9.5136 32.2517 10.1718C32.2778 10.1917 32.3116 10.1996 32.3442 10.1944C32.378 10.1895 32.4067 10.1714 32.4262 10.1442L33.3456 8.84814C33.3834 8.79475 33.373 8.72117 33.3222 8.68041C32.2712 7.83746 31.0888 7.42763 29.7058 7.42763C27.673 7.42763 26.2522 8.64772 26.2522 10.3934C26.2522 12.2654 27.4776 12.9283 29.5951 13.4399C31.3961 13.855 31.7009 14.2027 31.7009 14.8241C31.7009 15.513 31.0862 15.9414 30.0965 15.9414C28.9974 15.9414 28.1001 15.5703 27.0974 14.703C27.0726 14.6809 27.0387 14.6717 27.0075 14.673C26.9736 14.6756 26.9437 14.6913 26.9228 14.716L25.8915 15.9427C25.8485 15.9948 25.8537 16.0704 25.9032 16.1146C27.07 17.1565 28.5051 17.706 30.0548 17.706C32.2452 17.706 33.6608 16.5092 33.6608 14.6561C33.6647 13.0925 32.7283 12.2265 30.4351 11.6686L30.4311 11.6669ZM38.6172 9.80986C37.6678 9.80986 36.8891 10.1839 36.2458 10.9503V10.0876C36.2458 10.0195 36.1911 9.96405 36.1233 9.96405H34.4369C34.3692 9.96405 34.3145 10.0195 34.3145 10.0876V19.6724C34.3145 19.7402 34.3692 19.7962 34.4369 19.7962H36.1233C36.1911 19.7962 36.2458 19.7402 36.2458 19.6724V16.6473C36.8891 17.3674 37.6678 17.7203 38.6172 17.7203C40.3818 17.7203 42.1685 16.3621 42.1685 13.7655C42.1711 11.1684 40.3844 9.80973 38.6185 9.80973L38.6172 9.80986ZM40.2073 13.7655C40.2073 15.0872 39.3933 16.0105 38.2265 16.0105C37.074 16.0105 36.2041 15.0455 36.2041 13.7655C36.2041 12.4854 37.074 11.5206 38.2265 11.5206C39.3738 11.5205 40.2073 12.4644 40.2073 13.7654V13.7655ZM46.7459 9.80986C44.4735 9.80986 42.6933 11.5596 42.6933 13.7938C42.6933 16.004 44.4618 17.7347 46.7186 17.7347C48.9988 17.7347 50.7842 15.9909 50.7842 13.7655C50.7842 11.5476 49.0106 9.81013 46.7459 9.81013V9.80986ZM46.7459 16.0235C45.5374 16.0235 44.6258 15.052 44.6258 13.7648C44.6258 12.4718 45.5062 11.5335 46.7186 11.5335C47.9349 11.5335 48.8517 12.5046 48.8517 13.7931C48.8517 15.0859 47.9661 16.0235 46.7459 16.0235ZM55.6365 9.96405H53.7808V8.06717C53.7808 7.9992 53.7261 7.94372 53.6583 7.94372H51.9719C51.9042 7.94372 51.8482 7.9992 51.8482 8.06717V9.96405H51.0382C50.9705 9.96405 50.9158 10.0195 50.9158 10.0876V11.5367C50.9158 11.6046 50.9705 11.6603 51.0382 11.6603H51.8482V15.4101C51.8482 16.9247 52.6022 17.693 54.0907 17.693C54.6949 17.693 55.1963 17.568 55.669 17.2997C55.7081 17.2789 55.7315 17.2372 55.7315 17.1929V15.8125C55.7315 15.7709 55.7094 15.7305 55.6729 15.7083C55.6365 15.6849 55.5909 15.6836 55.5531 15.7031C55.2289 15.8659 54.915 15.9414 54.5634 15.9414C54.023 15.9414 53.7808 15.6953 53.7808 15.1458V11.6609H55.6365C55.7042 11.6609 55.7589 11.6054 55.7589 11.5373V10.0884C55.7615 10.0203 55.7068 9.96483 55.6378 9.96483L55.6365 9.96405ZM62.1009 9.97148V9.7385C62.1009 9.05312 62.364 8.74748 62.9526 8.74748C63.3042 8.74748 63.5868 8.81728 63.9033 8.92276C63.9423 8.935 63.9827 8.92888 64.014 8.90557C64.0465 8.88226 64.0647 8.84489 64.0647 8.8053V7.38453C64.0647 7.33022 64.0309 7.28217 63.9775 7.26615C63.6441 7.16679 63.217 7.06482 62.5762 7.06482C61.02 7.06482 60.1957 7.94177 60.1957 9.59994V9.95676H59.3857C59.318 9.95676 59.262 10.0122 59.262 10.0802V11.5367C59.262 11.6046 59.318 11.6603 59.3857 11.6603H60.1957V17.443C60.1957 17.512 60.2517 17.5667 60.3194 17.5667H62.0046C62.0736 17.5667 62.1283 17.512 62.1283 17.443V11.6606H63.7027L66.1145 17.443C65.841 18.0498 65.5715 18.1709 65.2042 18.1709C64.9073 18.1709 64.5935 18.0824 64.2744 17.9066C64.2444 17.8909 64.208 17.8883 64.1767 17.8974C64.1442 17.9092 64.1168 17.9326 64.1038 17.9639L63.5321 19.2179C63.5048 19.2778 63.5282 19.3469 63.5855 19.3781C64.1819 19.7011 64.7198 19.8391 65.3852 19.8391C66.6302 19.8391 67.3191 19.2583 67.9247 17.6982L70.8495 10.1402C70.8652 10.1022 70.86 10.0592 70.8365 10.0255C70.8144 9.99205 70.7766 9.97187 70.7362 9.97187H68.9808C68.9274 9.97187 68.8805 10.0053 68.8636 10.0547L67.0652 15.19L65.0961 10.0513C65.0779 10.0035 65.0323 9.97187 64.9815 9.97187H62.1009V9.97148ZM58.353 9.96405H56.6666C56.5989 9.96405 56.5429 10.0195 56.5429 10.0876V17.443C56.5429 17.512 56.5989 17.5667 56.6666 17.5667H58.353C58.4207 17.5667 58.4767 17.512 58.4767 17.443V10.0882C58.4767 10.0201 58.422 9.96457 58.353 9.96457V9.96405ZM57.5196 6.61476C56.8515 6.61476 56.3098 7.15546 56.3098 7.82339C56.3098 8.49171 56.8515 9.03306 57.5196 9.03306C58.1876 9.03306 58.7281 8.49171 58.7281 7.82339C58.7281 7.15559 58.1863 6.61476 57.5196 6.61476ZM72.2898 12.3291C71.6231 12.3291 71.1035 11.7932 71.1035 11.1425C71.1035 10.4917 71.6296 9.94973 72.2964 9.94973C72.9631 9.94973 73.4827 10.4855 73.4827 11.1357C73.4827 11.7864 72.9566 12.3291 72.2898 12.3291ZM72.2964 10.0677C71.6882 10.0677 71.2285 10.5509 71.2285 11.1425C71.2285 11.7338 71.6856 12.2105 72.2898 12.2105C72.898 12.2105 73.3577 11.7277 73.3577 11.1357C73.3577 10.5443 72.9006 10.0677 72.2964 10.0677ZM72.5594 11.2577L72.8954 11.7276H72.6115L72.3094 11.2965H72.0502V11.7276H71.8132V10.4821H72.368C72.6584 10.4821 72.8485 10.6302 72.8485 10.8794C72.8498 11.0836 72.7313 11.2084 72.5607 11.2577H72.5594ZM72.3589 10.6958H72.0502V11.0897H72.3589C72.5125 11.0897 72.605 11.0143 72.605 10.8926C72.605 10.7644 72.5125 10.6958 72.3589 10.6958Z" fill="#1ED760"/>
</g>
<defs>
<clipPath id="clip0_3297_6876">
<rect width="72.7024" height="24.9265" fill="white" transform="translate(0.723633)"/>
</clipPath>
</defs>
</svg>
