<svg width="150" height="49" viewBox="0 0 150 49" fill="none" xmlns="http://www.w3.org/2000/svg">
<circle cx="24.5" cy="24.5" r="23.5" fill="#0E1681" stroke="#0E1681" stroke-width="2"/>
<path d="M21.1875 26.5775L23.822 19.9053L21.188 26.5775H21.1875Z" fill="url(#paint0_linear_2628_1386)"/>
<path d="M25.3232 23.7781L25.3229 23.7783L23.8135 19.9053L25.3232 23.7779V23.7781Z" fill="url(#paint1_linear_2628_1386)"/>
<path d="M33.1234 26.3838C33.1234 26.3838 31.7648 26.5837 29.9128 27.323C29.0883 27.6519 28.1658 28.0881 27.2217 28.661L30.1529 36.2292H37.2622L33.1234 26.3838Z" fill="url(#paint2_linear_2628_1386)"/>
<path d="M30.7947 20.884C28.8966 21.72 27.0624 22.7098 25.3232 23.7775C25.3232 23.7777 25.3229 23.7777 25.3229 23.7777L23.8135 19.9047L27.0601 12L30.7947 20.884Z" fill="url(#paint3_linear_2628_1386)"/>
<path d="M27.0686 12L23.8218 19.9049L21.1878 26.5771H21.1875C14.8055 31.2774 10.4922 36.23 10.4922 36.23L20.6774 12H27.0686Z" fill="url(#paint4_linear_2628_1386)"/>
<path d="M26.7002 27.3373V27.3422C26.71 27.3348 26.7173 27.3287 26.7247 27.3213L26.7002 27.3373Z" fill="url(#paint5_linear_2628_1386)"/>
<path d="M22.4424 33.1399C22.4462 33.1335 22.4488 33.1246 22.4526 33.1182C22.4488 33.1246 22.4475 33.1323 22.4462 33.1348C22.4449 33.1374 22.4424 33.1399 22.4424 33.1399Z" fill="url(#paint6_linear_2628_1386)"/>
<path d="M32.5019 24.9421L32.035 23.8309L32.0266 23.8105C32.0266 23.8105 29.3575 24.9378 26.6949 27.3249C26.6937 27.3261 26.692 27.3275 26.6904 27.3289C25.0708 28.7818 23.4542 30.7013 22.4431 33.117C22.4429 33.1177 22.4424 33.1182 22.4424 33.1189C23.8195 31.1016 25.5466 29.6702 27.2071 28.6627C30.2709 26.8035 33.1088 26.3857 33.1088 26.3857L32.5017 24.9418L32.5019 24.9421Z" fill="url(#paint7_linear_2628_1386)"/>
<path d="M38.7273 18.5244C36.2756 19.4506 34.0822 20.4957 32.1235 21.6045C29.2761 23.2159 26.926 24.9604 25.0051 26.6644C19.4227 31.617 17.4644 36.2275 17.4644 36.2275H10.4922C10.4922 36.2275 14.8058 31.2749 21.1878 26.5751C21.1878 26.5751 21.188 26.5751 21.188 26.5749C21.5947 26.2757 22.0097 25.9771 22.4324 25.681C23.3629 25.0294 24.3314 24.3893 25.3315 23.7754C25.3315 23.7754 25.3317 23.7754 25.3317 23.7752C27.0709 22.7072 28.9049 21.7177 30.8032 20.8818C33.3566 19.7564 36.0245 18.9095 38.7275 18.5247L38.7273 18.5244Z" fill="url(#paint8_linear_2628_1386)"/>
<path d="M38.7217 18.5255L38.7259 18.5244L38.7217 18.5255Z" fill="url(#paint9_linear_2628_1386)"/>
<path d="M22.4455 33.1182L22.4424 33.1224L22.4455 33.1182Z" fill="url(#paint10_linear_2628_1386)"/>
<path d="M57.33 36.5L65.04 14.15H70.32L78.03 36.5H73.59L72 31.7H63.36L61.74 36.5H57.33ZM64.53 28.1H70.83L67.68 18.68L64.53 28.1ZM87.1915 36.86C85.6115 36.86 84.2015 36.49 82.9615 35.75C81.7215 34.99 80.7415 33.97 80.0215 32.69C79.3015 31.39 78.9415 29.94 78.9415 28.34C78.9415 26.74 79.3015 25.3 80.0215 24.02C80.7415 22.72 81.7215 21.7 82.9615 20.96C84.2215 20.2 85.6215 19.82 87.1615 19.82C89.2815 19.82 90.9515 20.49 92.1715 21.83V13.79H96.1015V36.5H92.3815V34.7C91.7815 35.4 91.0315 35.94 90.1315 36.32C89.2315 36.68 88.2515 36.86 87.1915 36.86ZM87.6115 33.26C88.4915 33.26 89.2715 33.05 89.9515 32.63C90.6515 32.21 91.1915 31.63 91.5715 30.89C91.9715 30.15 92.1715 29.3 92.1715 28.34C92.1715 27.38 91.9715 26.53 91.5715 25.79C91.1915 25.05 90.6515 24.47 89.9515 24.05C89.2715 23.63 88.4915 23.42 87.6115 23.42C86.7315 23.42 85.9415 23.64 85.2415 24.08C84.5415 24.5 83.9915 25.08 83.5915 25.82C83.2115 26.56 83.0215 27.4 83.0215 28.34C83.0215 29.28 83.2115 30.13 83.5915 30.89C83.9915 31.63 84.5415 32.21 85.2415 32.63C85.9415 33.05 86.7315 33.26 87.6115 33.26ZM104.678 36.5L98.2577 20.18H102.548L106.418 30.83L110.288 20.18H114.578L108.158 36.5H104.678ZM116.75 18.35V14.15H120.68V18.35H116.75ZM116.75 36.5V20.18H120.68V36.5H116.75ZM130.519 36.86C128.779 36.86 127.259 36.44 125.959 35.6C124.679 34.76 123.799 33.64 123.319 32.24L126.259 30.83C126.699 31.75 127.289 32.47 128.029 32.99C128.769 33.51 129.599 33.77 130.519 33.77C131.219 33.77 131.779 33.62 132.199 33.32C132.639 33 132.859 32.57 132.859 32.03C132.859 31.57 132.669 31.21 132.289 30.95C131.929 30.67 131.489 30.46 130.969 30.32L128.299 29.57C126.919 29.17 125.869 28.56 125.149 27.74C124.449 26.92 124.099 25.95 124.099 24.83C124.099 23.83 124.349 22.96 124.849 22.22C125.369 21.46 126.079 20.87 126.979 20.45C127.899 20.03 128.949 19.82 130.129 19.82C131.669 19.82 133.029 20.2 134.209 20.96C135.389 21.7 136.229 22.73 136.729 24.05L133.729 25.46C133.469 24.72 132.999 24.13 132.319 23.69C131.659 23.25 130.919 23.03 130.099 23.03C129.439 23.03 128.919 23.18 128.539 23.48C128.159 23.78 127.969 24.17 127.969 24.65C127.969 25.11 128.149 25.47 128.509 25.73C128.869 25.99 129.329 26.2 129.889 26.36L132.499 27.14C133.859 27.52 134.899 28.12 135.619 28.94C136.339 29.76 136.699 30.74 136.699 31.88C136.699 32.86 136.439 33.73 135.919 34.49C135.399 35.23 134.679 35.81 133.759 36.23C132.839 36.65 131.759 36.86 130.519 36.86ZM139.719 36.5V20.18H143.409V22.49C143.829 21.55 144.419 20.9 145.179 20.54C145.939 20.18 146.819 20 147.819 20H148.779V23.48H147.369C146.269 23.48 145.369 23.83 144.669 24.53C143.989 25.21 143.649 26.17 143.649 27.41V36.5H139.719Z" fill="#03163B"/>
<defs>
<linearGradient id="paint0_linear_2628_1386" x1="21.1875" y1="23.2414" x2="23.822" y2="23.2414" gradientUnits="userSpaceOnUse">
<stop stop-color="white"/>
<stop offset="1" stop-color="white"/>
</linearGradient>
<linearGradient id="paint1_linear_2628_1386" x1="23.8135" y1="21.8418" x2="25.3232" y2="21.8418" gradientUnits="userSpaceOnUse">
<stop stop-color="white"/>
<stop offset="1" stop-color="white"/>
</linearGradient>
<linearGradient id="paint2_linear_2628_1386" x1="27.2217" y1="31.3065" x2="37.2622" y2="31.3065" gradientUnits="userSpaceOnUse">
<stop stop-color="white"/>
<stop offset="1" stop-color="white"/>
</linearGradient>
<linearGradient id="paint3_linear_2628_1386" x1="23.8135" y1="17.8889" x2="30.7947" y2="17.8889" gradientUnits="userSpaceOnUse">
<stop stop-color="white"/>
<stop offset="1" stop-color="white"/>
</linearGradient>
<linearGradient id="paint4_linear_2628_1386" x1="10.4922" y1="24.115" x2="27.0686" y2="24.115" gradientUnits="userSpaceOnUse">
<stop stop-color="white"/>
<stop offset="1" stop-color="white"/>
</linearGradient>
<linearGradient id="paint5_linear_2628_1386" x1="26.7002" y1="27.3317" x2="26.7247" y2="27.3317" gradientUnits="userSpaceOnUse">
<stop stop-color="white"/>
<stop offset="1" stop-color="white"/>
</linearGradient>
<linearGradient id="paint6_linear_2628_1386" x1="22.4424" y1="33.1291" x2="22.4526" y2="33.1291" gradientUnits="userSpaceOnUse">
<stop stop-color="white"/>
<stop offset="1" stop-color="white"/>
</linearGradient>
<linearGradient id="paint7_linear_2628_1386" x1="22.4424" y1="28.4647" x2="33.1088" y2="28.4647" gradientUnits="userSpaceOnUse">
<stop stop-color="white"/>
<stop offset="1" stop-color="white"/>
</linearGradient>
<linearGradient id="paint8_linear_2628_1386" x1="10.4922" y1="27.3759" x2="38.7275" y2="27.3759" gradientUnits="userSpaceOnUse">
<stop stop-color="white"/>
<stop offset="1" stop-color="white"/>
</linearGradient>
<linearGradient id="paint9_linear_2628_1386" x1="38.7217" y1="18.5249" x2="38.7259" y2="18.5249" gradientUnits="userSpaceOnUse">
<stop stop-color="white"/>
<stop offset="1" stop-color="white"/>
</linearGradient>
<linearGradient id="paint10_linear_2628_1386" x1="22.4424" y1="33.1203" x2="22.4455" y2="33.1203" gradientUnits="userSpaceOnUse">
<stop stop-color="white"/>
<stop offset="1" stop-color="white"/>
</linearGradient>
</defs>
</svg>
