<svg width="110" height="110" viewBox="0 0 110 110" fill="none" xmlns="http://www.w3.org/2000/svg">
<path fill-rule="evenodd" clip-rule="evenodd" d="M50.292 63.1963C47.8303 61.4313 45.0844 59.9283 42.5006 58.3546C40.9248 57.3949 39.421 55.7907 37.7498 55C31.4511 66.0896 25.0141 77.1854 19.7988 88.7891C23.7003 87.3957 28.5342 85.6042 31.893 83.2808C32.6715 87.5312 34.3156 91.5319 35.3461 95.7C39.5471 84.316 46.2395 73.9405 50.5989 62.6198" fill="#F6F4FC"/>
<path d="M50.292 63.1963C47.8303 61.4313 45.0844 59.9283 42.5006 58.3546C40.9248 57.3949 39.421 55.7907 37.7498 55C31.4511 66.0896 25.0141 77.1854 19.7988 88.7891C23.7003 87.3957 28.5342 85.6042 31.893 83.2808C32.6715 87.5312 34.3156 91.5319 35.3461 95.7C39.5471 84.316 46.2395 73.9405 50.5989 62.6198" stroke="#41D8A5" stroke-width="3" stroke-miterlimit="1.5" stroke-linecap="round" stroke-linejoin="round"/>
<path fill-rule="evenodd" clip-rule="evenodd" d="M71.8785 57.1992C68.7955 59.2032 63.7639 62.2956 60.501 63.9997C62.093 69.6589 71.2254 91.1109 73.8301 95.6992C74.701 90.95 75.5586 86.1246 76.5662 81.4014C81.1676 83.7836 85.2425 85.5472 90.201 88.7194C89.1012 86.4132 75.2476 62.517 71.8785 57.1992Z" fill="#F6F4FC" stroke="#41D8A5" stroke-width="3" stroke-miterlimit="1.5" stroke-linecap="round" stroke-linejoin="round"/>
<path fill-rule="evenodd" clip-rule="evenodd" d="M70.2267 21.0794C68.2422 20.9758 66.2163 21.6784 64.8571 23.2209C66.063 20.3605 63.5672 16.4327 61.1311 15.0962C56.8933 12.7708 49.8951 15.811 49.4041 20.7537C45.4981 13.363 34.7063 16.933 35.1504 25.136C34.4879 24.7224 33.8454 24.4637 33.0956 24.2105C26.1919 21.8778 22.0169 32.0613 26.5505 36.6775C20.5769 38.367 18.2833 48.7059 24.9471 51.0956C17.8712 54.9202 22.4974 68.3977 30.8035 65.7027C30.253 68.0397 30.1375 70.9187 31.4516 73.0395C33.5834 76.4802 39.0786 78.057 42.4015 75.254C42.3462 82.3871 53.0242 83.4317 55.9524 77.7593C60.9109 84.0781 70.4306 81.6418 71.1289 73.369C72.7817 73.9572 74.6591 74.4656 76.4065 74.02C81.8362 72.6347 84.2511 66.0993 81.496 61.493C87.8654 60.5602 91.7287 49.4443 82.5761 45.3909C85.9388 42.6199 86.4167 37.8902 83.3881 33.6174C81.7897 31.3619 78.0853 30.9038 75.8703 31.2725C76.8495 28.794 76.9431 26.0259 75.3475 23.7756" fill="#F6F4FC"/>
<path d="M70.2267 21.0794C68.2422 20.9758 66.2163 21.6784 64.8571 23.2209C66.063 20.3605 63.5672 16.4327 61.1311 15.0962C56.8933 12.7708 49.8951 15.811 49.4041 20.7537C45.4981 13.363 34.7063 16.933 35.1504 25.136C34.4879 24.7224 33.8454 24.4637 33.0956 24.2105C26.1919 21.8778 22.0169 32.0613 26.5505 36.6775C20.5769 38.367 18.2833 48.7059 24.9471 51.0956C17.8712 54.9202 22.4974 68.3977 30.8035 65.7027C30.253 68.0397 30.1375 70.9187 31.4516 73.0395C33.5834 76.4802 39.0786 78.057 42.4015 75.254C42.3462 82.3871 53.0242 83.4317 55.9524 77.7593C60.9109 84.0781 70.4306 81.6418 71.1289 73.369C72.7817 73.9572 74.6591 74.4656 76.4065 74.02C81.8362 72.6347 84.2511 66.0993 81.496 61.493C87.8654 60.5602 91.7287 49.4443 82.5761 45.3909C85.9388 42.6199 86.4167 37.8902 83.3882 33.6174C81.7897 31.3619 78.0853 30.9038 75.8703 31.2725C76.8495 28.794 76.9431 26.0259 75.3475 23.7756" stroke="#41D8A5" stroke-width="3" stroke-miterlimit="1.5" stroke-linecap="round" stroke-linejoin="round"/>
<path d="M59.6065 26.8262C49.7336 22.2272 36.1075 28.5492 32.5587 38.8037C28.4058 50.8044 31.4091 63.3109 43.7286 69.0999C52.8352 73.3793 64.5373 71.9566 71.6837 64.6819C82.6187 53.5503 78.8993 36.037 65.6682 29.5" stroke="#41D8A5" stroke-width="3" stroke-miterlimit="1.5" stroke-linecap="round" stroke-linejoin="round"/>
<path d="M47.2988 42.8992C50.0757 40.7129 52.5862 38.268 53.8988 35.1992" stroke="#41D8A5" stroke-width="3" stroke-miterlimit="1.5" stroke-linecap="round" stroke-linejoin="round"/>
<path fill-rule="evenodd" clip-rule="evenodd" d="M53.9493 36.3008C53.7364 43.2666 54.305 50.2431 54.0232 57.2008L53.9493 36.3008Z" fill="#F6F4FC"/>
<path d="M53.9493 36.3008C53.7364 43.2666 54.305 50.2431 54.0232 57.2008" stroke="#41D8A5" stroke-width="3" stroke-miterlimit="1.5" stroke-linecap="round" stroke-linejoin="round"/>
</svg>
