<svg width="49" height="49" viewBox="0 0 49 49" fill="none" xmlns="http://www.w3.org/2000/svg">
<circle cx="24.5" cy="24.5" r="24.5" fill="#08CE8A"/>
<path d="M21.1875 26.5765L23.822 19.9043L21.188 26.5765H21.1875Z" fill="white"/>
<path d="M25.3232 23.7771L25.3229 23.7774L23.8135 19.9043L25.3232 23.7769V23.7771Z" fill="white"/>
<path d="M33.1234 26.3848C33.1234 26.3848 31.7648 26.5847 29.9128 27.324C29.0883 27.6529 28.1658 28.089 27.2217 28.662L30.1529 36.2302H37.2622L33.1234 26.3848Z" fill="white"/>
<path d="M30.7947 20.884C28.8966 21.72 27.0624 22.7098 25.3232 23.7775C25.3232 23.7777 25.3229 23.7777 25.3229 23.7777L23.8135 19.9047L27.0601 12L30.7947 20.884Z" fill="white"/>
<path d="M27.0686 12L23.8218 19.9049L21.1878 26.5771H21.1875C14.8055 31.2774 10.4922 36.23 10.4922 36.23L20.6774 12H27.0686Z" fill="white"/>
<path d="M26.7002 27.3363V27.3412C26.71 27.3338 26.7173 27.3277 26.7247 27.3203L26.7002 27.3363Z" fill="white"/>
<path d="M22.4424 33.1409C22.4462 33.1345 22.4488 33.1255 22.4526 33.1191C22.4488 33.1255 22.4475 33.1332 22.4462 33.1358C22.4449 33.1384 22.4424 33.1409 22.4424 33.1409Z" fill="white"/>
<path d="M32.5019 24.9421L32.035 23.8309L32.0266 23.8105C32.0266 23.8105 29.3575 24.9378 26.6949 27.3249C26.6937 27.3261 26.692 27.3275 26.6904 27.3289C25.0708 28.7818 23.4542 30.7013 22.4431 33.117C22.4429 33.1177 22.4424 33.1182 22.4424 33.1189C23.8195 31.1016 25.5466 29.6702 27.2071 28.6627C30.2709 26.8035 33.1088 26.3857 33.1088 26.3857L32.5017 24.9418L32.5019 24.9421Z" fill="white"/>
<path d="M38.7273 18.5254C36.2756 19.4516 34.0822 20.4967 32.1235 21.6055C29.2761 23.2169 26.926 24.9613 25.0051 26.6654C19.4227 31.618 17.4644 36.2285 17.4644 36.2285H10.4922C10.4922 36.2285 14.8058 31.2759 21.1878 26.5761C21.1878 26.5761 21.188 26.5761 21.188 26.5758C21.5947 26.2767 22.0097 25.978 22.4324 25.682C23.3629 25.0303 24.3314 24.3903 25.3315 23.7764C25.3315 23.7764 25.3317 23.7764 25.3317 23.7762C27.0709 22.7082 28.9049 21.7187 30.8032 20.8827C33.3566 19.7573 36.0245 18.9105 38.7275 18.5256L38.7273 18.5254Z" fill="white"/>
<path d="M38.7217 18.5264L38.7259 18.5254L38.7217 18.5264Z" fill="white"/>
<path d="M22.4455 33.1191L22.4424 33.1234L22.4455 33.1191Z" fill="white"/>
</svg>
