<svg width="50" height="49" viewBox="0 0 50 49" fill="none" xmlns="http://www.w3.org/2000/svg">
<circle cx="25" cy="24.5" r="23.5" fill="#2BB19A" stroke="#2BB19A" stroke-width="2"/>
<path d="M21.6875 26.5775L24.322 19.9053L21.688 26.5775H21.6875Z" fill="url(#paint0_linear_2678_577)"/>
<path d="M25.8232 23.7781L25.8229 23.7783L24.3135 19.9053L25.8232 23.7779V23.7781Z" fill="url(#paint1_linear_2678_577)"/>
<path d="M33.6234 26.3838C33.6234 26.3838 32.2648 26.5837 30.4128 27.323C29.5883 27.6519 28.6658 28.0881 27.7217 28.661L30.6529 36.2292H37.7622L33.6234 26.3838Z" fill="url(#paint2_linear_2678_577)"/>
<path d="M31.2947 20.884C29.3966 21.72 27.5624 22.7098 25.8232 23.7775C25.8232 23.7777 25.8229 23.7777 25.8229 23.7777L24.3135 19.9047L27.5601 12L31.2947 20.884Z" fill="url(#paint3_linear_2678_577)"/>
<path d="M27.5686 12L24.3218 19.9049L21.6878 26.5771H21.6875C15.3055 31.2774 10.9922 36.23 10.9922 36.23L21.1774 12H27.5686Z" fill="url(#paint4_linear_2678_577)"/>
<path d="M27.2002 27.3373V27.3422C27.21 27.3348 27.2173 27.3287 27.2247 27.3213L27.2002 27.3373Z" fill="url(#paint5_linear_2678_577)"/>
<path d="M22.9424 33.1399C22.9462 33.1335 22.9488 33.1246 22.9526 33.1182C22.9488 33.1246 22.9475 33.1323 22.9462 33.1348C22.9449 33.1374 22.9424 33.1399 22.9424 33.1399Z" fill="url(#paint6_linear_2678_577)"/>
<path d="M33.0019 24.9421L32.535 23.8309L32.5266 23.8105C32.5266 23.8105 29.8575 24.9378 27.1949 27.3249C27.1937 27.3261 27.192 27.3275 27.1904 27.3289C25.5708 28.7818 23.9542 30.7013 22.9431 33.117C22.9429 33.1177 22.9424 33.1182 22.9424 33.1189C24.3195 31.1016 26.0466 29.6702 27.7071 28.6627C30.7709 26.8035 33.6088 26.3857 33.6088 26.3857L33.0017 24.9418L33.0019 24.9421Z" fill="url(#paint7_linear_2678_577)"/>
<path d="M39.2273 18.5244C36.7756 19.4506 34.5822 20.4957 32.6235 21.6045C29.7761 23.2159 27.426 24.9604 25.5051 26.6644C19.9227 31.617 17.9644 36.2275 17.9644 36.2275H10.9922C10.9922 36.2275 15.3058 31.2749 21.6878 26.5751C21.6878 26.5751 21.688 26.5751 21.688 26.5749C22.0947 26.2757 22.5097 25.9771 22.9324 25.681C23.8629 25.0294 24.8314 24.3893 25.8315 23.7754C25.8315 23.7754 25.8317 23.7754 25.8317 23.7752C27.5709 22.7072 29.4049 21.7177 31.3032 20.8818C33.8566 19.7564 36.5245 18.9095 39.2275 18.5247L39.2273 18.5244Z" fill="url(#paint8_linear_2678_577)"/>
<path d="M39.2217 18.5255L39.2259 18.5244Z" fill="url(#paint9_linear_2678_577)"/>
<path d="M22.9455 33.1182L22.9424 33.1224Z" fill="url(#paint10_linear_2678_577)"/>
<defs>
<linearGradient id="paint0_linear_2678_577" x1="21.6875" y1="23.2414" x2="24.322" y2="23.2414" gradientUnits="userSpaceOnUse">
<stop stop-color="white"/>
<stop offset="1" stop-color="white"/>
</linearGradient>
<linearGradient id="paint1_linear_2678_577" x1="24.3135" y1="21.8418" x2="25.8232" y2="21.8418" gradientUnits="userSpaceOnUse">
<stop stop-color="white"/>
<stop offset="1" stop-color="white"/>
</linearGradient>
<linearGradient id="paint2_linear_2678_577" x1="27.7217" y1="31.3065" x2="37.7622" y2="31.3065" gradientUnits="userSpaceOnUse">
<stop stop-color="white"/>
<stop offset="1" stop-color="white"/>
</linearGradient>
<linearGradient id="paint3_linear_2678_577" x1="24.3135" y1="17.8889" x2="31.2947" y2="17.8889" gradientUnits="userSpaceOnUse">
<stop stop-color="white"/>
<stop offset="1" stop-color="white"/>
</linearGradient>
<linearGradient id="paint4_linear_2678_577" x1="10.9922" y1="24.115" x2="27.5686" y2="24.115" gradientUnits="userSpaceOnUse">
<stop stop-color="white"/>
<stop offset="1" stop-color="white"/>
</linearGradient>
<linearGradient id="paint5_linear_2678_577" x1="27.2002" y1="27.3317" x2="27.2247" y2="27.3317" gradientUnits="userSpaceOnUse">
<stop stop-color="white"/>
<stop offset="1" stop-color="white"/>
</linearGradient>
<linearGradient id="paint6_linear_2678_577" x1="22.9424" y1="33.1291" x2="22.9526" y2="33.1291" gradientUnits="userSpaceOnUse">
<stop stop-color="white"/>
<stop offset="1" stop-color="white"/>
</linearGradient>
<linearGradient id="paint7_linear_2678_577" x1="22.9424" y1="28.4647" x2="33.6088" y2="28.4647" gradientUnits="userSpaceOnUse">
<stop stop-color="white"/>
<stop offset="1" stop-color="white"/>
</linearGradient>
<linearGradient id="paint8_linear_2678_577" x1="10.9922" y1="27.3759" x2="39.2275" y2="27.3759" gradientUnits="userSpaceOnUse">
<stop stop-color="white"/>
<stop offset="1" stop-color="white"/>
</linearGradient>
<linearGradient id="paint9_linear_2678_577" x1="39.2217" y1="18.5249" x2="39.2259" y2="18.5249" gradientUnits="userSpaceOnUse">
<stop stop-color="white"/>
<stop offset="1" stop-color="white"/>
</linearGradient>
<linearGradient id="paint10_linear_2678_577" x1="22.9424" y1="33.1203" x2="22.9455" y2="33.1203" gradientUnits="userSpaceOnUse">
<stop stop-color="white"/>
<stop offset="1" stop-color="white"/>
</linearGradient>
</defs>
</svg>
